# Blender 4.2.3 LTS
# www.blender.org
mtllib rocks3.mtl
o Cube
o Sphere
v -0.442819 0.274058 -1.892792
v -0.502729 0.579799 -1.792714
v -0.530366 0.120277 -0.799201
v 0.264505 1.159872 -1.148908
v -0.159400 0.410435 -1.907296
v -0.069212 1.979866 -0.482510
v 0.140012 0.240848 -1.654009
v 0.353471 0.168062 -1.341699
v 0.001334 2.192640 -0.081946
v 0.430299 0.692558 -1.474078
v 0.249687 0.367372 -1.650445
v 0.528343 1.029184 -1.120783
v 1.483195 0.255811 -1.338669
v -0.164026 2.300715 0.413280
v 0.803755 1.128777 -0.686289
v 1.389277 0.486983 -1.257337
v 1.548708 0.313517 -1.085946
v 1.455829 0.152408 -1.269017
v 0.169582 0.163869 -0.518258
v 0.679605 1.687646 -0.337027
v 1.391810 0.497164 -0.644228
v 1.374918 0.149053 -0.622636
v 1.061337 0.085535 -0.622189
v 0.523416 1.972401 -0.049858
v 1.176967 1.013497 -0.187872
v 1.538026 0.110056 -0.062402
v 1.752518 0.544517 0.158895
v 1.555905 0.332331 -0.211463
v 0.431831 2.028889 0.325344
v 0.909315 1.492592 0.143625
v 2.002389 0.153710 0.313833
v 1.640911 0.009318 0.423518
v 1.035323 -0.015909 -0.161491
v 1.493901 0.903873 0.420252
v 1.928590 0.586345 0.516325
v 2.033964 0.315580 0.583307
v 0.274937 0.005741 0.116431
v 0.618126 1.654648 0.476257
v 1.920113 0.148749 0.589338
v 0.996139 0.010369 0.622589
v -0.075441 2.236102 0.609562
v 1.567225 0.408675 1.073557
v 0.793438 1.110543 0.826060
v 1.025580 0.025972 1.370270
v 0.109479 2.101398 0.640008
v 0.301020 1.681139 0.692725
v 0.300999 0.326752 1.736588
v 0.489987 0.213196 1.621894
v 0.401570 0.256877 1.009640
v -0.187728 2.129619 0.664626
v -0.155422 1.718933 0.742457
v -0.504011 0.270746 2.403179
v -0.312255 -0.000316 2.166010
v -0.155480 1.203186 0.990127
v -0.355254 0.956833 1.254080
v -0.810859 0.439173 1.788174
v -0.722378 0.175434 1.728197
v 0.130759 0.209613 1.505435
v 0.319039 0.061032 0.430457
v -0.375044 1.754597 0.653270
v -1.582621 0.257512 1.080153
v -1.675924 0.033354 0.661989
v -0.181219 0.199683 1.058625
v -1.115044 0.986928 0.870689
v -1.925558 0.248092 0.950673
v -0.652680 1.627376 0.499616
v -1.071707 1.080271 0.333734
v -2.061912 0.205979 0.131218
v -0.058772 0.048091 -0.060281
v -0.785128 1.548195 0.236816
v -2.128948 0.379471 0.061323
v -0.665790 1.963428 0.174409
v -1.554419 0.610703 -0.392931
v -1.904190 0.269303 -0.236082
v -0.852574 0.006801 0.190181
v -0.344592 2.250086 0.508422
v -0.862636 1.198213 -0.101124
v -1.570167 0.154575 -0.211416
v -0.696597 1.535295 -0.158255
v -0.533463 1.572778 -0.374080
v -0.488692 2.193222 0.148495
v -0.563068 2.027498 -0.077098
v -1.484194 0.537957 -0.827362
v -1.576616 0.285976 -0.815796
v -1.431631 0.161338 -0.817348
v -0.968701 0.584297 -1.379887
v -1.421152 0.201954 -1.024689
v -0.280630 0.130438 -0.288134
v -0.185719 1.282046 -0.883022
v -0.766575 0.335261 -1.677822
vn -0.1802 0.2739 -0.9447
vn 0.2644 -0.6273 -0.7325
vn 0.0516 -0.9642 -0.2600
vn 0.3850 0.6714 -0.6333
vn -0.0904 -0.9956 -0.0253
vn 0.2626 -0.2011 -0.9437
vn 0.3649 0.7941 -0.4861
vn 0.2974 0.6487 -0.7006
vn 0.8336 0.4509 -0.3191
vn -0.1110 -0.9685 -0.2229
vn 0.7431 0.6690 -0.0142
vn 0.4065 0.9115 -0.0632
vn 0.9388 -0.0242 0.3436
vn 0.0053 -0.9701 -0.2426
vn 0.8629 0.4849 -0.1425
vn 0.1942 -0.9603 -0.2005
vn 0.7987 0.5840 -0.1447
vn 0.8327 -0.4802 -0.2758
vn 0.7078 0.6242 -0.3306
vn 0.5991 0.7059 -0.3778
vn 0.5772 -0.4863 -0.6560
vn 0.7379 0.6536 -0.1685
vn 0.0088 -0.9994 0.0339
vn 0.7484 0.5322 0.3959
vn -0.0165 -0.9993 0.0327
vn 0.9160 0.2873 -0.2799
vn 0.5145 0.7845 0.3463
vn 0.6968 0.4158 0.5845
vn 0.5309 0.5727 0.6247
vn -0.1266 -0.9737 0.1892
vn 0.6369 -0.3824 0.6694
vn 0.5486 0.3455 0.7613
vn 0.3329 0.6181 0.7121
vn 0.1935 0.3785 0.9052
vn 0.1110 0.3616 0.9257
vn 0.0346 -0.9965 -0.0761
vn 0.1195 0.6791 0.7243
vn 0.3693 0.7761 0.5112
vn 0.6326 -0.2058 0.7467
vn 0.5045 -0.8610 0.0647
vn 0.0940 -0.9946 -0.0435
vn -0.4137 0.8043 0.4267
vn -0.0468 -0.9826 0.1796
vn -0.0808 0.9353 0.3444
vn 0.2884 0.6137 -0.7350
vn 0.0648 -0.9836 0.1684
vn -0.3265 0.4483 0.8321
vn -0.6379 0.7272 0.2533
vn -0.9402 -0.2942 0.1716
vn -0.0452 -0.9528 -0.3003
vn -0.7796 -0.4686 -0.4155
vn -0.2928 -0.9133 -0.2832
vn -0.9459 0.2388 -0.2198
vn -0.7263 0.5630 -0.3942
vn -0.7895 0.5890 -0.1724
vn -0.0426 -0.9909 -0.1275
vn -0.8362 0.4620 0.2956
vn -0.6449 -0.7482 -0.1558
vn -0.7850 0.3021 -0.5409
vn -0.3231 0.8104 -0.4888
vn -0.1157 0.9617 -0.2485
vn 0.0674 -0.9976 -0.0131
vn -0.5223 0.1711 -0.8354
vn -0.0336 -0.9893 -0.1418
vn 0.0589 -0.9982 0.0081
vn 0.0939 0.6814 -0.7259
vn 0.4632 -0.3789 -0.8012
vn 0.3964 0.6638 -0.6342
vn 0.2680 0.3702 -0.8895
vn 0.5370 0.1518 -0.8298
vn 0.0012 -0.9737 -0.2277
vn 0.3957 0.7506 -0.5291
vn -0.0071 -0.9942 -0.1071
vn 0.1501 -0.5794 -0.8011
vn 0.6805 0.4911 -0.5439
vn 0.7256 0.6634 -0.1826
vn 0.4241 0.7865 -0.4491
vn 0.9227 -0.3513 -0.1590
vn 0.3906 0.9196 -0.0431
vn 0.8097 -0.5785 0.0984
vn 0.1985 -0.9799 0.0198
vn 0.7592 0.4578 -0.4626
vn 0.9278 -0.1577 -0.3381
vn 0.8109 0.5631 -0.1590
vn 0.7996 0.3065 -0.5164
vn -0.1079 -0.9696 -0.2196
vn 0.2169 -0.9588 -0.1832
vn 0.7586 0.6456 0.0880
vn 0.6909 0.4051 -0.5988
vn 0.4718 0.7273 0.4983
vn 0.4255 0.8990 0.1039
vn 0.2917 -0.9224 -0.2530
vn 0.6445 0.7365 0.2054
vn 0.8075 -0.5427 0.2314
vn 0.3955 -0.9128 0.1017
vn 0.6240 -0.4016 0.6703
vn 0.6472 0.5394 0.5387
vn -0.3527 -0.9357 0.0113
vn 0.4927 0.5773 0.6511
vn 0.3240 -0.9185 0.2267
vn 0.0048 -0.9998 0.0207
vn 0.4666 -0.1098 0.8776
vn 0.4431 0.0660 0.8940
vn -0.1650 -0.9270 0.3369
vn 0.1881 0.6918 0.6972
vn 0.1124 0.1837 0.9765
vn -0.1671 -0.8244 0.5408
vn -0.7518 -0.5741 0.3243
vn 0.1329 0.4290 0.8935
vn 0.1183 -0.9457 0.3029
vn -0.2215 0.4426 0.8689
vn -0.3515 0.1476 0.9245
vn -0.0490 -0.9419 -0.3322
vn -0.3450 0.5901 0.7299
vn -0.5187 -0.5958 0.6132
vn -0.5013 0.7946 0.3425
vn -0.2426 0.6351 0.7334
vn 0.0828 -0.9961 0.0308
vn -0.5628 0.2636 0.7834
vn 0.0967 -0.9848 0.1440
vn -0.1834 -0.9766 0.1122
vn -0.5683 0.6793 0.4644
vn -0.1631 -0.8539 0.4942
vn -0.8043 0.5857 0.1000
vn -0.5525 -0.8227 0.1342
vn -0.1492 -0.9671 -0.2060
vn -0.8077 0.3934 0.4391
vn -0.1582 -0.9842 -0.0794
vn -0.8838 0.3071 0.3529
vn -0.8630 0.4366 -0.2542
vn -0.5671 0.8180 0.0964
vn -0.7631 0.6116 0.2089
vn -0.1741 -0.9834 -0.0508
vn -0.5504 0.8188 -0.1635
vn -0.5628 0.4586 -0.6877
vn -0.6628 0.3836 -0.6430
vn -0.3051 -0.9312 -0.1992
vn -0.9085 0.2952 -0.2958
vn 0.1628 -0.9848 -0.0600
vn -0.5740 0.7874 -0.2246
vn -0.9221 0.3288 -0.2041
vn -0.2874 0.9571 -0.0361
vn -0.6136 0.7127 -0.3400
vn -0.6425 -0.7452 -0.1784
vn -0.0407 -0.9801 -0.1941
vn -0.4399 0.7283 -0.5254
vn -0.7213 0.2451 -0.6478
vn -0.6804 0.2651 -0.6832
vn -0.2019 0.8792 -0.4315
vn -0.0311 -0.9728 -0.2297
vn -0.3302 0.5107 -0.7938
vn -0.0707 -0.9581 -0.2775
vn -0.4052 0.7865 -0.4660
vn -0.1233 0.8059 -0.5791
vn -0.2823 -0.9466 -0.1557
vt 0.753332 0.503401
vt 0.712036 0.443496
vt 0.750000 0.409456
vt 0.680396 0.375000
vt 0.690645 0.290583
vt 0.750603 0.813689
vt 0.567408 0.712787
vt 0.709999 0.652264
vt 0.564796 0.241451
vt 0.705402 0.145060
vt 0.653618 0.437500
vt 0.597205 0.317010
vt 0.700997 0.875000
vt 0.541675 0.796832
vt 0.641756 0.500000
vt 0.633208 0.594744
vt 0.582897 0.500000
vt 0.562500 0.410540
vt 0.593750 0.389508
vt 0.354997 0.077257
vt 0.531250 0.450230
vt 0.728806 0.973149
vt 0.453876 0.825434
vt 0.529513 0.345202
vt 0.515625 0.000000
vt 0.499228 0.554935
vt 0.490432 0.437500
vt 0.485555 0.250000
vt 0.464299 0.653094
vt 0.465656 0.375000
vt 0.410889 0.312500
vt 0.468750 0.498513
vt 0.430046 0.562500
vt 0.416870 0.500000
vt 0.437500 0.429647
vt 0.377489 0.231724
vt 0.387840 0.693357
vt 0.406250 0.437500
vt 0.290100 0.937500
vt 0.334373 0.869911
vt 0.357042 0.447837
vt 0.341058 0.564816
vt 0.271919 0.125000
vt 0.401162 0.375000
vt 0.322337 0.355278
vt 0.315052 0.710608
vt 0.279024 0.437333
vt 0.238707 0.565496
vt 0.207314 0.874129
vt 0.282974 0.375214
vt 0.239143 0.283958
vt 0.269724 0.209505
vt 0.213296 0.500000
vt 0.220620 0.437500
vt 0.218750 0.375435
vt 0.187849 0.198545
vt 0.187500 0.437500
vt 0.171875 1.000000
vt 0.081878 0.926061
vt 0.131599 0.368909
vt 0.085032 0.208253
vt 0.156250 0.445964
vt 0.134408 0.562500
vt 0.125000 0.488023
vt 0.051589 0.500000
vt 0.065147 0.437339
vt 0.017092 0.078912
vt 0.135202 0.019032
vt 0.026237 0.437500
vt 0.026888 0.340340
vt 0.050626 0.654369
vt 0.026816 0.784246
vt 0.000000 0.656628
vt 1.000000 0.437500
vt 0.982710 0.500000
vt 0.908906 0.437500
vt 1.000000 0.788531
vt 0.943127 0.875000
vt 0.941524 0.805917
vt 1.000000 0.187500
vt 0.911222 0.350617
vt 0.836980 0.212817
vt 0.994739 0.562500
vt 0.969079 0.655306
vt 0.898209 0.510559
vt 0.997612 0.335333
vt 0.907423 0.679806
vt 0.896800 0.109565
vt 0.781250 0.408862
vt 0.563513 0.586092
vt 0.231065 0.721277
vt 0.187500 0.355469
vt 0.171431 0.742197
vt 0.112233 0.694829
vt 0.047406 0.562500
vt 0.000000 0.562500
vt 0.016746 0.875000
vt 0.000000 0.250000
vt 0.000000 0.500000
vt 0.794848 0.667894
vt 0.989701 0.937500
vt 0.841695 0.420074
vt 0.817932 0.523471
vt 0.808721 0.014449
s 0
usemtl Material
f 2/1/1 5/2/1 1/3/1
f 1/3/2 5/2/2 7/4/2
f 1/3/3 7/4/3 8/5/3
f 6/6/4 20/7/4 4/8/4
f 8/5/5 23/9/5 19/10/5
f 7/4/6 11/11/6 18/12/6
f 9/13/7 24/14/7 6/6/7
f 10/15/8 12/16/8 16/17/8
f 16/17/9 17/18/9 13/19/9
f 19/10/10 23/9/10 37/20/10
f 16/17/11 21/21/11 17/18/11
f 14/22/12 29/23/12 9/13/12
f 17/18/13 21/21/13 22/24/13
f 69/25/14 19/10/14 37/20/14
f 21/21/15 25/26/15 28/27/15
f 23/9/16 22/24/16 33/28/16
f 24/14/17 30/29/17 20/7/17
f 26/30/18 32/31/18 22/24/18
f 25/26/19 30/29/19 27/32/19
f 27/32/20 34/33/20 35/34/20
f 28/27/21 31/35/21 26/30/21
f 27/32/22 30/29/22 34/33/22
f 32/31/23 40/36/23 33/28/23
f 29/23/24 38/37/24 30/29/24
f 33/28/25 40/36/25 37/20/25
f 35/34/26 36/38/26 31/35/26
f 41/39/27 45/40/27 29/23/27
f 35/34/28 42/41/28 36/38/28
f 38/37/29 43/42/29 34/33/29
f 40/36/30 59/43/30 37/20/30
f 39/44/31 42/41/31 44/45/31
f 45/40/32 46/46/32 38/37/32
f 43/42/33 47/47/33 42/41/33
f 46/46/34 54/48/34 43/42/34
f 41/39/35 50/49/35 45/40/35
f 48/50/36 58/51/36 49/52/36
f 47/47/37 54/48/37 55/53/37
f 47/47/38 55/53/38 52/54/38
f 52/54/39 53/55/39 47/47/39
f 47/47/40 53/55/40 58/51/40
f 58/51/41 63/56/41 49/52/41
f 55/53/42 56/57/42 52/54/42
f 59/43/43 63/56/43 37/20/43
f 41/39/44 14/58/44 76/59/44
f 10/15/45 5/2/45 4/8/45 12/16/45
f 62/60/46 75/61/46 63/56/46
f 61/62/47 64/63/47 65/64/47
f 65/64/48 64/63/48 71/65/48
f 65/64/49 71/65/49 68/66/49
f 75/61/50 88/67/50 69/68/50
f 68/66/51 71/65/51 74/69/51
f 68/66/52 74/69/52 78/70/52
f 70/71/53 72/72/53 79/73/53
f 74/74/54 73/75/54 84/76/54
f 72/77/55 81/78/55 82/79/55
f 75/80/56 85/81/56 3/82/56
f 77/83/57 79/84/57 83/85/57
f 78/86/58 84/76/58 85/81/58
f 79/84/59 82/79/59 80/87/59
f 82/79/60 81/78/60 6/6/60
f 81/78/61 14/22/61 9/13/61
f 88/88/62 3/82/62 19/10/62
f 90/89/63 2/1/63 1/3/63
f 3/82/64 1/3/64 8/5/64
f 19/10/65 3/82/65 8/5/65
f 2/1/66 4/8/66 5/2/66
f 7/4/67 5/2/67 11/11/67
f 4/8/68 20/7/68 12/16/68
f 16/17/69 13/19/69 11/11/69 10/15/69
f 5/2/70 10/15/70 11/11/70
f 8/5/71 7/4/71 18/12/71
f 6/6/72 24/14/72 20/7/72
f 23/9/73 8/5/73 18/12/73
f 18/12/74 11/11/74 13/19/74
f 12/16/75 20/7/75 15/90/75
f 21/21/76 16/17/76 15/90/76 25/26/76
f 12/16/77 15/90/77 16/17/77
f 18/12/78 13/19/78 17/18/78
f 9/13/79 29/23/79 24/14/79
f 18/12/80 17/18/80 22/24/80
f 23/9/81 18/12/81 22/24/81
f 15/90/82 20/7/82 25/26/82
f 28/27/83 26/30/83 22/24/83 21/21/83
f 20/7/84 30/29/84 25/26/84
f 31/35/85 28/27/85 27/32/85 35/34/85
f 37/20/86 23/9/86 33/28/86
f 33/28/87 22/24/87 32/31/87
f 24/14/88 29/23/88 30/29/88
f 28/27/89 25/26/89 27/32/89
f 42/41/90 35/34/90 34/33/90 43/42/90
f 14/22/91 41/39/91 29/23/91
f 26/30/92 31/35/92 32/31/92
f 30/29/93 38/37/93 34/33/93
f 31/35/94 36/38/94 39/44/94
f 31/35/95 39/44/95 32/31/95
f 36/38/96 42/41/96 39/44/96
f 29/23/97 45/40/97 38/37/97
f 49/52/98 40/36/98 44/45/98 48/50/98
f 38/37/99 46/46/99 43/42/99
f 32/31/100 39/44/100 44/45/100
f 40/36/101 32/31/101 44/45/101
f 42/41/102 47/47/102 48/50/102
f 42/41/103 48/50/103 44/45/103
f 40/36/104 49/52/104 59/43/104
f 43/42/105 54/48/105 47/47/105
f 51/91/106 46/46/106 45/40/106 50/49/106
f 48/50/107 47/47/107 58/51/107
f 57/92/108 53/55/108 52/54/108 56/57/108
f 54/48/109 46/46/109 51/91/109
f 49/52/110 63/56/110 59/43/110
f 60/93/111 64/63/111 54/48/111 51/91/111
f 51/91/112 50/49/112 60/93/112
f 53/55/113 57/92/113 58/51/113
f 64/63/114 61/62/114 55/53/114 54/48/114
f 61/62/115 62/60/115 57/92/115 56/57/115
f 56/57/116 55/53/116 61/62/116
f 50/49/117 41/39/117 76/59/117
f 63/56/118 58/51/118 57/92/118 62/60/118
f 76/59/119 66/94/119 60/93/119 50/49/119
f 63/56/120 75/61/120 69/68/120
f 37/20/121 63/56/121 69/68/121
f 64/63/122 60/93/122 66/94/122
f 61/62/123 65/64/123 62/60/123
f 67/95/124 64/63/124 66/94/124 70/71/124
f 62/60/125 65/64/125 68/66/125
f 62/60/126 68/66/126 75/61/126
f 66/94/127 76/59/127 72/72/127
f 75/61/128 68/66/128 78/70/128
f 66/94/129 72/72/129 70/71/129
f 77/96/130 67/95/130 70/71/130 79/73/130
f 71/65/131 64/63/131 67/95/131
f 72/72/132 76/59/132 81/97/132
f 75/61/133 78/70/133 85/98/133
f 73/99/134 71/65/134 67/95/134 77/96/134
f 6/6/135 89/100/135 80/87/135 82/79/135
f 74/69/136 71/65/136 73/99/136
f 78/86/137 74/74/137 84/76/137
f 79/84/138 72/77/138 82/79/138
f 88/88/139 75/80/139 3/82/139
f 73/75/140 77/83/140 83/85/140
f 84/76/141 73/75/141 83/85/141
f 81/78/142 76/101/142 14/22/142
f 83/85/143 79/84/143 80/87/143
f 85/81/144 84/76/144 87/102/144
f 3/82/145 85/81/145 87/102/145
f 86/103/146 83/85/146 80/87/146 89/100/146
f 87/102/147 84/76/147 83/85/147 86/103/147
f 90/89/148 87/102/148 86/103/148 2/1/148
f 6/6/149 81/78/149 9/13/149
f 3/82/150 87/102/150 90/89/150
f 89/100/151 6/6/151 4/8/151
f 69/104/152 88/88/152 19/10/152
f 86/103/153 89/100/153 2/1/153
f 89/100/154 4/8/154 2/1/154
f 3/82/155 90/89/155 1/3/155
