# Blender 4.2.3 LTS
# www.blender.org
mtllib Кущ2.mtl
o Icosphere
v 0.160810 -0.032991 0.263600
v 0.800830 0.018486 0.578135
v -0.241236 0.018486 0.916728
v -0.885284 0.018486 0.030292
v -0.241236 0.018486 -0.856144
v 0.800830 0.018486 -0.517551
v 0.334795 0.950555 0.916728
v -0.707270 0.950555 0.578135
v -0.707270 0.950555 -0.517551
v 0.334795 0.950555 -0.856144
v 0.978843 0.950555 0.030292
v 0.046780 1.526601 0.030292
vn 0.0318 -0.9947 0.0980
vn 0.0802 -0.9968 -0.0000
vn -0.0586 -0.9974 0.0426
vn -0.0423 -0.9986 -0.0307
vn 0.0169 -0.9985 -0.0520
vn 0.9822 -0.1876 -0.0000
vn 0.3035 -0.1876 0.9342
vn -0.7946 -0.1876 0.5774
vn -0.7946 -0.1876 -0.5774
vn 0.3035 -0.1876 -0.9342
vn 0.7946 0.1876 0.5774
vn -0.3035 0.1876 0.9342
vn -0.9822 0.1876 -0.0000
vn -0.3035 0.1876 -0.9342
vn 0.7946 0.1876 -0.5774
vn 0.4911 0.7947 0.3568
vn -0.1876 0.7947 0.5774
vn -0.6071 0.7947 -0.0000
vn -0.1876 0.7947 -0.5774
vn 0.4911 0.7947 -0.3568
vt 0.181819 0.000000
vt 0.272728 0.157461
vt 0.090910 0.157461
vt 0.363637 0.000000
vt 0.454546 0.157461
vt 0.909091 0.000000
vt 1.000000 0.157461
vt 0.818182 0.157461
vt 0.727273 0.000000
vt 0.636364 0.157461
vt 0.545455 0.000000
vt 0.363637 0.314921
vt 0.181819 0.314921
vt 0.909091 0.314921
vt 0.727273 0.314921
vt 0.545455 0.314921
vt 0.000000 0.314921
vt 0.272728 0.472382
vt 0.090910 0.472382
vt 0.818182 0.472382
vt 0.636364 0.472382
vt 0.454546 0.472382
s 0
usemtl Material.001
f 1/1/1 2/2/1 3/3/1
f 2/2/2 1/4/2 6/5/2
f 1/6/3 3/7/3 4/8/3
f 1/9/4 4/8/4 5/10/4
f 1/11/5 5/10/5 6/5/5
f 2/2/6 6/5/6 11/12/6
f 3/3/7 2/2/7 7/13/7
f 4/8/8 3/7/8 8/14/8
f 5/10/9 4/8/9 9/15/9
f 6/5/10 5/10/10 10/16/10
f 2/2/11 11/12/11 7/13/11
f 3/3/12 7/13/12 8/17/12
f 4/8/13 8/14/13 9/15/13
f 5/10/14 9/15/14 10/16/14
f 6/5/15 10/16/15 11/12/15
f 7/13/16 11/12/16 12/18/16
f 8/17/17 7/13/17 12/19/17
f 9/15/18 8/14/18 12/20/18
f 10/16/19 9/15/19 12/21/19
f 11/12/20 10/16/20 12/22/20
o Icosphere.001
v -0.668209 -0.010126 1.194694
v 0.112847 0.046428 1.255975
v -0.813507 0.046428 2.024657
v -1.830838 0.046428 1.381179
v -1.533202 0.046428 0.214800
v -0.331945 0.046428 0.137431
v -0.225458 1.070412 1.790818
v -1.426715 1.070412 1.868187
v -1.871507 1.070412 0.749642
v -0.945153 1.070412 -0.019040
v 0.072178 1.070412 0.624439
v -0.879330 1.703266 1.002809
vn 0.0658 -0.9947 0.0793
vn 0.0745 -0.9968 -0.0296
vn -0.0387 -0.9974 0.0612
vn -0.0506 -0.9986 -0.0129
vn -0.0035 -0.9985 -0.0545
vn 0.9127 -0.1876 -0.3629
vn 0.6272 -0.1876 0.7559
vn -0.5251 -0.1876 0.8301
vn -0.9517 -0.1876 -0.2429
vn -0.0631 -0.1876 -0.9802
vn 0.9517 0.1876 0.2429
vn 0.0631 0.1876 0.9802
vn -0.9127 0.1876 0.3629
vn -0.6272 0.1876 -0.7559
vn 0.5251 0.1876 -0.8301
vn 0.5882 0.7947 0.1501
vn 0.0390 0.7947 0.6058
vn -0.5641 0.7947 0.2243
vn -0.3877 0.7947 -0.4672
vn 0.3245 0.7947 -0.5130
vt 0.181819 0.000000
vt 0.272728 0.157461
vt 0.090910 0.157461
vt 0.363637 0.000000
vt 0.454546 0.157461
vt 0.909091 0.000000
vt 1.000000 0.157461
vt 0.818182 0.157461
vt 0.727273 0.000000
vt 0.636364 0.157461
vt 0.545455 0.000000
vt 0.363637 0.314921
vt 0.181819 0.314921
vt 0.909091 0.314921
vt 0.727273 0.314921
vt 0.545455 0.314921
vt 0.000000 0.314921
vt 0.272728 0.472382
vt 0.090910 0.472382
vt 0.818182 0.472382
vt 0.636364 0.472382
vt 0.454546 0.472382
s 0
usemtl Material.001
f 13/23/21 14/24/21 15/25/21
f 14/24/22 13/26/22 18/27/22
f 13/28/23 15/29/23 16/30/23
f 13/31/24 16/30/24 17/32/24
f 13/33/25 17/32/25 18/27/25
f 14/24/26 18/27/26 23/34/26
f 15/25/27 14/24/27 19/35/27
f 16/30/28 15/29/28 20/36/28
f 17/32/29 16/30/29 21/37/29
f 18/27/30 17/32/30 22/38/30
f 14/24/31 23/34/31 19/35/31
f 15/25/32 19/35/32 20/39/32
f 16/30/33 20/36/33 21/37/33
f 17/32/34 21/37/34 22/38/34
f 18/27/35 22/38/35 23/34/35
f 19/35/36 23/34/36 24/40/36
f 20/39/37 19/35/37 24/41/37
f 21/37/38 20/36/38 24/42/38
f 22/38/39 21/37/39 24/43/39
f 23/34/40 22/38/40 24/44/40
o Icosphere.002
v 1.439379 -0.000169 0.170544
v 2.009350 0.041101 0.215264
v 1.333350 0.041101 0.776205
v 0.590958 0.041101 0.306630
v 0.808157 0.041101 -0.544527
v 1.684766 0.041101 -0.600986
v 1.762474 0.788347 0.605562
v 0.885865 0.788347 0.662021
v 0.561281 0.788347 -0.154229
v 1.237281 0.788347 -0.715170
v 1.979673 0.788347 -0.245596
v 1.285316 1.250167 0.030517
vn 0.0658 -0.9947 0.0793
vn 0.0745 -0.9968 -0.0296
vn -0.0387 -0.9974 0.0612
vn -0.0506 -0.9986 -0.0129
vn -0.0035 -0.9985 -0.0545
vn 0.9127 -0.1876 -0.3629
vn 0.6272 -0.1876 0.7559
vn -0.5251 -0.1876 0.8301
vn -0.9517 -0.1876 -0.2429
vn -0.0631 -0.1876 -0.9802
vn 0.9517 0.1876 0.2429
vn 0.0631 0.1876 0.9802
vn -0.9127 0.1876 0.3629
vn -0.6272 0.1876 -0.7559
vn 0.5251 0.1876 -0.8301
vn 0.5882 0.7947 0.1501
vn 0.0390 0.7947 0.6058
vn -0.5641 0.7947 0.2243
vn -0.3877 0.7947 -0.4672
vn 0.3245 0.7947 -0.5130
vt 0.181819 0.000000
vt 0.272728 0.157461
vt 0.090910 0.157461
vt 0.363637 0.000000
vt 0.454546 0.157461
vt 0.909091 0.000000
vt 1.000000 0.157461
vt 0.818182 0.157461
vt 0.727273 0.000000
vt 0.636364 0.157461
vt 0.545455 0.000000
vt 0.363637 0.314921
vt 0.181819 0.314921
vt 0.909091 0.314921
vt 0.727273 0.314921
vt 0.545455 0.314921
vt 0.000000 0.314921
vt 0.272728 0.472382
vt 0.090910 0.472382
vt 0.818182 0.472382
vt 0.636364 0.472382
vt 0.454546 0.472382
s 0
usemtl Material.001
f 25/45/41 26/46/41 27/47/41
f 26/46/42 25/48/42 30/49/42
f 25/50/43 27/51/43 28/52/43
f 25/53/44 28/52/44 29/54/44
f 25/55/45 29/54/45 30/49/45
f 26/46/46 30/49/46 35/56/46
f 27/47/47 26/46/47 31/57/47
f 28/52/48 27/51/48 32/58/48
f 29/54/49 28/52/49 33/59/49
f 30/49/50 29/54/50 34/60/50
f 26/46/51 35/56/51 31/57/51
f 27/47/52 31/57/52 32/61/52
f 28/52/53 32/58/53 33/59/53
f 29/54/54 33/59/54 34/60/54
f 30/49/55 34/60/55 35/56/55
f 31/57/56 35/56/56 36/62/56
f 32/61/57 31/57/57 36/63/57
f 33/59/58 32/58/58 36/64/58
f 34/60/59 33/59/59 36/65/59
f 35/56/60 34/60/60 36/66/60
