# Blender 4.2.3 LTS
# www.blender.org
mtllib свічка.mtl
o Cylinder
v -0.185554 0.862528 -0.432469
v -0.185554 1.159887 -0.391620
v 0.099596 0.862528 -0.267838
v 0.048756 1.139672 -0.204320
v 0.053616 0.859982 0.056917
v 0.034719 1.167770 0.040468
v -0.185554 0.862528 0.226055
v -0.200236 1.162367 0.174793
v -0.470703 0.862528 0.061424
v -0.424897 1.223724 0.033634
v -0.470703 0.862528 -0.267838
v -0.435327 1.159887 -0.247414
v 0.064220 1.505154 -0.247414
v -0.161015 1.474543 -0.368220
v 0.064220 1.505154 0.041000
v -0.232337 1.505194 0.154579
v -0.466170 1.502982 0.045657
v -0.435327 1.505154 -0.247414
v 0.064220 1.840255 -0.247414
v -0.159954 1.976598 -0.366905
v 0.020763 1.823194 0.044334
v -0.200860 1.797178 0.144470
v -0.414606 1.837265 -0.017657
v -0.435327 1.840255 -0.247414
v -0.187167 1.889114 -0.095863
v -0.223831 1.889114 -0.075128
v -0.187242 1.889114 -0.050348
v -0.191924 1.981880 -0.078105
v -0.214346 1.983681 -0.065553
v -0.191969 1.985833 -0.050552
v -0.195150 2.137100 -0.092453
v -0.207913 2.140107 -0.085891
v -0.195176 2.143701 -0.078049
vn 0.5552 0.1960 -0.8083
vn 0.9890 0.1099 0.0993
vn 0.5345 0.1227 0.8362
vn -0.4991 0.1260 0.8573
vn -0.4829 -0.0454 0.8745
vn -0.9925 0.1224 0.0042
vn -0.4965 0.1181 -0.8600
vn -0.0023 -1.0000 -0.0013
vn -0.9970 0.0750 -0.0186
vn 0.9976 -0.0620 0.0295
vn -0.9975 -0.0654 -0.0284
vn 0.5569 -0.0567 -0.8287
vn 0.4223 0.0278 0.9060
vn -0.4485 0.0483 -0.8925
vn 0.2435 0.9654 0.0927
vn 0.3805 0.0177 0.9246
vn 0.4717 0.0008 -0.8818
vn -0.4009 0.0019 -0.9161
vn -0.5005 0.1660 0.8497
vn 0.9949 0.0658 0.0765
vn -0.1499 0.9063 0.3951
vn -0.2231 0.9748 -0.0026
vn -0.3362 0.9056 0.2585
vn 0.3625 0.8757 0.3190
vn 0.1286 0.9238 0.3607
vn -0.5584 -0.0267 0.8291
vn -0.5556 0.1307 0.8211
vn 0.9987 0.0501 -0.0011
vn -0.4829 0.1383 -0.8647
vn -0.0000 0.9091 -0.4166
vn 0.9998 0.0201 -0.0033
vn -0.4850 -0.0918 -0.8697
vt 1.000000 0.500000
vt 1.000000 1.000000
vt 0.833333 1.000000
vt 0.833333 0.500000
vt 0.666667 1.000000
vt 0.666667 0.500000
vt 0.500000 1.000000
vt 0.500000 0.500000
vt 0.333333 1.000000
vt 0.333333 0.500000
vt 0.166667 1.000000
vt 0.166667 0.500000
vt -0.000000 1.000000
vt -0.000000 0.500000
vt 0.750000 0.490000
vt 0.957846 0.370000
vt 0.957846 0.130000
vt 0.750000 0.010000
vt 0.542154 0.130000
vt 0.542154 0.370000
vt 0.457846 0.370000
vt 0.250405 0.267681
vt 0.457846 0.130000
vt 0.250000 0.010000
vt 0.250333 0.221377
vt 0.214663 0.244050
vt 0.042154 0.130000
vt 0.042154 0.370000
vt 0.250000 0.490000
s 0
usemtl Material.001
f 1/1/1 2/2/1 4/3/1 3/4/1
f 3/4/2 4/3/2 6/5/2 5/6/2
f 5/6/3 6/5/3 8/7/3 7/8/3
f 7/8/4 8/7/4 10/9/4 9/10/4
f 10/9/5 8/7/5 16/7/5 17/9/5
f 9/10/6 10/9/6 12/11/6 11/12/6
f 11/12/7 12/11/7 2/13/7 1/14/7
f 1/15/8 3/16/8 5/17/8 7/18/8 9/19/8 11/20/8
f 18/11/9 17/9/9 23/9/9 24/11/9
f 6/5/10 4/3/10 13/3/10 15/5/10
f 12/11/11 10/9/11 17/9/11 18/11/11
f 4/3/12 2/2/12 14/2/12 13/3/12
f 8/7/13 6/5/13 15/5/13 16/7/13
f 2/13/14 12/11/14 18/11/14 14/13/14
f 19/21/15 25/22/15 21/23/15
f 16/7/16 15/5/16 21/5/16 22/7/16
f 13/3/17 14/2/17 20/2/17 19/3/17
f 14/13/18 18/11/18 24/11/18 20/13/18
f 17/9/19 16/7/19 22/7/19 23/9/19
f 15/5/20 13/3/20 19/3/20 21/5/20
f 22/24/21 27/25/21 26/26/21 23/27/21
f 23/27/22 26/26/22 25/22/22 24/28/22
f 24/28/23 25/22/23 20/29/23
f 25/22/24 19/21/24 20/29/24
f 21/23/25 25/22/25 27/25/25 22/24/25
usemtl Material.002
f 26/26/26 27/25/26 30/25/26 29/26/26
f 29/26/27 30/25/27 33/25/27 32/26/27
f 27/25/28 25/22/28 28/22/28 30/25/28
f 25/22/29 26/26/29 29/26/29 28/22/29
f 32/26/30 33/25/30 31/22/30
f 30/25/31 28/22/31 31/22/31 33/25/31
f 28/22/32 29/26/32 32/26/32 31/22/32
