# Blender 4.2.3 LTS
# www.blender.org
mtllib tree1.mtl
o Cube
v -0.127783 -0.005926 0.020803
v -0.020535 -0.005926 -0.127826
v 0.127783 0.005926 -0.020803
v 0.020535 0.005926 0.127826
v 0.464817 1.488589 -0.074008
v 0.461308 1.488853 0.018245
v 0.416485 1.569539 0.016310
v 0.419994 1.569275 -0.075943
v 0.740214 1.730297 -0.059864
v 0.737695 1.730841 0.018542
v 0.687012 1.790683 0.016498
v 0.689532 1.790139 -0.061907
v -0.630412 1.434079 0.051975
v -0.632422 1.431245 -0.067681
v -0.574951 1.536197 -0.071132
v -0.572941 1.539031 0.048525
v -0.875556 1.720246 -0.010234
v -0.873773 1.717166 -0.058666
v -0.839671 1.751728 -0.059608
v -0.841454 1.754808 -0.011176
v 0.151674 1.455383 0.135038
v 0.070172 1.449797 0.192707
v 0.031429 1.529059 0.145632
v 0.112932 1.534646 0.087963
v -0.165461 1.624718 -0.430547
v -0.043930 1.613725 -0.430621
v -0.036812 1.691798 -0.337109
v -0.158342 1.702790 -0.337035
v -0.061138 1.956450 -0.605372
v 0.005164 1.943509 -0.600466
v 0.007711 1.978514 -0.542538
v -0.058591 1.991455 -0.547443
v -0.138372 1.970941 0.172936
v -0.221981 1.982624 0.162220
v -0.206132 2.045499 0.107108
v -0.122523 2.033816 0.117824
v 0.216939 1.676984 0.319555
v 0.150507 1.667124 0.359224
v 0.115257 1.719269 0.313154
v 0.181690 1.729130 0.273485
v -0.051118 2.224647 0.346823
v -0.124677 2.249224 0.349628
v -0.113291 2.290676 0.285015
v -0.039732 2.266099 0.282210
v -0.509639 2.481250 -0.179669
v -0.486687 2.481250 -0.249233
v -0.471253 2.552677 -0.244141
v -0.494205 2.552677 -0.174577
v 0.243938 2.477038 -0.044716
v 0.229988 2.477038 0.019291
v 0.216470 2.541069 0.016345
v 0.230419 2.541069 -0.047662
v -0.107573 2.628751 -0.225398
v -0.065082 2.628751 -0.211592
v -0.077227 2.650001 -0.174215
v -0.119718 2.650001 -0.188021
v -0.131805 0.198567 0.011969
v -0.030187 0.198567 -0.128859
v 0.110346 0.209797 -0.027453
v 0.008728 0.209797 0.113375
v -0.134907 0.356271 0.005157
v -0.037630 0.356271 -0.129655
v 0.096900 0.367021 -0.032582
v -0.000377 0.367021 0.102230
v -0.137736 0.500097 -0.001056
v -0.044418 0.500097 -0.130382
v 0.084637 0.510410 -0.037259
v -0.008682 0.510410 0.092066
v -0.140402 0.635594 -0.006910
v -0.050813 0.635594 -0.131066
v 0.073083 0.645494 -0.041665
v -0.016505 0.645494 0.082491
v -0.142951 0.765215 -0.012509
v -0.056931 0.765215 -0.131721
v 0.062031 0.774721 -0.045881
v -0.023989 0.774721 0.073331
v -0.145413 0.890338 -0.017914
v -0.062836 0.890338 -0.132353
v 0.051363 0.899463 -0.049950
v -0.031213 0.899463 0.064489
v -0.147803 1.011841 -0.023163
v -0.068571 1.011841 -0.132967
v 0.041003 1.020597 -0.053901
v -0.038229 1.020597 0.055903
v -0.150133 1.130328 -0.028282
v -0.074163 1.130328 -0.133565
v 0.030900 1.138723 -0.057754
v -0.045070 1.138723 0.047529
v -0.152414 1.246240 -0.033289
v -0.079634 1.246240 -0.134151
v 0.021017 1.254283 -0.061524
v -0.051763 1.254283 0.039338
v -0.167957 1.987272 -0.047669
v -0.115372 1.994401 -0.142633
v -0.037904 2.000579 -0.086455
v -0.084084 1.990361 -0.004091
v -0.172833 2.076157 -0.068593
v -0.119147 2.076157 -0.142626
v -0.045268 2.082049 -0.089052
v -0.098954 2.082049 -0.015019
v -0.173915 2.151992 -0.071923
v -0.122649 2.151992 -0.142619
v -0.052100 2.157618 -0.091460
v -0.103366 2.157618 -0.020764
v -0.174945 2.224221 -0.075095
v -0.125984 2.224221 -0.142613
v -0.058606 2.229595 -0.093754
v -0.107568 2.229595 -0.026236
v -0.175939 2.293883 -0.078155
v -0.129200 2.293883 -0.142607
v -0.064882 2.299013 -0.095966
v -0.111620 2.299013 -0.031513
v -0.176905 2.361564 -0.081127
v -0.132326 2.361564 -0.142602
v -0.070978 2.366457 -0.098115
v -0.115558 2.366457 -0.036640
v 0.052674 1.343390 -0.103012
v 0.047271 1.351981 0.005871
v 0.013380 1.455975 -0.014302
v 0.001678 1.476928 -0.085485
v 0.140637 1.374237 -0.096770
v 0.135780 1.374237 0.012081
v 0.102385 1.477942 0.010591
v 0.107242 1.477942 -0.098261
v 0.223571 1.403321 -0.090886
v 0.218908 1.403321 0.013606
v 0.186851 1.502872 0.012176
v 0.191513 1.502872 -0.092316
v 0.303399 1.431315 -0.085221
v 0.298924 1.431315 0.015074
v 0.268153 1.526869 0.013701
v 0.272629 1.526869 -0.086594
v 0.380995 1.458526 -0.079715
v 0.376701 1.458526 0.016501
v 0.347182 1.550194 0.015184
v 0.351476 1.550194 -0.081032
v 0.532504 1.546971 -0.070640
v 0.529639 1.547590 0.018501
v 0.472017 1.615626 0.016177
v 0.474881 1.615008 -0.072964
v 0.586907 1.594987 -0.067818
v 0.584133 1.595586 0.018512
v 0.528328 1.661477 0.016261
v 0.531102 1.660878 -0.070068
v 0.639209 1.641149 -0.065104
v 0.636521 1.641729 0.018522
v 0.582464 1.705556 0.016342
v 0.585151 1.704976 -0.067284
v 0.690191 1.686146 -0.062459
v 0.687588 1.686708 0.018532
v 0.635234 1.748524 0.016421
v 0.637837 1.747962 -0.064570
v -0.185865 1.329831 0.017121
v -0.195291 1.329831 -0.101671
v -0.151974 1.463506 -0.096144
v -0.159474 1.446019 0.015027
v -0.292011 1.354025 0.025611
v -0.301447 1.354025 -0.093316
v -0.275026 1.470345 -0.095413
v -0.265590 1.470345 0.023514
v -0.398315 1.378256 0.034113
v -0.407761 1.378256 -0.084949
v -0.381310 1.494707 -0.087048
v -0.371863 1.494707 0.032014
v -0.504721 1.402509 0.042623
v -0.514178 1.402509 -0.076574
v -0.487697 1.519092 -0.078675
v -0.478240 1.519092 0.040522
v -0.720683 1.534715 0.031430
v -0.717130 1.528578 -0.065062
v -0.649189 1.597435 -0.066940
v -0.652742 1.603573 0.029552
v -0.766991 1.590190 0.018972
v -0.763967 1.584967 -0.063149
v -0.706144 1.643570 -0.064748
v -0.709168 1.648793 0.017374
v -0.806586 1.637623 0.008321
v -0.804014 1.633181 -0.061514
v -0.754843 1.683016 -0.062873
v -0.757414 1.687458 0.006961
v -0.842367 1.680487 -0.001305
v -0.840204 1.676752 -0.060036
v -0.798851 1.718663 -0.061180
v -0.801013 1.722399 -0.002448
v -0.038490 1.360572 0.073877
v -0.068349 1.474029 0.029546
v 0.096664 1.405036 0.064567
v 0.015951 1.405036 0.133163
v -0.015199 1.499409 0.096510
v 0.065513 1.499409 0.027914
v -0.142057 1.391228 -0.167498
v -0.022759 1.391228 -0.178085
v -0.149820 1.464567 -0.250735
v -0.029776 1.464567 -0.261388
v -0.022723 1.554894 -0.181919
v -0.142767 1.554894 -0.171266
v -0.157634 1.538389 -0.334522
v -0.036839 1.538389 -0.345242
v -0.029742 1.629281 -0.265275
v -0.150537 1.629281 -0.254555
v -0.128437 1.746626 -0.496562
v -0.027073 1.726842 -0.489062
v -0.023181 1.780357 -0.400500
v -0.124545 1.800142 -0.408000
v -0.103642 1.823933 -0.536651
v -0.015196 1.806669 -0.530107
v -0.011799 1.853365 -0.452832
v -0.100245 1.870628 -0.459376
v -0.081585 1.892700 -0.572313
v -0.004630 1.877680 -0.566619
v -0.001675 1.918309 -0.499383
v -0.078630 1.933329 -0.505077
v -0.158185 1.480196 -0.043394
v -0.090644 1.480196 -0.136534
v -0.161338 1.588410 -0.047892
v -0.095899 1.588410 -0.138132
v -0.005846 1.595592 -0.072829
v -0.071285 1.595592 0.017411
v -0.164370 1.692497 -0.052218
v -0.100953 1.692497 -0.139670
v -0.013683 1.699457 -0.076385
v -0.077100 1.699457 0.011067
v -0.167326 1.793992 -0.056436
v -0.105881 1.793992 -0.141169
v -0.021324 1.800735 -0.079852
v -0.082769 1.800735 0.004881
v -0.087756 1.894669 0.040821
v -0.178036 1.894669 0.009842
v -0.113484 1.933186 0.107659
v -0.198767 1.933186 0.078395
v -0.185743 2.013929 0.040441
v -0.100461 2.013929 0.069705
v 0.174262 1.526808 0.195428
v 0.094550 1.514977 0.243027
v 0.052254 1.577545 0.187748
v 0.131966 1.589376 0.140149
v 0.189220 1.579442 0.238933
v 0.114162 1.568302 0.283752
v 0.074336 1.627218 0.231701
v 0.149394 1.638358 0.186881
v 0.203339 1.629126 0.279998
v 0.132675 1.618637 0.322194
v 0.095179 1.674104 0.273189
v 0.165844 1.684593 0.230993
v -0.115033 2.039150 0.219858
v -0.193806 2.065468 0.222862
v -0.181614 2.109859 0.153669
v -0.102841 2.083540 0.150665
v -0.093293 2.102246 0.263045
v -0.170292 2.127972 0.265981
v -0.158374 2.171364 0.198346
v -0.081375 2.145638 0.195409
v -0.072047 2.163904 0.305247
v -0.147314 2.189051 0.308117
v -0.135664 2.231466 0.242004
v -0.060398 2.206319 0.239134
v -0.206218 2.408965 -0.079959
v -0.183504 2.408965 -0.148805
v -0.168229 2.479653 -0.143765
v -0.190943 2.479653 -0.074920
v -0.266612 2.423352 -0.099806
v -0.243851 2.423352 -0.168794
v -0.228544 2.494188 -0.163744
v -0.251306 2.494188 -0.094756
v -0.327205 2.437788 -0.119718
v -0.304396 2.437788 -0.188850
v -0.289058 2.508771 -0.183789
v -0.311867 2.508771 -0.114657
v -0.387926 2.452254 -0.139672
v -0.365070 2.452254 -0.208948
v -0.349700 2.523384 -0.203877
v -0.372556 2.523384 -0.134601
v -0.448744 2.466743 -0.159658
v -0.425841 2.466743 -0.229078
v -0.410438 2.538021 -0.223996
v -0.433342 2.538021 -0.154577
v -0.047617 2.409566 -0.111122
v -0.062759 2.409566 -0.041647
v -0.077432 2.479068 -0.044845
v -0.070264 2.475299 -0.126419
v 0.012824 2.423554 -0.097356
v -0.002070 2.423554 -0.029015
v -0.016504 2.491921 -0.032160
v -0.001610 2.491921 -0.100502
v 0.071787 2.437199 -0.083926
v 0.057134 2.437199 -0.016691
v 0.042934 2.504460 -0.019785
v 0.057587 2.504460 -0.087021
v 0.129811 2.450627 -0.070710
v 0.115395 2.450627 -0.004563
v 0.101424 2.516799 -0.007608
v 0.115841 2.516799 -0.073755
v 0.187146 2.463896 -0.057651
v 0.172964 2.463896 0.007421
v 0.159221 2.528992 0.004425
v 0.173403 2.528992 -0.060646
v -0.139883 2.471531 -0.158548
v -0.095856 2.502361 -0.084291
v -0.157502 2.502361 -0.104321
v -0.130805 2.515705 -0.177331
v -0.074541 2.515705 -0.159049
v -0.090622 2.543844 -0.109557
v -0.146886 2.543844 -0.127838
v -0.122595 2.555655 -0.194317
v -0.071198 2.555655 -0.177618
v -0.085888 2.581359 -0.132407
v -0.137285 2.581359 -0.149107
v -0.114903 2.593086 -0.210234
v -0.068066 2.593086 -0.195016
v -0.081453 2.616510 -0.153816
v -0.128289 2.616510 -0.169034
v -0.185865 1.329831 0.017121
v -0.195291 1.329831 -0.101671
v -0.151974 1.463506 -0.096144
v -0.159474 1.446019 0.015027
v -0.151974 1.463506 -0.096144
v 0.001678 1.476928 -0.085485
v -0.022759 1.391228 -0.178085
v -0.142057 1.391228 -0.167498
vn -0.8102 -0.0412 -0.5846
vn -0.5862 0.0235 0.8098
vn 0.8078 0.0881 0.5829
vn 0.5838 0.0235 -0.8116
vn -0.4380 0.8410 -0.3177
vn 0.4901 -0.4232 -0.7621
vn 0.5311 -0.5053 -0.6801
vn -0.3966 -0.6192 0.6777
vn -0.2822 -0.3288 -0.9013
vn -0.4427 -0.5863 0.6784
vn -0.5320 -0.3480 0.7719
vn 0.3966 0.6192 -0.6777
vn 0.7628 0.3617 -0.5360
vn 0.9499 -0.3043 0.0711
vn 0.6887 -0.5279 0.4970
vn 0.5695 -0.3175 0.7582
vn 0.3208 0.9216 0.2185
vn 0.5352 -0.4963 -0.6835
vn 0.1470 0.8796 -0.4524
vn 0.9550 0.2112 0.2081
vn -0.9260 0.2219 -0.3055
vn 0.0487 0.0562 0.9972
vn 0.2830 0.7838 0.5527
vn 0.2653 0.7329 0.6265
vn 0.2008 0.8345 -0.5131
vn -0.7110 0.6996 -0.0707
vn 0.1012 -0.9643 -0.2448
vn -0.3447 -0.0750 0.9357
vn -0.0000 1.0000 -0.0000
vn 0.7965 -0.1787 0.5776
vn 0.7534 0.6566 0.0359
vn 0.9281 -0.3093 0.2072
vn 0.8881 0.1163 0.4446
vn 0.5858 0.0218 -0.8102
vn -0.8441 -0.0118 -0.5361
vn -0.9861 0.0043 -0.1659
vn -0.9909 -0.1052 -0.0834
vn 0.0524 -0.9979 0.0378
vn -0.4031 -0.4508 0.7964
vn -0.3160 0.1083 0.9426
vn -0.7799 -0.5841 -0.2249
vn -0.8928 0.3031 -0.3333
vn 0.4057 -0.0920 -0.9094
vn 0.7626 0.6466 0.0200
vn -0.2859 0.5095 0.8116
vn -0.7010 -0.6144 -0.3620
vn -0.1479 0.8369 0.5269
vn 0.7394 -0.5827 0.3372
vn -0.1440 -0.0535 -0.9881
vn -0.4461 0.8227 -0.3523
vn -0.8395 -0.1078 -0.5325
vn 0.5854 0.0271 -0.8103
vn 0.8290 0.1486 0.5391
vn -0.5260 0.0916 0.8456
vn -0.8090 -0.0373 -0.5866
vn 0.8062 0.0915 0.5846
vn -0.5883 0.0271 0.8082
vn 0.2845 -0.9573 0.0512
vn -0.1829 0.0432 0.9822
vn -0.1238 0.9851 0.1194
vn -0.0423 0.0524 -0.9977
vn 0.3300 -0.9439 0.0147
vn -0.0210 0.0076 0.9998
vn -0.2828 0.9591 -0.0126
vn 0.0681 0.0076 -0.9976
vn 0.3369 -0.9414 0.0153
vn -0.0217 0.0095 0.9997
vn -0.2680 0.9633 -0.0124
vn 0.0674 0.0102 -0.9977
vn 0.6519 -0.7579 0.0266
vn -0.0159 0.0177 0.9997
vn -0.6388 0.7690 -0.0262
vn 0.0480 0.0044 -0.9988
vn 0.6607 -0.7502 0.0264
vn -0.0173 0.0195 0.9997
vn -0.6312 0.7752 -0.0257
vn 0.0469 0.0056 -0.9989
vn -0.2209 -0.9751 0.0175
vn -0.0364 0.0239 -0.9991
vn 0.1373 0.9878 0.0739
vn 0.0797 -0.0001 0.9968
vn -0.0785 -0.0001 -0.9969
vn 0.2221 0.9749 -0.0176
vn -0.2383 -0.9709 0.0230
vn -0.0787 0.0048 -0.9969
vn 0.1977 0.9800 -0.0211
vn 0.0775 -0.0044 0.9970
vn -0.7501 -0.6610 0.0221
vn -0.0427 0.0002 -0.9991
vn 0.6338 0.7730 -0.0276
vn -0.1175 0.1150 0.9864
vn -0.7690 -0.6391 0.0123
vn -0.0337 0.0059 -0.9994
vn 0.6286 0.7773 -0.0263
vn -0.1067 0.1322 0.9855
vn 0.3088 -0.8486 0.4297
vn -0.7675 0.0243 0.6406
vn -0.1756 0.9004 -0.3982
vn 0.6944 0.0216 -0.7193
vn 0.3185 -0.8725 0.3706
vn -0.7412 0.0251 0.6708
vn -0.2713 0.9118 -0.3082
vn 0.7820 0.0143 -0.6231
vn -0.0583 -0.7517 -0.6569
vn 0.9844 -0.0043 -0.1757
vn -0.0348 0.7097 0.7037
vn -0.9999 -0.0047 -0.0140
vn 0.9963 -0.0022 -0.0859
vn 0.0587 0.7473 0.6619
vn -0.9959 -0.0022 0.0909
vn -0.0634 -0.7476 -0.6611
vn 0.9963 0.0044 -0.0859
vn 0.0633 0.7517 0.6565
vn -0.9964 -0.0030 0.0846
vn -0.0342 -0.4616 -0.8864
vn 0.9910 -0.1295 0.0337
vn 0.0524 0.5761 0.8157
vn -0.9640 0.2396 -0.1149
vn -0.0228 -0.4545 -0.8905
vn 0.9910 -0.1296 0.0347
vn 0.0522 0.5764 0.8155
vn -0.9616 0.2515 -0.1097
vn -0.8086 -0.0479 -0.5864
vn 0.5354 0.0712 -0.8416
vn 0.8339 0.0351 0.5508
vn -0.6090 0.0412 0.7921
vn 0.5861 0.0165 -0.8101
vn 0.8069 0.0809 0.5851
vn -0.5878 0.0165 0.8088
vn -0.1538 -0.8806 0.4483
vn -0.9712 -0.0017 -0.2381
vn 0.1011 0.9560 -0.2753
vn 0.9617 0.0366 0.2717
vn -0.1685 -0.8736 0.4565
vn -0.9591 0.0095 -0.2830
vn 0.1486 0.9217 -0.3583
vn 0.9311 0.0471 0.3616
vn 0.4640 -0.6485 0.6034
vn -0.8416 -0.0974 0.5313
vn -0.4459 0.6915 -0.5684
vn 0.8638 0.1455 -0.4824
vn 0.4619 -0.6393 0.6147
vn -0.8407 -0.0976 0.5327
vn -0.4412 0.6967 -0.5657
vn 0.8614 0.1550 -0.4837
vn -0.1644 -0.5343 0.8291
vn -0.9511 0.3050 0.0487
vn 0.1617 0.5208 -0.8382
vn 0.9492 -0.3101 -0.0535
vn -0.1434 -0.5249 0.8390
vn -0.9444 0.3259 0.0426
vn 0.1500 0.5433 -0.8260
vn 0.9511 -0.3074 -0.0296
vn -0.2096 -0.9753 -0.0692
vn 0.3144 -0.0003 -0.9493
vn 0.2118 0.9748 0.0699
vn -0.3122 -0.0003 0.9500
vn -0.3123 -0.0003 0.9500
vn 0.2151 -0.9755 0.0469
vn -0.2042 0.0019 0.9789
vn -0.2059 0.9770 -0.0549
vn 0.3037 -0.0469 -0.9516
vn -0.1976 0.9793 -0.0431
vn 0.2217 0.0019 -0.9751
vn 0.3342 -0.5033 -0.7969
vn 0.9316 0.2025 0.3018
vn -0.2628 0.5259 0.8089
vn -0.9409 0.0510 -0.3347
vn 0.2799 -0.4238 -0.8614
vn 0.9580 0.0510 0.2823
s 0
usemtl Material.001
f 77//1 78//1 74//1 73//1
f 76//2 73//2 69//2 72//2
f 75//3 76//3 72//3 71//3
f 74//4 75//4 71//4 70//4
f 73//1 74//1 70//1 69//1
f 72//2 69//2 65//2 68//2
f 71//3 72//3 68//3 67//3
f 213//5 214//5 155//5
f 70//4 71//4 67//4 66//4
f 69//1 70//1 66//1 65//1
f 192//6 117//6 90//6
f 117//7 91//7 90//7
f 192//8 318//8 317//8 214//8
f 192//9 90//9 154//9 191//9
f 92//10 153//10 89//10
f 68//2 65//2 61//2 64//2
f 67//3 68//3 64//3 63//3
f 66//4 67//4 63//4 62//4
f 65//1 66//1 62//1 61//1
f 64//2 61//2 57//2 60//2
f 116//11 257//11 113//11
f 120//12 192//12 214//12
f 120//13 117//13 192//13
f 63//3 64//3 60//3 59//3
f 62//4 63//4 59//4 58//4
f 118//14 91//14 117//14
f 118//15 92//15 91//15
f 118//16 185//16 92//16
f 61//1 62//1 58//1 57//1
f 60//2 57//2 1//2 4//2
f 59//3 60//3 4//3 3//3
f 119//17 120//17 186//17
f 58//4 59//4 3//4 2//4
f 57//1 58//1 2//1 1//1
f 277//18 115//18 114//18
f 56//19 55//19 54//19 53//19
f 52//20 51//20 50//20 49//20
f 48//21 47//21 46//21 45//21
f 278//22 279//22 116//22
f 44//23 43//23 42//23 41//23
f 40//24 39//24 38//24 37//24
f 32//25 31//25 30//25 29//25
f 20//26 19//26 18//26 17//26
f 214//27 317//27 316//27 155//27
f 185//28 156//28 153//28 92//28
f 155//29 316//29 319//29 191//29
f 191//29 319//29 318//29 192//29
f 156//29 315//29 312//29 153//29
f 226//30 225//30 227//30
f 280//31 298//31 279//31
f 153//29 312//29 313//29 154//29
f 154//32 313//32 314//32 213//32
f 95//33 96//33 227//33 225//33
f 94//34 95//34 225//34 224//34
f 94//35 224//35 223//35 93//35
f 93//36 223//36 228//36
f 213//37 314//37 315//37 156//37
f 1//38 2//38 3//38 4//38
f 228//39 223//39 226//39 227//39
f 279//40 260//40 257//40 116//40
f 89//41 153//41 154//41 90//41
f 213//42 155//42 191//42 154//42
f 280//43 277//43 114//43 297//43
f 12//44 11//44 10//44 9//44
f 186//45 213//45 156//45 185//45
f 258//46 114//46 113//46 257//46
f 298//47 299//47 260//47 279//47
f 278//48 116//48 115//48 277//48
f 297//49 114//49 258//49 259//49
f 299//50 297//50 259//50 260//50
f 78//4 79//4 75//4 74//4
f 79//3 80//3 76//3 75//3
f 80//2 77//2 73//2 76//2
f 81//1 82//1 78//1 77//1
f 82//4 83//4 79//4 78//4
f 83//3 84//3 80//3 79//3
f 84//2 81//2 77//2 80//2
f 85//1 86//1 82//1 81//1
f 86//4 87//4 83//4 82//4
f 87//3 88//3 84//3 83//3
f 88//2 85//2 81//2 84//2
f 89//1 90//1 86//1 85//1
f 90//4 91//4 87//4 86//4
f 91//3 92//3 88//3 87//3
f 92//2 89//2 85//2 88//2
f 97//51 98//51 94//51 93//51
f 98//52 99//52 95//52 94//52
f 99//53 100//53 96//53 95//53
f 100//54 97//54 93//54 96//54
f 101//55 102//55 98//55 97//55
f 102//52 103//52 99//52 98//52
f 103//56 104//56 100//56 99//56
f 104//57 101//57 97//57 100//57
f 105//55 106//55 102//55 101//55
f 106//52 107//52 103//52 102//52
f 107//56 108//56 104//56 103//56
f 108//57 105//57 101//57 104//57
f 109//55 110//55 106//55 105//55
f 110//52 111//52 107//52 106//52
f 111//56 112//56 108//56 107//56
f 112//57 109//57 105//57 108//57
f 113//55 114//55 110//55 109//55
f 114//52 115//52 111//52 110//52
f 115//56 116//56 112//56 111//56
f 116//57 113//57 109//57 112//57
f 121//58 122//58 118//58 117//58
f 122//59 123//59 119//59 118//59
f 123//60 124//60 120//60 119//60
f 124//61 121//61 117//61 120//61
f 125//62 126//62 122//62 121//62
f 126//63 127//63 123//63 122//63
f 127//64 128//64 124//64 123//64
f 128//65 125//65 121//65 124//65
f 129//62 130//62 126//62 125//62
f 130//63 131//63 127//63 126//63
f 131//64 132//64 128//64 127//64
f 132//65 129//65 125//65 128//65
f 133//62 134//62 130//62 129//62
f 134//63 135//63 131//63 130//63
f 135//64 136//64 132//64 131//64
f 136//65 133//65 129//65 132//65
f 5//66 6//66 134//66 133//66
f 6//67 7//67 135//67 134//67
f 7//68 8//68 136//68 135//68
f 8//69 5//69 133//69 136//69
f 137//70 138//70 6//70 5//70
f 138//71 139//71 7//71 6//71
f 139//72 140//72 8//72 7//72
f 140//73 137//73 5//73 8//73
f 141//74 142//74 138//74 137//74
f 142//75 143//75 139//75 138//75
f 143//76 144//76 140//76 139//76
f 144//77 141//77 137//77 140//77
f 145//74 146//74 142//74 141//74
f 146//75 147//75 143//75 142//75
f 147//76 148//76 144//76 143//76
f 148//77 145//77 141//77 144//77
f 149//74 150//74 146//74 145//74
f 150//75 151//75 147//75 146//75
f 151//76 152//76 148//76 147//76
f 152//77 149//77 145//77 148//77
f 9//74 10//74 150//74 149//74
f 10//75 11//75 151//75 150//75
f 11//76 12//76 152//76 151//76
f 12//77 9//77 149//77 152//77
f 157//78 158//78 313//78 312//78
f 158//79 159//79 314//79 313//79
f 159//80 160//80 315//80 314//80
f 160//81 157//81 312//81 315//81
f 161//78 162//78 158//78 157//78
f 162//82 163//82 159//82 158//82
f 163//83 164//83 160//83 159//83
f 164//81 161//81 157//81 160//81
f 165//78 166//78 162//78 161//78
f 166//82 167//82 163//82 162//82
f 167//83 168//83 164//83 163//83
f 168//81 165//81 161//81 164//81
f 13//84 14//84 166//84 165//84
f 14//85 15//85 167//85 166//85
f 15//86 16//86 168//86 167//86
f 16//87 13//87 165//87 168//87
f 169//88 170//88 14//88 13//88
f 170//89 171//89 15//89 14//89
f 171//90 172//90 16//90 15//90
f 172//91 169//91 13//91 16//91
f 173//92 174//92 170//92 169//92
f 174//93 175//93 171//93 170//93
f 175//94 176//94 172//94 171//94
f 176//95 173//95 169//95 172//95
f 177//92 178//92 174//92 173//92
f 178//93 179//93 175//93 174//93
f 179//94 180//94 176//94 175//94
f 180//95 177//95 173//95 176//95
f 181//92 182//92 178//92 177//92
f 182//93 183//93 179//93 178//93
f 183//94 184//94 180//94 179//94
f 184//95 181//95 177//95 180//95
f 17//92 18//92 182//92 181//92
f 18//93 19//93 183//93 182//93
f 19//94 20//94 184//94 183//94
f 20//95 17//95 181//95 184//95
f 187//96 188//96 185//96 118//96
f 188//97 189//97 186//97 185//97
f 189//98 190//98 119//98 186//98
f 190//99 187//99 118//99 119//99
f 21//100 22//100 188//100 187//100
f 22//101 23//101 189//101 188//101
f 23//102 24//102 190//102 189//102
f 24//103 21//103 187//103 190//103
f 193//104 194//104 318//104 319//104
f 194//105 195//105 317//105 318//105
f 195//106 196//106 316//106 317//106
f 196//107 193//107 319//107 316//107
f 197//104 198//104 194//104 193//104
f 198//108 199//108 195//108 194//108
f 199//109 200//109 196//109 195//109
f 200//110 197//110 193//110 196//110
f 25//111 26//111 198//111 197//111
f 26//112 27//112 199//112 198//112
f 27//113 28//113 200//113 199//113
f 28//114 25//114 197//114 200//114
f 201//115 202//115 26//115 25//115
f 202//116 203//116 27//116 26//116
f 203//117 204//117 28//117 27//117
f 204//118 201//118 25//118 28//118
f 205//119 206//119 202//119 201//119
f 206//120 207//120 203//120 202//120
f 207//121 208//121 204//121 203//121
f 208//122 205//122 201//122 204//122
f 209//119 210//119 206//119 205//119
f 210//120 211//120 207//120 206//120
f 211//121 212//121 208//121 207//121
f 212//122 209//122 205//122 208//122
f 29//119 30//119 210//119 209//119
f 30//120 31//120 211//120 210//120
f 31//121 32//121 212//121 211//121
f 32//122 29//122 209//122 212//122
f 215//123 216//123 214//123 213//123
f 216//124 217//124 120//124 214//124
f 217//125 218//125 186//125 120//125
f 218//126 215//126 213//126 186//126
f 219//123 220//123 216//123 215//123
f 220//127 221//127 217//127 216//127
f 221//128 222//128 218//128 217//128
f 222//129 219//129 215//129 218//129
f 223//123 224//123 220//123 219//123
f 224//127 225//127 221//127 220//127
f 225//128 226//128 222//128 221//128
f 226//129 223//129 219//129 222//129
f 229//130 230//130 228//130 227//130
f 230//131 231//131 93//131 228//131
f 231//132 232//132 96//132 93//132
f 232//133 229//133 227//133 96//133
f 33//134 34//134 230//134 229//134
f 34//135 35//135 231//135 230//135
f 35//136 36//136 232//136 231//136
f 36//137 33//137 229//137 232//137
f 233//138 234//138 22//138 21//138
f 234//139 235//139 23//139 22//139
f 235//140 236//140 24//140 23//140
f 236//141 233//141 21//141 24//141
f 237//142 238//142 234//142 233//142
f 238//143 239//143 235//143 234//143
f 239//144 240//144 236//144 235//144
f 240//145 237//145 233//145 236//145
f 241//142 242//142 238//142 237//142
f 242//143 243//143 239//143 238//143
f 243//144 244//144 240//144 239//144
f 244//145 241//145 237//145 240//145
f 37//142 38//142 242//142 241//142
f 38//143 39//143 243//143 242//143
f 39//144 40//144 244//144 243//144
f 40//145 37//145 241//145 244//145
f 245//146 246//146 34//146 33//146
f 246//147 247//147 35//147 34//147
f 247//148 248//148 36//148 35//148
f 248//149 245//149 33//149 36//149
f 249//150 250//150 246//150 245//150
f 250//151 251//151 247//151 246//151
f 251//152 252//152 248//152 247//152
f 252//153 249//153 245//153 248//153
f 253//150 254//150 250//150 249//150
f 254//151 255//151 251//151 250//151
f 255//152 256//152 252//152 251//152
f 256//153 253//153 249//153 252//153
f 41//150 42//150 254//150 253//150
f 42//151 43//151 255//151 254//151
f 43//152 44//152 256//152 255//152
f 44//153 41//153 253//153 256//153
f 261//154 262//154 258//154 257//154
f 262//155 263//155 259//155 258//155
f 263//156 264//156 260//156 259//156
f 264//157 261//157 257//157 260//157
f 265//154 266//154 262//154 261//154
f 266//155 267//155 263//155 262//155
f 267//156 268//156 264//156 263//156
f 268//157 265//157 261//157 264//157
f 269//154 270//154 266//154 265//154
f 270//155 271//155 267//155 266//155
f 271//156 272//156 268//156 267//156
f 272//157 269//157 265//157 268//157
f 273//154 274//154 270//154 269//154
f 274//155 275//155 271//155 270//155
f 275//156 276//156 272//156 271//156
f 276//157 273//157 269//157 272//157
f 45//154 46//154 274//154 273//154
f 46//155 47//155 275//155 274//155
f 47//156 48//156 276//156 275//156
f 48//158 45//158 273//158 276//158
f 281//159 282//159 278//159 277//159
f 282//160 283//160 279//160 278//160
f 283//161 284//161 280//161 279//161
f 284//162 281//162 277//162 280//162
f 285//159 286//159 282//159 281//159
f 286//160 287//160 283//160 282//160
f 287//163 288//163 284//163 283//163
f 288//164 285//164 281//164 284//164
f 289//159 290//159 286//159 285//159
f 290//160 291//160 287//160 286//160
f 291//163 292//163 288//163 287//163
f 292//164 289//164 285//164 288//164
f 293//159 294//159 290//159 289//159
f 294//160 295//160 291//160 290//160
f 295//163 296//163 292//163 291//163
f 296//164 293//164 289//164 292//164
f 49//159 50//159 294//159 293//159
f 50//160 51//160 295//160 294//160
f 51//163 52//163 296//163 295//163
f 52//164 49//164 293//164 296//164
f 300//165 301//165 280//165 297//165
f 301//166 302//166 298//166 280//166
f 302//167 303//167 299//167 298//167
f 303//168 300//168 297//168 299//168
f 304//169 305//169 301//169 300//169
f 305//170 306//170 302//170 301//170
f 306//167 307//167 303//167 302//167
f 307//168 304//168 300//168 303//168
f 308//169 309//169 305//169 304//169
f 309//170 310//170 306//170 305//170
f 310//167 311//167 307//167 306//167
f 311//168 308//168 304//168 307//168
f 53//169 54//169 309//169 308//169
f 54//170 55//170 310//170 309//170
f 55//167 56//167 311//167 310//167
f 56//168 53//168 308//168 311//168
o Icosphere
v -0.672081 1.409039 -0.017550
v -0.505915 1.763650 0.165940
v -0.860766 1.580380 0.331832
v -1.103123 1.437120 0.003549
v -0.898048 1.531855 -0.365233
v -0.528956 1.733660 -0.264866
v -0.834262 2.010895 0.300445
v -1.203354 1.809090 0.200078
v -1.226395 1.779100 -0.230728
v -0.871544 1.962369 -0.396620
v -0.629187 2.105629 -0.068337
v -1.060230 2.133711 -0.047238
vn 0.5708 -0.5722 0.5889
vn 0.9092 -0.4159 -0.0197
vn -0.0383 -0.9052 0.4233
vn -0.0763 -0.9547 -0.2877
vn 0.5093 -0.6523 -0.5614
vn 0.9530 0.2945 -0.0715
vn 0.4054 0.0416 0.9132
vn -0.5801 -0.4972 0.6452
vn -0.6416 -0.5773 -0.5051
vn 0.3059 -0.0879 -0.9480
vn 0.6416 0.5773 0.5051
vn -0.3059 0.0879 0.9480
vn -0.9530 -0.2945 0.0715
vn -0.4054 -0.0416 -0.9132
vn 0.5801 0.4972 -0.6452
vn 0.0763 0.9547 0.2877
vn -0.5093 0.6523 0.5614
vn -0.9092 0.4159 0.0197
vn -0.5708 0.5722 -0.5889
vn 0.0383 0.9052 -0.4233
vt 0.181819 0.000000
vt 0.272728 0.157461
vt 0.090910 0.157461
vt 0.363637 0.000000
vt 0.454546 0.157461
vt 0.909091 0.000000
vt 1.000000 0.157461
vt 0.818182 0.157461
vt 0.727273 0.000000
vt 0.636364 0.157461
vt 0.545455 0.000000
vt 0.363637 0.314921
vt 0.181819 0.314921
vt 0.909091 0.314921
vt 0.727273 0.314921
vt 0.545455 0.314921
vt 0.000000 0.314921
vt 0.272728 0.472382
vt 0.090910 0.472382
vt 0.818182 0.472382
vt 0.636364 0.472382
vt 0.454546 0.472382
s 0
usemtl Material.003
f 320/1/171 321/2/171 322/3/171
f 321/2/172 320/4/172 325/5/172
f 320/6/173 322/7/173 323/8/173
f 320/9/174 323/8/174 324/10/174
f 320/11/175 324/10/175 325/5/175
f 321/2/176 325/5/176 330/12/176
f 322/3/177 321/2/177 326/13/177
f 323/8/178 322/7/178 327/14/178
f 324/10/179 323/8/179 328/15/179
f 325/5/180 324/10/180 329/16/180
f 321/2/181 330/12/181 326/13/181
f 322/3/182 326/13/182 327/17/182
f 323/8/183 327/14/183 328/15/183
f 324/10/184 328/15/184 329/16/184
f 325/5/185 329/16/185 330/12/185
f 326/13/186 330/12/186 331/18/186
f 327/17/187 326/13/187 331/19/187
f 328/15/188 327/14/188 331/20/188
f 329/16/189 328/15/189 331/21/189
f 330/12/190 329/16/190 331/22/190
o Icosphere.001
v -0.089516 2.390797 -0.118064
v 0.140469 2.601835 0.084018
v -0.210564 2.550247 0.195290
v -0.427368 2.545712 -0.106777
v -0.210319 2.594498 -0.404735
v 0.140620 2.629184 -0.286815
v -0.055244 2.887180 0.220202
v -0.406183 2.852494 0.102281
v -0.406032 2.879843 -0.268551
v -0.055000 2.931431 -0.379823
v 0.161805 2.935966 -0.077756
v -0.176047 3.090881 -0.066469
vn 0.2832 -0.8061 0.5196
vn 0.6997 -0.7125 -0.0523
vn -0.3904 -0.8727 0.2933
vn -0.3901 -0.8202 -0.4184
vn 0.2836 -0.7212 -0.6320
vn 0.9978 -0.0659 -0.0045
vn 0.3238 -0.2174 0.9208
vn -0.7660 -0.3251 0.5546
vn -0.7655 -0.2401 -0.5969
vn 0.3246 -0.0799 -0.9425
vn 0.7655 0.2401 0.5969
vn -0.3246 0.0799 0.9425
vn -0.9978 0.0659 0.0045
vn -0.3238 0.2174 -0.9208
vn 0.7660 0.3251 -0.5546
vn 0.3901 0.8202 0.4184
vn -0.2836 0.7212 0.6320
vn -0.6997 0.7125 0.0523
vn -0.2832 0.8061 -0.5196
vn 0.3904 0.8727 -0.2933
vt 0.181819 0.000000
vt 0.272728 0.157461
vt 0.090910 0.157461
vt 0.363637 0.000000
vt 0.454546 0.157461
vt 0.909091 0.000000
vt 1.000000 0.157461
vt 0.818182 0.157461
vt 0.727273 0.000000
vt 0.636364 0.157461
vt 0.545455 0.000000
vt 0.363637 0.314921
vt 0.181819 0.314921
vt 0.909091 0.314921
vt 0.727273 0.314921
vt 0.545455 0.314921
vt 0.000000 0.314921
vt 0.272728 0.472382
vt 0.090910 0.472382
vt 0.818182 0.472382
vt 0.636364 0.472382
vt 0.454546 0.472382
s 0
usemtl Material.003
f 332/23/191 333/24/191 334/25/191
f 333/24/192 332/26/192 337/27/192
f 332/28/193 334/29/193 335/30/193
f 332/31/194 335/30/194 336/32/194
f 332/33/195 336/32/195 337/27/195
f 333/24/196 337/27/196 342/34/196
f 334/25/197 333/24/197 338/35/197
f 335/30/198 334/29/198 339/36/198
f 336/32/199 335/30/199 340/37/199
f 337/27/200 336/32/200 341/38/200
f 333/24/201 342/34/201 338/35/201
f 334/25/202 338/35/202 339/39/202
f 335/30/203 339/36/203 340/37/203
f 336/32/204 340/37/204 341/38/204
f 337/27/205 341/38/205 342/34/205
f 338/35/206 342/34/206 343/40/206
f 339/39/207 338/35/207 343/41/207
f 340/37/208 339/36/208 343/42/208
f 341/38/209 340/37/209 343/43/209
f 342/34/210 341/38/210 343/44/210
o Icosphere.002
v 0.036859 2.646973 -0.262152
v -0.077502 2.589878 0.071999
v 0.135771 2.868216 0.001026
v 0.374181 2.764930 -0.244919
v 0.308248 2.422755 -0.325945
v 0.029094 2.314570 -0.130079
v 0.189142 2.672551 0.295752
v 0.468296 2.780735 0.099885
v 0.574891 2.505427 -0.102192
v 0.361618 2.227089 -0.031220
v 0.123208 2.330375 0.214726
v 0.460530 2.448332 0.231959
vn -0.8025 0.5697 -0.1773
vn -0.9340 -0.1129 -0.3389
vn -0.2457 0.7855 -0.5680
vn -0.0330 0.2363 -0.9711
vn -0.4585 -0.3189 -0.8295
vn -0.8276 -0.5032 0.2489
vn -0.6148 0.6012 0.5105
vn 0.2862 0.9504 -0.1217
vn 0.6303 0.0618 -0.7739
vn -0.0581 -0.8365 -0.5448
vn -0.6303 -0.0618 0.7739
vn 0.0581 0.8365 0.5448
vn 0.8276 0.5032 -0.2489
vn 0.6148 -0.6012 -0.5105
vn -0.2862 -0.9504 0.1217
vn 0.0330 -0.2363 0.9711
vn 0.4585 0.3189 0.8295
vn 0.9340 0.1129 0.3389
vn 0.8025 -0.5697 0.1773
vn 0.2457 -0.7855 0.5680
vt 0.181819 0.000000
vt 0.272728 0.157461
vt 0.090910 0.157461
vt 0.363637 0.000000
vt 0.454546 0.157461
vt 0.909091 0.000000
vt 1.000000 0.157461
vt 0.818182 0.157461
vt 0.727273 0.000000
vt 0.636364 0.157461
vt 0.545455 0.000000
vt 0.363637 0.314921
vt 0.181819 0.314921
vt 0.909091 0.314921
vt 0.727273 0.314921
vt 0.545455 0.314921
vt 0.000000 0.314921
vt 0.272728 0.472382
vt 0.090910 0.472382
vt 0.818182 0.472382
vt 0.636364 0.472382
vt 0.454546 0.472382
s 0
usemtl Material.003
f 344/45/211 345/46/211 346/47/211
f 345/46/212 344/48/212 349/49/212
f 344/50/213 346/51/213 347/52/213
f 344/53/214 347/52/214 348/54/214
f 344/55/215 348/54/215 349/49/215
f 345/46/216 349/49/216 354/56/216
f 346/47/217 345/46/217 350/57/217
f 347/52/218 346/51/218 351/58/218
f 348/54/219 347/52/219 352/59/219
f 349/49/220 348/54/220 353/60/220
f 345/46/221 354/56/221 350/57/221
f 346/47/222 350/57/222 351/61/222
f 347/52/223 351/58/223 352/59/223
f 348/54/224 352/59/224 353/60/224
f 349/49/225 353/60/225 354/56/225
f 350/57/226 354/56/226 355/62/226
f 351/61/227 350/57/227 355/63/227
f 352/59/228 351/58/228 355/64/228
f 353/60/229 352/59/229 355/65/229
f 354/56/230 353/60/230 355/66/230
o Icosphere.003
v -0.184321 2.262825 -0.219047
v -0.273075 2.611314 -0.009671
v -0.523452 2.280404 0.021455
v -0.542502 2.097977 -0.352068
v -0.303893 2.316148 -0.614040
v -0.137381 2.633405 -0.402425
v -0.686110 2.661845 -0.013288
v -0.852622 2.344588 -0.224903
v -0.716929 2.366679 -0.617657
v -0.466552 2.697589 -0.648782
v -0.447502 2.880016 -0.275260
v -0.805682 2.715168 -0.408281
vn 0.5344 -0.3312 0.7777
vn 0.9436 0.0430 0.3284
vn 0.2488 -0.8753 0.4148
vn 0.4815 -0.8374 -0.2588
vn 0.9109 -0.2699 -0.3122
vn 0.6646 0.6971 0.2688
vn 0.0025 0.0918 0.9958
vn -0.4596 -0.7886 0.4086
vn -0.0830 -0.7273 -0.6813
vn 0.6118 0.1910 -0.7677
vn 0.0830 0.7273 0.6813
vn -0.6118 -0.1910 0.7677
vn -0.6646 -0.6971 -0.2688
vn -0.0025 -0.0918 -0.9958
vn 0.4596 0.7886 -0.4086
vn -0.4815 0.8374 0.2588
vn -0.9109 0.2699 0.3122
vn -0.9436 -0.0430 -0.3284
vn -0.5344 0.3312 -0.7777
vn -0.2488 0.8753 -0.4148
vt 0.181819 0.000000
vt 0.272728 0.157461
vt 0.090910 0.157461
vt 0.363637 0.000000
vt 0.454546 0.157461
vt 0.909091 0.000000
vt 1.000000 0.157461
vt 0.818182 0.157461
vt 0.727273 0.000000
vt 0.636364 0.157461
vt 0.545455 0.000000
vt 0.363637 0.314921
vt 0.181819 0.314921
vt 0.909091 0.314921
vt 0.727273 0.314921
vt 0.545455 0.314921
vt 0.000000 0.314921
vt 0.272728 0.472382
vt 0.090910 0.472382
vt 0.818182 0.472382
vt 0.636364 0.472382
vt 0.454546 0.472382
s 0
usemtl Material.003
f 356/67/231 357/68/231 358/69/231
f 357/68/232 356/70/232 361/71/232
f 356/72/233 358/73/233 359/74/233
f 356/75/234 359/74/234 360/76/234
f 356/77/235 360/76/235 361/71/235
f 357/68/236 361/71/236 366/78/236
f 358/69/237 357/68/237 362/79/237
f 359/74/238 358/73/238 363/80/238
f 360/76/239 359/74/239 364/81/239
f 361/71/240 360/76/240 365/82/240
f 357/68/241 366/78/241 362/79/241
f 358/69/242 362/79/242 363/83/242
f 359/74/243 363/80/243 364/81/243
f 360/76/244 364/81/244 365/82/244
f 361/71/245 365/82/245 366/78/245
f 362/79/246 366/78/246 367/84/246
f 363/83/247 362/79/247 367/85/247
f 364/81/248 363/80/248 367/86/248
f 365/82/249 364/81/249 367/87/249
f 366/78/250 365/82/250 367/88/250
o Icosphere.004
v -0.373367 2.295239 0.071710
v -0.402996 2.009761 0.194969
v -0.506188 2.259206 0.352118
v -0.305821 2.493788 0.303195
v -0.078794 2.389315 0.115809
v -0.138854 2.090172 0.048923
v -0.353762 2.031874 0.502634
v -0.293702 2.331017 0.569520
v -0.029561 2.411429 0.423474
v 0.073632 2.161983 0.266325
v -0.126735 1.927401 0.315248
v -0.059189 2.125951 0.546733
vn -0.8948 -0.0954 -0.4361
vn -0.3761 -0.3341 -0.8642
vn -0.7576 0.5880 -0.2833
vn -0.1541 0.7717 -0.6170
vn 0.0817 0.2018 -0.9760
vn -0.0279 -0.8535 -0.5204
vn -0.8671 -0.4673 0.1723
vn -0.6451 0.6385 0.4196
vn 0.3314 0.9358 -0.1203
vn 0.7128 0.0137 -0.7012
vn -0.3314 -0.9358 0.1203
vn -0.7128 -0.0137 0.7012
vn 0.0279 0.8535 0.5204
vn 0.8671 0.4673 -0.1723
vn 0.6451 -0.6385 -0.4196
vn 0.1541 -0.7717 0.6170
vn -0.0817 -0.2018 0.9760
vn 0.3761 0.3341 0.8642
vn 0.8948 0.0954 0.4361
vn 0.7576 -0.5880 0.2833
vt 0.181819 0.000000
vt 0.272728 0.157461
vt 0.090910 0.157461
vt 0.363637 0.000000
vt 0.454546 0.157461
vt 0.909091 0.000000
vt 1.000000 0.157461
vt 0.818182 0.157461
vt 0.727273 0.000000
vt 0.636364 0.157461
vt 0.545455 0.000000
vt 0.363637 0.314921
vt 0.181819 0.314921
vt 0.909091 0.314921
vt 0.727273 0.314921
vt 0.545455 0.314921
vt 0.000000 0.314921
vt 0.272728 0.472382
vt 0.090910 0.472382
vt 0.818182 0.472382
vt 0.636364 0.472382
vt 0.454546 0.472382
s 0
usemtl Material.003
f 368/89/251 369/90/251 370/91/251
f 369/90/252 368/92/252 373/93/252
f 368/94/253 370/95/253 371/96/253
f 368/97/254 371/96/254 372/98/254
f 368/99/255 372/98/255 373/93/255
f 369/90/256 373/93/256 378/100/256
f 370/91/257 369/90/257 374/101/257
f 371/96/258 370/95/258 375/102/258
f 372/98/259 371/96/259 376/103/259
f 373/93/260 372/98/260 377/104/260
f 369/90/261 378/100/261 374/101/261
f 370/91/262 374/101/262 375/105/262
f 371/96/263 375/102/263 376/103/263
f 372/98/264 376/103/264 377/104/264
f 373/93/265 377/104/265 378/100/265
f 374/101/266 378/100/266 379/106/266
f 375/105/267 374/101/267 379/107/267
f 376/103/268 375/102/268 379/108/268
f 377/104/269 376/103/269 379/109/269
f 378/100/270 377/104/270 379/110/270
o Icosphere.005
v -0.050808 2.128050 -0.227324
v 0.062092 2.456574 -0.484917
v -0.326472 2.271673 -0.528007
v -0.280282 1.846722 -0.462330
v 0.136836 1.768997 -0.378649
v 0.348430 2.145906 -0.392609
v -0.097607 2.378287 -0.879126
v -0.309201 2.001378 -0.865165
v -0.022864 1.690710 -0.772858
v 0.365700 1.875611 -0.729768
v 0.319510 2.300562 -0.795445
v 0.090036 2.019234 -1.030450
vn -0.3815 0.6480 0.6592
vn 0.3068 0.5197 0.7973
vn -0.7306 0.0260 0.6823
vn -0.2581 -0.4866 0.8346
vn 0.3831 -0.1815 0.9057
vn 0.6845 0.6957 0.2179
vn -0.4292 0.9032 -0.0055
vn -0.9942 -0.1032 0.0318
vn -0.2296 -0.9327 0.2782
vn 0.8079 -0.4390 0.3933
vn 0.2296 0.9327 -0.2782
vn -0.8079 0.4390 -0.3933
vn -0.6845 -0.6957 -0.2179
vn 0.4292 -0.9032 0.0055
vn 0.9942 0.1032 -0.0318
vn 0.2581 0.4866 -0.8346
vn -0.3831 0.1815 -0.9057
vn -0.3068 -0.5197 -0.7973
vn 0.3815 -0.6480 -0.6592
vn 0.7306 -0.0260 -0.6823
vt 0.181819 0.000000
vt 0.272728 0.157461
vt 0.090910 0.157461
vt 0.363637 0.000000
vt 0.454546 0.157461
vt 0.909091 0.000000
vt 1.000000 0.157461
vt 0.818182 0.157461
vt 0.727273 0.000000
vt 0.636364 0.157461
vt 0.545455 0.000000
vt 0.363637 0.314921
vt 0.181819 0.314921
vt 0.909091 0.314921
vt 0.727273 0.314921
vt 0.545455 0.314921
vt 0.000000 0.314921
vt 0.272728 0.472382
vt 0.090910 0.472382
vt 0.818182 0.472382
vt 0.636364 0.472382
vt 0.454546 0.472382
s 0
usemtl Material.003
f 380/111/271 381/112/271 382/113/271
f 381/112/272 380/114/272 385/115/272
f 380/116/273 382/117/273 383/118/273
f 380/119/274 383/118/274 384/120/274
f 380/121/275 384/120/275 385/115/275
f 381/112/276 385/115/276 390/122/276
f 382/113/277 381/112/277 386/123/277
f 383/118/278 382/117/278 387/124/278
f 384/120/279 383/118/279 388/125/279
f 385/115/280 384/120/280 389/126/280
f 381/112/281 390/122/281 386/123/281
f 382/113/282 386/123/282 387/127/282
f 383/118/283 387/124/283 388/125/283
f 384/120/284 388/125/284 389/126/284
f 385/115/285 389/126/285 390/122/285
f 386/123/286 390/122/286 391/128/286
f 387/127/287 386/123/287 391/129/287
f 388/125/288 387/124/288 391/130/288
f 389/126/289 388/125/289 391/131/289
f 390/122/290 389/126/290 391/132/290
o Icosphere.006
v 0.134816 1.418959 0.137572
v 0.276430 1.408538 0.472280
v -0.055968 1.546168 0.419728
v -0.053769 1.728096 0.104941
v 0.279993 1.702900 -0.037052
v 0.484063 1.505403 0.189976
v 0.175366 1.711235 0.646512
v -0.028704 1.908731 0.419483
v 0.178929 2.005596 0.137180
v 0.511326 1.867967 0.189732
v 0.509128 1.686039 0.504519
v 0.320543 1.995175 0.471888
vn -0.3976 -0.9068 0.1400
vn 0.2575 -0.9563 -0.1387
vn -0.7982 -0.5192 -0.3056
vn -0.3906 -0.3290 -0.8597
vn 0.2618 -0.5992 -0.7566
vn 0.7116 -0.6323 0.3064
vn -0.3484 -0.5523 0.7574
vn -0.9965 0.0750 0.0364
vn -0.3371 0.3826 -0.8602
vn 0.7186 -0.0545 -0.6933
vn 0.3371 -0.3826 0.8602
vn -0.7186 0.0545 0.6933
vn -0.7116 0.6323 -0.3064
vn 0.3484 0.5523 -0.7574
vn 0.9965 -0.0750 -0.0364
vn 0.3906 0.3290 0.8597
vn -0.2618 0.5992 0.7566
vn -0.2575 0.9563 0.1387
vn 0.3976 0.9068 -0.1400
vn 0.7982 0.5192 0.3056
vt 0.181819 0.000000
vt 0.272728 0.157461
vt 0.090910 0.157461
vt 0.363637 0.000000
vt 0.454546 0.157461
vt 0.909091 0.000000
vt 1.000000 0.157461
vt 0.818182 0.157461
vt 0.727273 0.000000
vt 0.636364 0.157461
vt 0.545455 0.000000
vt 0.363637 0.314921
vt 0.181819 0.314921
vt 0.909091 0.314921
vt 0.727273 0.314921
vt 0.545455 0.314921
vt 0.000000 0.314921
vt 0.272728 0.472382
vt 0.090910 0.472382
vt 0.818182 0.472382
vt 0.636364 0.472382
vt 0.454546 0.472382
s 0
usemtl Material.003
f 392/133/291 393/134/291 394/135/291
f 393/134/292 392/136/292 397/137/292
f 392/138/293 394/139/293 395/140/293
f 392/141/294 395/140/294 396/142/294
f 392/143/295 396/142/295 397/137/295
f 393/134/296 397/137/296 402/144/296
f 394/135/297 393/134/297 398/145/297
f 395/140/298 394/139/298 399/146/298
f 396/142/299 395/140/299 400/147/299
f 397/137/300 396/142/300 401/148/300
f 393/134/301 402/144/301 398/145/301
f 394/135/302 398/145/302 399/149/302
f 395/140/303 399/146/303 400/147/303
f 396/142/304 400/147/304 401/148/304
f 397/137/305 401/148/305 402/144/305
f 398/145/306 402/144/306 403/150/306
f 399/149/307 398/145/307 403/151/307
f 400/147/308 399/146/308 403/152/308
f 401/148/309 400/147/309 403/153/309
f 402/144/310 401/148/310 403/154/310
o Icosphere.007
v 0.409126 1.778730 -0.252578
v 0.385645 1.799207 0.109667
v 0.504083 2.085048 -0.081275
v 0.706527 1.960338 -0.356335
v 0.713202 1.597419 -0.335382
v 0.514886 1.497838 -0.047378
v 0.668534 1.993473 0.229793
v 0.866850 2.093053 -0.058211
v 0.996091 1.791685 -0.215256
v 0.877653 1.505844 -0.024313
v 0.675209 1.630554 0.250746
v 0.972610 1.812162 0.146990
vn -0.9386 0.3356 -0.0798
vn -0.9255 -0.3767 -0.0387
vn -0.5494 0.5311 -0.6451
vn -0.2957 -0.0605 -0.9534
vn -0.5282 -0.6215 -0.5786
vn -0.6027 -0.5565 0.5719
vn -0.6239 0.5961 0.5053
vn 0.0059 0.9124 -0.4093
vn 0.4164 -0.0448 -0.9081
vn 0.0402 -0.9526 -0.3017
vn -0.4164 0.0448 0.9081
vn -0.0402 0.9526 0.3017
vn 0.6027 0.5565 -0.5719
vn 0.6239 -0.5961 -0.5053
vn -0.0059 -0.9124 0.4093
vn 0.2957 0.0605 0.9534
vn 0.5282 0.6215 0.5786
vn 0.9255 0.3767 0.0387
vn 0.9386 -0.3356 0.0798
vn 0.5494 -0.5311 0.6451
vt 0.181819 0.000000
vt 0.272728 0.157461
vt 0.090910 0.157461
vt 0.363637 0.000000
vt 0.454546 0.157461
vt 0.909091 0.000000
vt 1.000000 0.157461
vt 0.818182 0.157461
vt 0.727273 0.000000
vt 0.636364 0.157461
vt 0.545455 0.000000
vt 0.363637 0.314921
vt 0.181819 0.314921
vt 0.909091 0.314921
vt 0.727273 0.314921
vt 0.545455 0.314921
vt 0.000000 0.314921
vt 0.272728 0.472382
vt 0.090910 0.472382
vt 0.818182 0.472382
vt 0.636364 0.472382
vt 0.454546 0.472382
s 0
usemtl Material.003
f 404/155/311 405/156/311 406/157/311
f 405/156/312 404/158/312 409/159/312
f 404/160/313 406/161/313 407/162/313
f 404/163/314 407/162/314 408/164/314
f 404/165/315 408/164/315 409/159/315
f 405/156/316 409/159/316 414/166/316
f 406/157/317 405/156/317 410/167/317
f 407/162/318 406/161/318 411/168/318
f 408/164/319 407/162/319 412/169/319
f 409/159/320 408/164/320 413/170/320
f 405/156/321 414/166/321 410/167/321
f 406/157/322 410/167/322 411/171/322
f 407/162/323 411/168/323 412/169/323
f 408/164/324 412/169/324 413/170/324
f 409/159/325 413/170/325 414/166/325
f 410/167/326 414/166/326 415/172/326
f 411/171/327 410/167/327 415/173/327
f 412/169/328 411/168/328 415/174/328
f 413/170/329 412/169/329 415/175/329
f 414/166/330 413/170/330 415/176/330
