# Blender 4.2.3 LTS
# www.blender.org
mtllib tree3.mtl
o Cube
v 0.178044 0.049291 0.163662
v -0.188457 0.049291 0.289029
v -0.313786 0.058796 -0.077362
v 0.052715 0.058796 -0.202729
v 0.759992 3.814830 0.350654
v 0.718918 3.822563 0.558397
v 0.595722 3.992228 0.527723
v 0.636797 3.984494 0.319980
v -0.785466 4.872098 1.263295
v -0.776295 4.872098 1.176230
v -0.723469 4.941690 1.181795
v -0.732641 4.941690 1.268860
v 0.150788 4.692768 1.867638
v 0.065696 4.692768 1.905916
v 0.050244 4.778133 1.871567
v 0.135336 4.778133 1.833289
v 1.197617 4.354019 0.429329
v 1.184130 4.361709 0.522536
v 1.118117 4.427635 0.507546
v 1.131603 4.419944 0.414338
v -0.418921 3.820069 -1.003871
v -0.262249 3.820069 -1.030695
v -0.253458 3.970243 -0.979353
v -0.410130 3.970243 -0.952528
v -0.103653 4.516233 -1.246208
v -0.027440 4.516233 -1.145124
v -0.120146 4.566694 -1.075227
v -0.196359 4.566694 -1.176311
v -0.882933 3.838984 -1.679453
v -0.748031 3.838984 -1.767783
v -0.745560 4.000169 -1.764009
v -0.880463 4.000169 -1.675680
v -0.348091 2.627100 -0.945839
v -0.173198 2.627100 -0.980557
v -0.156810 2.784293 -0.898004
v -0.331704 2.784293 -0.863286
v -0.695579 5.124327 0.058463
v -0.652566 5.124327 -0.046142
v -0.552960 5.158873 -0.005184
v -0.595973 5.158873 0.099421
v -1.220621 3.763045 0.904819
v -1.270306 3.763045 0.816526
v -1.247035 3.860775 0.803431
v -1.197350 3.860775 0.891724
v -0.044431 2.793415 1.121346
v -0.238834 2.793415 1.118107
v -0.240554 2.958182 1.221313
v -0.046151 2.958182 1.224552
v 0.167576 0.447815 0.166231
v -0.178608 0.447815 0.284648
v -0.296990 0.456793 -0.061432
v 0.049195 0.456793 -0.179849
v 0.159124 0.769611 0.168305
v -0.170656 0.769611 0.281111
v -0.283428 0.778164 -0.048569
v 0.046352 0.778164 -0.161375
v 0.151295 1.067654 0.170227
v -0.163291 1.067654 0.277835
v -0.270867 1.075813 -0.036656
v 0.043719 1.075813 -0.144264
v 0.143846 1.351249 0.172055
v -0.156283 1.351249 0.274718
v -0.258915 1.359033 -0.025320
v 0.041214 1.359033 -0.127983
v 0.136667 1.624563 0.173817
v -0.149528 1.624563 0.271714
v -0.247396 1.631985 -0.014395
v 0.038799 1.631985 -0.112292
v 0.129696 1.889954 0.175528
v -0.142970 1.889954 0.268797
v -0.236211 1.897025 -0.003787
v 0.036455 1.897025 -0.097056
v -0.015501 2.420799 0.295414
v -0.241333 2.420799 0.172815
v -0.164435 2.420658 -0.053834
v 0.106213 2.451608 0.071212
v -0.031547 2.651074 0.310353
v -0.245120 2.651074 0.194409
v -0.130012 2.680211 -0.017623
v 0.083561 2.680211 0.098321
v -0.046412 2.864412 0.324193
v -0.248629 2.864412 0.214415
v -0.139642 2.891999 0.013657
v 0.062574 2.891999 0.123436
v -0.060560 3.067445 0.337365
v -0.251968 3.067445 0.233454
v -0.148806 3.093557 0.043426
v 0.042602 3.093557 0.147337
v -0.052787 3.273715 0.343978
v -0.240483 3.273715 0.293230
v -0.157640 3.287835 0.072120
v 0.023351 3.287835 0.170376
v 0.092284 3.459048 0.185736
v 0.042812 3.459048 0.377127
v -0.041994 3.659260 0.343620
v 0.002946 3.633871 0.162644
v 0.252679 3.544299 0.225411
v 0.202342 3.544299 0.420149
v 0.111441 3.722180 0.396652
v 0.161779 3.722180 0.201914
v 0.416886 3.631576 0.266029
v 0.365663 3.631576 0.464193
v 0.273163 3.812587 0.440283
v 0.324386 3.812587 0.242119
v 0.583620 3.720196 0.307271
v 0.531497 3.720196 0.508915
v 0.437373 3.904385 0.484585
v 0.489495 3.904385 0.282941
v -0.041755 3.549248 0.459980
v -0.227183 3.549248 0.453701
v -0.186816 3.706202 0.323617
v -0.049667 3.674199 0.587928
v -0.227945 3.674199 0.581891
v -0.223818 3.804377 0.460006
v -0.045540 3.804377 0.466043
v -0.056985 3.789773 0.706275
v -0.228649 3.789773 0.700462
v -0.224675 3.915122 0.583098
v -0.053011 3.915122 0.588911
v -0.063943 3.899649 0.818788
v -0.229319 3.899649 0.813188
v -0.225490 4.020407 0.700123
v -0.060114 4.020407 0.705723
v -0.070644 4.005476 0.927154
v -0.229964 4.005476 0.921758
v -0.226276 4.121811 0.812834
v -0.066955 4.121811 0.818229
v -0.077147 4.108182 1.032324
v -0.230590 4.108182 1.027128
v -0.227038 4.220225 0.922222
v -0.073595 4.220225 0.927418
v -0.083491 4.208364 1.134910
v -0.231201 4.208364 1.129908
v -0.227781 4.316222 1.028921
v -0.080071 4.316222 1.033923
v -0.089701 4.306435 1.235334
v -0.231798 4.306435 1.230523
v -0.228509 4.410195 1.133373
v -0.086411 4.410195 1.138184
v -0.327343 4.494279 1.331245
v -0.314069 4.494279 1.205229
v -0.237611 4.595004 1.213283
v -0.250886 4.595004 1.339299
v -0.416511 4.567817 1.318019
v -0.404035 4.567817 1.199585
v -0.332177 4.662482 1.207155
v -0.344653 4.662482 1.325589
v -0.497643 4.634727 1.305985
v -0.485894 4.634727 1.194449
v -0.418221 4.723878 1.201578
v -0.429970 4.723878 1.313114
v -0.573960 4.697667 1.294666
v -0.562894 4.697667 1.189619
v -0.499159 4.781631 1.196333
v -0.510224 4.781631 1.301380
v -0.646886 4.757810 1.283849
v -0.636474 4.757810 1.185002
v -0.576500 4.836819 1.191320
v -0.586912 4.836819 1.290167
v -0.717219 4.815814 1.273418
v -0.707437 4.815814 1.180550
v -0.651091 4.890044 1.186486
v -0.660873 4.890044 1.279353
v -0.042255 4.448933 1.395939
v -0.159200 4.448933 1.448546
v -0.180436 4.566253 1.401339
v -0.063491 4.566253 1.348731
v -0.005344 4.495555 1.486130
v -0.116199 4.495555 1.535997
v -0.136329 4.606765 1.491248
v -0.025474 4.606765 1.441381
v 0.028615 4.538450 1.569110
v -0.076636 4.538450 1.616456
v -0.095748 4.644039 1.573969
v 0.009502 4.644039 1.526622
v 0.060790 4.579090 1.647728
v -0.039152 4.579090 1.692686
v -0.057301 4.679353 1.652342
v 0.042641 4.679353 1.607384
v 0.091699 4.618132 1.723255
v -0.003143 4.618132 1.765919
v -0.020365 4.713278 1.727633
v 0.074477 4.713278 1.684969
v 0.121636 4.655946 1.796406
v 0.031734 4.655946 1.836848
v 0.015408 4.746137 1.800557
v 0.105311 4.746137 1.760114
v 0.901513 3.987490 0.375801
v 0.876504 4.001751 0.548648
v 0.754087 4.124006 0.520850
v 0.779096 4.109746 0.348002
v 0.989023 4.095813 0.391620
v 0.967419 4.108131 0.540931
v 0.861671 4.213739 0.516918
v 0.883274 4.201421 0.367607
v 1.064648 4.189426 0.405291
v 1.045988 4.200066 0.534262
v 0.954646 4.291287 0.513520
v 0.973306 4.280647 0.384549
v 1.133462 4.274606 0.417731
v 1.117479 4.283720 0.528194
v 1.039245 4.361850 0.510428
v 1.055228 4.352736 0.399966
v -0.258754 3.438690 0.031852
v -0.068732 3.438690 -0.000683
v -0.058070 3.620831 0.061589
v -0.245208 3.646341 0.089434
v -0.288301 3.501856 -0.145402
v -0.099836 3.501856 -0.177670
v -0.089261 3.682505 -0.115909
v -0.277726 3.682505 -0.083641
v -0.317418 3.564102 -0.320077
v -0.130487 3.564102 -0.352082
v -0.119999 3.743281 -0.290824
v -0.306930 3.743281 -0.258819
v -0.346260 3.625759 -0.493097
v -0.160848 3.625759 -0.524843
v -0.150445 3.803481 -0.464082
v -0.335857 3.803481 -0.432337
v -0.374898 3.686981 -0.664898
v -0.190995 3.686981 -0.696385
v -0.180677 3.863257 -0.636119
v -0.364580 3.863257 -0.604632
v -0.403375 3.747859 -0.835732
v -0.220973 3.747859 -0.866962
v -0.210738 3.922697 -0.807188
v -0.393141 3.922697 -0.775958
v -0.269512 4.024217 -1.143941
v -0.171394 4.024217 -1.013804
v -0.290746 4.089180 -0.923818
v -0.388863 4.089180 -1.053954
v -0.224361 4.158156 -1.171780
v -0.132206 4.158156 -1.049553
v -0.244304 4.219172 -0.965035
v -0.336459 4.219172 -1.087263
v -0.182377 4.282701 -1.197667
v -0.095767 4.282701 -1.082794
v -0.201120 4.340045 -1.003362
v -0.287730 4.340045 -1.118235
v -0.142325 4.401512 -1.222363
v -0.061005 4.401512 -1.114505
v -0.159924 4.455355 -1.039923
v -0.241245 4.455355 -1.147781
v -0.495253 3.813246 -1.076977
v -0.350831 3.813246 -1.171540
v -0.348186 3.985804 -1.167500
v -0.492608 3.985804 -1.072938
v -0.575156 3.818551 -1.201151
v -0.432696 3.818551 -1.294429
v -0.430087 3.988765 -1.290444
v -0.572547 3.988765 -1.197166
v -0.653421 3.823746 -1.322778
v -0.512882 3.823746 -1.414798
v -0.510308 3.991665 -1.410867
v -0.650847 3.991665 -1.318847
v -0.730639 3.828873 -1.442780
v -0.591997 3.828873 -1.533558
v -0.589458 3.994526 -1.529680
v -0.728100 3.994526 -1.438902
v -0.807090 3.833949 -1.561588
v -0.670325 3.833949 -1.651137
v -0.667820 3.997359 -1.647311
v -0.804585 3.997359 -1.557762
v -0.232445 2.167237 -0.173118
v 0.015079 2.167237 -0.222254
v 0.038272 2.389709 -0.105418
v -0.258802 2.272042 -0.349225
v -0.027831 2.272042 -0.395075
v -0.006189 2.479636 -0.286052
v -0.237160 2.479636 -0.240203
v -0.282844 2.367645 -0.509869
v -0.066972 2.367645 -0.552722
v -0.046745 2.561668 -0.450827
v -0.262617 2.561668 -0.407974
v -0.305496 2.457723 -0.661230
v -0.103852 2.457723 -0.701258
v -0.084958 2.638959 -0.606078
v -0.286602 2.638959 -0.566050
v -0.327169 2.543903 -0.806041
v -0.139136 2.543903 -0.843367
v -0.121517 2.712906 -0.754612
v -0.309550 2.712906 -0.717286
v -0.334995 3.643646 0.256914
v -0.081133 3.727756 0.151026
v -0.357578 3.844664 0.230757
v -0.291134 3.844664 0.069171
v -0.137271 3.898029 0.132440
v -0.203715 3.898029 0.294026
v -0.398470 3.999478 0.209913
v -0.334860 3.999478 0.055221
v -0.187561 4.050566 0.115790
v -0.251170 4.050566 0.270482
v -0.436550 4.143651 0.190501
v -0.375581 4.143651 0.042229
v -0.234394 4.192618 0.100285
v -0.295364 4.192618 0.248557
v -0.472669 4.280394 0.172090
v -0.414203 4.280394 0.029907
v -0.278814 4.327351 0.085579
v -0.337280 4.327351 0.227762
v -0.507297 4.411495 0.154439
v -0.451232 4.411495 0.018093
v -0.321402 4.456524 0.071479
v -0.377467 4.456524 0.207825
v -0.540733 4.538082 0.137395
v -0.486985 4.538082 0.006686
v -0.362522 4.581249 0.057865
v -0.416270 4.581249 0.188574
v -0.573180 4.660929 0.120855
v -0.521682 4.660929 -0.004384
v -0.402428 4.702290 0.044653
v -0.453927 4.702290 0.169892
v -0.604789 4.780596 0.104743
v -0.555481 4.780596 -0.015167
v -0.441302 4.820198 0.031783
v -0.490609 4.820198 0.151694
v -0.635669 4.897509 0.089002
v -0.588503 4.897509 -0.025703
v -0.479280 4.935391 0.019210
v -0.526446 4.935391 0.133914
v -0.665909 5.011998 0.073587
v -0.620839 5.011998 -0.036019
v -0.516471 5.048196 0.006897
v -0.561541 5.048196 0.116503
v -0.269716 3.446916 0.437358
v -0.398695 3.444778 0.282671
v -0.271294 3.615441 0.413986
v -0.458009 3.495941 0.512082
v -0.538812 3.495941 0.368491
v -0.500966 3.654880 0.347194
v -0.420163 3.654880 0.490785
v -0.586789 3.541046 0.578402
v -0.662336 3.541046 0.444149
v -0.626951 3.689649 0.424237
v -0.551404 3.689649 0.558490
v -0.705481 3.582618 0.639528
v -0.776186 3.582618 0.513881
v -0.743070 3.721694 0.495246
v -0.672365 3.721694 0.620892
v -0.817197 3.621746 0.697060
v -0.883343 3.621746 0.579514
v -0.852362 3.751856 0.562080
v -0.786216 3.751856 0.679626
v -0.923649 3.659031 0.751882
v -0.985452 3.659031 0.642055
v -0.956505 3.780597 0.625766
v -0.894703 3.780597 0.735593
v -1.025916 3.694850 0.804548
v -1.083545 3.694850 0.702137
v -1.056553 3.808208 0.686947
v -0.998923 3.808208 0.789359
v -1.124730 3.729460 0.855436
v -1.178327 3.729460 0.760190
v -1.153223 3.834886 0.746063
v -1.099626 3.834886 0.841310
v -0.033097 3.449054 0.441101
v -0.033988 3.186113 0.494585
v -0.228391 3.186113 0.491346
v -0.230111 3.350880 0.594552
v -0.035708 3.350880 0.597791
v -0.036599 3.087938 0.651275
v -0.231002 3.087938 0.648036
v -0.232721 3.252706 0.751242
v -0.038319 3.252706 0.754481
v -0.039210 2.989763 0.807965
v -0.233613 2.989763 0.804726
v -0.235332 3.154531 0.907933
v -0.040930 3.154531 0.911172
v -0.041821 2.891590 0.964656
v -0.236223 2.891590 0.961416
v -0.237943 3.056357 1.064623
v -0.043540 3.056357 1.067862
v -0.418921 3.820069 -1.003871
v -0.262249 3.820069 -1.030695
v -0.253458 3.970243 -0.979353
v -0.410130 3.970243 -0.952528
v -0.041994 3.659260 0.343620
v -0.186816 3.706202 0.323617
v -0.227183 3.549248 0.453701
v -0.041755 3.549248 0.459980
vn 0.3237 0.0024 0.9462
vn -0.4759 0.0703 0.8767
vn 0.3211 -0.1242 0.9389
vn 0.8644 0.1265 0.4866
vn 0.9460 0.0269 -0.3229
vn 0.9143 0.1095 -0.3901
vn 0.0541 0.9357 -0.3487
vn -0.3232 0.0515 -0.9449
vn -0.8775 0.3757 -0.2980
vn -0.9456 0.0269 0.3242
vn -0.1580 -0.3521 -0.9225
vn 0.3899 -0.5764 -0.7182
vn -0.1762 -0.4253 -0.8877
vn 0.7468 -0.2452 -0.6182
vn 0.7345 0.1806 -0.6541
vn -0.2789 -0.5071 -0.8155
vn 0.7873 0.3338 -0.5184
vn -0.0276 0.6378 -0.7697
vn 0.6813 0.5505 -0.4824
vn 0.9761 -0.1644 -0.1425
vn 0.9777 0.1033 -0.1830
vn 0.5292 0.6531 -0.5417
vn 0.7365 0.6706 0.0888
vn 0.1508 0.9884 0.0159
vn 0.2617 0.9249 0.2758
vn 0.8229 0.4137 0.3895
vn 0.1393 0.7197 0.6802
vn -0.8581 0.2001 -0.4729
vn -0.7043 -0.6215 -0.3431
vn -0.6354 -0.5545 0.5374
vn -0.0141 -0.5309 0.8473
vn -0.4922 0.7999 0.3433
vn -0.7905 0.6067 -0.0833
vn -0.0139 -0.1863 0.9824
vn -0.0293 0.4998 0.8656
vn -0.0335 -0.1440 0.9890
vn -0.5713 0.1075 0.8137
vn -0.8407 0.2636 0.4731
vn 0.1308 0.9478 0.2907
vn -0.2825 0.9522 -0.1162
vn -0.1717 0.4720 -0.8647
vn 0.2673 -0.7586 0.5942
vn -0.5476 0.0280 -0.8363
vn 0.3183 0.9171 -0.2400
vn 0.7011 0.7118 0.0427
vn 0.3753 0.4037 0.8344
vn 0.1931 0.5962 0.7793
vn -0.3014 0.3242 -0.8967
vn -0.0000 1.0000 -0.0000
vn 0.2787 0.0182 -0.9602
vn 0.1563 -0.3772 0.9128
vn 0.5309 -0.3018 0.7919
vn 0.3014 -0.3242 0.8967
vn 0.5021 -0.2316 0.8332
vn -0.9851 -0.0635 0.1596
vn 0.9547 -0.0302 -0.2961
vn -0.0079 -0.9997 -0.0232
vn 0.8572 -0.4334 0.2782
vn 0.7956 -0.2720 -0.5413
vn -0.3396 -0.7315 0.5912
vn 0.0293 -0.4998 -0.8656
vn -0.6595 0.5526 0.5097
vn -0.8716 -0.4165 -0.2584
vn -0.1253 0.3885 -0.9129
vn 0.0196 -0.9986 0.0486
vn -0.7723 -0.0808 0.6301
vn -0.5209 0.2769 0.8074
vn -0.3314 0.6355 -0.6973
vn 0.6346 -0.3213 0.7028
vn -0.4752 -0.0899 0.8753
vn -0.9137 0.1035 -0.3931
vn 0.4377 0.1053 -0.8929
vn 0.8767 0.0299 0.4801
vn -0.8802 0.0299 -0.4737
vn 0.4717 0.1498 -0.8689
vn -0.3745 -0.1303 0.9180
vn -0.9104 0.0950 -0.4026
vn 0.8972 -0.0070 0.4416
vn 0.4440 -0.8887 0.1148
vn -0.2962 0.0064 0.9551
vn -0.3914 0.9061 -0.1605
vn 0.2423 -0.0043 -0.9702
vn 0.4439 -0.8887 0.1148
vn -0.2582 -0.0043 0.9661
vn -0.4599 0.8800 -0.1189
vn 0.4491 -0.8855 0.1190
vn -0.2554 -0.0066 0.9668
vn -0.4537 0.8830 -0.1200
vn 0.2422 -0.0021 -0.9702
vn -0.0236 -0.7160 0.6977
vn -0.9877 0.0169 -0.1552
vn -0.9997 0.0137 -0.0193
vn 0.0226 0.7433 -0.6686
vn 0.9987 0.0137 0.0484
vn -0.6290 -0.7746 -0.0663
vn 0.0788 0.0199 -0.9967
vn 0.5772 0.8144 0.0608
vn -0.1306 0.0199 0.9912
vn 0.1771 -0.9020 0.3938
vn -0.8999 0.0125 0.4359
vn -0.1539 0.9269 -0.3422
vn 0.9231 0.0125 -0.3842
vn 0.7476 -0.6428 0.1670
vn -0.0781 0.1322 0.9881
vn -0.6358 0.7564 -0.1541
vn 0.2065 -0.0222 -0.9782
vn 0.7560 -0.6343 0.1617
vn -0.0823 0.1419 0.9865
vn -0.6362 0.7559 -0.1544
vn 0.2021 -0.0203 -0.9792
vn -0.0560 -0.9434 -0.3269
vn 0.9850 0.0014 -0.1726
vn 0.1053 0.9626 0.2495
vn -0.9843 0.0069 0.1764
vn 0.0546 0.9461 0.3191
vn -0.9863 0.0014 0.1649
vn -0.0665 -0.9190 -0.3885
vn 0.9718 0.0234 -0.2347
vn 0.0438 0.9657 0.2558
vn -0.9945 0.0234 0.1020
vn 0.7428 -0.3668 -0.5601
vn 0.6126 0.0315 0.7898
vn -0.7209 0.4299 0.5435
vn -0.5907 0.0315 -0.8063
vn -0.0197 -0.9994 -0.0300
vn 0.8322 0.0002 -0.5544
vn 0.0110 0.9998 0.0168
vn -0.8409 0.0002 0.5411
vn -0.0988 -0.8616 -0.4979
vn 0.9730 0.0193 -0.2299
vn 0.1414 0.9322 0.3331
vn -0.9581 0.0463 0.2828
vn 0.0848 0.9001 0.4273
vn -0.9871 0.0193 0.1592
vn -0.8843 -0.2007 -0.4215
vn 0.3645 0.0028 -0.9312
vn 0.8581 0.2339 0.4571
vn -0.4214 0.0858 0.9028
vn -0.8869 -0.2834 -0.3647
vn 0.3737 0.0220 -0.9273
vn 0.8739 0.3273 0.3594
vn -0.3867 0.0220 0.9219
vn -0.8870 -0.2834 -0.3647
vn 0.8739 0.3273 0.3593
vn -0.2162 -0.9633 0.1589
vn -0.4945 0.0261 -0.8688
vn 0.1656 0.9861 0.0129
vn 0.4252 0.0759 0.9019
vn -0.2593 -0.9547 0.1459
vn -0.5198 0.0093 -0.8542
vn 0.1998 0.9734 -0.1125
vn 0.4604 0.0093 0.8877
vn 0.0639 -0.8894 -0.4525
vn -0.9874 -0.1419 0.0703
vn -0.0128 0.8496 0.5272
vn 0.9979 -0.0160 -0.0623
vn 0.0088 -0.8474 -0.5308
vn -0.9999 -0.0000 -0.0167
vn -0.0088 0.8474 0.5308
vn 0.9999 -0.0000 0.0167
s 0
usemtl Material.001
f 65//1 66//1 62//1 61//1
f 74//2 70//2 73//2
f 70//3 69//3 73//3
f 69//4 76//4 73//4
f 64//5 61//5 57//5 60//5
f 265//6 266//6 76//6
f 266//7 75//7 76//7
f 63//8 64//8 60//8 59//8
f 75//9 264//9 74//9
f 62//10 63//10 59//10 58//10
f 61//1 62//1 58//1 57//1
f 91//11 204//11 205//11
f 92//12 91//12 205//12
f 60//5 57//5 53//5 56//5
f 72//13 264//13 265//13
f 93//14 92//14 205//14
f 206//15 93//15 205//15
f 72//16 71//16 264//16
f 96//17 93//17 206//17
f 207//18 284//18 206//18
f 284//19 96//19 206//19
f 59//8 60//8 56//8 55//8
f 58//10 59//10 55//10 54//10
f 57//1 58//1 54//1 53//1
f 56//5 53//5 49//5 52//5
f 164//20 136//20 139//20
f 55//8 56//8 52//8 51//8
f 54//10 55//10 51//10 50//10
f 167//21 164//21 139//21
f 53//1 54//1 50//1 49//1
f 52//5 49//5 1//5 4//5
f 167//22 139//22 142//22
f 284//23 95//23 96//23
f 143//24 167//24 142//24
f 111//25 95//25 284//25
f 51//8 52//8 4//8 3//8
f 95//26 109//26 94//26
f 50//10 51//10 3//10 2//10
f 111//27 109//27 95//27
f 326//28 283//28 207//28 204//28
f 326//29 204//29 91//29 90//29
f 325//30 326//30 90//30
f 49//1 50//1 2//1 1//1
f 48//31 47//31 46//31 45//31
f 327//32 111//32 283//32
f 12//33 11//33 10//33 9//33
f 109//34 325//34 356//34
f 327//35 110//35 109//35
f 110//36 325//36 109//36
f 110//37 327//37 325//37
f 44//38 43//38 42//38 41//38
f 166//39 167//39 143//39
f 40//40 39//40 38//40 37//40
f 36//41 35//41 34//41 33//41
f 165//42 136//42 164//42
f 32//43 31//43 30//43 29//43
f 28//44 27//44 26//44 25//44
f 20//45 19//45 18//45 17//45
f 16//46 15//46 14//46 13//46
f 327//47 379//47 378//47 111//47
f 230//48 375//48 374//48 22//48
f 22//49 374//49 373//49 21//49
f 246//50 228//50 245//50
f 21//49 373//49 376//49 24//49
f 24//51 376//51 375//51 230//51
f 229//52 23//52 22//52
f 23//53 230//53 22//53
f 23//54 229//54 230//54
f 71//55 70//55 74//55 264//55
f 72//56 265//56 76//56 69//56
f 1//57 2//57 3//57 4//57
f 94//58 89//58 92//58 93//58
f 229//59 22//59 245//59 228//59
f 165//60 140//60 137//60 136//60
f 109//61 380//61 379//61 327//61
f 230//62 231//62 247//62 24//62
f 137//63 140//63 141//63 138//63
f 138//64 141//64 142//64 139//64
f 22//65 21//65 244//65 245//65
f 24//66 247//66 244//66 21//66
f 165//67 166//67 143//67 140//67
f 228//68 246//68 247//68 231//68
f 109//69 356//69 89//69 94//69
f 66//10 67//10 63//10 62//10
f 67//8 68//8 64//8 63//8
f 68//5 65//5 61//5 64//5
f 69//1 70//1 66//1 65//1
f 70//10 71//10 67//10 66//10
f 71//8 72//8 68//8 67//8
f 72//5 69//5 65//5 68//5
f 77//70 78//70 74//70 73//70
f 78//71 79//71 75//71 74//71
f 79//72 80//72 76//72 75//72
f 80//73 77//73 73//73 76//73
f 81//70 82//70 78//70 77//70
f 82//74 83//74 79//74 78//74
f 83//75 84//75 80//75 79//75
f 84//73 81//73 77//73 80//73
f 85//70 86//70 82//70 81//70
f 86//74 87//74 83//74 82//74
f 87//75 88//75 84//75 83//75
f 88//73 85//73 81//73 84//73
f 89//76 90//76 86//76 85//76
f 90//77 91//77 87//77 86//77
f 91//75 92//75 88//75 87//75
f 92//78 89//78 85//78 88//78
f 97//79 98//79 94//79 93//79
f 98//80 99//80 95//80 94//80
f 99//81 100//81 96//81 95//81
f 100//82 97//82 93//82 96//82
f 101//83 102//83 98//83 97//83
f 102//84 103//84 99//84 98//84
f 103//85 104//85 100//85 99//85
f 104//82 101//82 97//82 100//82
f 105//83 106//83 102//83 101//83
f 106//84 107//84 103//84 102//84
f 107//85 108//85 104//85 103//85
f 108//82 105//82 101//82 104//82
f 5//86 6//86 106//86 105//86
f 6//87 7//87 107//87 106//87
f 7//88 8//88 108//88 107//88
f 8//89 5//89 105//89 108//89
f 112//90 113//90 379//90 380//90
f 113//91 114//91 378//91 379//91
f 116//90 117//90 113//90 112//90
f 117//92 118//92 114//92 113//92
f 118//93 119//93 115//93 114//93
f 119//94 116//94 112//94 115//94
f 120//90 121//90 117//90 116//90
f 121//92 122//92 118//92 117//92
f 122//93 123//93 119//93 118//93
f 123//94 120//94 116//94 119//94
f 124//90 125//90 121//90 120//90
f 125//92 126//92 122//92 121//92
f 126//93 127//93 123//93 122//93
f 127//94 124//94 120//94 123//94
f 128//90 129//90 125//90 124//90
f 129//92 130//92 126//92 125//92
f 130//93 131//93 127//93 126//93
f 131//94 128//94 124//94 127//94
f 132//90 133//90 129//90 128//90
f 133//92 134//92 130//92 129//92
f 134//93 135//93 131//93 130//93
f 135//94 132//94 128//94 131//94
f 136//90 137//90 133//90 132//90
f 137//92 138//92 134//92 133//92
f 138//93 139//93 135//93 134//93
f 139//94 136//94 132//94 135//94
f 144//95 145//95 141//95 140//95
f 145//96 146//96 142//96 141//96
f 146//97 147//97 143//97 142//97
f 147//98 144//98 140//98 143//98
f 148//95 149//95 145//95 144//95
f 149//96 150//96 146//96 145//96
f 150//97 151//97 147//97 146//97
f 151//98 148//98 144//98 147//98
f 152//95 153//95 149//95 148//95
f 153//96 154//96 150//96 149//96
f 154//97 155//97 151//97 150//97
f 155//98 152//98 148//98 151//98
f 156//95 157//95 153//95 152//95
f 157//96 158//96 154//96 153//96
f 158//97 159//97 155//97 154//97
f 159//98 156//98 152//98 155//98
f 160//95 161//95 157//95 156//95
f 161//96 162//96 158//96 157//96
f 162//97 163//97 159//97 158//97
f 163//98 160//98 156//98 159//98
f 9//95 10//95 161//95 160//95
f 10//96 11//96 162//96 161//96
f 11//97 12//97 163//97 162//97
f 12//98 9//98 160//98 163//98
f 168//99 169//99 165//99 164//99
f 169//100 170//100 166//100 165//100
f 170//101 171//101 167//101 166//101
f 171//102 168//102 164//102 167//102
f 172//99 173//99 169//99 168//99
f 173//100 174//100 170//100 169//100
f 174//101 175//101 171//101 170//101
f 175//102 172//102 168//102 171//102
f 176//99 177//99 173//99 172//99
f 177//100 178//100 174//100 173//100
f 178//101 179//101 175//101 174//101
f 179//102 176//102 172//102 175//102
f 180//99 181//99 177//99 176//99
f 181//100 182//100 178//100 177//100
f 182//101 183//101 179//101 178//101
f 183//102 180//102 176//102 179//102
f 184//99 185//99 181//99 180//99
f 185//100 186//100 182//100 181//100
f 186//101 187//101 183//101 182//101
f 187//102 184//102 180//102 183//102
f 13//99 14//99 185//99 184//99
f 14//100 15//100 186//100 185//100
f 15//101 16//101 187//101 186//101
f 16//102 13//102 184//102 187//102
f 188//103 189//103 6//103 5//103
f 189//104 190//104 7//104 6//104
f 190//105 191//105 8//105 7//105
f 191//106 188//106 5//106 8//106
f 192//107 193//107 189//107 188//107
f 193//108 194//108 190//108 189//108
f 194//109 195//109 191//109 190//109
f 195//110 192//110 188//110 191//110
f 196//107 197//107 193//107 192//107
f 197//108 198//108 194//108 193//108
f 198//109 199//109 195//109 194//109
f 199//110 196//110 192//110 195//110
f 200//107 201//107 197//107 196//107
f 201//108 202//108 198//108 197//108
f 202//109 203//109 199//109 198//109
f 203//110 200//110 196//110 199//110
f 17//107 18//107 201//107 200//107
f 18//108 19//108 202//108 201//108
f 19//109 20//109 203//109 202//109
f 20//110 17//110 200//110 203//110
f 208//111 209//111 205//111 204//111
f 209//112 210//112 206//112 205//112
f 210//113 211//113 207//113 206//113
f 211//114 208//114 204//114 207//114
f 212//111 213//111 209//111 208//111
f 213//112 214//112 210//112 209//112
f 214//115 215//115 211//115 210//115
f 215//116 212//116 208//116 211//116
f 216//111 217//111 213//111 212//111
f 217//112 218//112 214//112 213//112
f 218//115 219//115 215//115 214//115
f 219//116 216//116 212//116 215//116
f 220//111 221//111 217//111 216//111
f 221//112 222//112 218//112 217//112
f 222//115 223//115 219//115 218//115
f 223//116 220//116 216//116 219//116
f 224//111 225//111 221//111 220//111
f 225//112 226//112 222//112 221//112
f 226//115 227//115 223//115 222//115
f 227//116 224//116 220//116 223//116
f 373//117 374//117 225//117 224//117
f 374//118 375//118 226//118 225//118
f 375//119 376//119 227//119 226//119
f 376//120 373//120 224//120 227//120
f 232//121 233//121 229//121 228//121
f 233//122 234//122 230//122 229//122
f 234//123 235//123 231//123 230//123
f 235//124 232//124 228//124 231//124
f 236//121 237//121 233//121 232//121
f 237//122 238//122 234//122 233//122
f 238//123 239//123 235//123 234//123
f 239//124 236//124 232//124 235//124
f 240//121 241//121 237//121 236//121
f 241//122 242//122 238//122 237//122
f 242//123 243//123 239//123 238//123
f 243//124 240//124 236//124 239//124
f 25//121 26//121 241//121 240//121
f 26//122 27//122 242//122 241//122
f 27//123 28//123 243//123 242//123
f 28//124 25//124 240//124 243//124
f 248//125 249//125 245//125 244//125
f 249//126 250//126 246//126 245//126
f 250//127 251//127 247//127 246//127
f 251//128 248//128 244//128 247//128
f 252//125 253//125 249//125 248//125
f 253//126 254//126 250//126 249//126
f 254//127 255//127 251//127 250//127
f 255//128 252//128 248//128 251//128
f 256//125 257//125 253//125 252//125
f 257//126 258//126 254//126 253//126
f 258//127 259//127 255//127 254//127
f 259//128 256//128 252//128 255//128
f 260//125 261//125 257//125 256//125
f 261//126 262//126 258//126 257//126
f 262//127 263//127 259//127 258//127
f 263//128 260//128 256//128 259//128
f 29//125 30//125 261//125 260//125
f 30//126 31//126 262//126 261//126
f 31//127 32//127 263//127 262//127
f 32//128 29//128 260//128 263//128
f 267//129 268//129 265//129 264//129
f 268//130 269//130 266//130 265//130
f 269//131 270//131 75//131 266//131
f 270//132 267//132 264//132 75//132
f 271//129 272//129 268//129 267//129
f 272//130 273//130 269//130 268//130
f 273//133 274//133 270//133 269//133
f 274//134 271//134 267//134 270//134
f 275//129 276//129 272//129 271//129
f 276//130 277//130 273//130 272//130
f 277//133 278//133 274//133 273//133
f 278//134 275//134 271//134 274//134
f 279//129 280//129 276//129 275//129
f 280//130 281//130 277//130 276//130
f 281//133 282//133 278//133 277//133
f 282//134 279//134 275//134 278//134
f 33//129 34//129 280//129 279//129
f 34//130 35//130 281//130 280//130
f 35//133 36//133 282//133 281//133
f 36//134 33//134 279//134 282//134
f 285//135 286//135 207//135 283//135
f 286//136 287//136 284//136 207//136
f 287//137 288//137 111//137 284//137
f 288//138 285//138 283//138 111//138
f 289//139 290//139 286//139 285//139
f 290//140 291//140 287//140 286//140
f 291//141 292//141 288//141 287//141
f 292//142 289//142 285//142 288//142
f 293//143 294//143 290//143 289//143
f 294//140 295//140 291//140 290//140
f 295//141 296//141 292//141 291//141
f 296//142 293//142 289//142 292//142
f 297//143 298//143 294//143 293//143
f 298//140 299//140 295//140 294//140
f 299//141 300//141 296//141 295//141
f 300//142 297//142 293//142 296//142
f 301//143 302//143 298//143 297//143
f 302//140 303//140 299//140 298//140
f 303//144 304//144 300//144 299//144
f 304//142 301//142 297//142 300//142
f 305//143 306//143 302//143 301//143
f 306//140 307//140 303//140 302//140
f 307//141 308//141 304//141 303//141
f 308//142 305//142 301//142 304//142
f 309//143 310//143 306//143 305//143
f 310//140 311//140 307//140 306//140
f 311//141 312//141 308//141 307//141
f 312//142 309//142 305//142 308//142
f 313//143 314//143 310//143 309//143
f 314//140 315//140 311//140 310//140
f 315//141 316//141 312//141 311//141
f 316//142 313//142 309//142 312//142
f 317//143 318//143 314//143 313//143
f 318//140 319//140 315//140 314//140
f 319//141 320//141 316//141 315//141
f 320//142 317//142 313//142 316//142
f 321//143 322//143 318//143 317//143
f 322//140 323//140 319//140 318//140
f 323//141 324//141 320//141 319//141
f 324//142 321//142 317//142 320//142
f 37//143 38//143 322//143 321//143
f 38//140 39//140 323//140 322//140
f 39//141 40//141 324//141 323//141
f 40//142 37//142 321//142 324//142
f 328//145 329//145 326//145 325//145
f 329//146 330//146 283//146 326//146
f 330//147 331//147 327//147 283//147
f 331//148 328//148 325//148 327//148
f 332//149 333//149 329//149 328//149
f 333//150 334//150 330//150 329//150
f 334//151 335//151 331//151 330//151
f 335//152 332//152 328//152 331//152
f 336//149 337//149 333//149 332//149
f 337//150 338//150 334//150 333//150
f 338//151 339//151 335//151 334//151
f 339//152 336//152 332//152 335//152
f 340//149 341//149 337//149 336//149
f 341//150 342//150 338//150 337//150
f 342//151 343//151 339//151 338//151
f 343//152 340//152 336//152 339//152
f 344//149 345//149 341//149 340//149
f 345//150 346//150 342//150 341//150
f 346//151 347//151 343//151 342//151
f 347//152 344//152 340//152 343//152
f 348//149 349//149 345//149 344//149
f 349//150 350//150 346//150 345//150
f 350//151 351//151 347//151 346//151
f 351//152 348//152 344//152 347//152
f 352//149 353//149 349//149 348//149
f 353//150 354//150 350//150 349//150
f 354//151 355//151 351//151 350//151
f 355//152 352//152 348//152 351//152
f 41//149 42//149 353//149 352//149
f 42//150 43//150 354//150 353//150
f 43//151 44//151 355//151 354//151
f 44//152 41//152 352//152 355//152
f 357//153 358//153 90//153 89//153
f 358//154 359//154 325//154 90//154
f 359//155 360//155 356//155 325//155
f 360//156 357//156 89//156 356//156
f 361//157 362//157 358//157 357//157
f 362//158 363//158 359//158 358//158
f 363//159 364//159 360//159 359//159
f 364//160 361//160 357//160 360//160
f 365//157 366//157 362//157 361//157
f 366//158 367//158 363//158 362//158
f 367//159 368//159 364//159 363//159
f 368//160 365//160 361//160 364//160
f 369//157 370//157 366//157 365//157
f 370//158 371//158 367//158 366//158
f 371//159 372//159 368//159 367//159
f 372//160 369//160 365//160 368//160
f 45//157 46//157 370//157 369//157
f 46//158 47//158 371//158 370//158
f 47//159 48//159 372//159 371//159
f 48//160 45//160 369//160 372//160
l 115 377
o Icosphere
v -0.062709 2.043691 -0.389484
v 0.283614 2.697760 -0.347012
v -0.392337 2.616525 -0.053692
v -0.784145 2.173250 -0.500401
v -0.350328 1.980534 -1.069803
v 0.309577 2.304699 -0.974999
v -0.223783 3.231561 -0.431679
v -0.883688 2.907395 -0.526483
v -0.857726 2.514334 -1.154470
v -0.181775 2.595570 -1.447790
v 0.210034 3.038845 -1.001081
v -0.511403 3.168403 -1.111998
vn 0.4104 -0.2738 0.8699
vn 0.8280 -0.4593 0.3217
vn -0.2249 -0.5858 0.7786
vn -0.1999 -0.9642 0.1740
vn 0.4508 -0.8860 -0.1083
vn 0.9902 0.1328 -0.0422
vn 0.3145 0.4330 0.8448
vn -0.7134 -0.0720 0.6971
vn -0.6729 -0.6842 -0.2811
vn 0.3800 -0.5577 -0.7380
vn 0.6729 0.6842 0.2811
vn -0.3800 0.5577 0.7380
vn -0.9902 -0.1328 0.0422
vn -0.3145 -0.4330 -0.8448
vn 0.7134 0.0720 -0.6971
vn 0.1999 0.9642 -0.1740
vn -0.4508 0.8860 0.1083
vn -0.8280 0.4593 -0.3217
vn -0.4104 0.2738 -0.8699
vn 0.2249 0.5858 -0.7786
vt 0.181819 0.000000
vt 0.272728 0.157461
vt 0.090910 0.157461
vt 0.363637 0.000000
vt 0.454546 0.157461
vt 0.909091 0.000000
vt 1.000000 0.157461
vt 0.818182 0.157461
vt 0.727273 0.000000
vt 0.636364 0.157461
vt 0.545455 0.000000
vt 0.363637 0.314921
vt 0.181819 0.314921
vt 0.909091 0.314921
vt 0.727273 0.314921
vt 0.545455 0.314921
vt 0.000000 0.314921
vt 0.272728 0.472382
vt 0.090910 0.472382
vt 0.818182 0.472382
vt 0.636364 0.472382
vt 0.454546 0.472382
s 0
usemtl Material.003
f 381/1/161 382/2/161 383/3/161
f 382/2/162 381/4/162 386/5/162
f 381/6/163 383/7/163 384/8/163
f 381/9/164 384/8/164 385/10/164
f 381/11/165 385/10/165 386/5/165
f 382/2/166 386/5/166 391/12/166
f 383/3/167 382/2/167 387/13/167
f 384/8/168 383/7/168 388/14/168
f 385/10/169 384/8/169 389/15/169
f 386/5/170 385/10/170 390/16/170
f 382/2/171 391/12/171 387/13/171
f 383/3/172 387/13/172 388/17/172
f 384/8/173 388/14/173 389/15/173
f 385/10/174 389/15/174 390/16/174
f 386/5/175 390/16/175 391/12/175
f 387/13/176 391/12/176 392/18/176
f 388/17/177 387/13/177 392/19/177
f 389/15/178 388/14/178 392/20/178
f 390/16/179 389/15/179 392/21/179
f 391/12/180 390/16/180 392/22/180
o Icosphere.001
v -0.128643 3.513646 -0.990867
v 0.270395 4.267273 -0.941931
v -0.508444 4.173672 -0.603963
v -0.959891 3.662925 -1.118668
v -0.460042 3.440875 -1.774741
v 0.300310 3.814383 -1.665506
v -0.314235 4.882326 -1.039485
v -1.074587 4.508817 -1.148720
v -1.044672 4.055927 -1.872295
v -0.265832 4.149528 -2.210263
v 0.185614 4.660275 -1.695558
v -0.645634 4.809554 -1.823358
vn 0.4104 -0.2738 0.8699
vn 0.8280 -0.4593 0.3217
vn -0.2249 -0.5858 0.7786
vn -0.1999 -0.9642 0.1740
vn 0.4508 -0.8860 -0.1083
vn 0.9902 0.1328 -0.0422
vn 0.3145 0.4330 0.8448
vn -0.7134 -0.0720 0.6971
vn -0.6729 -0.6842 -0.2811
vn 0.3800 -0.5577 -0.7380
vn 0.6729 0.6842 0.2811
vn -0.3800 0.5577 0.7380
vn -0.9902 -0.1328 0.0422
vn -0.3145 -0.4330 -0.8448
vn 0.7134 0.0720 -0.6971
vn 0.1999 0.9642 -0.1740
vn -0.4508 0.8860 0.1083
vn -0.8280 0.4593 -0.3217
vn -0.4104 0.2738 -0.8699
vn 0.2249 0.5858 -0.7786
vt 0.181819 0.000000
vt 0.272728 0.157461
vt 0.090910 0.157461
vt 0.363637 0.000000
vt 0.454546 0.157461
vt 0.909091 0.000000
vt 1.000000 0.157461
vt 0.818182 0.157461
vt 0.727273 0.000000
vt 0.636364 0.157461
vt 0.545455 0.000000
vt 0.363637 0.314921
vt 0.181819 0.314921
vt 0.909091 0.314921
vt 0.727273 0.314921
vt 0.545455 0.314921
vt 0.000000 0.314921
vt 0.272728 0.472382
vt 0.090910 0.472382
vt 0.818182 0.472382
vt 0.636364 0.472382
vt 0.454546 0.472382
s 0
usemtl Material.003
f 393/23/181 394/24/181 395/25/181
f 394/24/182 393/26/182 398/27/182
f 393/28/183 395/29/183 396/30/183
f 393/31/184 396/30/184 397/32/184
f 393/33/185 397/32/185 398/27/185
f 394/24/186 398/27/186 403/34/186
f 395/25/187 394/24/187 399/35/187
f 396/30/188 395/29/188 400/36/188
f 397/32/189 396/30/189 401/37/189
f 398/27/190 397/32/190 402/38/190
f 394/24/191 403/34/191 399/35/191
f 395/25/192 399/35/192 400/39/192
f 396/30/193 400/36/193 401/37/193
f 397/32/194 401/37/194 402/38/194
f 398/27/195 402/38/195 403/34/195
f 399/35/196 403/34/196 404/40/196
f 400/39/197 399/35/197 404/41/197
f 401/37/198 400/36/198 404/42/198
f 402/38/199 401/37/199 404/43/199
f 403/34/200 402/38/200 404/44/200
o Icosphere.003
v -0.141017 4.058394 0.220470
v 0.187317 4.688002 0.433405
v -0.497285 4.528884 0.669091
v -0.860574 4.200388 0.112615
v -0.400482 4.156490 -0.466992
v 0.247144 4.457851 -0.268728
v -0.329321 5.219119 0.457153
v -0.976946 4.917758 0.258889
v -0.917119 4.687608 -0.443243
v -0.232518 4.846725 -0.678930
v 0.130772 5.175221 -0.122453
v -0.588786 5.317215 -0.230309
vn 0.3830 -0.4689 0.7959
vn 0.8259 -0.5112 0.2379
vn -0.2405 -0.7590 0.6050
vn -0.1829 -0.9806 -0.0709
vn 0.4762 -0.8274 -0.2978
vn 0.9876 0.1533 0.0339
vn 0.2710 0.2217 0.9367
vn -0.7378 -0.2477 0.6279
vn -0.6446 -0.6062 -0.4658
vn 0.4217 -0.3584 -0.8329
vn 0.6446 0.6062 0.4658
vn -0.4217 0.3584 0.8329
vn -0.9876 -0.1533 -0.0339
vn -0.2710 -0.2217 -0.9367
vn 0.7378 0.2477 -0.6279
vn 0.1829 0.9806 0.0709
vn -0.4762 0.8274 0.2978
vn -0.8259 0.5112 -0.2379
vn -0.3830 0.4689 -0.7959
vn 0.2405 0.7590 -0.6050
vt 0.181819 0.000000
vt 0.272728 0.157461
vt 0.090910 0.157461
vt 0.363637 0.000000
vt 0.454546 0.157461
vt 0.909091 0.000000
vt 1.000000 0.157461
vt 0.818182 0.157461
vt 0.727273 0.000000
vt 0.636364 0.157461
vt 0.545455 0.000000
vt 0.363637 0.314921
vt 0.181819 0.314921
vt 0.909091 0.314921
vt 0.727273 0.314921
vt 0.545455 0.314921
vt 0.000000 0.314921
vt 0.272728 0.472382
vt 0.090910 0.472382
vt 0.818182 0.472382
vt 0.636364 0.472382
vt 0.454546 0.472382
s 0
usemtl Material.003
f 405/45/201 406/46/201 407/47/201
f 406/46/202 405/48/202 410/49/202
f 405/50/203 407/51/203 408/52/203
f 405/53/204 408/52/204 409/54/204
f 405/55/205 409/54/205 410/49/205
f 406/46/206 410/49/206 415/56/206
f 407/47/207 406/46/207 411/57/207
f 408/52/208 407/51/208 412/58/208
f 409/54/209 408/52/209 413/59/209
f 410/49/210 409/54/210 414/60/210
f 406/46/211 415/56/211 411/57/211
f 407/47/212 411/57/212 412/61/212
f 408/52/213 412/58/213 413/59/213
f 409/54/214 413/59/214 414/60/214
f 410/49/215 414/60/215 415/56/215
f 411/57/216 415/56/216 416/62/216
f 412/61/217 411/57/217 416/63/217
f 413/59/218 412/58/218 416/64/218
f 414/60/219 413/59/219 416/65/219
f 415/56/220 414/60/220 416/66/220
o Icosphere.004
v -0.658687 3.127591 0.473440
v -0.507755 3.608742 1.016820
v -1.163451 3.263351 0.999112
v -1.372807 3.205450 0.290329
v -0.846485 3.515063 -0.130006
v -0.311861 3.764307 0.318993
v -1.128597 3.983971 1.169542
v -1.663221 3.734726 0.720543
v -1.467327 3.890291 0.022716
v -0.811631 4.235682 0.040425
v -0.602275 4.293584 0.749208
v -1.316395 4.371442 0.566097
vn 0.3764 -0.7430 0.5534
vn 0.8831 -0.4450 0.1487
vn -0.1382 -0.9830 0.1211
vn 0.0504 -0.8332 -0.5507
vn 0.6816 -0.5007 -0.5336
vn 0.9167 0.2487 0.3128
vn 0.0969 -0.2335 0.9675
vn -0.7359 -0.6217 0.2682
vn -0.4307 -0.3794 -0.8188
vn 0.5906 0.1586 -0.7912
vn 0.4307 0.3794 0.8188
vn -0.5906 -0.1586 0.7912
vn -0.9167 -0.2487 -0.3128
vn -0.0969 0.2335 -0.9675
vn 0.7359 0.6217 -0.2682
vn -0.0504 0.8332 0.5507
vn -0.6816 0.5007 0.5336
vn -0.8831 0.4450 -0.1487
vn -0.3764 0.7430 -0.5534
vn 0.1382 0.9830 -0.1211
vt 0.181819 0.000000
vt 0.272728 0.157461
vt 0.090910 0.157461
vt 0.363637 0.000000
vt 0.454546 0.157461
vt 0.909091 0.000000
vt 1.000000 0.157461
vt 0.818182 0.157461
vt 0.727273 0.000000
vt 0.636364 0.157461
vt 0.545455 0.000000
vt 0.363637 0.314921
vt 0.181819 0.314921
vt 0.909091 0.314921
vt 0.727273 0.314921
vt 0.545455 0.314921
vt 0.000000 0.314921
vt 0.272728 0.472382
vt 0.090910 0.472382
vt 0.818182 0.472382
vt 0.636364 0.472382
vt 0.454546 0.472382
s 0
usemtl Material.003
f 417/67/221 418/68/221 419/69/221
f 418/68/222 417/70/222 422/71/222
f 417/72/223 419/73/223 420/74/223
f 417/75/224 420/74/224 421/76/224
f 417/77/225 421/76/225 422/71/225
f 418/68/226 422/71/226 427/78/226
f 419/69/227 418/68/227 423/79/227
f 420/74/228 419/73/228 424/80/228
f 421/76/229 420/74/229 425/81/229
f 422/71/230 421/76/230 426/82/230
f 418/68/231 427/78/231 423/79/231
f 419/69/232 423/79/232 424/83/232
f 420/74/233 424/80/233 425/81/233
f 421/76/234 425/81/234 426/82/234
f 422/71/235 426/82/235 427/78/235
f 423/79/236 427/78/236 428/84/236
f 424/83/237 423/79/237 428/85/237
f 425/81/238 424/80/238 428/86/238
f 426/82/239 425/81/239 428/87/239
f 427/78/240 426/82/240 428/88/240
o Icosphere.005
v 0.455964 3.555758 0.690875
v 1.226005 3.642151 0.697718
v 0.777970 4.128360 1.101866
v 0.135836 4.261449 0.689030
v 0.187027 3.857483 0.029733
v 0.860786 3.474741 0.035109
v 1.381794 4.401239 0.700104
v 0.708036 4.783981 0.694728
v 0.342816 4.616571 0.032120
v 0.790852 4.130363 -0.372029
v 1.432985 3.997273 0.040807
v 1.112858 4.702964 0.038962
vn 0.0607 -0.6043 0.7944
vn 0.1079 -0.9764 0.1872
vn -0.5598 -0.2519 0.7895
vn -0.8961 -0.4060 0.1792
vn -0.4835 -0.8538 -0.1930
vn 0.6640 -0.7251 -0.1828
vn 0.5877 -0.1231 0.7997
vn -0.4163 0.4472 0.7917
vn -0.9605 0.1977 -0.1957
vn -0.2929 -0.5268 -0.7980
vn 0.9605 -0.1977 0.1957
vn 0.2929 0.5268 0.7980
vn -0.6640 0.7251 0.1828
vn -0.5877 0.1231 -0.7997
vn 0.4163 -0.4472 -0.7917
vn 0.8961 0.4060 -0.1792
vn 0.4835 0.8538 0.1930
vn -0.1079 0.9764 -0.1872
vn -0.0607 0.6043 -0.7944
vn 0.5598 0.2519 -0.7895
vt 0.181819 0.000000
vt 0.272728 0.157461
vt 0.090910 0.157461
vt 0.363637 0.000000
vt 0.454546 0.157461
vt 0.909091 0.000000
vt 1.000000 0.157461
vt 0.818182 0.157461
vt 0.727273 0.000000
vt 0.636364 0.157461
vt 0.545455 0.000000
vt 0.363637 0.314921
vt 0.181819 0.314921
vt 0.909091 0.314921
vt 0.727273 0.314921
vt 0.545455 0.314921
vt 0.000000 0.314921
vt 0.272728 0.472382
vt 0.090910 0.472382
vt 0.818182 0.472382
vt 0.636364 0.472382
vt 0.454546 0.472382
s 0
usemtl Material.003
f 429/89/241 430/90/241 431/91/241
f 430/90/242 429/92/242 434/93/242
f 429/94/243 431/95/243 432/96/243
f 429/97/244 432/96/244 433/98/244
f 429/99/245 433/98/245 434/93/245
f 430/90/246 434/93/246 439/100/246
f 431/91/247 430/90/247 435/101/247
f 432/96/248 431/95/248 436/102/248
f 433/98/249 432/96/249 437/103/249
f 434/93/250 433/98/250 438/104/250
f 430/90/251 439/100/251 435/101/251
f 431/91/252 435/101/252 436/105/252
f 432/96/253 436/102/253 437/103/253
f 433/98/254 437/103/254 438/104/254
f 434/93/255 438/104/255 439/100/255
f 435/101/256 439/100/256 440/106/256
f 436/105/257 435/101/257 440/107/257
f 437/103/258 436/102/258 440/108/258
f 438/104/259 437/103/259 440/109/259
f 439/100/260 438/104/260 440/110/260
o Icosphere.006
v -0.368946 4.446383 1.092786
v -0.104626 4.804588 1.436182
v -0.645328 4.678067 1.524100
v -0.896017 4.629303 1.023223
v -0.510237 4.725688 0.625750
v -0.021136 4.834019 0.880976
v -0.468339 5.208895 1.578854
v -0.957440 5.100564 1.323628
v -0.873950 5.129994 0.768422
v -0.333248 5.256516 0.680503
v -0.082559 5.305280 1.181381
v -0.609630 5.488200 1.111818
vn 0.2738 -0.7632 0.5854
vn 0.7634 -0.6408 0.0808
vn -0.3471 -0.9007 0.2614
vn -0.2411 -0.8633 -0.4434
vn 0.4452 -0.7027 -0.5549
vn 0.9881 0.0330 0.1503
vn 0.1958 -0.1650 0.9667
vn -0.8087 -0.3875 0.4425
vn -0.6373 -0.3270 -0.6978
vn 0.4732 -0.0672 -0.8784
vn 0.6373 0.3270 0.6978
vn -0.4732 0.0672 0.8784
vn -0.9881 -0.0330 -0.1503
vn -0.1958 0.1650 -0.9667
vn 0.8087 0.3875 -0.4425
vn 0.2411 0.8633 0.4434
vn -0.4452 0.7027 0.5549
vn -0.7634 0.6408 -0.0808
vn -0.2738 0.7632 -0.5854
vn 0.3471 0.9007 -0.2614
vt 0.181819 0.000000
vt 0.272728 0.157461
vt 0.090910 0.157461
vt 0.363637 0.000000
vt 0.454546 0.157461
vt 0.909091 0.000000
vt 1.000000 0.157461
vt 0.818182 0.157461
vt 0.727273 0.000000
vt 0.636364 0.157461
vt 0.545455 0.000000
vt 0.363637 0.314921
vt 0.181819 0.314921
vt 0.909091 0.314921
vt 0.727273 0.314921
vt 0.545455 0.314921
vt 0.000000 0.314921
vt 0.272728 0.472382
vt 0.090910 0.472382
vt 0.818182 0.472382
vt 0.636364 0.472382
vt 0.454546 0.472382
s 0
usemtl Material.003
f 441/111/261 442/112/261 443/113/261
f 442/112/262 441/114/262 446/115/262
f 441/116/263 443/117/263 444/118/263
f 441/119/264 444/118/264 445/120/264
f 441/121/265 445/120/265 446/115/265
f 442/112/266 446/115/266 451/122/266
f 443/113/267 442/112/267 447/123/267
f 444/118/268 443/117/268 448/124/268
f 445/120/269 444/118/269 449/125/269
f 446/115/270 445/120/270 450/126/270
f 442/112/271 451/122/271 447/123/271
f 443/113/272 447/123/272 448/127/272
f 444/118/273 448/124/273 449/125/273
f 445/120/274 449/125/274 450/126/274
f 446/115/275 450/126/275 451/122/275
f 447/123/276 451/122/276 452/128/276
f 448/127/277 447/123/277 452/129/277
f 449/125/278 448/124/278 452/130/278
f 450/126/279 449/125/279 452/131/279
f 451/122/280 450/126/280 452/132/280
o Icosphere.007
v -0.266910 4.724588 1.502975
v -0.140303 4.327636 1.591781
v -0.318962 4.567179 1.895403
v -0.184803 4.968078 1.842771
v 0.076772 4.976295 1.506615
v 0.104271 4.580482 1.351499
v 0.020051 4.325793 1.986464
v -0.007449 4.721607 2.141581
v 0.237126 4.974453 1.901299
v 0.415784 4.734910 1.597677
v 0.281625 4.334011 1.650309
v 0.363732 4.577500 1.990105
vn -0.9022 -0.3455 -0.2583
vn -0.4640 -0.3317 -0.8214
vn -0.9482 0.3175 0.0016
vn -0.5385 0.7411 -0.4009
vn -0.2392 0.3398 -0.9095
vn 0.1039 -0.7361 -0.6688
vn -0.6051 -0.7584 0.2423
vn -0.6796 0.3144 0.6627
vn -0.0167 0.9998 0.0115
vn 0.4675 0.3505 -0.8115
vn 0.0167 -0.9998 -0.0115
vn -0.4675 -0.3505 0.8115
vn -0.1039 0.7361 0.6688
vn 0.6051 0.7584 -0.2423
vn 0.6796 -0.3144 -0.6627
vn 0.5385 -0.7411 0.4009
vn 0.2392 -0.3398 0.9095
vn 0.4640 0.3317 0.8214
vn 0.9022 0.3455 0.2583
vn 0.9482 -0.3175 -0.0016
vt 0.181819 0.000000
vt 0.272728 0.157461
vt 0.090910 0.157461
vt 0.363637 0.000000
vt 0.454546 0.157461
vt 0.909091 0.000000
vt 1.000000 0.157461
vt 0.818182 0.157461
vt 0.727273 0.000000
vt 0.636364 0.157461
vt 0.545455 0.000000
vt 0.363637 0.314921
vt 0.181819 0.314921
vt 0.909091 0.314921
vt 0.727273 0.314921
vt 0.545455 0.314921
vt 0.000000 0.314921
vt 0.272728 0.472382
vt 0.090910 0.472382
vt 0.818182 0.472382
vt 0.636364 0.472382
vt 0.454546 0.472382
s 0
usemtl Material.003
f 453/133/281 454/134/281 455/135/281
f 454/134/282 453/136/282 458/137/282
f 453/138/283 455/139/283 456/140/283
f 453/141/284 456/140/284 457/142/284
f 453/143/285 457/142/285 458/137/285
f 454/134/286 458/137/286 463/144/286
f 455/135/287 454/134/287 459/145/287
f 456/140/288 455/139/288 460/146/288
f 457/142/289 456/140/289 461/147/289
f 458/137/290 457/142/290 462/148/290
f 454/134/291 463/144/291 459/145/291
f 455/135/292 459/145/292 460/149/292
f 456/140/293 460/146/293 461/147/293
f 457/142/294 461/147/294 462/148/294
f 458/137/295 462/148/295 463/144/295
f 459/145/296 463/144/296 464/150/296
f 460/149/297 459/145/297 464/151/297
f 461/147/298 460/146/298 464/152/298
f 462/148/299 461/147/299 464/153/299
f 463/144/300 462/148/300 464/154/300
o Icosphere.008
v 0.069807 2.368191 1.094678
v 0.322593 2.662081 1.726562
v -0.383977 2.443563 1.676011
v -0.625436 2.604936 0.993947
v -0.068081 2.923191 0.622968
v 0.517825 2.958505 1.075751
v -0.216422 3.080462 2.016362
v -0.802328 3.045148 1.563579
v -0.607096 3.341572 0.912768
v 0.099474 3.560090 0.963319
v 0.340933 3.398717 1.645383
v -0.354310 3.635463 1.544652
vn 0.2589 -0.9113 0.3203
vn 0.7955 -0.6049 -0.0369
vn -0.3051 -0.9453 -0.1156
vn -0.1172 -0.6599 -0.7422
vn 0.5630 -0.4495 -0.6935
vn 0.9568 0.0082 0.2908
vn 0.0886 -0.4875 0.8686
vn -0.8240 -0.5425 0.1634
vn -0.5199 -0.0808 -0.8504
vn 0.5807 0.2596 -0.7716
vn 0.5199 0.0808 0.8504
vn -0.5807 -0.2596 0.7716
vn -0.9568 -0.0082 -0.2908
vn -0.0886 0.4875 -0.8686
vn 0.8240 0.5425 -0.1634
vn 0.1172 0.6599 0.7422
vn -0.5630 0.4495 0.6935
vn -0.7955 0.6049 0.0369
vn -0.2589 0.9113 -0.3203
vn 0.3051 0.9453 0.1156
vt 0.181819 0.000000
vt 0.272728 0.157461
vt 0.090910 0.157461
vt 0.363637 0.000000
vt 0.454546 0.157461
vt 0.909091 0.000000
vt 1.000000 0.157461
vt 0.818182 0.157461
vt 0.727273 0.000000
vt 0.636364 0.157461
vt 0.545455 0.000000
vt 0.363637 0.314921
vt 0.181819 0.314921
vt 0.909091 0.314921
vt 0.727273 0.314921
vt 0.545455 0.314921
vt 0.000000 0.314921
vt 0.272728 0.472382
vt 0.090910 0.472382
vt 0.818182 0.472382
vt 0.636364 0.472382
vt 0.454546 0.472382
s 0
usemtl Material.003
f 465/155/301 466/156/301 467/157/301
f 466/156/302 465/158/302 470/159/302
f 465/160/303 467/161/303 468/162/303
f 465/163/304 468/162/304 469/164/304
f 465/165/305 469/164/305 470/159/305
f 466/156/306 470/159/306 475/166/306
f 467/157/307 466/156/307 471/167/307
f 468/162/308 467/161/308 472/168/308
f 469/164/309 468/162/309 473/169/309
f 470/159/310 469/164/310 474/170/310
f 466/156/311 475/166/311 471/167/311
f 467/157/312 471/167/312 472/171/312
f 468/162/313 472/168/313 473/169/313
f 469/164/314 473/169/314 474/170/314
f 470/159/315 474/170/315 475/166/315
f 471/167/316 475/166/316 476/172/316
f 472/171/317 471/167/317 476/173/317
f 473/169/318 472/168/318 476/174/318
f 474/170/319 473/169/319 476/175/319
f 475/166/320 474/170/320 476/176/320
