# Blender 4.3.2
# www.blender.org
mtllib candy.mtl
o Циліндр
v 0.379086 0.330853 -0.510494
v 0.379086 1.099281 -0.510494
v 0.825572 0.330853 -0.334367
v 0.825572 1.099281 -0.334367
v 1.063141 0.330853 0.111602
v 1.063141 1.099281 0.111602
v 0.980634 0.330853 0.618739
v 0.980634 1.099281 0.618739
v 0.616656 0.330853 0.949749
v 0.616656 1.099281 0.949749
v 0.141516 0.330853 0.949749
v 0.141516 1.099281 0.949749
v -0.222462 0.330853 0.618739
v -0.222462 1.099281 0.618739
v -0.304969 0.330853 0.111602
v -0.304969 1.099281 0.111602
v -0.067400 0.330853 -0.334367
v -0.067400 1.099281 -0.334367
v 0.825572 1.581820 -0.334367
v 0.379086 1.581820 -0.510494
v 1.063141 1.581820 0.111602
v 0.980634 1.581820 0.618739
v 0.616656 1.581820 0.949749
v 0.141516 1.581820 0.949749
v -0.222462 1.581820 0.618739
v -0.304969 1.581820 0.111602
v -0.067400 1.581820 -0.334367
v 0.825572 2.070232 -0.334367
v 0.379086 2.070232 -0.510494
v 1.063141 2.070232 0.111602
v 0.980634 2.070232 0.618739
v 0.616656 2.070232 0.949749
v 0.141516 2.070232 0.949749
v -0.222462 2.070232 0.618739
v -0.304969 2.070232 0.111602
v -0.067400 2.070232 -0.334367
v 0.825572 2.615294 -0.334367
v 0.379086 2.615294 -0.510494
v 1.063142 2.615294 0.111602
v 0.980634 2.615294 0.618739
v 0.616656 2.615294 0.949749
v 0.141516 2.615294 0.949749
v -0.222462 2.615294 0.618739
v -0.304969 2.615294 0.111602
v -0.067399 2.615294 -0.334367
v 0.825572 3.223346 -0.334367
v 0.379086 3.223346 -0.510494
v 1.063141 3.223346 0.111602
v 0.980634 3.223346 0.618739
v 0.616656 3.223346 0.949749
v 0.141516 3.223346 0.949749
v -0.222462 3.223346 0.618739
v -0.304969 3.223346 0.111602
v -0.067400 3.223346 -0.334367
v 0.825572 3.835405 -0.334367
v 0.379086 3.835405 -0.510494
v 1.063141 3.835405 0.111602
v 0.980634 3.835405 0.618739
v 0.616656 3.835405 0.949749
v 0.141516 3.835405 0.949749
v -0.222462 3.835405 0.618739
v -0.304969 3.835405 0.111602
v -0.067400 3.835405 -0.334367
v 0.825572 3.835405 -0.334367
v 0.379086 3.835405 -0.510494
v 1.063141 3.835405 0.111602
v 0.980634 3.835405 0.618739
v 0.616656 3.835405 0.949749
v 0.141516 3.835405 0.949749
v -0.222462 3.835405 0.618739
v -0.304969 3.835405 0.111602
v -0.067400 3.835405 -0.334367
v 0.825572 4.207879 -0.334367
v 0.379086 4.207879 -0.510494
v 1.063141 4.207879 0.111602
v 0.980634 4.207879 0.618739
v 0.616656 4.207879 0.949749
v 0.141516 4.207879 0.949749
v -0.222462 4.207879 0.618739
v -0.304969 4.207879 0.111602
v -0.067400 4.207879 -0.334367
v 0.825572 4.670711 -0.334367
v 0.379086 4.670711 -0.510494
v 1.063141 4.670711 0.111602
v 0.980634 4.670711 0.618739
v 0.616656 4.670711 0.949749
v 0.141516 4.670711 0.949749
v -0.222462 4.670711 0.618739
v -0.304969 4.670711 0.111602
v -0.067400 4.670711 -0.334367
v 0.825571 5.020686 -0.334367
v 0.379086 5.020686 -0.510494
v 1.063141 5.020686 0.111602
v 0.980634 5.020686 0.618739
v 0.616656 5.020686 0.949749
v 0.141516 5.020686 0.949749
v -0.222462 5.020686 0.618739
v -0.304970 5.020686 0.111602
v -0.067400 5.020686 -0.334367
v 0.806060 5.433006 -0.345388
v 0.353942 5.451293 -0.505464
v 1.058393 5.384363 0.089686
v 0.992870 5.328124 0.596184
v 0.640151 5.290604 0.937108
v 0.165277 5.289359 0.952937
v -0.209554 5.324971 0.636264
v -0.308954 5.380778 0.135265
v -0.086412 5.430666 -0.315639
v 0.806339 5.775885 -0.300908
v 0.354221 5.817441 -0.456573
v 1.058672 5.663983 0.122334
v 0.993149 5.534096 0.615114
v 0.640430 5.447001 0.946854
v 0.165556 5.443449 0.962330
v -0.209275 5.525102 0.654299
v -0.308675 5.653755 0.166894
v -0.086133 5.769209 -0.271824
v 0.806547 6.042625 -0.224289
v 0.354428 6.106110 -0.372370
v 1.058879 5.871090 0.178491
v 0.993357 5.671768 0.647505
v 0.640638 5.537925 0.963295
v 0.165763 5.532187 0.978099
v -0.209068 5.657238 0.684992
v -0.308467 5.854567 0.221120
v -0.085925 6.031841 -0.196465
v 0.806747 6.280185 -0.118275
v 0.354628 6.361752 -0.257219
v 1.059080 6.059460 0.259795
v 0.993557 5.802855 0.700086
v 0.640838 5.630441 0.996583
v 0.165963 5.622890 1.010551
v -0.208867 5.783737 0.735454
v -0.308267 6.037718 0.300013
v -0.085725 6.265995 -0.092024
v 0.806919 6.491176 0.012385
v 0.354800 6.592649 -0.112761
v 1.059251 6.216268 0.353093
v 0.993729 5.896558 0.749941
v 0.641010 5.681643 1.017241
v 0.166135 5.672085 1.029919
v -0.208695 5.872354 0.782043
v -0.308095 6.188742 0.389597
v -0.085553 6.473209 0.036212
v 0.807136 6.724467 0.212410
v 0.355018 6.846601 0.107329
v 1.059469 6.393293 0.498731
v 0.993946 6.008039 0.832320
v 0.641227 5.748970 1.057087
v 0.166353 5.737306 1.067861
v -0.208478 5.978506 0.859600
v -0.307878 6.359709 0.529752
v -0.085336 6.702546 0.232657
v 0.807326 6.878110 0.394829
v 0.355208 7.010613 0.303169
v 1.059659 6.518673 0.644751
v 0.994136 6.100485 0.935993
v 0.641417 5.819223 1.132281
v 0.166543 5.806492 1.141769
v -0.208288 6.068248 0.960017
v -0.307688 6.482013 0.672069
v -0.085146 6.854182 0.412660
v 0.807560 7.055317 0.666150
v 0.355442 7.202170 0.599870
v 1.059893 6.656725 0.847202
v 0.994370 6.192897 1.058311
v 0.641651 5.880866 1.200696
v 0.166777 5.866633 1.207734
v -0.208054 6.156858 1.076131
v -0.307453 6.615742 0.867466
v -0.084912 7.028567 0.679376
v 0.807748 7.148704 0.877837
v 0.355630 7.301219 0.825897
v 1.060081 6.734632 1.019963
v 0.994558 6.252750 1.185773
v 0.641839 5.928538 1.297683
v 0.166965 5.913699 1.303328
v -0.207865 6.215173 1.200067
v -0.307265 6.691900 1.036217
v -0.084723 7.120812 0.888446
v 0.807917 7.221836 1.110018
v 0.355799 7.380330 1.081066
v 1.060250 6.791367 1.189721
v 0.994727 6.290344 1.282879
v 0.642008 5.953201 1.345905
v 0.167134 5.937693 1.349307
v -0.207697 6.251073 1.291493
v -0.307097 6.746709 1.199515
v -0.084555 7.192687 1.116411
v 0.808084 7.259532 1.343249
v 0.355965 7.420501 1.336342
v 1.060416 6.822196 1.363069
v 0.994894 6.313127 1.386525
v 0.642175 5.970522 1.402645
v 0.167301 5.954694 1.403885
v -0.207530 6.273045 1.389664
v -0.306930 6.776617 1.366637
v -0.084388 7.229782 1.345578
v 0.808265 7.267866 1.543294
v 0.356146 7.428972 1.545180
v 1.060597 6.830100 1.539221
v 0.995075 6.320508 1.534865
v 0.642356 5.977535 1.532268
v 0.167482 5.961663 1.532642
v -0.207349 6.280315 1.535812
v -0.306749 6.784393 1.540297
v -0.084207 7.238033 1.543996
v 0.808415 7.266652 1.683103
v 0.356297 7.427758 1.684989
v 1.060748 6.828886 1.679030
v 0.995225 6.319294 1.674675
v 0.642506 5.976322 1.672077
v 0.167632 5.960449 1.672451
v -0.207198 6.279101 1.675622
v -0.306598 6.783180 1.680106
v -0.084056 7.236819 1.683805
v 0.808760 7.263872 2.003179
v 0.356642 7.424978 2.005065
v 1.061093 6.826106 1.999106
v 0.995570 6.316514 1.994751
v 0.642851 5.973542 1.992153
v 0.167977 5.957669 1.992527
v -0.206854 6.276322 1.995697
v -0.306253 6.780400 2.000182
v -0.083711 7.234039 2.003881
v 0.809174 7.260538 2.387109
v 0.357055 7.421644 2.388995
v 1.061506 6.822772 2.383036
v 0.995984 6.313180 2.378681
v 0.643265 5.970208 2.376083
v 0.168390 5.954335 2.376457
v -0.206440 6.272988 2.379627
v -0.305840 6.777066 2.384112
v -0.083298 7.230705 2.387811
v 0.809408 7.251147 2.694034
v 0.357290 7.410117 2.720252
v 1.061741 6.819028 2.623835
v 0.996218 6.315950 2.542499
v 0.643499 5.977311 2.488086
v 0.168625 5.961565 2.486057
v -0.206206 6.276076 2.537359
v -0.305605 6.773685 2.617989
v -0.083063 7.221551 2.690218
v 0.809544 7.213744 2.893970
v 0.357426 7.367939 2.940687
v 1.061877 6.794463 2.768037
v 0.996354 6.306282 2.621811
v 0.643635 5.977626 2.523717
v 0.168761 5.962278 2.519652
v -0.206070 6.267418 2.611517
v -0.305469 6.750268 2.756329
v -0.082927 7.184897 2.886328
v 0.809704 7.143191 3.110873
v 0.357586 7.289696 3.177918
v 1.062036 6.744673 2.929659
v 0.996514 6.280612 2.719064
v 0.643795 5.968148 2.577632
v 0.168921 5.953487 2.571538
v -0.205910 6.243487 2.703634
v -0.305309 6.702456 2.912111
v -0.082767 7.115636 3.099420
v 0.809941 6.973277 3.439243
v 0.357823 7.098150 3.541054
v 1.062274 6.633310 3.163420
v 0.996751 6.237325 2.842643
v 0.644032 5.970604 2.627010
v 0.169158 5.957953 2.617418
v -0.205673 6.205288 2.818352
v -0.305072 6.596880 3.135796
v -0.082530 6.949499 3.421213
v 0.810119 6.814003 3.627173
v 0.358001 6.923863 3.745026
v 1.062452 6.514722 3.307663
v 0.996929 6.166059 2.935996
v 0.644211 5.931155 2.686081
v 0.169337 5.919926 2.674857
v -0.205494 6.137625 2.907572
v -0.304893 6.482389 3.275339
v -0.082352 6.792899 3.606075
v 0.810400 6.506896 3.890928
v 0.358282 6.584740 4.031992
v 1.062732 6.294461 3.508139
v 0.997210 6.046835 3.062736
v 0.644491 5.879884 2.763129
v 0.169617 5.871728 2.749508
v -0.205213 6.026182 3.028243
v -0.304613 6.270976 3.468914
v -0.082071 6.491568 3.865324
v 0.810569 6.293814 4.002616
v 0.358451 6.350903 4.153279
v 1.062901 6.137709 3.593609
v 0.997379 5.955633 3.117635
v 0.644660 5.832778 2.797410
v 0.169786 5.826633 2.782771
v -0.205044 5.940071 3.080565
v -0.304444 6.120014 3.551453
v -0.081902 6.282264 3.975101
v 0.810760 6.037213 4.092690
v 0.358642 6.069511 4.250537
v 1.063092 5.948421 3.664004
v 0.997570 5.844685 3.165065
v 0.644851 5.774540 2.829331
v 0.169977 5.770811 2.813899
v -0.204853 5.835242 3.125985
v -0.304253 5.937685 3.619565
v -0.081711 6.030205 4.063684
v 0.810895 5.837884 4.129088
v 0.358777 5.849485 4.289787
v 1.063228 5.805312 3.692517
v 0.997705 5.767013 3.184348
v 0.644987 5.740902 2.842361
v 0.170113 5.739202 2.826576
v -0.204718 5.762706 3.144375
v -0.304117 5.800416 3.647061
v -0.081575 5.834688 4.099419
v 0.811052 5.644666 4.141697
v 0.358934 5.643157 4.302807
v 1.063385 5.647714 3.703923
v 0.997862 5.650877 3.194323
v 0.645143 5.652672 2.851345
v 0.170270 5.652261 2.835473
v -0.204561 5.649836 3.154132
v -0.303960 5.646532 3.658219
v -0.081418 5.643894 4.111866
v 0.811314 5.401016 4.140152
v 0.359197 5.399507 4.301261
v 1.063647 5.404064 3.702377
v 0.998124 5.407228 3.192777
v 0.645406 5.409022 2.849799
v 0.170532 5.408612 2.833928
v -0.204298 5.406187 3.152586
v -0.303698 5.402882 3.656674
v -0.081156 5.400245 4.110321
v 0.811564 5.169642 4.138684
v 0.359446 5.168133 4.299794
v 1.063896 5.172690 3.700909
v 0.998374 5.175854 3.191309
v 0.645655 5.177649 2.848331
v 0.170781 5.177238 2.832460
v -0.204049 5.174813 3.151119
v -0.303449 5.171508 3.655206
v -0.080907 5.168870 4.108853
v 0.811771 4.976604 4.137460
v 0.359654 4.975095 4.298569
v 1.064104 4.979652 3.699685
v 0.998581 4.982816 3.190085
v 0.645863 4.984611 2.847107
v 0.170989 4.984200 2.831236
v -0.203841 4.981775 3.149894
v -0.303241 4.978470 3.653982
v -0.080699 4.975832 4.107628
vn 0.3670 -0.0000 -0.9302
vn 0.8826 -0.0000 -0.4702
vn 0.9870 -0.0000 0.1606
vn 0.6728 -0.0000 0.7398
vn -0.0000 -0.0000 1.0000
vn -0.6728 -0.0000 0.7398
vn -0.9870 -0.0000 0.1606
vn -0.8826 -0.0000 -0.4702
vn -0.3670 -0.0000 -0.9302
vn -0.0000 -1.0000 -0.0000
vn -0.0000 1.0000 -0.0000
vn 0.0166 0.0161 0.9997
vn 0.6943 -0.0578 0.7174
vn 0.8741 0.0067 -0.4857
vn -0.3816 0.0061 -0.9243
vn -0.6587 0.0150 0.7522
vn 0.9895 -0.0015 0.1444
vn -0.9841 0.0022 0.1777
vn 0.6839 0.0022 0.7296
vn 0.3506 0.0119 -0.9364
vn -0.8897 -0.0014 -0.4565
vn 0.9918 -0.0330 0.1238
vn 0.3344 0.1228 -0.9344
vn -0.8970 0.0549 -0.4386
vn 0.0332 -0.0615 0.9976
vn 0.8654 0.0609 -0.4974
vn -0.3965 0.1200 -0.9102
vn -0.6444 -0.0580 0.7625
vn 0.9918 -0.0147 0.1273
vn -0.9809 -0.0192 0.1937
vn 0.8657 0.2009 -0.4586
vn -0.9809 -0.0470 0.1889
vn 0.6938 -0.1517 0.7041
vn 0.3345 0.2619 -0.9053
vn -0.8971 0.1197 -0.4253
vn 0.0331 -0.1764 0.9838
vn 0.8655 0.1345 -0.4826
vn -0.3966 0.2555 -0.8817
vn -0.6438 -0.1564 0.7491
vn 0.3345 0.4979 -0.8001
vn -0.3969 0.3758 -0.8374
vn -0.6450 -0.2715 0.7143
vn 0.9918 -0.0505 0.1176
vn -0.9809 -0.0738 0.1798
vn 0.6948 -0.2589 0.6710
vn 0.3348 0.3853 -0.8599
vn -0.8972 0.1783 -0.4039
vn 0.0332 -0.3376 0.9407
vn -0.9807 -0.1197 0.1543
vn -0.8970 0.2302 -0.3772
vn 0.0327 -0.3702 0.9284
vn 0.8654 0.2600 -0.4283
vn -0.3966 0.4853 -0.7792
vn -0.6418 -0.3298 0.6923
vn 0.9917 -0.0646 0.1107
vn -0.9808 -0.0952 0.1700
vn 0.6922 -0.3171 0.6483
vn -0.6460 -0.5634 0.5151
vn 0.6908 -0.4092 0.5962
vn 0.3340 0.6153 -0.7140
vn -0.8967 0.2854 -0.3383
vn 0.0326 -0.5060 0.8619
vn 0.8650 0.3228 -0.3842
vn -0.3960 0.5997 -0.6954
vn -0.6402 -0.4282 0.6378
vn 0.9917 -0.0806 0.1001
vn 0.0327 -0.7406 0.6711
vn 0.9918 -0.0971 0.0832
vn -0.9810 -0.1454 0.1286
vn 0.6956 -0.5322 0.4826
vn 0.3350 0.7214 -0.6061
vn -0.8974 0.3367 -0.2851
vn 0.0333 -0.7300 0.6826
vn 0.8659 0.3808 -0.3245
vn -0.3972 0.7030 -0.5900
vn 0.6960 -0.6480 0.3093
vn 0.8649 0.4174 -0.2786
vn -0.3959 0.7703 -0.5000
vn -0.6407 -0.5938 0.4868
vn 0.9917 -0.1055 0.0734
vn -0.9807 -0.1583 0.1145
vn 0.6911 -0.5631 0.4531
vn 0.3339 0.7905 -0.5135
vn -0.8967 0.3688 -0.2450
vn 0.9917 -0.1213 0.0416
vn 0.3351 0.8624 -0.3794
vn -0.8975 0.4032 -0.1788
vn 0.0333 -0.8968 0.4411
vn 0.8659 0.4565 -0.2043
vn -0.3973 0.8402 -0.3691
vn -0.6463 -0.6875 0.3311
vn 0.9918 -0.1166 0.0523
vn -0.9810 -0.1758 0.0820
vn 0.8656 0.4937 -0.0839
vn -0.9809 -0.1830 0.0665
vn 0.6924 -0.6638 0.2827
vn 0.3345 0.8995 -0.2812
vn -0.8971 0.4206 -0.1354
vn 0.0327 -0.8880 0.4586
vn 0.8654 0.4765 -0.1547
vn -0.3966 0.8763 -0.2736
vn -0.6421 -0.7022 0.3077
vn 0.3355 0.9412 -0.0390
vn -0.3968 0.9065 -0.1443
vn -0.6432 -0.7416 0.1906
vn 0.9918 -0.1260 0.0232
vn -0.9809 -0.1907 0.0385
vn 0.6934 -0.6994 0.1734
vn 0.3347 0.9306 -0.1486
vn -0.8972 0.4357 -0.0729
vn 0.0330 -0.9551 0.2944
vn -0.9811 -0.1935 -0.0006
vn -0.8977 0.4403 -0.0181
vn 0.0334 -0.9980 0.0540
vn 0.8662 0.4991 -0.0224
vn -0.3976 0.9168 -0.0373
vn -0.6473 -0.7611 0.0403
vn 0.9918 -0.1275 0.0049
vn -0.9811 -0.1934 0.0102
vn 0.6968 -0.7163 0.0362
vn -0.3978 0.9174 0.0084
vn 0.6971 -0.7169 -0.0070
vn 0.3357 0.9419 0.0078
vn -0.8978 0.4404 0.0048
vn 0.0334 -0.9994 -0.0087
vn 0.8664 0.4994 0.0034
vn -0.6477 -0.7619 -0.0059
vn 0.9918 -0.1275 -0.0022
vn -0.9809 -0.1948 0.0010
vn 0.8657 0.4928 0.0881
vn 0.6936 -0.7199 0.0246
vn 0.3344 0.9419 0.0306
vn -0.8970 0.4419 0.0111
vn 0.0331 -0.9974 0.0644
vn 0.8653 0.5011 0.0113
vn -0.3965 0.9176 0.0302
vn -0.6436 -0.7647 0.0306
vn 0.9917 -0.1282 -0.0015
vn 0.3347 0.8956 0.2932
vn -0.3969 0.9018 0.1709
vn -0.6423 -0.7645 -0.0547
vn 0.9918 -0.1264 -0.0206
vn -0.9809 -0.1925 -0.0278
vn 0.6928 -0.7186 -0.0601
vn 0.3348 0.9259 0.1751
vn -0.8972 0.4345 0.0788
vn 0.0326 -0.9994 0.0147
vn -0.9803 -0.1821 -0.0760
vn -0.8972 0.4207 0.1343
vn 0.0329 -0.9849 -0.1702
vn 0.8656 0.4774 0.1511
vn -0.3968 0.8722 0.2860
vn -0.6432 -0.7469 -0.1683
vn 0.9918 -0.1226 -0.0370
vn -0.9809 -0.1872 -0.0529
vn 0.6934 -0.7015 -0.1646
vn -0.3968 0.6989 0.5951
vn 0.6755 -0.7172 -0.1712
vn 0.3324 0.8359 0.4367
vn -0.8957 0.3978 0.1989
vn 0.0275 -0.9970 0.0723
vn 0.8637 0.4510 0.2250
vn -0.3943 0.8145 0.4256
vn -0.6209 -0.7675 -0.1594
vn 0.9916 -0.1186 -0.0526
vn -0.8957 0.2937 0.3337
vn -0.6438 -0.6216 -0.4464
vn 0.9918 -0.0993 -0.0809
vn -0.9809 -0.1529 -0.1202
vn 0.6938 -0.5819 -0.4243
vn 0.3347 0.7178 0.6106
vn -0.8972 0.3385 0.2838
vn 0.0331 -0.8322 -0.5535
vn 0.8656 0.3846 0.3208
vn -0.9809 -0.0973 -0.1686
vn 0.0314 -0.8358 -0.5481
vn 0.8638 0.3334 0.3777
vn -0.3944 0.5961 0.6994
vn -0.6321 -0.6009 -0.4893
vn 0.9916 -0.0890 -0.0941
vn -0.9804 -0.1382 -0.1403
vn 0.6838 -0.5587 -0.4693
vn 0.3325 0.6119 0.7177
vn -0.6415 -0.3312 -0.6919
vn 0.6930 -0.3895 -0.6066
vn 0.3346 0.4358 0.8355
vn -0.8971 0.2074 0.3901
vn 0.0329 -0.5906 -0.8063
vn 0.8655 0.2363 0.4417
vn -0.3967 0.4242 0.8141
vn -0.6428 -0.4197 -0.6408
vn 0.9918 -0.0621 -0.1121
vn 0.0327 -0.3663 -0.9299
vn 0.9917 -0.0458 -0.1199
vn -0.9808 -0.0728 -0.1809
vn 0.6919 -0.3053 -0.6543
vn 0.3343 0.3101 0.8900
vn -0.8969 0.1493 0.4162
vn 0.0327 -0.4834 -0.8748
vn 0.8653 0.1704 0.4715
vn -0.3964 0.3018 0.8671
vn 0.6963 -0.0652 -0.7148
vn 0.8657 0.0939 0.4917
vn -0.3969 0.1627 0.9033
vn -0.6425 -0.2206 -0.7339
vn 0.9918 -0.0259 -0.1254
vn -0.9809 -0.0428 -0.1897
vn 0.6929 -0.1995 -0.6929
vn 0.3348 0.1675 0.9273
vn -0.8972 0.0817 0.4339
vn 0.9918 0.0019 -0.1275
vn 0.3353 0.0606 0.9402
vn -0.8976 0.0293 0.4399
vn 0.0334 -0.1014 -0.9943
vn 0.8661 0.0349 0.4987
vn -0.3974 0.0584 0.9158
vn -0.6467 -0.0719 -0.7593
vn 0.9918 -0.0088 -0.1274
vn -0.9810 -0.0163 -0.1932
vn 0.8664 -0.0022 0.4994
vn -0.9811 0.0002 -0.1935
vn 0.6971 0.0053 -0.7169
vn 0.3357 -0.0056 0.9420
vn -0.8978 -0.0038 0.4404
vn 0.0334 0.0064 -0.9994
vn -0.3978 -0.0062 0.9174
vn -0.6477 0.0041 -0.7619
vn 0.0011 -1.0000 -0.0063
vt 1.000000 0.500000
vt 1.000000 1.000000
vt 0.888889 1.000000
vt 0.888889 0.500000
vt 0.777778 1.000000
vt 0.777778 0.500000
vt 0.666667 1.000000
vt 0.666667 0.500000
vt 0.555556 1.000000
vt 0.555556 0.500000
vt 0.444444 1.000000
vt 0.444444 0.500000
vt 0.333333 1.000000
vt 0.333333 0.500000
vt 0.222222 1.000000
vt 0.222222 0.500000
vt 0.111111 1.000000
vt 0.111111 0.500000
vt 0.000000 1.000000
vt 0.000000 0.500000
vt 0.750000 0.490000
vt 0.904269 0.433851
vt 0.986354 0.291676
vt 0.957846 0.130000
vt 0.832085 0.024474
vt 0.667915 0.024474
vt 0.542154 0.130000
vt 0.513646 0.291676
vt 0.595731 0.433851
vt 0.404269 0.433851
vt 0.250000 0.490000
vt 0.095731 0.433851
vt 0.013646 0.291676
vt 0.042154 0.130000
vt 0.167915 0.024474
vt 0.332085 0.024474
vt 0.457846 0.130000
vt 0.486354 0.291676
s 0
usemtl Матеріал
f 1/1/1 2/2/1 4/3/1 3/4/1
f 3/4/2 4/3/2 6/5/2 5/6/2
f 5/6/3 6/5/3 8/7/3 7/8/3
f 7/8/4 8/7/4 10/9/4 9/10/4
f 9/10/5 10/9/5 12/11/5 11/12/5
f 11/12/6 12/11/6 14/13/6 13/14/6
f 13/14/7 14/13/7 16/15/7 15/16/7
f 15/16/8 16/15/8 18/17/8 17/18/8
f 17/18/9 18/17/9 2/19/9 1/20/9
f 1/21/10 3/22/10 5/23/10 7/24/10 9/25/10 11/26/10 13/27/10 15/28/10 17/29/10
f 20/19/9 27/17/9 36/17/9 29/19/9
f 25/13/6 24/11/6 33/11/6 34/13/6
f 22/7/3 21/5/3 30/5/3 31/7/3
f 26/15/7 25/13/7 34/13/7 35/15/7
f 23/9/4 22/7/4 31/7/4 32/9/4
f 19/3/1 20/2/1 29/2/1 28/3/1
f 27/17/8 26/15/8 35/15/8 36/17/8
f 24/11/5 23/9/5 32/9/5 33/11/5
f 21/5/2 19/3/2 28/3/2 30/5/2
f 44/15/7 43/13/7 52/13/7 53/15/7
f 41/9/4 40/7/4 49/7/4 50/9/4
f 37/3/1 38/2/1 47/2/1 46/3/1
f 45/17/8 44/15/8 53/15/8 54/17/8
f 42/11/5 41/9/5 50/9/5 51/11/5
f 39/5/2 37/3/2 46/3/2 48/5/2
f 38/19/9 45/17/9 54/17/9 47/19/9
f 43/13/6 42/11/6 51/11/6 52/13/6
f 40/7/3 39/5/3 48/5/3 49/7/3
f 60/11/11 59/9/11 68/9/11 69/11/11
f 64/3/1 65/2/1 74/2/1 73/3/1
f 57/5/11 55/3/11 64/3/11 66/5/11
f 56/19/11 63/17/11 72/17/11 65/19/11
f 61/13/11 60/11/11 69/11/11 70/13/11
f 58/7/11 57/5/11 66/5/11 67/7/11
f 62/15/11 61/13/11 70/13/11 71/15/11
f 59/9/11 58/7/11 67/7/11 68/9/11
f 55/3/11 56/2/11 65/2/11 64/3/11
f 63/17/11 62/15/11 71/15/11 72/17/11
f 72/17/8 71/15/8 80/15/8 81/17/8
f 69/11/5 68/9/5 77/9/5 78/11/5
f 66/5/2 64/3/2 73/3/2 75/5/2
f 65/19/9 72/17/9 81/17/9 74/19/9
f 70/13/6 69/11/6 78/11/6 79/13/6
f 67/7/3 66/5/3 75/5/3 76/7/3
f 71/15/7 70/13/7 79/13/7 80/15/7
f 68/9/4 67/7/4 76/7/4 77/9/4
f 96/11/12 95/9/12 104/9/12 105/11/12
f 104/9/13 103/7/13 112/7/13 113/9/13
f 93/5/14 91/3/14 100/3/14 102/5/14
f 92/19/15 99/17/15 108/17/15 101/19/15
f 97/13/16 96/11/16 105/11/16 106/13/16
f 94/7/17 93/5/17 102/5/17 103/7/17
f 98/15/18 97/13/18 106/13/18 107/15/18
f 95/9/19 94/7/19 103/7/19 104/9/19
f 91/3/20 92/2/20 101/2/20 100/3/20
f 99/17/21 98/15/21 107/15/21 108/17/21
f 100/3/23 101/2/23 110/2/23 109/3/23
f 108/17/24 107/15/24 116/15/24 117/17/24
f 105/11/25 104/9/25 113/9/25 114/11/25
f 102/5/26 100/3/26 109/3/26 111/5/26
f 101/19/27 108/17/27 117/17/27 110/19/27
f 106/13/28 105/11/28 114/11/28 115/13/28
f 103/7/29 102/5/29 111/5/29 112/7/29
f 107/15/30 106/13/30 115/13/30 116/15/30
f 114/11/36 113/9/36 122/9/36 123/11/36
f 159/11/67 158/9/67 167/9/67 168/11/67
f 150/11/73 149/9/73 158/9/73 159/11/73
f 167/9/76 166/7/76 175/7/76 176/9/76
f 156/5/77 154/3/77 163/3/77 165/5/77
f 155/19/78 162/17/78 171/17/78 164/19/78
f 160/13/79 159/11/79 168/11/79 169/13/79
f 157/7/80 156/5/80 165/5/80 166/7/80
f 161/15/81 160/13/81 169/13/81 170/15/81
f 158/9/82 157/7/82 166/7/82 167/9/82
f 154/3/83 155/2/83 164/2/83 163/3/83
f 162/17/84 161/15/84 170/15/84 171/17/84
f 175/7/85 174/5/85 183/5/85 184/7/85
f 163/3/86 164/2/86 173/2/86 172/3/86
f 171/17/87 170/15/87 179/15/87 180/17/87
f 168/11/88 167/9/88 176/9/88 177/11/88
f 165/5/89 163/3/89 172/3/89 174/5/89
f 164/19/90 171/17/90 180/17/90 173/19/90
f 169/13/91 168/11/91 177/11/91 178/13/91
f 166/7/92 165/5/92 174/5/92 175/7/92
f 170/15/93 169/13/93 178/13/93 179/15/93
f 183/5/94 181/3/94 190/3/94 192/5/94
f 179/15/95 178/13/95 187/13/95 188/15/95
f 176/9/96 175/7/96 184/7/96 185/9/96
f 172/3/97 173/2/97 182/2/97 181/3/97
f 180/17/98 179/15/98 188/15/98 189/17/98
f 177/11/99 176/9/99 185/9/99 186/11/99
f 174/5/100 172/3/100 181/3/100 183/5/100
f 173/19/101 180/17/101 189/17/101 182/19/101
f 178/13/102 177/11/102 186/11/102 187/13/102
f 190/3/103 191/2/103 200/2/103 199/3/103
f 182/19/104 189/17/104 198/17/104 191/19/104
f 187/13/105 186/11/105 195/11/105 196/13/105
f 184/7/106 183/5/106 192/5/106 193/7/106
f 188/15/107 187/13/107 196/13/107 197/15/107
f 185/9/108 184/7/108 193/7/108 194/9/108
f 181/3/109 182/2/109 191/2/109 190/3/109
f 189/17/110 188/15/110 197/15/110 198/17/110
f 186/11/111 185/9/111 194/9/111 195/11/111
f 198/17/113 197/15/113 206/15/113 207/17/113
f 195/11/114 194/9/114 203/9/114 204/11/114
f 192/5/115 190/3/115 199/3/115 201/5/115
f 191/19/116 198/17/116 207/17/116 200/19/116
f 196/13/117 195/11/117 204/11/117 205/13/117
f 193/7/118 192/5/118 201/5/118 202/7/118
f 197/15/119 196/13/119 205/13/119 206/15/119
f 194/9/120 193/7/120 202/7/120 203/9/120
f 233/15/129 232/13/129 241/13/129 242/15/129
f 237/5/130 235/3/130 244/3/130 246/5/130
f 230/9/131 229/7/131 238/7/131 239/9/131
f 226/3/132 227/2/132 236/2/132 235/3/132
f 234/17/133 233/15/133 242/15/133 243/17/133
f 231/11/134 230/9/134 239/9/134 240/11/134
f 228/5/135 226/3/135 235/3/135 237/5/135
f 227/19/136 234/17/136 243/17/136 236/19/136
f 232/13/137 231/11/137 240/11/137 241/13/137
f 229/7/138 228/5/138 237/5/138 238/7/138
f 244/3/139 245/2/139 254/2/139 253/3/139
f 236/19/140 243/17/140 252/17/140 245/19/140
f 241/13/141 240/11/141 249/11/141 250/13/141
f 238/7/142 237/5/142 246/5/142 247/7/142
f 242/15/143 241/13/143 250/13/143 251/15/143
f 239/9/144 238/7/144 247/7/144 248/9/144
f 235/3/145 236/2/145 245/2/145 244/3/145
f 243/17/146 242/15/146 251/15/146 252/17/146
f 240/11/147 239/9/147 248/9/147 249/11/147
f 252/17/149 251/15/149 260/15/149 261/17/149
f 249/11/150 248/9/150 257/9/150 258/11/150
f 246/5/151 244/3/151 253/3/151 255/5/151
f 245/19/152 252/17/152 261/17/152 254/19/152
f 250/13/153 249/11/153 258/11/153 259/13/153
f 247/7/154 246/5/154 255/5/154 256/7/154
f 251/15/155 250/13/155 259/13/155 260/15/155
f 248/9/156 247/7/156 256/7/156 257/9/156
f 258/11/161 257/9/161 266/9/161 267/11/161
f 267/11/173 266/9/173 275/9/173 276/11/173
f 311/9/202 310/7/202 319/7/202 320/9/202
f 319/7/211 318/5/211 327/5/211 328/7/211
f 307/3/212 308/2/212 317/2/212 316/3/212
f 315/17/213 314/15/213 323/15/213 324/17/213
f 312/11/214 311/9/214 320/9/214 321/11/214
f 309/5/215 307/3/215 316/3/215 318/5/215
f 308/19/216 315/17/216 324/17/216 317/19/216
f 313/13/217 312/11/217 321/11/217 322/13/217
f 310/7/218 309/5/218 318/5/218 319/7/218
f 314/15/219 313/13/219 322/13/219 323/15/219
f 327/5/220 325/3/220 334/3/220 336/5/220
f 323/15/221 322/13/221 331/13/221 332/15/221
f 320/9/222 319/7/222 328/7/222 329/9/222
f 316/3/223 317/2/223 326/2/223 325/3/223
f 324/17/224 323/15/224 332/15/224 333/17/224
f 321/11/225 320/9/225 329/9/225 330/11/225
f 318/5/220 316/3/220 325/3/220 327/5/220
f 317/19/226 324/17/226 333/17/226 326/19/226
f 322/13/227 321/11/227 330/11/227 331/13/227
f 334/3/223 335/2/223 344/2/223 343/3/223
f 326/19/226 333/17/226 342/17/226 335/19/226
f 331/13/227 330/11/227 339/11/227 340/13/227
f 328/7/211 327/5/211 336/5/211 337/7/211
f 332/15/221 331/13/221 340/13/221 341/15/221
f 329/9/222 328/7/222 337/7/222 338/9/222
f 325/3/223 326/2/223 335/2/223 334/3/223
f 333/17/224 332/15/224 341/15/224 342/17/224
f 330/11/225 329/9/225 338/9/225 339/11/225
f 343/30/228 344/31/228 351/32/228 350/33/228 349/34/228 348/35/228 347/36/228 346/37/228 345/38/228
f 342/17/224 341/15/224 350/15/224 351/17/224
f 339/11/225 338/9/225 347/9/225 348/11/225
f 336/5/220 334/3/220 343/3/220 345/5/220
f 335/19/226 342/17/226 351/17/226 344/19/226
f 340/13/227 339/11/227 348/11/227 349/13/227
f 337/7/211 336/5/211 345/5/211 346/7/211
f 341/15/221 340/13/221 349/13/221 350/15/221
f 338/9/222 337/7/222 346/7/222 347/9/222
usemtl Матеріал.001
f 4/3/1 2/2/1 20/2/1 19/3/1
f 8/7/3 6/5/3 21/5/3 22/7/3
f 6/5/2 4/3/2 19/3/2 21/5/2
f 2/19/9 18/17/9 27/17/9 20/19/9
f 18/17/8 16/15/8 26/15/8 27/17/8
f 16/15/7 14/13/7 25/13/7 26/15/7
f 14/13/6 12/11/6 24/11/6 25/13/6
f 12/11/5 10/9/5 23/9/5 24/11/5
f 10/9/4 8/7/4 22/7/4 23/9/4
f 36/17/8 35/15/8 44/15/8 45/17/8
f 33/11/5 32/9/5 41/9/5 42/11/5
f 30/5/2 28/3/2 37/3/2 39/5/2
f 29/19/9 36/17/9 45/17/9 38/19/9
f 34/13/6 33/11/6 42/11/6 43/13/6
f 31/7/3 30/5/3 39/5/3 40/7/3
f 35/15/7 34/13/7 43/13/7 44/15/7
f 32/9/4 31/7/4 40/7/4 41/9/4
f 28/3/1 29/2/1 38/2/1 37/3/1
f 52/13/6 51/11/6 60/11/6 61/13/6
f 49/7/3 48/5/3 57/5/3 58/7/3
f 53/15/7 52/13/7 61/13/7 62/15/7
f 50/9/4 49/7/4 58/7/4 59/9/4
f 46/3/1 47/2/1 56/2/1 55/3/1
f 54/17/8 53/15/8 62/15/8 63/17/8
f 51/11/5 50/9/5 59/9/5 60/11/5
f 48/5/2 46/3/2 55/3/2 57/5/2
f 47/19/9 54/17/9 63/17/9 56/19/9
f 80/15/7 79/13/7 88/13/7 89/15/7
f 88/13/6 87/11/6 96/11/6 97/13/6
f 77/9/4 76/7/4 85/7/4 86/9/4
f 73/3/1 74/2/1 83/2/1 82/3/1
f 81/17/8 80/15/8 89/15/8 90/17/8
f 78/11/5 77/9/5 86/9/5 87/11/5
f 75/5/2 73/3/2 82/3/2 84/5/2
f 74/19/9 81/17/9 90/17/9 83/19/9
f 79/13/6 78/11/6 87/11/6 88/13/6
f 76/7/3 75/5/3 84/5/3 85/7/3
f 85/7/3 84/5/3 93/5/3 94/7/3
f 89/15/7 88/13/7 97/13/7 98/15/7
f 86/9/4 85/7/4 94/7/4 95/9/4
f 82/3/1 83/2/1 92/2/1 91/3/1
f 90/17/8 89/15/8 98/15/8 99/17/8
f 87/11/5 86/9/5 95/9/5 96/11/5
f 84/5/2 82/3/2 91/3/2 93/5/2
f 83/19/9 90/17/9 99/17/9 92/19/9
f 112/7/22 111/5/22 120/5/22 121/7/22
f 120/5/31 118/3/31 127/3/31 129/5/31
f 116/15/32 115/13/32 124/13/32 125/15/32
f 113/9/33 112/7/33 121/7/33 122/9/33
f 109/3/34 110/2/34 119/2/34 118/3/34
f 117/17/35 116/15/35 125/15/35 126/17/35
f 111/5/37 109/3/37 118/3/37 120/5/37
f 110/19/38 117/17/38 126/17/38 119/19/38
f 115/13/39 114/11/39 123/11/39 124/13/39
f 127/3/40 128/2/40 137/2/40 136/3/40
f 119/19/41 126/17/41 135/17/41 128/19/41
f 124/13/42 123/11/42 132/11/42 133/13/42
f 121/7/43 120/5/43 129/5/43 130/7/43
f 125/15/44 124/13/44 133/13/44 134/15/44
f 122/9/45 121/7/45 130/7/45 131/9/45
f 118/3/46 119/2/46 128/2/46 127/3/46
f 126/17/47 125/15/47 134/15/47 135/17/47
f 123/11/48 122/9/48 131/9/48 132/11/48
f 143/15/49 142/13/49 151/13/49 152/15/49
f 135/17/50 134/15/50 143/15/50 144/17/50
f 132/11/51 131/9/51 140/9/51 141/11/51
f 129/5/52 127/3/52 136/3/52 138/5/52
f 128/19/53 135/17/53 144/17/53 137/19/53
f 133/13/54 132/11/54 141/11/54 142/13/54
f 130/7/55 129/5/55 138/5/55 139/7/55
f 134/15/56 133/13/56 142/13/56 143/15/56
f 131/9/57 130/7/57 139/7/57 140/9/57
f 151/13/58 150/11/58 159/11/58 160/13/58
f 140/9/59 139/7/59 148/7/59 149/9/59
f 136/3/60 137/2/60 146/2/60 145/3/60
f 144/17/61 143/15/61 152/15/61 153/17/61
f 141/11/62 140/9/62 149/9/62 150/11/62
f 138/5/63 136/3/63 145/3/63 147/5/63
f 137/19/64 144/17/64 153/17/64 146/19/64
f 142/13/65 141/11/65 150/11/65 151/13/65
f 139/7/66 138/5/66 147/5/66 148/7/66
f 148/7/68 147/5/68 156/5/68 157/7/68
f 152/15/69 151/13/69 160/13/69 161/15/69
f 149/9/70 148/7/70 157/7/70 158/9/70
f 145/3/71 146/2/71 155/2/71 154/3/71
f 153/17/72 152/15/72 161/15/72 162/17/72
f 147/5/74 145/3/74 154/3/74 156/5/74
f 146/19/75 153/17/75 162/17/75 155/19/75
f 206/15/112 205/13/112 214/13/112 215/15/112
f 209/19/121 216/17/121 225/17/121 218/19/121
f 203/9/122 202/7/122 211/7/122 212/9/122
f 199/3/123 200/2/123 209/2/123 208/3/123
f 207/17/124 206/15/124 215/15/124 216/17/124
f 204/11/125 203/9/125 212/9/125 213/11/125
f 201/5/126 199/3/126 208/3/126 210/5/126
f 200/19/121 207/17/121 216/17/121 209/19/121
f 205/13/127 204/11/127 213/11/127 214/13/127
f 202/7/128 201/5/128 210/5/128 211/7/128
f 225/17/124 224/15/124 233/15/124 234/17/124
f 214/13/127 213/11/127 222/11/127 223/13/127
f 211/7/128 210/5/128 219/5/128 220/7/128
f 215/15/112 214/13/112 223/13/112 224/15/112
f 212/9/122 211/7/122 220/7/122 221/9/122
f 208/3/123 209/2/123 218/2/123 217/3/123
f 216/17/124 215/15/124 224/15/124 225/17/124
f 213/11/125 212/9/125 221/9/125 222/11/125
f 210/5/126 208/3/126 217/3/126 219/5/126
f 222/11/125 221/9/125 230/9/125 231/11/125
f 219/5/126 217/3/126 226/3/126 228/5/126
f 218/19/121 225/17/121 234/17/121 227/19/121
f 223/13/127 222/11/127 231/11/127 232/13/127
f 220/7/128 219/5/128 228/5/128 229/7/128
f 224/15/112 223/13/112 232/13/112 233/15/112
f 221/9/122 220/7/122 229/7/122 230/9/122
f 217/3/123 218/2/123 227/2/123 226/3/123
f 260/15/148 259/13/148 268/13/148 269/15/148
f 263/19/157 270/17/157 279/17/157 272/19/157
f 257/9/158 256/7/158 265/7/158 266/9/158
f 253/3/159 254/2/159 263/2/159 262/3/159
f 261/17/160 260/15/160 269/15/160 270/17/160
f 255/5/162 253/3/162 262/3/162 264/5/162
f 254/19/163 261/17/163 270/17/163 263/19/163
f 259/13/164 258/11/164 267/11/164 268/13/164
f 256/7/165 255/5/165 264/5/165 265/7/165
f 279/17/166 278/15/166 287/15/166 288/17/166
f 268/13/167 267/11/167 276/11/167 277/13/167
f 265/7/168 264/5/168 273/5/168 274/7/168
f 269/15/169 268/13/169 277/13/169 278/15/169
f 266/9/170 265/7/170 274/7/170 275/9/170
f 262/3/171 263/2/171 272/2/171 271/3/171
f 270/17/172 269/15/172 278/15/172 279/17/172
f 264/5/174 262/3/174 271/3/174 273/5/174
f 287/15/175 286/13/175 295/13/175 296/15/175
f 276/11/176 275/9/176 284/9/176 285/11/176
f 273/5/177 271/3/177 280/3/177 282/5/177
f 272/19/178 279/17/178 288/17/178 281/19/178
f 277/13/179 276/11/179 285/11/179 286/13/179
f 274/7/180 273/5/180 282/5/180 283/7/180
f 278/15/181 277/13/181 286/13/181 287/15/181
f 275/9/182 274/7/182 283/7/182 284/9/182
f 271/3/183 272/2/183 281/2/183 280/3/183
f 295/13/184 294/11/184 303/11/184 304/13/184
f 284/9/185 283/7/185 292/7/185 293/9/185
f 280/3/186 281/2/186 290/2/186 289/3/186
f 288/17/187 287/15/187 296/15/187 297/17/187
f 285/11/188 284/9/188 293/9/188 294/11/188
f 282/5/189 280/3/189 289/3/189 291/5/189
f 281/19/190 288/17/190 297/17/190 290/19/190
f 286/13/191 285/11/191 294/11/191 295/13/191
f 283/7/192 282/5/192 291/5/192 292/7/192
f 303/11/193 302/9/193 311/9/193 312/11/193
f 292/7/194 291/5/194 300/5/194 301/7/194
f 296/15/195 295/13/195 304/13/195 305/15/195
f 293/9/196 292/7/196 301/7/196 302/9/196
f 289/3/197 290/2/197 299/2/197 298/3/197
f 297/17/198 296/15/198 305/15/198 306/17/198
f 294/11/199 293/9/199 302/9/199 303/11/199
f 291/5/200 289/3/200 298/3/200 300/5/200
f 290/19/201 297/17/201 306/17/201 299/19/201
f 300/5/203 298/3/203 307/3/203 309/5/203
f 299/19/204 306/17/204 315/17/204 308/19/204
f 304/13/205 303/11/205 312/11/205 313/13/205
f 301/7/206 300/5/206 309/5/206 310/7/206
f 305/15/207 304/13/207 313/13/207 314/15/207
f 302/9/208 301/7/208 310/7/208 311/9/208
f 298/3/209 299/2/209 308/2/209 307/3/209
f 306/17/210 305/15/210 314/15/210 315/17/210
