# Blender 4.2.3 LTS
# www.blender.org
mtllib rocks1.mtl
o Sphere
v 0.230836 0.006163 -1.343072
v 0.463293 0.258007 -1.460102
v -0.007600 -0.091072 -0.608772
v 0.227197 0.773007 -0.902501
v 0.345533 0.465870 -1.176559
v 0.526425 0.691035 -0.753676
v 0.738346 0.162292 -1.016789
v 0.559955 0.010592 -0.856055
v 0.234750 1.208638 -0.130965
v 1.212319 0.018367 -0.672511
v 1.046852 -0.119998 -0.575613
v 0.400173 -0.070925 -0.295712
v 1.159714 0.105252 -0.693676
v 1.525262 0.557275 -0.140054
v 0.401481 0.970340 -0.386582
v 1.657231 0.409348 -0.054720
v 1.595979 0.217078 -0.020965
v 1.358737 -0.011004 -0.052892
v 1.084494 -0.113927 -0.071551
v 1.523154 0.696382 0.124315
v 0.841056 0.878192 -0.015056
v 0.998654 0.873355 0.157817
v 1.603777 0.505487 0.320328
v 1.215811 -0.024489 0.485650
v 0.773957 -0.055299 0.274523
v 1.070805 0.652092 0.647530
v 0.796663 0.309679 1.271296
v 1.150915 0.017469 0.985265
v 0.943319 -0.117703 0.969559
v 0.343729 1.260029 0.128223
v 0.700061 0.084790 1.311290
v 0.360637 0.540267 1.258691
v 0.209288 0.263499 1.163842
v 0.375218 -0.054700 0.729628
v 0.395986 1.004357 0.944656
v -0.035951 0.744839 1.106990
v -0.530540 0.503294 1.198105
v -0.328789 0.261531 1.186942
v 0.225721 1.330566 0.497121
v 0.043246 1.272332 0.725769
v -0.386062 0.139583 1.135971
v -0.273682 1.094469 0.911992
v -0.080860 -0.087724 0.792190
v -0.631692 0.189307 0.930501
v -0.215018 1.349108 0.350655
v -0.472494 1.248625 0.534794
v -0.629643 0.663027 1.040750
v -0.523579 -0.082684 0.301485
v -1.283457 -0.026972 0.355681
v -0.750897 1.002831 0.569585
v -1.396960 0.183651 0.254037
v -1.396679 0.025662 0.137211
v -0.373161 1.161556 -0.163050
v -1.120791 0.089209 -0.227660
v -0.995654 0.813719 -0.150079
v -1.199353 0.665513 -0.299150
v -1.413240 0.332164 -0.153642
v -0.018901 -0.043332 0.199731
v -1.384247 0.326297 -0.561548
v -1.306301 0.096895 -0.573541
v -1.124458 0.012131 -0.837482
v -0.409823 -0.070341 -0.214328
v -0.586116 0.543645 -0.822662
v -0.822853 0.041085 -1.047862
v -0.291154 0.100730 -1.187096
v -0.697056 0.337427 -1.145790
v -0.093282 0.735076 -1.020193
v 0.037706 0.417467 -1.326775
v 0.240256 0.204706 -1.511639
v -0.071384 0.970510 -0.587370
vn 0.2431 0.7835 -0.5719
vn 0.5239 -0.7054 -0.4774
vn 0.4497 -0.8426 -0.2962
vn 0.1580 -0.9826 -0.0979
vn 0.6538 0.7136 -0.2516
vn 0.1327 -0.7901 -0.5984
vn 0.4360 0.7815 -0.4462
vn 0.6634 0.6868 -0.2968
vn 0.5703 -0.8030 -0.1728
vn 0.3522 -0.9358 -0.0150
vn 0.3141 0.8412 -0.4401
vn 0.5583 0.6653 -0.4956
vn -0.0283 -0.9894 0.1422
vn 0.9116 0.4104 0.0247
vn 0.3194 0.8803 0.3507
vn 0.4984 0.7862 -0.3654
vn 0.7186 0.2282 0.6569
vn 0.5329 -0.8346 0.1393
vn 0.5730 -0.1015 0.8133
vn -0.2501 -0.9006 0.3556
vn 0.5493 0.7608 0.3456
vn 0.0524 0.1530 0.9868
vn 0.3293 0.8183 0.4712
vn -0.0266 0.5616 0.8270
vn 0.0547 0.6739 0.7368
vn 0.0671 0.9729 -0.2211
vn 0.7026 0.2502 -0.6661
vn -0.3641 0.5291 0.7664
vn -0.6391 -0.3691 0.6747
vn -0.5167 0.6621 0.5429
vn -0.4926 -0.4671 0.7343
vn -0.0558 0.9433 -0.3272
vn -0.7253 -0.0598 0.6859
vn -0.7649 0.4128 0.4945
vn 0.0763 -0.9971 -0.0070
vn -0.4830 0.8578 -0.1758
vn -0.8771 -0.2866 0.3855
vn -0.9992 -0.0246 0.0309
vn -0.0776 -0.9706 -0.2277
vn -0.5803 0.8143 -0.0166
vn -0.3471 0.7377 -0.5790
vn -0.2171 -0.9735 -0.0712
vn -0.8529 0.5176 -0.0681
vn -0.9460 -0.3181 -0.0627
vn -0.5679 -0.7712 0.2875
vn -0.2125 0.8552 -0.4728
vn -0.6434 0.1305 -0.7543
vn -0.0485 -0.9777 -0.2042
vn -0.0850 -0.9958 -0.0343
vn -0.2242 -0.2187 -0.9497
vn 0.0212 -0.9458 -0.3241
vn -0.4399 0.7980 -0.4118
vn -0.2326 -0.9515 -0.2015
vn 0.1376 0.8252 -0.5478
vn 0.0040 -0.9982 0.0590
vn 0.1195 -0.9885 -0.0921
vn 0.4668 0.6821 -0.5629
vn 0.6379 0.5325 -0.5564
vn 0.2399 -0.7328 -0.6367
vn 0.5576 0.5380 -0.6321
vn -0.1537 -0.9706 -0.1850
vn 0.6137 0.1845 -0.7677
vn -0.0634 -0.9980 0.0020
vn -0.0683 -0.9975 0.0171
vn 0.6676 -0.7285 0.1536
vn 0.8518 -0.3412 -0.3975
vn 0.6931 -0.6935 -0.1967
vn 0.7909 0.5441 -0.2800
vn 0.1974 0.6915 -0.6949
vn 0.8830 -0.3683 0.2911
vn 0.3465 -0.9356 0.0685
vn -0.0077 -0.9870 0.1603
vn 0.2960 0.9235 -0.2440
vn 0.5081 0.8498 -0.1402
vn 0.4981 0.7146 0.4911
vn 0.4966 0.7723 -0.3961
vn 0.0092 -0.9957 -0.0916
vn -0.1247 0.0535 0.9907
vn 0.5745 0.7744 0.2652
vn 0.5255 0.6269 0.5751
vn -0.0141 -0.9998 -0.0110
vn 0.3765 -0.6544 0.6558
vn 0.5631 0.5946 0.5739
vn -0.4199 -0.8011 0.4266
vn 0.2560 0.5283 0.8096
vn -0.3310 -0.1389 0.9334
vn 0.0628 -0.9957 -0.0680
vn 0.1356 -0.7708 0.6225
vn 0.0407 -0.4016 0.9149
vn -0.0180 0.4776 0.8784
vn 0.0938 0.9830 -0.1579
vn -0.3690 -0.8812 0.2955
vn 0.1449 0.0754 0.9866
vn -0.2645 -0.2635 0.9277
vn -0.0984 0.9595 0.2641
vn -0.7985 0.5652 0.2071
vn -0.2110 0.8608 0.4630
vn -0.5345 0.6142 0.5805
vn 0.0639 -0.9956 -0.0679
vn -0.7537 0.1603 0.6374
vn -0.0465 0.8981 -0.4374
vn -0.0395 -0.9196 0.3908
vn -0.4637 0.8687 -0.1744
vn -0.0853 -0.9778 -0.1914
vn -0.6597 0.7510 0.0270
vn -0.3670 -0.0290 -0.9298
vn -0.6091 -0.5630 -0.5586
vn -0.4173 0.7265 -0.5459
vn -0.2197 -0.9708 0.0962
vn -0.2596 0.8386 -0.4790
vn -0.2373 -0.9606 0.1450
vn -0.4781 0.6854 -0.5492
vn -0.8324 -0.2572 -0.4909
vn -0.5700 -0.0294 -0.8211
vn 0.0064 -0.9982 0.0590
vn -0.5069 0.7950 -0.3333
vn -0.3267 -0.6026 -0.7281
vn 0.1317 0.8913 -0.4338
vn -0.2510 0.6167 -0.7461
vn 0.3144 -0.6230 -0.7162
vn 0.1924 0.7082 -0.6793
vn 0.0143 0.6635 -0.7480
vt 0.870168 0.934096
vt 0.734375 1.000000
vt 0.559247 0.926859
vt 0.775502 0.412447
vt 0.749427 0.549122
vt 0.682558 0.555470
vt 0.664022 0.366451
vt 0.636732 0.191217
vt 0.728098 0.689211
vt 0.597146 0.416021
vt 0.725889 0.810923
vt 0.654808 0.817340
vt 0.581977 0.630280
vt 0.600949 0.537490
vt 0.505078 0.437500
vt 0.500374 0.351906
vt 0.505784 0.629929
vt 0.442092 0.833735
vt 0.457534 0.671203
vt 0.444976 0.282635
vt 0.310847 0.030134
vt 0.433200 0.593245
vt 0.488727 0.562500
vt 0.428309 0.788872
vt 0.392527 0.724721
vt 0.348030 0.942920
vt 0.329893 0.875000
vt 0.345823 0.644052
vt 0.379005 0.528954
vt 0.433400 0.402084
vt 0.375000 0.431564
vt 0.343750 0.516398
vt 0.339936 0.263806
vt 0.278453 0.812500
vt 0.314665 0.722972
vt 0.312500 0.604173
vt 0.256466 0.750000
vt 0.281250 0.603753
vt 0.217684 0.687500
vt 0.167970 0.828311
vt 0.216731 0.523754
vt 0.181472 0.583865
vt 0.165393 0.417289
vt 0.229172 0.406188
vt 0.136966 0.750000
vt 0.112201 0.687500
vt 0.063855 0.472039
vt 0.062390 0.870745
vt 0.052815 0.583808
vt 0.084416 0.231481
vt 0.025005 0.125000
vt 0.005710 0.761842
vt 0.031250 0.495480
vt 0.000000 0.555904
vt 0.000000 0.401803
vt 0.000000 0.687500
vt 1.000000 0.875000
vt 0.920192 0.829067
vt 0.979589 0.410361
vt 0.946300 0.205641
vt 1.000000 0.187500
vt 0.996235 0.555904
vt 0.967890 0.687500
vt 0.941798 0.578907
vt 0.937500 0.480161
vt 0.865636 0.715246
vt 0.997381 0.756603
vt 0.906250 0.510497
vt 0.875000 0.582327
vt 0.777090 0.224094
vt 0.843750 0.477946
vt 0.787671 0.803782
vt 0.784165 0.692390
vt 0.594424 0.015540
vt 0.487554 0.500000
vt 0.256667 0.467292
vt 0.312500 0.468985
vt 0.236643 0.237902
vt 0.026700 0.937500
vt 0.787138 0.522488
vt 0.941288 0.028926
s 0
usemtl Material.001
f 70/1/1 9/2/1 15/3/1
f 1/4/2 2/5/2 7/6/2
f 1/4/3 7/6/3 8/7/3
f 1/4/4 8/7/4 12/8/4
f 2/5/5 5/9/5 7/6/5
f 7/6/6 11/10/6 8/7/6
f 4/11/7 15/3/7 6/12/7
f 6/12/8 15/3/8 13/13/8
f 10/14/9 18/15/9 11/10/9
f 18/15/10 19/16/10 11/10/10
f 14/17/11 21/18/11 20/19/11
f 15/3/12 21/18/12 13/13/12
f 19/16/13 25/20/13 58/21/13
f 20/19/14 23/22/14 16/23/14
f 22/24/15 26/25/15 20/19/15
f 9/26/16 30/27/16 21/18/16
f 23/22/17 27/28/17 28/29/17
f 24/30/18 28/29/18 29/31/18
f 28/29/19 27/28/19 31/32/19
f 29/31/20 31/32/20 34/33/20
f 39/34/21 35/35/21 26/25/21
f 27/28/22 32/36/22 31/32/22
f 39/34/23 40/37/23 35/35/23
f 35/35/24 36/38/24 32/36/24
f 35/35/25 40/37/25 42/39/25
f 30/27/26 9/26/26 45/40/26
f 16/23/27 10/14/27 13/13/27 14/17/27
f 37/41/28 42/39/28 47/42/28
f 37/41/29 44/43/29 41/44/29
f 42/39/30 46/45/30 50/46/30
f 44/43/31 37/41/31 49/47/31
f 9/26/32 53/48/32 45/40/32
f 37/41/33 51/49/33 49/47/33
f 47/42/34 50/46/34 51/49/34
f 48/50/35 62/51/35 58/21/35
f 53/48/36 55/52/36 46/45/36
f 51/49/37 52/53/37 49/47/37
f 51/49/38 57/54/38 52/53/38
f 52/53/39 54/55/39 48/50/39
f 50/46/40 55/52/40 56/56/40
f 53/57/41 70/1/41 63/58/41
f 54/59/42 62/60/42 48/61/42
f 57/62/43 56/63/43 59/64/43
f 57/62/44 59/64/44 60/65/44
f 57/62/45 60/65/45 54/59/45
f 63/58/46 66/66/46 55/67/46
f 59/64/47 66/66/47 61/68/47
f 61/68/48 64/69/48 3/70/48
f 61/68/49 3/70/49 62/60/49
f 64/69/50 66/66/50 65/71/50
f 64/69/51 65/71/51 3/70/51
f 70/1/52 67/72/52 66/66/52
f 65/71/53 1/4/53 3/70/53
f 68/73/54 5/9/54 2/5/54
f 3/70/55 12/8/55 58/74/55
f 3/70/56 1/4/56 12/8/56
f 5/9/57 4/11/57 6/12/57
f 7/6/58 5/9/58 6/12/58
f 7/6/59 10/14/59 11/10/59
f 7/6/60 6/12/60 13/13/60
f 8/7/61 11/10/61 12/8/61
f 10/14/62 7/6/62 13/13/62
f 58/21/63 12/8/63 19/16/63
f 12/8/64 11/10/64 19/16/64
f 28/29/65 24/30/65 18/15/65 17/75/65
f 10/14/66 16/23/66 17/75/66
f 10/14/67 17/75/67 18/15/67
f 14/17/68 20/19/68 16/23/68
f 14/17/69 13/13/69 21/18/69
f 23/22/70 28/29/70 17/75/70 16/23/70
f 19/16/71 18/15/71 24/30/71
f 25/20/72 19/16/72 24/30/72
f 20/19/73 21/18/73 22/24/73
f 39/34/74 22/24/74 21/18/74 30/27/74
f 20/19/75 26/25/75 23/22/75
f 15/3/76 9/26/76 21/18/76
f 29/31/77 34/33/77 25/20/77 24/30/77
f 38/76/78 33/77/78 32/36/78 36/38/78
f 22/24/79 39/34/79 26/25/79
f 23/22/80 26/25/80 27/28/80
f 58/21/81 25/20/81 34/33/81
f 29/31/82 28/29/82 31/32/82
f 26/25/83 35/35/83 27/28/83
f 34/33/84 31/32/84 33/77/84
f 27/28/85 35/35/85 32/36/85
f 31/32/86 32/36/86 33/77/86
f 58/21/87 34/33/87 43/78/87
f 43/78/88 34/33/88 33/77/88 41/44/88
f 33/77/89 38/76/89 41/44/89
f 42/39/90 37/41/90 36/38/90 35/35/90
f 39/34/91 30/27/91 45/40/91
f 48/50/92 43/78/92 41/44/92 44/43/92
f 38/76/93 36/38/93 37/41/93
f 38/76/94 37/41/94 41/44/94
f 45/40/95 46/45/95 40/37/95 39/34/95
f 57/54/96 51/49/96 50/46/96 56/56/96
f 42/39/97 40/37/97 46/45/97
f 47/42/98 42/39/98 50/46/98
f 43/78/99 48/50/99 58/21/99
f 37/41/100 47/42/100 51/49/100
f 9/26/101 70/79/101 53/48/101
f 44/43/102 49/47/102 48/50/102
f 45/40/103 53/48/103 46/45/103
f 49/47/104 52/53/104 48/50/104
f 50/46/105 46/45/105 55/52/105
f 68/73/106 69/80/106 65/71/106 66/66/106
f 52/53/107 57/54/107 54/55/107
f 55/67/108 53/57/108 63/58/108
f 54/59/109 60/65/109 62/60/109
f 55/67/110 66/66/110 56/63/110
f 62/60/111 60/65/111 61/68/111
f 59/64/112 56/63/112 66/66/112
f 60/65/113 59/64/113 61/68/113
f 61/68/114 66/66/114 64/69/114
f 62/60/115 3/70/115 58/81/115
f 63/58/116 70/1/116 66/66/116
f 65/71/117 69/80/117 1/4/117
f 4/11/118 67/72/118 70/1/118 15/3/118
f 68/73/119 66/66/119 67/72/119
f 69/80/120 2/5/120 1/4/120
f 4/11/121 5/9/121 68/73/121 67/72/121
f 69/80/122 68/73/122 2/5/122
