# Blender 4.2.3 LTS
# www.blender.org
mtllib tree2.mtl
o Cube
v 0.077650 -0.005856 -0.212076
v 0.212024 -0.005856 0.077793
v -0.077650 0.005856 0.212076
v -0.212024 0.005856 -0.077793
v 0.084996 3.822617 -0.074469
v 0.095722 3.822617 -0.022566
v 0.043884 3.825263 -0.011853
v 0.033157 3.825263 -0.063756
v -0.304924 1.600022 -0.002161
v -0.292399 1.600114 -0.120619
v -0.225200 1.698204 -0.113438
v -0.237724 1.698113 0.005019
v -0.614258 1.981309 -0.032628
v -0.601737 1.981672 -0.153303
v -0.494139 2.036568 -0.141973
v -0.506660 2.036205 -0.021298
v -0.699610 2.444886 -0.073856
v -0.694164 2.445107 -0.126575
v -0.643218 2.458714 -0.121254
v -0.648664 2.458494 -0.068536
v 0.216918 1.833085 0.516024
v 0.098533 1.837330 0.543394
v 0.079469 1.912000 0.449357
v 0.197854 1.907755 0.421987
v 0.254220 2.246090 0.624493
v 0.182740 2.252062 0.642874
v 0.167042 2.275206 0.574312
v 0.238522 2.269234 0.555930
v 0.579692 2.453537 -0.278744
v 0.607313 2.449242 -0.186235
v 0.542048 2.516828 -0.163610
v 0.514427 2.521123 -0.256119
v 0.767082 2.852785 -0.260387
v 0.779954 2.847195 -0.209279
v 0.734417 2.870414 -0.195270
v 0.721545 2.876004 -0.246378
v -0.451440 3.222075 -0.030783
v -0.428001 3.210804 -0.147429
v -0.329220 3.276708 -0.133947
v -0.352659 3.287978 -0.017302
v -0.550017 3.619720 -0.174997
v -0.536872 3.609034 -0.225216
v -0.488275 3.628350 -0.216607
v -0.501419 3.639036 -0.166387
v 0.473155 3.192278 0.043486
v 0.461384 3.192278 0.095162
v 0.428709 3.233338 0.087719
v 0.440480 3.233338 0.036043
v 0.516401 3.681684 -0.166009
v 0.533360 3.684912 -0.087786
v 0.463759 3.722180 -0.074235
v 0.446800 3.718953 -0.152457
v 0.521201 3.920854 -0.175064
v 0.533126 3.925647 -0.123646
v 0.481554 3.929475 -0.112042
v 0.469629 3.924682 -0.163460
v 0.079513 0.377674 -0.188280
v 0.195068 0.377674 0.060993
v -0.054038 0.387747 0.176470
v -0.169592 0.387747 -0.072803
v 0.080713 0.624685 -0.172954
v 0.184147 0.624685 0.050174
v -0.038830 0.633702 0.153538
v -0.142264 0.633702 -0.069589
v 0.081746 0.837509 -0.159749
v 0.174738 0.837509 0.040851
v -0.025727 0.845614 0.133780
v -0.118719 0.845614 -0.066820
v 0.082685 1.030784 -0.147757
v 0.166193 1.030784 0.032385
v -0.013828 1.038063 0.115837
v -0.097336 1.038063 -0.064305
v 0.083559 1.210713 -0.136593
v 0.158238 1.210713 0.024504
v -0.002751 1.217223 0.099133
v -0.077430 1.217223 -0.061964
v 0.084384 1.380675 -0.126047
v 0.150724 1.380675 0.017059
v 0.007713 1.386458 0.083354
v -0.058626 1.386458 -0.059753
v -0.037790 2.307877 0.010009
v -0.008268 2.307877 -0.098290
v 0.089047 2.302330 -0.086069
v 0.070467 2.310972 0.039519
v -0.040299 2.417305 0.008985
v -0.010950 2.417305 -0.098681
v 0.096674 2.420382 -0.069342
v 0.067325 2.420382 0.038323
v -0.042786 2.525746 0.007970
v -0.013607 2.525746 -0.099068
v 0.093390 2.528805 -0.069901
v 0.064212 2.528805 0.037137
v -0.045258 2.633550 0.006961
v -0.016249 2.633550 -0.099453
v 0.090125 2.636591 -0.070456
v 0.061117 2.636591 0.035959
v -0.047719 2.740885 0.005957
v -0.018880 2.740885 -0.099837
v 0.086874 2.743908 -0.071009
v 0.058035 2.743908 0.034785
v 0.079849 3.439734 -0.092487
v 0.097272 3.439734 -0.002640
v 0.011775 3.447725 0.012665
v -0.006040 3.447725 -0.073538
v 0.081059 3.520316 -0.087908
v 0.097435 3.520316 -0.008667
v 0.018293 3.524356 0.007689
v 0.001916 3.524356 -0.071553
v 0.081947 3.588531 -0.084876
v 0.097048 3.588531 -0.011804
v 0.024067 3.592256 0.003279
v 0.008966 3.592256 -0.069793
v 0.082768 3.651609 -0.082072
v 0.096691 3.651609 -0.014704
v 0.029407 3.655043 -0.000799
v 0.015485 3.655043 -0.068166
v 0.083544 3.711123 -0.079426
v 0.096354 3.711123 -0.017440
v 0.034445 3.714283 -0.004646
v 0.021635 3.714283 -0.066632
v 0.084284 3.767943 -0.076900
v 0.096032 3.767943 -0.020053
v 0.039256 3.770841 -0.008319
v 0.027507 3.770841 -0.065166
v -0.089949 1.520105 0.027228
v -0.075896 1.520105 -0.103743
v -0.017088 1.658626 -0.103122
v -0.041699 1.658626 0.026870
v -0.191720 1.556970 0.013080
v -0.178352 1.556970 -0.111507
v -0.139728 1.676099 -0.107363
v -0.153095 1.676099 0.017225
v -0.388925 1.700212 -0.010481
v -0.376494 1.700444 -0.129496
v -0.283923 1.775633 -0.119680
v -0.296355 1.775401 -0.000666
v -0.461448 1.789991 -0.017605
v -0.448959 1.790224 -0.137167
v -0.355963 1.865759 -0.127307
v -0.368451 1.865527 -0.007744
v -0.534323 1.880206 -0.024763
v -0.521777 1.880439 -0.144876
v -0.428352 1.956323 -0.134970
v -0.440898 1.956090 -0.014856
v -0.641065 2.117815 -0.044314
v -0.630536 2.118242 -0.146234
v -0.532042 2.144549 -0.135949
v -0.542571 2.144122 -0.034028
v -0.655471 2.198297 -0.051583
v -0.646192 2.198673 -0.141396
v -0.559399 2.221855 -0.132333
v -0.568677 2.221479 -0.042519
v -0.667891 2.267683 -0.057850
v -0.659691 2.268015 -0.137226
v -0.582984 2.288503 -0.129216
v -0.591184 2.288171 -0.049840
v -0.679174 2.330720 -0.063544
v -0.671954 2.331013 -0.133437
v -0.604411 2.349053 -0.126384
v -0.611632 2.348761 -0.056491
v -0.689682 2.389423 -0.068846
v -0.683374 2.389678 -0.129908
v -0.624365 2.405439 -0.123746
v -0.630673 2.405184 -0.062684
v 0.145912 1.560642 0.110972
v 0.013298 1.560642 0.136305
v -0.000275 1.674641 0.065253
v 0.113626 1.675121 0.048615
v 0.163607 1.628345 0.212903
v 0.034421 1.628345 0.237581
v 0.021199 1.739398 0.168366
v 0.150385 1.739398 0.143687
v 0.180736 1.693880 0.311570
v 0.054867 1.693880 0.335614
v 0.041985 1.802081 0.268176
v 0.167854 1.802081 0.244132
v 0.197506 1.758046 0.408175
v 0.074886 1.758046 0.431599
v 0.062336 1.863454 0.365902
v 0.184957 1.863454 0.342478
v 0.229204 1.957520 0.551449
v 0.124408 1.966275 0.578398
v 0.101393 2.000206 0.477878
v 0.206189 1.991452 0.450929
v 0.236250 2.038807 0.572024
v 0.140839 2.046777 0.596560
v 0.119885 2.077670 0.505042
v 0.215297 2.069699 0.480506
v 0.242609 2.112153 0.590590
v 0.155666 2.119417 0.612948
v 0.136572 2.147567 0.529553
v 0.223515 2.140304 0.507195
v 0.248558 2.180777 0.607960
v 0.169537 2.187379 0.628281
v 0.152183 2.212964 0.552486
v 0.231204 2.206362 0.532165
v 0.130081 1.675601 -0.071703
v -0.034303 1.784330 0.019774
v -0.000308 1.784330 -0.104934
v 0.124352 1.787894 -0.070952
v 0.090357 1.787894 0.053756
v -0.034541 1.891379 0.017506
v -0.001664 1.891379 -0.103101
v 0.118897 1.894825 -0.070236
v 0.086019 1.894825 0.050371
v -0.034773 1.995084 0.015309
v -0.002978 1.995084 -0.101325
v 0.113612 1.998417 -0.069543
v 0.081817 1.998417 0.047091
v -0.034998 2.096373 0.013163
v -0.004262 2.096373 -0.099591
v 0.108450 2.099595 -0.068866
v 0.077713 2.099595 0.043888
v 0.125380 2.195605 -0.120644
v 0.163238 2.195605 -0.017102
v 0.115962 2.293689 0.000183
v 0.203425 2.239382 -0.147893
v 0.240453 2.239382 -0.046620
v 0.194213 2.335316 -0.029713
v 0.157185 2.335316 -0.130987
v 0.278576 2.281535 -0.174132
v 0.314805 2.281535 -0.075043
v 0.269562 2.375400 -0.058501
v 0.233333 2.375400 -0.157590
v 0.351906 2.322667 -0.199735
v 0.387356 2.322667 -0.102777
v 0.343087 2.414513 -0.086591
v 0.307637 2.414513 -0.183549
v 0.423913 2.363056 -0.224875
v 0.458597 2.363056 -0.130011
v 0.415284 2.452920 -0.114174
v 0.380599 2.452920 -0.209039
v 0.494881 2.402864 -0.249654
v 0.528812 2.402864 -0.156852
v 0.486440 2.490773 -0.141360
v 0.452510 2.490773 -0.234162
v 0.634719 2.564943 -0.275509
v 0.655543 2.555899 -0.192830
v 0.581875 2.593461 -0.170167
v 0.561051 2.602504 -0.252847
v 0.666018 2.633008 -0.271933
v 0.684962 2.624781 -0.196719
v 0.617946 2.658950 -0.176103
v 0.599003 2.667177 -0.251317
v 0.693812 2.693448 -0.268758
v 0.711085 2.685947 -0.200173
v 0.649977 2.717105 -0.181374
v 0.632703 2.724606 -0.249959
v 0.719548 2.749416 -0.265818
v 0.735276 2.742586 -0.203372
v 0.679637 2.770955 -0.186255
v 0.663909 2.777785 -0.248701
v 0.743856 2.802276 -0.263040
v 0.758123 2.796080 -0.206392
v 0.707650 2.821815 -0.190865
v 0.693382 2.828011 -0.247513
v -0.090471 2.870924 0.009486
v -0.077234 2.870924 -0.100337
v -0.020792 2.953871 -0.083452
v -0.016618 2.953871 0.023680
v -0.157628 2.935626 0.002255
v -0.144186 2.935626 -0.109270
v -0.066302 3.016027 -0.099882
v -0.079744 3.016027 0.011642
v -0.226497 3.001975 -0.005161
v -0.212844 3.001975 -0.118430
v -0.133742 3.083635 -0.108896
v -0.147394 3.083635 0.004374
v -0.296500 3.069419 -0.012699
v -0.282634 3.069419 -0.127742
v -0.202293 3.152357 -0.118058
v -0.216159 3.152357 -0.003015
v -0.367360 3.137688 -0.020329
v -0.353278 3.137688 -0.137167
v -0.271683 3.221920 -0.127332
v -0.285766 3.221920 -0.010494
v -0.488134 3.358615 -0.079127
v -0.463657 3.338716 -0.172643
v -0.373162 3.374685 -0.156611
v -0.397638 3.394585 -0.063095
v -0.506435 3.435836 -0.107480
v -0.485310 3.418661 -0.188191
v -0.407206 3.449706 -0.174355
v -0.428331 3.466880 -0.093644
v -0.522241 3.502527 -0.131967
v -0.504011 3.487705 -0.201620
v -0.436608 3.514497 -0.189679
v -0.454839 3.529318 -0.120026
v -0.536618 3.563186 -0.154239
v -0.521020 3.550505 -0.213833
v -0.463351 3.573427 -0.203616
v -0.478949 3.586108 -0.144023
v 0.150033 2.889262 -0.052714
v 0.128475 2.889262 0.041929
v 0.076741 2.958390 0.017684
v 0.076728 2.958390 -0.081858
v 0.209049 2.944606 -0.035144
v 0.189278 2.944606 0.051651
v 0.134397 3.013570 0.039150
v 0.154167 3.013570 -0.047645
v 0.260597 2.992946 -0.019797
v 0.242388 2.992946 0.060144
v 0.191841 3.056464 0.048630
v 0.210050 3.056464 -0.031311
v 0.307826 3.037236 -0.005736
v 0.291047 3.037236 0.067925
v 0.244471 3.095764 0.057315
v 0.261250 3.095764 -0.016345
v 0.352082 3.078739 0.007440
v 0.336644 3.078739 0.075216
v 0.293789 3.132591 0.065454
v 0.309227 3.132591 -0.002322
v 0.394106 3.118147 0.019951
v 0.379940 3.118147 0.082139
v 0.340619 3.167559 0.073182
v 0.354784 3.167559 0.010995
v 0.434358 3.155895 0.031935
v 0.421412 3.155895 0.088770
v 0.385475 3.201054 0.080585
v 0.398421 3.201054 0.023750
v 0.067230 3.050805 -0.097063
v 0.088368 3.050805 0.005220
v -0.013788 3.056019 0.026331
v -0.034926 3.056019 -0.075952
v 0.071091 3.146742 -0.096765
v 0.091794 3.146742 0.003415
v -0.008261 3.151849 0.024093
v -0.028965 3.151849 -0.076087
v 0.074887 3.241061 -0.096472
v 0.095163 3.241061 0.001642
v -0.002828 3.246063 0.021893
v -0.023105 3.246063 -0.076221
v 0.138022 3.361914 -0.104280
v 0.155055 3.361914 -0.010789
v 0.204740 3.417663 -0.115065
v 0.221290 3.417663 -0.024226
v 0.164564 3.489781 -0.013891
v 0.148015 3.489781 -0.104730
v 0.268325 3.470793 -0.125344
v 0.284414 3.470793 -0.037031
v 0.229267 3.540905 -0.026984
v 0.213178 3.540905 -0.115297
v 0.329957 3.522291 -0.135307
v 0.345600 3.522291 -0.049443
v 0.291982 3.590459 -0.039675
v 0.276339 3.590459 -0.125538
v 0.390176 3.572609 -0.145041
v 0.405383 3.572609 -0.061571
v 0.353259 3.638877 -0.052075
v 0.338052 3.638877 -0.135545
v 0.449292 3.622006 -0.154598
v 0.464071 3.622006 -0.073477
v 0.413414 3.686409 -0.064248
v 0.398635 3.686409 -0.145369
v 0.520408 3.766674 -0.170060
v 0.536504 3.773144 -0.100658
v 0.466894 3.778311 -0.084996
v 0.450798 3.771841 -0.154398
v 0.520693 3.822161 -0.171861
v 0.535288 3.828027 -0.108931
v 0.472170 3.832712 -0.094729
v 0.457575 3.826846 -0.157659
v 0.520954 3.872928 -0.173508
v 0.534176 3.878242 -0.116500
v 0.476997 3.882486 -0.103635
v 0.463775 3.877172 -0.160643
v -0.041699 1.658626 0.026870
v -0.017088 1.658626 -0.103122
v 0.130081 1.675601 -0.071703
v 0.113626 1.675121 0.048615
vn -0.1769 -0.0109 0.9842
vn -0.2584 -0.1110 0.9596
vn -0.7079 0.3110 0.6342
vn -0.7476 0.2620 0.6103
vn -0.6752 -0.1946 0.7115
vn 0.4218 0.0583 0.9048
vn 0.9338 0.3337 0.1290
vn 0.9070 0.0217 -0.4205
vn -0.4179 0.0583 -0.9066
vn -0.0037 1.0000 0.0035
vn -0.3119 0.9483 -0.0591
vn 0.0489 0.9988 -0.0101
vn -0.2633 0.0109 0.9647
vn 0.5803 0.0684 0.8115
vn -0.9812 -0.1615 -0.1053
vn -0.8159 -0.4374 0.3782
vn -0.9032 0.0949 0.4187
vn 0.1899 0.1494 -0.9704
vn -0.0982 0.0461 -0.9941
vn -0.4077 -0.3326 -0.8504
vn 0.0503 0.9933 -0.1043
vn 0.7554 0.6323 0.1721
vn 0.0070 0.1949 -0.9808
vn 0.0968 0.0396 -0.9945
vn 0.2638 -0.0363 -0.9639
vn -0.3126 0.9091 -0.2753
vn -0.1206 0.0096 0.9927
vn 0.0425 0.3588 0.9324
vn -0.9177 -0.3547 -0.1791
vn 0.8787 -0.4232 0.2209
vn 0.4503 0.8927 -0.0158
vn 0.3437 -0.0312 -0.9386
vn 0.1523 0.9465 0.2846
vn -0.2558 0.9665 -0.0224
vn 0.2419 -0.4933 -0.8356
vn -0.1625 0.0030 -0.9867
vn 0.1363 0.3470 -0.9279
vn 0.2024 0.0004 0.9793
vn 0.3448 0.9386 -0.0136
vn 0.1806 0.0312 0.9831
vn 0.3119 -0.9483 0.0591
vn -0.0000 1.0000 -0.0000
vn 0.1790 0.0320 0.9833
vn -0.9647 -0.0167 -0.2630
vn -0.9762 0.0799 0.2017
vn -0.0333 -0.9993 0.0154
vn 0.2864 -0.3675 0.8848
vn -0.1677 0.0240 -0.9855
vn 0.9691 -0.0064 -0.2467
vn -0.2011 0.0247 -0.9793
vn -0.2126 0.0310 -0.9766
vn 0.8724 -0.4583 -0.1699
vn 0.8748 -0.4837 -0.0288
vn -0.9645 -0.0246 -0.2629
vn 0.1991 0.0659 -0.9778
vn 0.9788 -0.0331 0.2023
vn -0.2631 0.0030 0.9648
vn 0.2629 0.0030 -0.9648
vn 0.9643 0.0306 0.2629
vn 0.9806 -0.0101 -0.1960
vn 0.1928 0.0604 0.9794
vn -0.9748 0.0960 0.2015
vn -0.2052 0.0528 -0.9773
vn 0.9793 -0.0038 -0.2024
vn 0.2044 0.0461 0.9778
vn -0.1999 0.0461 -0.9787
vn -0.3359 -0.9412 -0.0360
vn 0.0529 -0.0015 -0.9986
vn 0.1464 0.9890 0.0218
vn -0.1056 0.0210 0.9942
vn -0.3509 -0.9357 -0.0377
vn 0.0801 0.0129 -0.9967
vn 0.2483 0.9683 0.0268
vn -0.1331 0.0132 0.9910
vn -0.7604 -0.6444 -0.0808
vn 0.1055 0.0002 -0.9944
vn 0.7908 0.6063 0.0839
vn -0.1020 -0.0035 0.9948
vn -0.7721 -0.6302 -0.0819
vn 0.1054 0.0001 -0.9944
vn 0.7751 0.6265 0.0822
vn -0.1024 -0.0038 0.9947
vn -0.7787 -0.6220 -0.0826
vn 0.1051 -0.0001 -0.9945
vn 0.7672 0.6362 0.0814
vn -0.1025 -0.0039 0.9947
vn -0.9745 -0.2001 -0.1016
vn 0.0752 0.0738 -0.9944
vn 0.9407 0.3247 0.0986
vn -0.1296 0.0656 0.9894
vn -0.9776 -0.1842 -0.1018
vn 0.0835 0.0760 -0.9936
vn 0.9396 0.3279 0.0984
vn -0.1215 0.0677 0.9903
vn 0.1028 -0.8367 0.5379
vn -0.9799 0.0076 0.1993
vn -0.0908 0.8466 -0.5245
vn 0.9585 0.0279 -0.2837
vn -0.0983 0.8518 -0.5145
vn 0.9844 0.0076 -0.1759
vn 0.1031 -0.8233 0.5582
vn -0.9796 0.0060 0.2007
vn -0.0860 0.8724 -0.4812
vn 0.9838 0.0142 -0.1787
vn 0.2102 -0.2911 0.9333
vn -0.9521 0.1284 0.2776
vn -0.2033 0.3424 -0.9173
vn 0.9739 -0.0267 -0.2256
vn 0.2205 -0.2573 0.9409
vn -0.9549 0.1353 0.2643
vn -0.2028 0.3668 -0.9079
vn 0.9725 -0.0257 -0.2314
vn -0.9710 0.0855 -0.2234
vn 0.2350 -0.0152 -0.9719
vn -0.9648 -0.0077 -0.2630
vn 0.2624 0.0198 -0.9647
vn 0.9637 0.0474 0.2627
vn -0.2635 0.0198 0.9645
vn 0.4396 -0.8837 -0.1607
vn 0.3541 0.0059 0.9352
vn -0.3769 0.9104 0.1705
vn -0.4586 0.0387 -0.8878
vn -0.4180 0.8955 0.1528
vn -0.3326 0.0059 -0.9431
vn 0.4570 -0.8727 -0.1720
vn 0.3524 0.0146 0.9357
vn -0.3821 0.9122 0.1481
vn -0.3300 0.0029 -0.9440
vn 0.8682 -0.4153 -0.2717
vn 0.2681 -0.0598 0.9615
vn -0.8427 0.4666 0.2686
vn -0.2078 0.1422 -0.9678
vn 0.8813 -0.3914 -0.2648
vn 0.2658 -0.0592 0.9622
vn -0.8348 0.4836 0.2631
vn -0.2193 0.1515 -0.9638
vn -0.6868 -0.7221 -0.0828
vn 0.2065 -0.0125 -0.9784
vn 0.7490 0.6618 0.0317
vn -0.1498 -0.0036 0.9887
vn 0.1262 -0.0064 -0.9920
vn 0.6998 0.7093 0.0843
vn -0.1131 -0.0064 0.9936
vn 0.6998 0.7093 0.0844
vn -0.6970 -0.7129 -0.0776
vn 0.1274 0.0009 -0.9918
vn 0.6904 0.7194 0.0762
vn -0.1216 -0.0081 0.9926
vn -0.9378 -0.3035 -0.1688
vn 0.2195 -0.1277 -0.9672
vn 0.8904 0.4334 0.1387
vn -0.2846 0.2615 0.9223
vn -0.9391 -0.2902 -0.1841
vn 0.2221 -0.1278 -0.9666
vn 0.8888 0.4364 0.1398
vn -0.2723 0.2741 0.9223
vn 0.6525 -0.7430 0.1486
vn -0.2848 0.0350 0.9579
vn -0.6150 0.7858 -0.0652
vn 0.3353 0.0273 -0.9417
vn -0.1851 0.0308 0.9822
vn -0.5790 0.8046 -0.1319
vn 0.2586 0.0308 -0.9655
vn 0.9942 -0.0270 -0.1042
vn 0.1374 0.0397 0.9897
vn -0.9909 -0.0608 0.1198
vn -0.0973 -0.0512 -0.9939
vn 0.9786 -0.0388 -0.2022
vn 0.2029 0.0112 0.9791
vn -0.9775 0.0611 0.2020
vn -0.2018 0.0112 -0.9794
vn 0.6261 -0.7714 -0.1141
vn 0.1734 0.0110 0.9848
vn -0.5785 0.8084 0.1088
vn -0.1761 0.0103 -0.9843
vn 0.1910 0.0096 0.9815
vn -0.6025 0.7906 0.1098
vn -0.1674 0.0096 -0.9858
vn 0.6520 -0.7495 -0.1147
vn 0.1927 0.0080 0.9812
vn -0.5563 0.8257 0.0941
vn -0.1719 0.0173 -0.9850
vn 0.9749 -0.0612 -0.2143
vn 0.2457 0.1462 0.9583
vn -0.9732 0.0884 0.2121
vn -0.2140 -0.0300 -0.9764
vn 0.9743 -0.0123 -0.2248
vn 0.2276 0.1501 0.9621
vn -0.9683 0.1319 0.2123
vn -0.2216 -0.0305 -0.9747
s 0
usemtl Material.001
f 100//1 260//1 257//1
f 100//2 257//2 97//2
f 167//3 128//3 166//3
f 128//4 125//4 166//4
f 125//5 79//5 166//5
f 62//6 63//6 59//6 58//6
f 197//7 168//7 165//7
f 61//8 62//8 58//8 57//8
f 60//9 57//9 1//9 4//9
f 197//10 167//10 168//10
f 127//11 128//11 167//11
f 8//12 7//12 6//12 5//12
f 84//13 81//13 213//13
f 84//14 213//14 215//14 216//14
f 126//15 80//15 125//15
f 80//16 79//16 125//16
f 59//17 60//17 4//17 3//17
f 58//6 59//6 3//6 2//6
f 57//8 58//8 2//8 1//8
f 77//18 127//18 197//18
f 77//19 126//19 127//19
f 77//20 80//20 126//20
f 56//21 55//21 54//21 53//21
f 48//22 47//22 46//22 45//22
f 259//23 296//23 258//23
f 296//24 98//24 258//24
f 296//25 99//25 98//25
f 44//26 43//26 42//26 41//26
f 294//27 260//27 100//27
f 294//28 295//28 260//28
f 258//29 98//29 97//29 257//29
f 293//30 294//30 100//30 99//30
f 36//31 35//31 34//31 33//31
f 293//32 99//32 296//32
f 28//33 27//33 26//33 25//33
f 20//34 19//34 18//34 17//34
f 81//13 210//13 213//13
f 211//35 214//35 212//35
f 211//36 82//36 214//36
f 82//37 83//37 214//37
f 331//38 330//38 334//38
f 84//39 216//39 83//39
f 102//40 331//40 334//40
f 167//41 367//41 368//41 127//41
f 127//42 368//42 369//42 197//42
f 103//43 331//43 102//43
f 81//44 82//44 211//44 210//44
f 103//45 104//45 331//45
f 104//45 332//45 331//45
f 1//46 2//46 3//46 4//46
f 79//47 78//47 165//47 166//47
f 329//48 101//48 333//48
f 78//49 77//49 197//49 165//49
f 329//50 332//50 101//50
f 332//51 104//51 101//51
f 329//52 333//52 334//52 330//52
f 212//53 214//53 215//53 213//53
f 63//17 64//17 60//17 59//17
f 64//9 61//9 57//9 60//9
f 65//8 66//8 62//8 61//8
f 66//6 67//6 63//6 62//6
f 67//17 68//17 64//17 63//17
f 68//9 65//9 61//9 64//9
f 69//8 70//8 66//8 65//8
f 70//6 71//6 67//6 66//6
f 71//17 72//17 68//17 67//17
f 72//9 69//9 65//9 68//9
f 73//8 74//8 70//8 69//8
f 74//6 75//6 71//6 70//6
f 75//17 76//17 72//17 71//17
f 76//9 73//9 69//9 72//9
f 77//8 78//8 74//8 73//8
f 78//6 79//6 75//6 74//6
f 79//17 80//17 76//17 75//17
f 80//9 77//9 73//9 76//9
f 85//54 86//54 82//54 81//54
f 86//55 87//55 83//55 82//55
f 87//56 88//56 84//56 83//56
f 88//57 85//57 81//57 84//57
f 89//54 90//54 86//54 85//54
f 90//58 91//58 87//58 86//58
f 91//59 92//59 88//59 87//59
f 92//57 89//57 85//57 88//57
f 93//54 94//54 90//54 89//54
f 94//58 95//58 91//58 90//58
f 95//59 96//59 92//59 91//59
f 96//57 93//57 89//57 92//57
f 97//54 98//54 94//54 93//54
f 98//58 99//58 95//58 94//58
f 99//59 100//59 96//59 95//59
f 100//57 97//57 93//57 96//57
f 105//60 106//60 102//60 101//60
f 106//61 107//61 103//61 102//61
f 107//62 108//62 104//62 103//62
f 108//63 105//63 101//63 104//63
f 109//64 110//64 106//64 105//64
f 110//65 111//65 107//65 106//65
f 111//62 112//62 108//62 107//62
f 112//66 109//66 105//66 108//66
f 113//64 114//64 110//64 109//64
f 114//65 115//65 111//65 110//65
f 115//62 116//62 112//62 111//62
f 116//66 113//66 109//66 112//66
f 117//64 118//64 114//64 113//64
f 118//65 119//65 115//65 114//65
f 119//62 120//62 116//62 115//62
f 120//66 117//66 113//66 116//66
f 121//64 122//64 118//64 117//64
f 122//65 123//65 119//65 118//65
f 123//62 124//62 120//62 119//62
f 124//66 121//66 117//66 120//66
f 5//64 6//64 122//64 121//64
f 6//65 7//65 123//65 122//65
f 7//62 8//62 124//62 123//62
f 8//66 5//66 121//66 124//66
f 129//67 130//67 126//67 125//67
f 130//68 131//68 127//68 126//68
f 131//69 132//69 128//69 127//69
f 132//70 129//70 125//70 128//70
f 9//71 10//71 130//71 129//71
f 10//72 11//72 131//72 130//72
f 11//73 12//73 132//73 131//73
f 12//74 9//74 129//74 132//74
f 133//75 134//75 10//75 9//75
f 134//76 135//76 11//76 10//76
f 135//77 136//77 12//77 11//77
f 136//78 133//78 9//78 12//78
f 137//79 138//79 134//79 133//79
f 138//80 139//80 135//80 134//80
f 139//81 140//81 136//81 135//81
f 140//82 137//82 133//82 136//82
f 141//79 142//79 138//79 137//79
f 142//80 143//80 139//80 138//80
f 143//81 144//81 140//81 139//81
f 144//82 141//82 137//82 140//82
f 13//83 14//83 142//83 141//83
f 14//84 15//84 143//84 142//84
f 15//85 16//85 144//85 143//85
f 16//86 13//86 141//86 144//86
f 145//87 146//87 14//87 13//87
f 146//88 147//88 15//88 14//88
f 147//89 148//89 16//89 15//89
f 148//90 145//90 13//90 16//90
f 149//91 150//91 146//91 145//91
f 150//92 151//92 147//92 146//92
f 151//93 152//93 148//93 147//93
f 152//94 149//94 145//94 148//94
f 153//91 154//91 150//91 149//91
f 154//92 155//92 151//92 150//92
f 155//93 156//93 152//93 151//93
f 156//94 153//94 149//94 152//94
f 157//91 158//91 154//91 153//91
f 158//92 159//92 155//92 154//92
f 159//93 160//93 156//93 155//93
f 160//94 157//94 153//94 156//94
f 161//91 162//91 158//91 157//91
f 162//92 163//92 159//92 158//92
f 163//93 164//93 160//93 159//93
f 164//94 161//94 157//94 160//94
f 17//91 18//91 162//91 161//91
f 18//92 19//92 163//92 162//92
f 19//93 20//93 164//93 163//93
f 20//94 17//94 161//94 164//94
f 169//95 170//95 166//95 165//95
f 170//96 171//96 167//96 166//96
f 171//97 172//97 168//97 167//97
f 172//98 169//98 165//98 168//98
f 173//95 174//95 170//95 169//95
f 174//96 175//96 171//96 170//96
f 175//99 176//99 172//99 171//99
f 176//100 173//100 169//100 172//100
f 177//95 178//95 174//95 173//95
f 178//96 179//96 175//96 174//96
f 179//99 180//99 176//99 175//99
f 180//100 177//100 173//100 176//100
f 21//101 22//101 178//101 177//101
f 22//102 23//102 179//102 178//102
f 23//103 24//103 180//103 179//103
f 24//104 21//104 177//104 180//104
f 181//105 182//105 22//105 21//105
f 182//106 183//106 23//106 22//106
f 183//107 184//107 24//107 23//107
f 184//108 181//108 21//108 24//108
f 185//109 186//109 182//109 181//109
f 186//110 187//110 183//110 182//110
f 187//111 188//111 184//111 183//111
f 188//112 185//112 181//112 184//112
f 189//109 190//109 186//109 185//109
f 190//110 191//110 187//110 186//110
f 191//111 192//111 188//111 187//111
f 192//112 189//112 185//112 188//112
f 193//109 194//109 190//109 189//109
f 194//110 195//110 191//110 190//110
f 195//111 196//111 192//111 191//111
f 196//112 193//112 189//112 192//112
f 25//109 26//109 194//109 193//109
f 26//110 27//110 195//110 194//110
f 27//111 28//111 196//111 195//111
f 28//112 25//112 193//112 196//112
f 198//113 199//113 368//113 367//113
f 199//114 200//114 369//114 368//114
f 202//115 203//115 199//115 198//115
f 203//116 204//116 200//116 199//116
f 204//117 205//117 201//117 200//117
f 205//118 202//118 198//118 201//118
f 206//115 207//115 203//115 202//115
f 207//116 208//116 204//116 203//116
f 208//117 209//117 205//117 204//117
f 209//118 206//118 202//118 205//118
f 210//115 211//115 207//115 206//115
f 211//116 212//116 208//116 207//116
f 212//117 213//117 209//117 208//117
f 213//118 210//118 206//118 209//118
f 217//119 218//119 215//119 214//119
f 218//120 219//120 216//120 215//120
f 219//121 220//121 83//121 216//121
f 220//122 217//122 214//122 83//122
f 221//119 222//119 218//119 217//119
f 222//120 223//120 219//120 218//120
f 223//123 224//123 220//123 219//123
f 224//124 221//124 217//124 220//124
f 225//119 226//119 222//119 221//119
f 226//120 227//120 223//120 222//120
f 227//123 228//123 224//123 223//123
f 228//124 225//124 221//124 224//124
f 229//119 230//119 226//119 225//119
f 230//120 231//120 227//120 226//120
f 231//123 232//123 228//123 227//123
f 232//124 229//124 225//124 228//124
f 233//119 234//119 230//119 229//119
f 234//120 235//120 231//120 230//120
f 235//123 236//123 232//123 231//123
f 236//124 233//124 229//124 232//124
f 29//125 30//125 234//125 233//125
f 30//126 31//126 235//126 234//126
f 31//127 32//127 236//127 235//127
f 32//128 29//128 233//128 236//128
f 237//129 238//129 30//129 29//129
f 238//130 239//130 31//130 30//130
f 239//131 240//131 32//131 31//131
f 240//132 237//132 29//132 32//132
f 241//133 242//133 238//133 237//133
f 242//134 243//134 239//134 238//134
f 243//135 244//135 240//135 239//135
f 244//136 241//136 237//136 240//136
f 245//133 246//133 242//133 241//133
f 246//134 247//134 243//134 242//134
f 247//135 248//135 244//135 243//135
f 248//136 245//136 241//136 244//136
f 249//133 250//133 246//133 245//133
f 250//134 251//134 247//134 246//134
f 251//135 252//135 248//135 247//135
f 252//136 249//136 245//136 248//136
f 253//133 254//133 250//133 249//133
f 254//134 255//134 251//134 250//134
f 255//135 256//135 252//135 251//135
f 256//136 253//136 249//136 252//136
f 33//133 34//133 254//133 253//133
f 34//134 35//134 255//134 254//134
f 35//135 36//135 256//135 255//135
f 36//136 33//136 253//136 256//136
f 261//137 262//137 258//137 257//137
f 262//138 263//138 259//138 258//138
f 263//139 264//139 260//139 259//139
f 264//140 261//140 257//140 260//140
f 265//137 266//137 262//137 261//137
f 266//141 267//141 263//141 262//141
f 267//142 268//142 264//142 263//142
f 268//143 265//143 261//143 264//143
f 269//137 270//137 266//137 265//137
f 270//141 271//141 267//141 266//141
f 271//144 272//144 268//144 267//144
f 272//143 269//143 265//143 268//143
f 273//137 274//137 270//137 269//137
f 274//141 275//141 271//141 270//141
f 275//142 276//142 272//142 271//142
f 276//143 273//143 269//143 272//143
f 37//145 38//145 274//145 273//145
f 38//146 39//146 275//146 274//146
f 39//147 40//147 276//147 275//147
f 40//148 37//148 273//148 276//148
f 277//149 278//149 38//149 37//149
f 278//150 279//150 39//150 38//150
f 279//151 280//151 40//151 39//151
f 280//152 277//152 37//152 40//152
f 281//153 282//153 278//153 277//153
f 282//154 283//154 279//154 278//154
f 283//155 284//155 280//155 279//155
f 284//156 281//156 277//156 280//156
f 285//153 286//153 282//153 281//153
f 286//154 287//154 283//154 282//154
f 287//155 288//155 284//155 283//155
f 288//156 285//156 281//156 284//156
f 289//153 290//153 286//153 285//153
f 290//154 291//154 287//154 286//154
f 291//155 292//155 288//155 287//155
f 292//156 289//156 285//156 288//156
f 41//153 42//153 290//153 289//153
f 42//154 43//154 291//154 290//154
f 43//155 44//155 292//155 291//155
f 44//156 41//156 289//156 292//156
f 297//157 298//157 294//157 293//157
f 298//158 299//158 295//158 294//158
f 299//159 300//159 296//159 295//159
f 300//160 297//160 293//160 296//160
f 301//157 302//157 298//157 297//157
f 302//161 303//161 299//161 298//161
f 303//162 304//162 300//162 299//162
f 304//163 301//163 297//163 300//163
f 305//157 306//157 302//157 301//157
f 306//161 307//161 303//161 302//161
f 307//162 308//162 304//162 303//162
f 308//163 305//163 301//163 304//163
f 309//157 310//157 306//157 305//157
f 310//161 311//161 307//161 306//161
f 311//162 312//162 308//162 307//162
f 312//163 309//163 305//163 308//163
f 313//157 314//157 310//157 309//157
f 314//161 315//161 311//161 310//161
f 315//162 316//162 312//162 311//162
f 316//163 313//163 309//163 312//163
f 317//157 318//157 314//157 313//157
f 318//161 319//161 315//161 314//161
f 319//162 320//162 316//162 315//162
f 320//163 317//163 313//163 316//163
f 45//157 46//157 318//157 317//157
f 46//161 47//161 319//161 318//161
f 47//162 48//162 320//162 319//162
f 48//163 45//163 317//163 320//163
f 321//164 322//164 295//164 296//164
f 322//165 323//165 260//165 295//165
f 323//166 324//166 259//166 260//166
f 324//167 321//167 296//167 259//167
f 325//168 326//168 322//168 321//168
f 326//169 327//169 323//169 322//169
f 327//170 328//170 324//170 323//170
f 328//171 325//171 321//171 324//171
f 329//168 330//168 326//168 325//168
f 330//169 331//169 327//169 326//169
f 331//170 332//170 328//170 327//170
f 332//171 329//171 325//171 328//171
f 335//172 336//172 334//172 333//172
f 336//173 337//173 102//173 334//173
f 337//174 338//174 101//174 102//174
f 338//175 335//175 333//175 101//175
f 339//172 340//172 336//172 335//172
f 340//176 341//176 337//176 336//176
f 341//177 342//177 338//177 337//177
f 342//178 339//178 335//178 338//178
f 343//172 344//172 340//172 339//172
f 344//176 345//176 341//176 340//176
f 345//177 346//177 342//177 341//177
f 346//178 343//178 339//178 342//178
f 347//172 348//172 344//172 343//172
f 348//176 349//176 345//176 344//176
f 349//177 350//177 346//177 345//177
f 350//178 347//178 343//178 346//178
f 351//172 352//172 348//172 347//172
f 352//176 353//176 349//176 348//176
f 353//177 354//177 350//177 349//177
f 354//178 351//178 347//178 350//178
f 49//179 50//179 352//179 351//179
f 50//180 51//180 353//180 352//180
f 51//181 52//181 354//181 353//181
f 52//182 49//182 351//182 354//182
f 355//183 356//183 50//183 49//183
f 356//184 357//184 51//184 50//184
f 357//185 358//185 52//185 51//185
f 358//186 355//186 49//186 52//186
f 359//187 360//187 356//187 355//187
f 360//188 361//188 357//188 356//188
f 361//189 362//189 358//189 357//189
f 362//190 359//190 355//190 358//190
f 363//187 364//187 360//187 359//187
f 364//188 365//188 361//188 360//188
f 365//189 366//189 362//189 361//189
f 366//190 363//190 359//190 362//190
f 53//187 54//187 364//187 363//187
f 54//188 55//188 365//188 364//188
f 55//189 56//189 366//189 365//189
f 56//190 53//190 363//190 366//190
l 201 370
