# Blender 4.2.3 LTS
# www.blender.org
mtllib walls3.mtl
o Cube.002
v 4.264395 4.605993 0.335462
v 4.240225 5.417501 0.345573
v 4.256615 4.603210 -0.470192
v 4.316779 4.606133 0.366960
v 4.354628 4.572920 0.337207
v 6.176730 4.576613 0.346719
v 4.336430 4.571419 -0.467270
v 6.176430 4.571419 -0.467270
v 4.336430 4.606249 -0.502100
v 4.336430 5.407341 -0.502100
v 6.176430 4.606249 -0.502100
v 6.176430 5.407341 -0.502100
v 6.256430 4.606249 -0.467270
v 6.249825 4.600275 0.336145
v 6.256430 5.407341 -0.467270
v 6.237976 5.403594 0.337218
v 6.165864 5.447107 -0.464725
v 4.335268 5.441552 -0.470381
v 6.175798 5.441918 0.335141
v 4.351582 5.439203 0.339303
v 6.180903 5.408672 0.370197
v 4.332945 5.407767 0.367182
v 6.175761 4.604734 0.372209
v 4.246215 5.406278 -0.467062
vn -0.9998 -0.0214 0.0013
vn -0.3441 -0.0077 0.9389
vn -0.3566 -0.9342 0.0082
vn -0.3046 -0.8043 0.5103
vn 0.0010 -1.0000 0.0041
vn -0.0026 -0.6701 0.7422
vn -0.0000 -0.7071 -0.7071
vn -0.2478 -0.6851 -0.6851
vn -0.0000 -0.0000 -1.0000
vn -0.3664 -0.0006 -0.9305
vn 0.3992 -0.0000 -0.9169
vn 0.2942 -0.6758 -0.6758
vn 0.9999 0.0074 0.0156
vn 0.3570 -0.9341 0.0009
vn 0.4552 0.8904 0.0074
vn 0.2868 0.6955 -0.6588
vn -0.0023 1.0000 0.0047
vn 0.0001 0.6826 -0.7308
vn -0.0005 0.6974 0.7167
vn 0.4065 0.6918 0.5968
vn -0.0022 0.0011 1.0000
vn 0.4660 0.0025 0.8848
vn 0.3077 -0.6332 0.7102
vn -0.0944 0.6913 0.7164
vn -0.2736 0.9618 -0.0035
vn -0.2827 0.6470 -0.7082
vt 0.385000 0.010000
vt 0.615000 0.010000
vt 0.615000 0.240000
vt 0.385000 0.240000
vt 0.385000 0.990000
vt 0.615000 0.990000
vt 0.615000 1.000000
vt 0.385000 1.000000
vt 0.135000 0.510000
vt 0.135000 0.740000
vt 0.125000 0.740000
vt 0.125000 0.510000
vt 0.375000 0.990000
vt 0.365000 0.510000
vt 0.365000 0.740000
vt 0.375000 0.760000
vt 0.385000 0.760000
vt 0.135000 0.500000
vt 0.365000 0.500000
vt 0.385000 0.260000
vt 0.615000 0.260000
vt 0.615000 0.490000
vt 0.385000 0.490000
vt 0.615000 0.510000
vt 0.385000 0.510000
vt 0.375000 0.510000
vt 0.385000 0.500000
vt 0.615000 0.740000
vt 0.385000 0.740000
vt 0.635000 0.510000
vt 0.635000 0.740000
vt 0.615000 0.500000
vt 0.625000 0.510000
vt 0.865000 0.510000
vt 0.865000 0.740000
vt 0.635000 0.500000
vt 0.865000 0.500000
vt 0.625000 0.760000
vt 0.625000 0.990000
vt 0.615000 0.760000
vt 0.615000 0.750000
vt 0.385000 0.750000
vt 0.875000 0.510000
vt 0.875000 0.740000
s 0
usemtl Material
f 1/1/1 2/2/1 24/3/1 3/4/1
f 4/5/2 22/6/2 2/7/2 1/8/2
f 7/9/3 5/10/3 1/11/3 3/12/3
f 5/13/4 4/5/4 1/8/4
f 7/9/5 8/14/5 6/15/5 5/10/5
f 5/13/6 6/16/6 23/17/6 4/5/6
f 8/14/7 7/9/7 9/18/7 11/19/7
f 3/12/8 9/18/8 7/9/8
f 9/20/9 10/21/9 12/22/9 11/23/9
f 10/21/10 9/20/10 3/4/10 24/3/10
f 15/24/11 13/25/11 11/23/11 12/22/11
f 8/26/12 11/27/12 13/25/12
f 13/25/13 15/24/13 16/28/13 14/29/13
f 6/15/14 8/14/14 13/25/14 14/29/14
f 17/30/15 19/31/15 16/28/15 15/24/15
f 12/32/16 17/33/16 15/24/16
f 17/30/17 18/34/17 20/35/17 19/31/17
f 18/34/18 17/30/18 12/36/18 10/37/18
f 19/38/19 20/39/19 22/6/19 21/40/19
f 16/41/20 19/38/20 21/40/20
f 23/17/21 21/40/21 22/6/21 4/5/21
f 21/40/22 23/17/22 14/29/22 16/28/22
f 14/42/23 23/17/23 6/16/23
f 2/7/24 22/6/24 20/39/24
f 20/35/25 18/34/25 24/43/25 2/44/25
f 10/37/26 24/43/26 18/34/26
o Cube.003
v 2.239095 4.605143 0.237106
v 2.251668 5.411983 0.240563
v 2.240527 4.606249 -0.565090
v 2.338145 4.612786 0.263427
v 2.318508 4.570935 0.238163
v 4.125975 4.568015 0.235275
v 2.320527 4.571419 -0.565090
v 4.160526 4.571419 -0.565090
v 2.320527 4.606249 -0.599920
v 2.320527 5.407341 -0.599920
v 4.160526 4.606249 -0.599920
v 4.160526 5.407341 -0.599920
v 4.240526 4.606249 -0.565090
v 4.234370 4.605738 0.233853
v 4.240526 5.407341 -0.565090
v 4.242554 5.401055 0.241727
v 4.160012 5.448075 -0.555595
v 2.300292 5.434813 -0.558363
v 4.181078 5.442607 0.241324
v 2.340767 5.433614 0.243270
v 4.168406 5.405416 0.276793
v 2.323880 5.405888 0.274659
v 4.184387 4.606163 0.270731
v 2.244368 5.407254 -0.566057
vn -0.9999 0.0102 0.0036
vn -0.3326 -0.0090 0.9430
vn -0.3974 -0.9176 -0.0018
vn -0.1995 -0.4361 0.8775
vn -0.0008 -1.0000 -0.0024
vn -0.0025 -0.6030 0.7977
vn -0.0000 -0.7071 -0.7071
vn -0.2942 -0.6758 -0.6758
vn -0.0000 -0.0000 -1.0000
vn -0.4027 0.0004 -0.9154
vn 0.3992 -0.0000 -0.9169
vn 0.2942 -0.6758 -0.6758
vn 1.0000 -0.0051 0.0025
vn 0.3594 -0.9332 0.0069
vn 0.5014 0.8652 -0.0009
vn 0.2819 0.7081 -0.6474
vn -0.0060 1.0000 0.0044
vn -0.0023 0.7828 -0.6223
vn -0.0017 0.7178 0.6962
vn 0.3790 0.5678 0.7307
vn -0.0026 -0.0109 0.9999
vn 0.5013 -0.0051 0.8653
vn 0.3031 -0.8551 0.4207
vn -0.2085 0.7859 0.5821
vn -0.3217 0.9468 0.0075
vn -0.2765 0.7342 -0.6200
vt 0.385000 0.010000
vt 0.615000 0.010000
vt 0.615000 0.240000
vt 0.385000 0.240000
vt 0.385000 0.990000
vt 0.615000 0.990000
vt 0.615000 1.000000
vt 0.385000 1.000000
vt 0.135000 0.510000
vt 0.135000 0.740000
vt 0.125000 0.740000
vt 0.125000 0.510000
vt 0.375000 0.990000
vt 0.365000 0.510000
vt 0.365000 0.740000
vt 0.375000 0.760000
vt 0.385000 0.760000
vt 0.135000 0.500000
vt 0.365000 0.500000
vt 0.385000 0.260000
vt 0.615000 0.260000
vt 0.615000 0.490000
vt 0.385000 0.490000
vt 0.615000 0.510000
vt 0.385000 0.510000
vt 0.375000 0.510000
vt 0.385000 0.500000
vt 0.615000 0.740000
vt 0.385000 0.740000
vt 0.635000 0.510000
vt 0.635000 0.740000
vt 0.615000 0.500000
vt 0.625000 0.510000
vt 0.865000 0.510000
vt 0.865000 0.740000
vt 0.635000 0.500000
vt 0.865000 0.500000
vt 0.625000 0.760000
vt 0.625000 0.990000
vt 0.615000 0.760000
vt 0.615000 0.750000
vt 0.385000 0.750000
vt 0.875000 0.510000
vt 0.875000 0.740000
s 0
usemtl Material
f 25/45/27 26/46/27 48/47/27 27/48/27
f 28/49/28 46/50/28 26/51/28 25/52/28
f 31/53/29 29/54/29 25/55/29 27/56/29
f 29/57/30 28/49/30 25/52/30
f 31/53/31 32/58/31 30/59/31 29/54/31
f 29/57/32 30/60/32 47/61/32 28/49/32
f 32/58/33 31/53/33 33/62/33 35/63/33
f 27/56/34 33/62/34 31/53/34
f 33/64/35 34/65/35 36/66/35 35/67/35
f 34/65/36 33/64/36 27/48/36 48/47/36
f 39/68/37 37/69/37 35/67/37 36/66/37
f 32/70/38 35/71/38 37/69/38
f 37/69/39 39/68/39 40/72/39 38/73/39
f 30/59/40 32/58/40 37/69/40 38/73/40
f 41/74/41 43/75/41 40/72/41 39/68/41
f 36/76/42 41/77/42 39/68/42
f 41/74/43 42/78/43 44/79/43 43/75/43
f 42/78/44 41/74/44 36/80/44 34/81/44
f 43/82/45 44/83/45 46/50/45 45/84/45
f 40/85/46 43/82/46 45/84/46
f 47/61/47 45/84/47 46/50/47 28/49/47
f 45/84/48 47/61/48 38/73/48 40/72/48
f 38/86/49 47/61/49 30/60/49
f 26/51/50 46/50/50 44/83/50
f 44/79/51 42/78/51 48/87/51 26/88/51
f 34/81/52 48/87/52 42/78/52
o Cube.004
v 0.197268 4.641764 0.305184
v 0.242951 5.439358 0.303582
v 0.217774 4.629544 -0.489972
v 0.306843 4.628594 0.345980
v 0.320395 4.589697 0.317533
v 2.147117 4.591407 0.309831
v 0.297774 4.594714 -0.489972
v 2.137774 4.594714 -0.489972
v 0.297774 4.629544 -0.524802
v 0.297774 5.430637 -0.524802
v 2.137774 4.629544 -0.524802
v 2.137774 5.430637 -0.524802
v 2.217774 4.629544 -0.489972
v 2.234127 4.623013 0.309613
v 2.234663 5.424388 -0.487092
v 2.240052 5.423565 0.315770
v 2.133605 5.466025 -0.488107
v 0.295917 5.465714 -0.489689
v 2.141492 5.475757 0.310441
v 0.299716 5.464363 0.316139
v 2.136598 5.435680 0.348914
v 0.294793 5.430234 0.347259
v 2.104630 4.634578 0.339147
v 0.213765 5.431650 -0.488835
vn -0.9996 0.0260 0.0051
vn -0.4626 0.0099 0.8865
vn -0.3935 -0.9193 0.0047
vn -0.3364 -0.6295 0.7004
vn 0.0005 -1.0000 -0.0052
vn 0.0045 -0.5735 0.8192
vn -0.0000 -0.7071 -0.7071
vn -0.2942 -0.6758 -0.6758
vn -0.0000 -0.0000 -1.0000
vn -0.3963 -0.0003 -0.9181
vn 0.3794 -0.0023 -0.9252
vn 0.2942 -0.6758 -0.6758
vn 0.9998 -0.0142 -0.0136
vn 0.3696 -0.9291 -0.0117
vn 0.4256 0.9049 -0.0086
vn 0.2965 0.7040 -0.6453
vn -0.0032 1.0000 -0.0052
vn 0.0002 0.7138 -0.7004
vn -0.0023 0.6842 0.7293
vn 0.3012 0.6410 0.7060
vn 0.0014 -0.0069 1.0000
vn 0.2583 -0.0157 0.9659
vn 0.1621 -0.4402 0.8831
vn -0.4242 0.6428 0.6378
vn -0.3916 0.9201 0.0044
vn -0.2851 0.6705 -0.6849
vt 0.385000 0.010000
vt 0.615000 0.010000
vt 0.615000 0.240000
vt 0.385000 0.240000
vt 0.385000 0.990000
vt 0.615000 0.990000
vt 0.615000 1.000000
vt 0.385000 1.000000
vt 0.135000 0.510000
vt 0.135000 0.740000
vt 0.125000 0.740000
vt 0.125000 0.510000
vt 0.375000 0.990000
vt 0.365000 0.510000
vt 0.365000 0.740000
vt 0.375000 0.760000
vt 0.385000 0.760000
vt 0.135000 0.500000
vt 0.365000 0.500000
vt 0.385000 0.260000
vt 0.615000 0.260000
vt 0.615000 0.490000
vt 0.385000 0.490000
vt 0.615000 0.510000
vt 0.385000 0.510000
vt 0.375000 0.510000
vt 0.385000 0.500000
vt 0.615000 0.740000
vt 0.385000 0.740000
vt 0.635000 0.510000
vt 0.635000 0.740000
vt 0.615000 0.500000
vt 0.625000 0.510000
vt 0.865000 0.510000
vt 0.865000 0.740000
vt 0.635000 0.500000
vt 0.865000 0.500000
vt 0.625000 0.760000
vt 0.625000 0.990000
vt 0.615000 0.760000
vt 0.615000 0.750000
vt 0.385000 0.750000
vt 0.875000 0.510000
vt 0.875000 0.740000
s 0
usemtl Material
f 49/89/53 50/90/53 72/91/53 51/92/53
f 52/93/54 70/94/54 50/95/54 49/96/54
f 55/97/55 53/98/55 49/99/55 51/100/55
f 53/101/56 52/93/56 49/96/56
f 55/97/57 56/102/57 54/103/57 53/98/57
f 53/101/58 54/104/58 71/105/58 52/93/58
f 56/102/59 55/97/59 57/106/59 59/107/59
f 51/100/60 57/106/60 55/97/60
f 57/108/61 58/109/61 60/110/61 59/111/61
f 58/109/62 57/108/62 51/92/62 72/91/62
f 63/112/63 61/113/63 59/111/63 60/110/63
f 56/114/64 59/115/64 61/113/64
f 61/113/65 63/112/65 64/116/65 62/117/65
f 54/103/66 56/102/66 61/113/66 62/117/66
f 65/118/67 67/119/67 64/116/67 63/112/67
f 60/120/68 65/121/68 63/112/68
f 65/118/69 66/122/69 68/123/69 67/119/69
f 66/122/70 65/118/70 60/124/70 58/125/70
f 67/126/71 68/127/71 70/94/71 69/128/71
f 64/129/72 67/126/72 69/128/72
f 71/105/73 69/128/73 70/94/73 52/93/73
f 69/128/74 71/105/74 62/117/74 64/116/74
f 62/130/75 71/105/75 54/104/75
f 50/95/76 70/94/76 68/127/76
f 68/123/77 66/122/77 72/131/77 50/132/77
f 58/125/78 72/131/78 66/122/78
o Cube.005
v -1.769530 4.606249 0.296926
v -1.769530 5.407341 0.296926
v -1.769530 4.606249 -0.504167
v -1.669956 4.608516 0.320762
v -1.694688 4.575071 0.291441
v 0.153216 4.559182 0.298115
v -1.689530 4.571419 -0.504167
v 0.150470 4.571419 -0.504167
v -1.689530 4.606249 -0.538997
v -1.681178 5.403592 -0.542762
v 0.150470 4.606249 -0.538997
v 0.148357 5.419380 -0.538280
v 0.230470 4.606249 -0.504167
v 0.220543 4.619298 0.305278
v 0.248460 5.401481 -0.510387
v 0.254194 5.412778 0.288218
v 0.147703 5.450681 -0.502498
v -1.683883 5.446313 -0.510679
v 0.151545 5.445943 0.291525
v -1.690921 5.441666 0.300103
v 0.139452 5.407728 0.337374
v -1.689497 5.403098 0.322568
v 0.154734 4.615810 0.342881
v -1.769530 5.407341 -0.504167
vn -1.0000 -0.0000 -0.0000
vn -0.2656 -0.0043 0.9641
vn -0.3921 -0.9199 0.0008
vn -0.1789 -0.5705 0.8016
vn -0.0043 -1.0000 -0.0054
vn -0.0075 -0.6339 0.7734
vn -0.0000 -0.7071 -0.7071
vn -0.2942 -0.6758 -0.6758
vn 0.0012 -0.0019 -1.0000
vn -0.3998 -0.0001 -0.9166
vn 0.3283 -0.0065 -0.9445
vn 0.2942 -0.6758 -0.6758
vn 0.9995 -0.0324 0.0031
vn 0.5416 -0.8406 0.0028
vn 0.3750 0.9270 -0.0061
vn 0.3027 0.7201 -0.6244
vn -0.0024 1.0000 0.0058
vn -0.0012 0.6758 -0.7371
vn -0.0029 0.6649 0.7469
vn 0.2506 0.7101 0.6580
vn -0.0101 0.0021 0.9999
vn 0.4328 0.0078 0.9015
vn 0.4312 -0.5666 0.7021
vn -0.2442 0.4814 0.8418
vn -0.4075 0.9132 0.0009
vn -0.3123 0.5578 -0.7690
vt 0.385000 0.010000
vt 0.615000 0.010000
vt 0.615000 0.240000
vt 0.385000 0.240000
vt 0.385000 0.990000
vt 0.615000 0.990000
vt 0.615000 1.000000
vt 0.385000 1.000000
vt 0.135000 0.510000
vt 0.135000 0.740000
vt 0.125000 0.740000
vt 0.125000 0.510000
vt 0.375000 0.990000
vt 0.365000 0.510000
vt 0.365000 0.740000
vt 0.375000 0.760000
vt 0.385000 0.760000
vt 0.135000 0.500000
vt 0.365000 0.500000
vt 0.385000 0.260000
vt 0.615000 0.260000
vt 0.615000 0.490000
vt 0.385000 0.490000
vt 0.615000 0.510000
vt 0.385000 0.510000
vt 0.375000 0.510000
vt 0.385000 0.500000
vt 0.615000 0.740000
vt 0.385000 0.740000
vt 0.635000 0.510000
vt 0.635000 0.740000
vt 0.615000 0.500000
vt 0.625000 0.510000
vt 0.865000 0.510000
vt 0.865000 0.740000
vt 0.635000 0.500000
vt 0.865000 0.500000
vt 0.625000 0.760000
vt 0.625000 0.990000
vt 0.615000 0.760000
vt 0.615000 0.750000
vt 0.385000 0.750000
vt 0.875000 0.510000
vt 0.875000 0.740000
s 0
usemtl Material
f 73/133/79 74/134/79 96/135/79 75/136/79
f 76/137/80 94/138/80 74/139/80 73/140/80
f 79/141/81 77/142/81 73/143/81 75/144/81
f 77/145/82 76/137/82 73/140/82
f 79/141/83 80/146/83 78/147/83 77/142/83
f 77/145/84 78/148/84 95/149/84 76/137/84
f 80/146/85 79/141/85 81/150/85 83/151/85
f 75/144/86 81/150/86 79/141/86
f 81/152/87 82/153/87 84/154/87 83/155/87
f 82/153/88 81/152/88 75/136/88 96/135/88
f 87/156/89 85/157/89 83/155/89 84/154/89
f 80/158/90 83/159/90 85/157/90
f 85/157/91 87/156/91 88/160/91 86/161/91
f 78/147/92 80/146/92 85/157/92 86/161/92
f 89/162/93 91/163/93 88/160/93 87/156/93
f 84/164/94 89/165/94 87/156/94
f 89/162/95 90/166/95 92/167/95 91/163/95
f 90/166/96 89/162/96 84/168/96 82/169/96
f 91/170/97 92/171/97 94/138/97 93/172/97
f 88/173/98 91/170/98 93/172/98
f 95/149/99 93/172/99 94/138/99 76/137/99
f 93/172/100 95/149/100 86/161/100 88/160/100
f 86/174/101 95/149/101 78/148/101
f 74/139/102 94/138/102 92/171/102
f 92/167/103 90/166/103 96/175/103 74/176/103
f 82/169/104 96/175/104 90/166/104
o Cube.006
v 5.048873 3.730366 0.353705
v 5.001589 4.543979 0.348725
v 5.030469 3.735496 -0.454588
v 5.110578 3.736483 0.385116
v 5.096352 3.687670 0.337745
v 6.952445 3.701904 0.345112
v 5.110469 3.700666 -0.454588
v 6.950469 3.700666 -0.454588
v 5.110469 3.735496 -0.489418
v 5.105547 4.538231 -0.494386
v 6.950469 3.735496 -0.489418
v 6.946467 4.531466 -0.501364
v 7.030469 3.735496 -0.454588
v 7.023220 3.724055 0.335403
v 7.030469 4.536589 -0.454588
v 7.015336 4.532646 0.359214
v 6.961941 4.582839 -0.445702
v 5.105181 4.571852 -0.456064
v 6.948886 4.571289 0.347646
v 5.097732 4.564687 0.348395
v 6.952505 4.535578 0.382234
v 5.113075 4.549335 0.380232
v 6.942721 3.720500 0.388098
v 5.045420 4.541056 -0.468837
vn -0.9997 -0.0201 -0.0157
vn -0.3412 -0.0037 0.9400
vn -0.5203 -0.8539 -0.0083
vn -0.3086 -0.6146 0.7260
vn 0.0039 -1.0000 -0.0074
vn -0.0021 -0.8015 0.5980
vn -0.0000 -0.7071 -0.7071
vn -0.2942 -0.6758 -0.6758
vn -0.0019 -0.0106 -0.9999
vn -0.3958 -0.0085 -0.9183
vn 0.4456 -0.0056 -0.8952
vn 0.2942 -0.6758 -0.6758
vn 0.9999 0.0047 0.0140
vn 0.3532 -0.9355 -0.0048
vn 0.5321 0.8465 0.0175
vn 0.3434 0.6407 -0.6868
vn -0.0048 0.9999 0.0117
vn -0.0002 0.7417 -0.6707
vn 0.0013 0.7930 0.6092
vn 0.2793 0.6825 0.6754
vn -0.0013 0.0066 1.0000
vn 0.4671 -0.0103 0.8841
vn 0.3227 -0.8399 0.4364
vn -0.1811 0.8489 0.4966
vn -0.3131 0.9497 -0.0074
vn -0.2384 0.7289 -0.6418
vt 0.385000 0.010000
vt 0.615000 0.010000
vt 0.615000 0.240000
vt 0.385000 0.240000
vt 0.385000 0.990000
vt 0.615000 0.990000
vt 0.615000 1.000000
vt 0.385000 1.000000
vt 0.135000 0.510000
vt 0.135000 0.740000
vt 0.125000 0.740000
vt 0.125000 0.510000
vt 0.375000 0.990000
vt 0.365000 0.510000
vt 0.365000 0.740000
vt 0.375000 0.760000
vt 0.385000 0.760000
vt 0.135000 0.500000
vt 0.365000 0.500000
vt 0.385000 0.260000
vt 0.615000 0.260000
vt 0.615000 0.490000
vt 0.385000 0.490000
vt 0.615000 0.510000
vt 0.385000 0.510000
vt 0.375000 0.510000
vt 0.385000 0.500000
vt 0.615000 0.740000
vt 0.385000 0.740000
vt 0.635000 0.510000
vt 0.635000 0.740000
vt 0.615000 0.500000
vt 0.625000 0.510000
vt 0.865000 0.510000
vt 0.865000 0.740000
vt 0.635000 0.500000
vt 0.865000 0.500000
vt 0.625000 0.760000
vt 0.625000 0.990000
vt 0.615000 0.760000
vt 0.615000 0.750000
vt 0.385000 0.750000
vt 0.875000 0.510000
vt 0.875000 0.740000
s 0
usemtl Material
f 97/177/105 98/178/105 120/179/105 99/180/105
f 100/181/106 118/182/106 98/183/106 97/184/106
f 103/185/107 101/186/107 97/187/107 99/188/107
f 101/189/108 100/181/108 97/184/108
f 103/185/109 104/190/109 102/191/109 101/186/109
f 101/189/110 102/192/110 119/193/110 100/181/110
f 104/190/111 103/185/111 105/194/111 107/195/111
f 99/188/112 105/194/112 103/185/112
f 105/196/113 106/197/113 108/198/113 107/199/113
f 106/197/114 105/196/114 99/180/114 120/179/114
f 111/200/115 109/201/115 107/199/115 108/198/115
f 104/202/116 107/203/116 109/201/116
f 109/201/117 111/200/117 112/204/117 110/205/117
f 102/191/118 104/190/118 109/201/118 110/205/118
f 113/206/119 115/207/119 112/204/119 111/200/119
f 108/208/120 113/209/120 111/200/120
f 113/206/121 114/210/121 116/211/121 115/207/121
f 114/210/122 113/206/122 108/212/122 106/213/122
f 115/214/123 116/215/123 118/182/123 117/216/123
f 112/217/124 115/214/124 117/216/124
f 119/193/125 117/216/125 118/182/125 100/181/125
f 117/216/126 119/193/126 110/205/126 112/204/126
f 110/218/127 119/193/127 102/192/127
f 98/183/128 118/182/128 116/215/128
f 116/211/129 114/210/129 120/219/129 98/220/129
f 106/213/130 120/219/130 114/210/130
o Cube.007
v 1.027190 3.757301 0.482508
v 1.030012 4.551600 0.486234
v 1.030470 3.747735 -0.319958
v 1.093746 3.741587 0.523580
v 1.104435 3.702813 0.482311
v 2.946613 3.714752 0.489519
v 1.110470 3.712905 -0.319958
v 2.950470 3.712905 -0.319958
v 1.110470 3.747735 -0.354788
v 1.110470 4.548828 -0.354788
v 2.950470 3.747735 -0.354788
v 2.950470 4.548828 -0.354788
v 3.030470 3.747735 -0.319958
v 3.056170 3.744981 0.484339
v 3.000475 4.544793 -0.325196
v 3.027798 4.549091 0.480963
v 2.947742 4.585748 -0.316508
v 1.107928 4.589326 -0.320166
v 2.920234 4.579612 0.488614
v 1.081475 4.583019 0.491174
v 2.929367 4.553416 0.514034
v 1.097862 4.540648 0.515893
v 2.932048 3.740519 0.514393
v 1.024141 4.555748 -0.306181
vn -1.0000 -0.0022 0.0016
vn -0.4650 0.0042 0.8853
vn -0.4939 -0.8695 -0.0032
vn -0.4891 -0.6953 0.5266
vn 0.0033 -1.0000 -0.0051
vn 0.0025 -0.7152 0.6989
vn -0.0000 -0.7071 -0.7071
vn -0.2942 -0.6758 -0.6758
vn -0.0000 -0.0000 -1.0000
vn -0.4482 0.0059 -0.8939
vn 0.4441 0.0054 -0.8959
vn 0.2942 -0.6758 -0.6758
vn 0.9988 0.0362 -0.0329
vn 0.3245 -0.9459 -0.0049
vn 0.4073 0.9133 0.0011
vn 0.4179 0.6686 -0.6151
vn 0.0019 1.0000 0.0078
vn 0.0014 0.6856 -0.7280
vn -0.0005 0.5901 0.8073
vn 0.2499 0.7178 0.6499
vn 0.0030 0.0050 1.0000
vn 0.2729 0.0075 0.9620
vn 0.2061 -0.6168 0.7596
vn -0.3173 0.3833 0.8674
vn -0.4331 0.9013 0.0003
vn -0.3582 0.5936 -0.7206
vt 0.385000 0.010000
vt 0.615000 0.010000
vt 0.615000 0.240000
vt 0.385000 0.240000
vt 0.385000 0.990000
vt 0.615000 0.990000
vt 0.615000 1.000000
vt 0.385000 1.000000
vt 0.135000 0.510000
vt 0.135000 0.740000
vt 0.125000 0.740000
vt 0.125000 0.510000
vt 0.375000 0.990000
vt 0.365000 0.510000
vt 0.365000 0.740000
vt 0.375000 0.760000
vt 0.385000 0.760000
vt 0.135000 0.500000
vt 0.365000 0.500000
vt 0.385000 0.260000
vt 0.615000 0.260000
vt 0.615000 0.490000
vt 0.385000 0.490000
vt 0.615000 0.510000
vt 0.385000 0.510000
vt 0.375000 0.510000
vt 0.385000 0.500000
vt 0.615000 0.740000
vt 0.385000 0.740000
vt 0.635000 0.510000
vt 0.635000 0.740000
vt 0.615000 0.500000
vt 0.625000 0.510000
vt 0.865000 0.510000
vt 0.865000 0.740000
vt 0.635000 0.500000
vt 0.865000 0.500000
vt 0.625000 0.760000
vt 0.625000 0.990000
vt 0.615000 0.760000
vt 0.615000 0.750000
vt 0.385000 0.750000
vt 0.875000 0.510000
vt 0.875000 0.740000
s 0
usemtl Material
f 121/221/131 122/222/131 144/223/131 123/224/131
f 124/225/132 142/226/132 122/227/132 121/228/132
f 127/229/133 125/230/133 121/231/133 123/232/133
f 125/233/134 124/225/134 121/228/134
f 127/229/135 128/234/135 126/235/135 125/230/135
f 125/233/136 126/236/136 143/237/136 124/225/136
f 128/234/137 127/229/137 129/238/137 131/239/137
f 123/232/138 129/238/138 127/229/138
f 129/240/139 130/241/139 132/242/139 131/243/139
f 130/241/140 129/240/140 123/224/140 144/223/140
f 135/244/141 133/245/141 131/243/141 132/242/141
f 128/246/142 131/247/142 133/245/142
f 133/245/143 135/244/143 136/248/143 134/249/143
f 126/235/144 128/234/144 133/245/144 134/249/144
f 137/250/145 139/251/145 136/248/145 135/244/145
f 132/252/146 137/253/146 135/244/146
f 137/250/147 138/254/147 140/255/147 139/251/147
f 138/254/148 137/250/148 132/256/148 130/257/148
f 139/258/149 140/259/149 142/226/149 141/260/149
f 136/261/150 139/258/150 141/260/150
f 143/237/151 141/260/151 142/226/151 124/225/151
f 141/260/152 143/237/152 134/249/152 136/248/152
f 134/262/153 143/237/153 126/236/153
f 122/227/154 142/226/154 140/259/154
f 140/255/155 138/254/155 144/263/155 122/264/155
f 130/257/156 144/263/156 138/254/156
o Cube.008
v -0.979823 3.738450 0.341115
v -0.942581 4.542758 0.349537
v -0.969530 3.735496 -0.454588
v -0.895332 3.738271 0.381417
v -0.888380 3.704191 0.348645
v 0.944989 3.697870 0.331505
v -0.889530 3.700666 -0.454588
v 0.950470 3.700666 -0.454588
v -0.889530 3.735496 -0.489418
v -0.889530 4.536589 -0.489418
v 0.950470 3.735496 -0.489418
v 0.950470 4.536589 -0.489418
v 1.030470 3.735496 -0.454588
v 1.028563 3.734347 0.347080
v 1.001597 4.533991 -0.444771
v 1.028631 4.534103 0.347754
v 0.947549 4.563793 -0.447784
v -0.875231 4.561232 -0.459700
v 0.951131 4.563455 0.355258
v -0.920537 4.571673 0.350928
v 0.931626 4.532188 0.373802
v -0.888939 4.537888 0.381087
v 0.958297 3.732663 0.389123
v -0.967322 4.533343 -0.440456
vn -0.9997 0.0245 0.0089
vn -0.4612 0.0081 0.8872
vn -0.3738 -0.9275 0.0016
vn -0.3125 -0.6908 0.6520
vn -0.0017 -1.0000 0.0005
vn -0.0010 -0.7954 0.6061
vn -0.0000 -0.7071 -0.7071
vn -0.2942 -0.6758 -0.6758
vn -0.4691 0.0085 -0.8831
vn -0.0000 -0.0000 -1.0000
vn 0.5185 0.0146 -0.8550
vn 0.2942 -0.6758 -0.6758
vn 0.9997 0.0181 -0.0157
vn 0.3996 -0.9167 -0.0004
vn 0.4099 0.9121 -0.0077
vn 0.4468 0.7630 -0.4672
vn 0.0016 1.0000 -0.0062
vn 0.0013 0.8089 -0.5880
vn 0.0029 0.5997 0.8002
vn 0.2323 0.3849 0.8933
vn -0.0001 0.0098 1.0000
vn 0.3767 0.0147 0.9262
vn 0.2870 -0.8479 0.4457
vn -0.4606 0.3112 0.8312
vn -0.4476 0.8941 -0.0168
vn -0.3450 0.7974 -0.4952
vt 0.385000 0.010000
vt 0.615000 0.010000
vt 0.615000 0.240000
vt 0.385000 0.240000
vt 0.385000 0.990000
vt 0.615000 0.990000
vt 0.615000 1.000000
vt 0.385000 1.000000
vt 0.135000 0.510000
vt 0.135000 0.740000
vt 0.125000 0.740000
vt 0.125000 0.510000
vt 0.375000 0.990000
vt 0.365000 0.510000
vt 0.365000 0.740000
vt 0.375000 0.760000
vt 0.385000 0.760000
vt 0.135000 0.500000
vt 0.365000 0.500000
vt 0.615000 0.260000
vt 0.385000 0.260000
vt 0.615000 0.490000
vt 0.385000 0.490000
vt 0.615000 0.510000
vt 0.385000 0.510000
vt 0.375000 0.510000
vt 0.385000 0.500000
vt 0.615000 0.740000
vt 0.385000 0.740000
vt 0.635000 0.510000
vt 0.635000 0.740000
vt 0.615000 0.500000
vt 0.625000 0.510000
vt 0.865000 0.510000
vt 0.865000 0.740000
vt 0.635000 0.500000
vt 0.865000 0.500000
vt 0.625000 0.760000
vt 0.625000 0.990000
vt 0.615000 0.760000
vt 0.615000 0.750000
vt 0.385000 0.750000
vt 0.875000 0.510000
vt 0.875000 0.740000
s 0
usemtl Material
f 145/265/157 146/266/157 168/267/157 147/268/157
f 148/269/158 166/270/158 146/271/158 145/272/158
f 151/273/159 149/274/159 145/275/159 147/276/159
f 149/277/160 148/269/160 145/272/160
f 151/273/161 152/278/161 150/279/161 149/274/161
f 149/277/162 150/280/162 167/281/162 148/269/162
f 152/278/163 151/273/163 153/282/163 155/283/163
f 147/276/164 153/282/164 151/273/164
f 154/284/165 153/285/165 147/268/165 168/267/165
f 153/285/166 154/284/166 156/286/166 155/287/166
f 159/288/167 157/289/167 155/287/167 156/286/167
f 152/290/168 155/291/168 157/289/168
f 157/289/169 159/288/169 160/292/169 158/293/169
f 150/279/170 152/278/170 157/289/170 158/293/170
f 161/294/171 163/295/171 160/292/171 159/288/171
f 156/296/172 161/297/172 159/288/172
f 161/294/173 162/298/173 164/299/173 163/295/173
f 162/298/174 161/294/174 156/300/174 154/301/174
f 163/302/175 164/303/175 166/270/175 165/304/175
f 160/305/176 163/302/176 165/304/176
f 167/281/177 165/304/177 166/270/177 148/269/177
f 165/304/178 167/281/178 158/293/178 160/292/178
f 158/306/179 167/281/179 150/280/179
f 146/271/180 166/270/180 164/303/180
f 164/299/181 162/298/181 168/307/181 146/308/181
f 154/301/182 168/307/182 162/298/182
o Cube.009
v 4.249969 2.863641 0.467400
v 4.244352 3.667837 0.466751
v 4.240010 2.864743 -0.330590
v 4.299637 2.864535 0.497187
v 4.345128 2.839502 0.470074
v 6.165001 2.826817 0.474359
v 4.320010 2.829913 -0.330590
v 6.160010 2.829913 -0.330590
v 4.320010 2.864743 -0.365420
v 4.320010 3.665836 -0.365420
v 6.160010 2.864743 -0.365420
v 6.160010 3.665836 -0.365420
v 6.240010 2.864743 -0.330590
v 6.241000 2.870449 0.465150
v 6.240305 3.665792 -0.329654
v 6.245746 3.666130 0.474335
v 6.158582 3.701027 -0.314214
v 4.319942 3.698765 -0.327701
v 6.166776 3.707969 0.471929
v 4.291920 3.701591 0.470029
v 6.154971 3.676988 0.498044
v 4.319660 3.673105 0.511573
v 6.168465 2.864951 0.499361
v 4.244630 3.653929 -0.324779
vn -1.0000 -0.0006 0.0061
vn -0.5125 -0.0027 0.8587
vn -0.3192 -0.9476 0.0120
vn -0.2345 -0.8780 0.4173
vn -0.0035 -1.0000 0.0041
vn -0.0035 -0.6378 0.7702
vn -0.0000 -0.7071 -0.7071
vn -0.2942 -0.6758 -0.6758
vn -0.0000 -0.0000 -1.0000
vn -0.4372 0.0046 -0.8994
vn 0.4031 0.0005 -0.9152
vn 0.2942 -0.6758 -0.6758
vn 1.0000 -0.0031 -0.0040
vn 0.4493 -0.8934 -0.0002
vn 0.4319 0.9019 -0.0078
vn 0.2431 0.8026 -0.5448
vn -0.0023 1.0000 -0.0062
vn 0.0017 0.7939 -0.6081
vn -0.0000 0.7511 0.6602
vn 0.2716 0.5577 0.7844
vn 0.0031 -0.0081 1.0000
vn 0.3342 -0.0028 0.9425
vn 0.3946 -0.5286 0.7516
vn -0.4501 0.5673 0.6896
vn -0.5387 0.8423 -0.0185
vn -0.4281 0.6804 -0.5948
vt 0.385000 0.010000
vt 0.615000 0.010000
vt 0.615000 0.240000
vt 0.385000 0.240000
vt 0.385000 0.990000
vt 0.615000 0.990000
vt 0.615000 1.000000
vt 0.385000 1.000000
vt 0.135000 0.510000
vt 0.135000 0.740000
vt 0.125000 0.740000
vt 0.125000 0.510000
vt 0.375000 0.990000
vt 0.365000 0.510000
vt 0.365000 0.740000
vt 0.375000 0.760000
vt 0.385000 0.760000
vt 0.135000 0.500000
vt 0.365000 0.500000
vt 0.385000 0.260000
vt 0.615000 0.260000
vt 0.615000 0.490000
vt 0.385000 0.490000
vt 0.615000 0.510000
vt 0.385000 0.510000
vt 0.375000 0.510000
vt 0.385000 0.500000
vt 0.615000 0.740000
vt 0.385000 0.740000
vt 0.635000 0.510000
vt 0.635000 0.740000
vt 0.615000 0.500000
vt 0.625000 0.510000
vt 0.865000 0.510000
vt 0.865000 0.740000
vt 0.635000 0.500000
vt 0.865000 0.500000
vt 0.625000 0.760000
vt 0.625000 0.990000
vt 0.615000 0.760000
vt 0.615000 0.750000
vt 0.385000 0.750000
vt 0.875000 0.510000
vt 0.875000 0.740000
s 0
usemtl Material
f 169/309/183 170/310/183 192/311/183 171/312/183
f 172/313/184 190/314/184 170/315/184 169/316/184
f 175/317/185 173/318/185 169/319/185 171/320/185
f 173/321/186 172/313/186 169/316/186
f 175/317/187 176/322/187 174/323/187 173/318/187
f 173/321/188 174/324/188 191/325/188 172/313/188
f 176/322/189 175/317/189 177/326/189 179/327/189
f 171/320/190 177/326/190 175/317/190
f 177/328/191 178/329/191 180/330/191 179/331/191
f 178/329/192 177/328/192 171/312/192 192/311/192
f 183/332/193 181/333/193 179/331/193 180/330/193
f 176/334/194 179/335/194 181/333/194
f 181/333/195 183/332/195 184/336/195 182/337/195
f 174/323/196 176/322/196 181/333/196 182/337/196
f 185/338/197 187/339/197 184/336/197 183/332/197
f 180/340/198 185/341/198 183/332/198
f 185/338/199 186/342/199 188/343/199 187/339/199
f 186/342/200 185/338/200 180/344/200 178/345/200
f 187/346/201 188/347/201 190/314/201 189/348/201
f 184/349/202 187/346/202 189/348/202
f 191/325/203 189/348/203 190/314/203 172/313/203
f 189/348/204 191/325/204 182/337/204 184/336/204
f 182/350/205 191/325/205 174/324/205
f 170/315/206 190/314/206 188/347/206
f 188/343/207 186/342/207 192/351/207 170/352/207
f 178/345/208 192/351/208 186/342/208
o Cube.010
v 2.233935 2.863307 0.349633
v 2.219622 3.664803 0.340718
v 2.230470 2.864743 -0.454588
v 2.290275 2.862936 0.376501
v 2.305445 2.831303 0.333750
v 4.163723 2.830163 0.332167
v 2.310470 2.829913 -0.454588
v 4.150469 2.829913 -0.454588
v 2.310470 2.864743 -0.489418
v 2.310470 3.665836 -0.489418
v 4.150469 2.864743 -0.489418
v 4.150469 3.665836 -0.489418
v 4.230469 2.864743 -0.454588
v 4.216250 2.866706 0.352061
v 4.230930 3.668694 -0.451782
v 4.234629 3.668271 0.335249
v 4.141684 3.704538 -0.465288
v 2.317760 3.692349 -0.456424
v 4.159568 3.716427 0.344321
v 2.330679 3.691919 0.336301
v 4.150356 3.656978 0.367232
v 2.308164 3.664734 0.387508
v 4.127672 2.868224 0.379870
v 2.231933 3.663274 -0.453151
vn -1.0000 -0.0081 -0.0055
vn -0.4532 -0.0002 0.8914
vn -0.4036 -0.9149 -0.0004
vn -0.2516 -0.8186 0.5164
vn -0.0003 -1.0000 0.0010
vn 0.0006 -0.7920 0.6105
vn -0.0000 -0.7071 -0.7071
vn -0.2942 -0.6758 -0.6758
vn -0.0000 -0.0000 -1.0000
vn -0.4092 0.0012 -0.9124
vn 0.4116 0.0015 -0.9114
vn 0.2942 -0.6758 -0.6758
vn 0.9999 -0.0117 0.0066
vn 0.4740 -0.8805 0.0015
vn 0.4554 0.8902 -0.0125
vn 0.3371 0.5520 -0.7626
vn -0.0100 0.9999 -0.0070
vn -0.0040 0.6588 -0.7523
vn -0.0004 0.6502 0.7598
vn 0.3027 0.3015 0.9041
vn 0.0046 0.0009 1.0000
vn 0.3264 0.0091 0.9452
vn 0.2085 -0.6816 0.7014
vn -0.2041 0.8990 0.3875
vn -0.2745 0.9616 -0.0006
vn -0.2846 0.7770 -0.5615
vt 0.385000 0.010000
vt 0.615000 0.010000
vt 0.615000 0.240000
vt 0.385000 0.240000
vt 0.385000 0.990000
vt 0.615000 0.990000
vt 0.615000 1.000000
vt 0.385000 1.000000
vt 0.135000 0.510000
vt 0.135000 0.740000
vt 0.125000 0.740000
vt 0.125000 0.510000
vt 0.375000 0.990000
vt 0.365000 0.510000
vt 0.365000 0.740000
vt 0.375000 0.760000
vt 0.385000 0.760000
vt 0.135000 0.500000
vt 0.365000 0.500000
vt 0.385000 0.260000
vt 0.615000 0.260000
vt 0.615000 0.490000
vt 0.385000 0.490000
vt 0.615000 0.510000
vt 0.385000 0.510000
vt 0.375000 0.510000
vt 0.385000 0.500000
vt 0.615000 0.740000
vt 0.385000 0.740000
vt 0.635000 0.510000
vt 0.635000 0.740000
vt 0.615000 0.500000
vt 0.625000 0.510000
vt 0.865000 0.510000
vt 0.865000 0.740000
vt 0.635000 0.500000
vt 0.865000 0.500000
vt 0.625000 0.760000
vt 0.625000 0.990000
vt 0.615000 0.760000
vt 0.615000 0.750000
vt 0.385000 0.750000
vt 0.875000 0.510000
vt 0.875000 0.740000
s 0
usemtl Material
f 193/353/209 194/354/209 216/355/209 195/356/209
f 196/357/210 214/358/210 194/359/210 193/360/210
f 199/361/211 197/362/211 193/363/211 195/364/211
f 197/365/212 196/357/212 193/360/212
f 199/361/213 200/366/213 198/367/213 197/362/213
f 197/365/214 198/368/214 215/369/214 196/357/214
f 200/366/215 199/361/215 201/370/215 203/371/215
f 195/364/216 201/370/216 199/361/216
f 201/372/217 202/373/217 204/374/217 203/375/217
f 202/373/218 201/372/218 195/356/218 216/355/218
f 207/376/219 205/377/219 203/375/219 204/374/219
f 200/378/220 203/379/220 205/377/220
f 205/377/221 207/376/221 208/380/221 206/381/221
f 198/367/222 200/366/222 205/377/222 206/381/222
f 209/382/223 211/383/223 208/380/223 207/376/223
f 204/384/224 209/385/224 207/376/224
f 209/382/225 210/386/225 212/387/225 211/383/225
f 210/386/226 209/382/226 204/388/226 202/389/226
f 211/390/227 212/391/227 214/358/227 213/392/227
f 208/393/228 211/390/228 213/392/228
f 215/369/229 213/392/229 214/358/229 196/357/229
f 213/392/230 215/369/230 206/381/230 208/380/230
f 206/394/231 215/369/231 198/368/231
f 194/359/232 214/358/232 212/391/232
f 212/387/233 210/386/233 216/395/233 194/396/233
f 202/389/234 216/395/234 210/386/234
o Cube.011
v 0.229681 2.863190 0.346641
v 0.199491 3.663373 0.353367
v 0.230470 2.864743 -0.454588
v 0.310055 2.863109 0.380736
v 0.295192 2.829360 0.346365
v 2.150156 2.827877 0.351522
v 0.310470 2.829913 -0.454588
v 2.150470 2.829913 -0.454588
v 0.310470 2.864743 -0.489418
v 0.310470 3.665836 -0.489418
v 2.150470 2.864743 -0.489418
v 2.150470 3.665836 -0.489418
v 2.230470 2.864743 -0.454588
v 2.228993 2.860420 0.332311
v 2.236877 3.670415 -0.453223
v 2.217778 3.654244 0.342862
v 2.149875 3.699419 -0.455073
v 0.305742 3.689580 -0.442820
v 2.149985 3.707532 0.335986
v 0.335292 3.693784 0.340546
v 2.151731 3.666791 0.380402
v 0.292498 3.660308 0.370339
v 2.157002 2.870588 0.387084
v 0.232849 3.666740 -0.453313
vn -0.9996 -0.0172 -0.0213
vn -0.2826 -0.0062 0.9592
vn -0.4267 -0.9044 -0.0055
vn -0.3107 -0.6076 0.7310
vn -0.0004 -1.0000 -0.0016
vn -0.0012 -0.6747 0.7381
vn -0.0000 -0.7071 -0.7071
vn -0.2942 -0.6758 -0.6758
vn -0.0000 -0.0000 -1.0000
vn -0.4104 0.0013 -0.9119
vn 0.3926 -0.0008 -0.9197
vn 0.2942 -0.6758 -0.6758
vn 0.9999 0.0029 0.0130
vn 0.3902 -0.9207 -0.0032
vn 0.4689 0.8832 0.0101
vn 0.2461 0.6951 -0.6755
vn -0.0065 0.9999 -0.0077
vn -0.0041 0.8159 -0.5782
vn -0.0050 0.7084 0.7058
vn 0.4612 0.6628 0.5899
vn -0.0045 0.0107 0.9999
vn 0.5563 0.0037 0.8310
vn 0.4178 -0.6200 0.6642
vn -0.0995 0.7295 0.6768
vn -0.2473 0.9689 -0.0011
vn -0.2043 0.8637 -0.4608
vt 0.385000 0.010000
vt 0.615000 0.010000
vt 0.615000 0.240000
vt 0.385000 0.240000
vt 0.385000 0.990000
vt 0.615000 0.990000
vt 0.615000 1.000000
vt 0.385000 1.000000
vt 0.135000 0.510000
vt 0.135000 0.740000
vt 0.125000 0.740000
vt 0.125000 0.510000
vt 0.375000 0.990000
vt 0.365000 0.510000
vt 0.365000 0.740000
vt 0.375000 0.760000
vt 0.385000 0.760000
vt 0.135000 0.500000
vt 0.365000 0.500000
vt 0.385000 0.260000
vt 0.615000 0.260000
vt 0.615000 0.490000
vt 0.385000 0.490000
vt 0.615000 0.510000
vt 0.385000 0.510000
vt 0.375000 0.510000
vt 0.385000 0.500000
vt 0.615000 0.740000
vt 0.385000 0.740000
vt 0.635000 0.510000
vt 0.635000 0.740000
vt 0.615000 0.500000
vt 0.625000 0.510000
vt 0.865000 0.510000
vt 0.865000 0.740000
vt 0.635000 0.500000
vt 0.865000 0.500000
vt 0.625000 0.760000
vt 0.625000 0.990000
vt 0.615000 0.760000
vt 0.615000 0.750000
vt 0.385000 0.750000
vt 0.875000 0.510000
vt 0.875000 0.740000
s 0
usemtl Material
f 217/397/235 218/398/235 240/399/235 219/400/235
f 220/401/236 238/402/236 218/403/236 217/404/236
f 223/405/237 221/406/237 217/407/237 219/408/237
f 221/409/238 220/401/238 217/404/238
f 223/405/239 224/410/239 222/411/239 221/406/239
f 221/409/240 222/412/240 239/413/240 220/401/240
f 224/410/241 223/405/241 225/414/241 227/415/241
f 219/408/242 225/414/242 223/405/242
f 225/416/243 226/417/243 228/418/243 227/419/243
f 226/417/244 225/416/244 219/400/244 240/399/244
f 231/420/245 229/421/245 227/419/245 228/418/245
f 224/422/246 227/423/246 229/421/246
f 229/421/247 231/420/247 232/424/247 230/425/247
f 222/411/248 224/410/248 229/421/248 230/425/248
f 233/426/249 235/427/249 232/424/249 231/420/249
f 228/428/250 233/429/250 231/420/250
f 233/426/251 234/430/251 236/431/251 235/427/251
f 234/430/252 233/426/252 228/432/252 226/433/252
f 235/434/253 236/435/253 238/402/253 237/436/253
f 232/437/254 235/434/254 237/436/254
f 239/413/255 237/436/255 238/402/255 220/401/255
f 237/436/256 239/413/256 230/425/256 232/424/256
f 230/438/257 239/413/257 222/412/257
f 218/403/258 238/402/258 236/435/258
f 236/431/259 234/430/259 240/439/259 218/440/259
f 226/433/260 240/439/260 234/430/260
o Cube.012
v -1.804799 2.856074 0.169470
v -1.791126 3.648935 0.189423
v -1.794788 2.849019 -0.617741
v -1.704609 2.852126 0.209725
v -1.722725 2.809537 0.199410
v 0.119470 2.804888 0.176009
v -1.714788 2.814189 -0.617741
v 0.125212 2.814189 -0.617741
v -1.714788 2.849019 -0.652571
v -1.714788 3.650112 -0.652571
v 0.125212 2.849019 -0.652571
v 0.125212 3.650112 -0.652571
v 0.205212 2.849019 -0.617741
v 0.209965 2.845429 0.184895
v 0.209710 3.656762 -0.619051
v 0.176074 3.650928 0.191384
v 0.115148 3.683805 -0.623664
v -1.723755 3.681927 -0.622376
v 0.107437 3.686094 0.179482
v -1.689770 3.679704 0.181721
v 0.131125 3.649681 0.216766
v -1.703625 3.646558 0.219030
v 0.126677 2.842413 0.217030
v -1.793422 3.649976 -0.617314
vn -0.9999 0.0095 -0.0049
vn -0.3492 -0.0140 0.9369
vn -0.4481 -0.8940 -0.0037
vn -0.3742 -0.0649 0.9251
vn -0.0013 -1.0000 -0.0087
vn 0.0016 -0.5399 0.8418
vn -0.0000 -0.7071 -0.7071
vn -0.2942 -0.6758 -0.6758
vn -0.0000 -0.0000 -1.0000
vn -0.4041 0.0006 -0.9147
vn 0.3838 -0.0018 -0.9234
vn 0.2942 -0.6758 -0.6758
vn 0.9997 0.0182 0.0180
vn 0.4046 -0.9145 -0.0071
vn 0.3552 0.9347 0.0112
vn 0.2267 0.6723 -0.7047
vn -0.0023 1.0000 -0.0000
vn -0.0006 0.6698 -0.7426
vn -0.0011 0.7313 0.6821
vn 0.2970 0.7706 0.5639
vn -0.0014 -0.0056 1.0000
vn 0.4091 0.0039 0.9125
vn 0.2675 -0.7339 0.6244
vn -0.1865 0.7678 0.6129
vn -0.3437 0.9390 0.0096
vn -0.3282 0.6000 -0.7296
vt 0.385000 0.010000
vt 0.615000 0.010000
vt 0.615000 0.240000
vt 0.385000 0.240000
vt 0.385000 0.990000
vt 0.615000 0.990000
vt 0.615000 1.000000
vt 0.385000 1.000000
vt 0.135000 0.510000
vt 0.135000 0.740000
vt 0.125000 0.740000
vt 0.125000 0.510000
vt 0.375000 0.990000
vt 0.365000 0.510000
vt 0.365000 0.740000
vt 0.375000 0.760000
vt 0.385000 0.760000
vt 0.135000 0.500000
vt 0.365000 0.500000
vt 0.385000 0.260000
vt 0.615000 0.260000
vt 0.615000 0.490000
vt 0.385000 0.490000
vt 0.615000 0.510000
vt 0.385000 0.510000
vt 0.375000 0.510000
vt 0.385000 0.500000
vt 0.615000 0.740000
vt 0.385000 0.740000
vt 0.635000 0.510000
vt 0.635000 0.740000
vt 0.615000 0.500000
vt 0.625000 0.510000
vt 0.865000 0.510000
vt 0.865000 0.740000
vt 0.635000 0.500000
vt 0.865000 0.500000
vt 0.625000 0.760000
vt 0.625000 0.990000
vt 0.615000 0.760000
vt 0.615000 0.750000
vt 0.385000 0.750000
vt 0.875000 0.510000
vt 0.875000 0.740000
s 0
usemtl Material
f 241/441/261 242/442/261 264/443/261 243/444/261
f 244/445/262 262/446/262 242/447/262 241/448/262
f 247/449/263 245/450/263 241/451/263 243/452/263
f 245/453/264 244/445/264 241/448/264
f 247/449/265 248/454/265 246/455/265 245/450/265
f 245/453/266 246/456/266 263/457/266 244/445/266
f 248/454/267 247/449/267 249/458/267 251/459/267
f 243/452/268 249/458/268 247/449/268
f 249/460/269 250/461/269 252/462/269 251/463/269
f 250/461/270 249/460/270 243/444/270 264/443/270
f 255/464/271 253/465/271 251/463/271 252/462/271
f 248/466/272 251/467/272 253/465/272
f 253/465/273 255/464/273 256/468/273 254/469/273
f 246/455/274 248/454/274 253/465/274 254/469/274
f 257/470/275 259/471/275 256/468/275 255/464/275
f 252/472/276 257/473/276 255/464/276
f 257/470/277 258/474/277 260/475/277 259/471/277
f 258/474/278 257/470/278 252/476/278 250/477/278
f 259/478/279 260/479/279 262/446/279 261/480/279
f 256/481/280 259/478/280 261/480/280
f 263/457/281 261/480/281 262/446/281 244/445/281
f 261/480/282 263/457/282 254/469/282 256/468/282
f 254/482/283 263/457/283 246/456/283
f 242/447/284 262/446/284 260/479/284
f 260/475/285 258/474/285 264/483/285 242/484/285
f 250/477/286 264/483/286 258/474/286
o Cube.013
v 5.061408 1.991825 0.343328
v 5.062293 2.792135 0.345909
v 5.033588 1.993277 -0.455027
v 5.130579 1.989030 0.385066
v 5.112099 1.960899 0.347376
v 6.932662 1.966319 0.348434
v 5.110469 1.959160 -0.454588
v 6.950469 1.959160 -0.454588
v 5.110469 1.993990 -0.489418
v 5.110469 2.795083 -0.489418
v 6.950469 1.993990 -0.489418
v 6.950469 2.795083 -0.489418
v 7.030469 1.993990 -0.454588
v 7.030053 1.985906 0.343644
v 7.031621 2.811425 -0.451056
v 7.013065 2.803349 0.338901
v 6.981852 2.826968 -0.454619
v 5.101713 2.828529 -0.451847
v 6.971882 2.826095 0.348459
v 5.113641 2.825634 0.346550
v 6.933914 2.783774 0.386341
v 5.102005 2.792039 0.381707
v 6.969121 1.980127 0.384369
v 5.027221 2.795741 -0.447872
vn -0.9992 -0.0037 0.0395
vn -0.5802 -0.0096 0.8144
vn -0.4544 -0.8907 0.0085
vn -0.4266 -0.6120 0.6659
vn 0.0015 -1.0000 0.0056
vn -0.0009 -0.8686 0.4954
vn -0.0000 -0.7071 -0.7071
vn -0.2959 -0.6754 -0.6755
vn -0.0000 -0.0000 -1.0000
vn -0.4285 0.0023 -0.9035
vn 0.4134 0.0017 -0.9106
vn 0.2942 -0.6758 -0.6758
vn 0.9999 0.0097 0.0120
vn 0.2933 -0.9560 0.0028
vn 0.3887 0.9213 0.0121
vn 0.2413 0.5973 -0.7649
vn 0.0003 1.0000 0.0024
vn -0.0002 0.7423 -0.6701
vn 0.0002 0.6933 0.7207
vn 0.4038 0.3818 0.8313
vn -0.0011 0.0008 1.0000
vn 0.5302 0.0185 0.8477
vn 0.2023 -0.9652 0.1657
vn -0.4701 0.7106 0.5235
vn -0.4656 0.8848 0.0174
vn -0.3289 0.6660 -0.6695
vt 0.385000 0.010000
vt 0.615000 0.010000
vt 0.615000 0.240000
vt 0.385000 0.240000
vt 0.385000 0.990000
vt 0.615000 0.990000
vt 0.615000 1.000000
vt 0.385000 1.000000
vt 0.135000 0.510000
vt 0.135000 0.740000
vt 0.125000 0.740000
vt 0.125000 0.510000
vt 0.375000 0.990000
vt 0.365000 0.510000
vt 0.365000 0.740000
vt 0.375000 0.760000
vt 0.385000 0.760000
vt 0.135000 0.500000
vt 0.365000 0.500000
vt 0.385000 0.260000
vt 0.615000 0.260000
vt 0.615000 0.490000
vt 0.385000 0.490000
vt 0.615000 0.510000
vt 0.385000 0.510000
vt 0.375000 0.510000
vt 0.385000 0.500000
vt 0.615000 0.740000
vt 0.385000 0.740000
vt 0.635000 0.510000
vt 0.635000 0.740000
vt 0.615000 0.500000
vt 0.625000 0.510000
vt 0.865000 0.510000
vt 0.865000 0.740000
vt 0.635000 0.500000
vt 0.865000 0.500000
vt 0.625000 0.760000
vt 0.625000 0.990000
vt 0.615000 0.760000
vt 0.615000 0.750000
vt 0.385000 0.750000
vt 0.875000 0.510000
vt 0.875000 0.740000
s 0
usemtl Material
f 265/485/287 266/486/287 288/487/287 267/488/287
f 268/489/288 286/490/288 266/491/288 265/492/288
f 271/493/289 269/494/289 265/495/289 267/496/289
f 269/497/290 268/489/290 265/492/290
f 271/493/291 272/498/291 270/499/291 269/494/291
f 269/497/292 270/500/292 287/501/292 268/489/292
f 272/498/293 271/493/293 273/502/293 275/503/293
f 267/496/294 273/502/294 271/493/294
f 273/504/295 274/505/295 276/506/295 275/507/295
f 274/505/296 273/504/296 267/488/296 288/487/296
f 279/508/297 277/509/297 275/507/297 276/506/297
f 272/510/298 275/511/298 277/509/298
f 277/509/299 279/508/299 280/512/299 278/513/299
f 270/499/300 272/498/300 277/509/300 278/513/300
f 281/514/301 283/515/301 280/512/301 279/508/301
f 276/516/302 281/517/302 279/508/302
f 281/514/303 282/518/303 284/519/303 283/515/303
f 282/518/304 281/514/304 276/520/304 274/521/304
f 283/522/305 284/523/305 286/490/305 285/524/305
f 280/525/306 283/522/306 285/524/306
f 287/501/307 285/524/307 286/490/307 268/489/307
f 285/524/308 287/501/308 278/513/308 280/512/308
f 278/526/309 287/501/309 270/500/309
f 266/491/310 286/490/310 284/523/310
f 284/519/311 282/518/311 288/527/311 266/528/311
f 274/521/312 288/527/312 282/518/312
o Cube.014
v 2.977947 2.006323 0.529246
v 2.977063 2.815034 0.516433
v 2.975075 2.015152 -0.279644
v 3.067373 2.023023 0.558949
v 3.059355 1.977459 0.518688
v 4.879560 1.984247 0.517474
v 3.055075 1.980322 -0.279644
v 4.895075 1.980322 -0.279644
v 3.055075 2.015152 -0.314474
v 3.055075 2.816245 -0.314474
v 4.895075 2.015152 -0.314474
v 4.895075 2.816245 -0.314474
v 4.975075 2.015152 -0.279644
v 4.991640 2.017649 0.506221
v 4.963423 2.807887 -0.282177
v 4.978761 2.816077 0.521914
v 4.890907 2.849252 -0.280996
v 3.048531 2.851182 -0.276229
v 4.895318 2.850336 0.522201
v 3.070440 2.848456 0.525661
v 4.906387 2.817701 0.559423
v 3.055306 2.810460 0.555739
v 4.899145 2.014328 0.558356
v 3.005479 2.823656 -0.278419
vn -0.9997 0.0181 -0.0157
vn -0.3810 0.0062 0.9246
vn -0.3674 -0.9301 -0.0051
vn -0.1303 -0.6435 0.7542
vn 0.0019 -1.0000 0.0007
vn -0.0000 -0.7314 0.6819
vn -0.0000 -0.7071 -0.7071
vn -0.2942 -0.6758 -0.6758
vn -0.0000 -0.0000 -1.0000
vn -0.4794 0.0097 -0.8775
vn 0.4123 0.0016 -0.9110
vn 0.2942 -0.6758 -0.6758
vn 0.9997 0.0156 -0.0202
vn 0.3349 -0.9422 0.0036
vn 0.4362 0.8998 -0.0106
vn 0.3789 0.6821 -0.6254
vn -0.0000 1.0000 0.0010
vn -0.0005 0.7259 -0.6878
vn -0.0018 0.6899 0.7239
vn 0.3133 0.7583 0.5717
vn -0.0008 0.0013 1.0000
vn 0.4777 -0.0075 0.8785
vn 0.2951 -0.8316 0.4705
vn -0.3048 0.6628 0.6839
vn -0.4082 0.9129 0.0048
vn -0.3815 0.6490 -0.6582
vt 0.385000 0.010000
vt 0.615000 0.010000
vt 0.615000 0.240000
vt 0.385000 0.240000
vt 0.385000 0.990000
vt 0.615000 0.990000
vt 0.615000 1.000000
vt 0.385000 1.000000
vt 0.135000 0.510000
vt 0.135000 0.740000
vt 0.125000 0.740000
vt 0.125000 0.510000
vt 0.375000 0.990000
vt 0.365000 0.510000
vt 0.365000 0.740000
vt 0.375000 0.760000
vt 0.385000 0.760000
vt 0.135000 0.500000
vt 0.365000 0.500000
vt 0.385000 0.260000
vt 0.615000 0.260000
vt 0.615000 0.490000
vt 0.385000 0.490000
vt 0.615000 0.510000
vt 0.385000 0.510000
vt 0.375000 0.510000
vt 0.385000 0.500000
vt 0.615000 0.740000
vt 0.385000 0.740000
vt 0.635000 0.510000
vt 0.635000 0.740000
vt 0.615000 0.500000
vt 0.625000 0.510000
vt 0.865000 0.510000
vt 0.865000 0.740000
vt 0.635000 0.500000
vt 0.865000 0.500000
vt 0.625000 0.760000
vt 0.625000 0.990000
vt 0.615000 0.760000
vt 0.615000 0.750000
vt 0.385000 0.750000
vt 0.875000 0.510000
vt 0.875000 0.740000
s 0
usemtl Material
f 289/529/313 290/530/313 312/531/313 291/532/313
f 292/533/314 310/534/314 290/535/314 289/536/314
f 295/537/315 293/538/315 289/539/315 291/540/315
f 293/541/316 292/533/316 289/536/316
f 295/537/317 296/542/317 294/543/317 293/538/317
f 293/541/318 294/544/318 311/545/318 292/533/318
f 296/542/319 295/537/319 297/546/319 299/547/319
f 291/540/320 297/546/320 295/537/320
f 297/548/321 298/549/321 300/550/321 299/551/321
f 298/549/322 297/548/322 291/532/322 312/531/322
f 303/552/323 301/553/323 299/551/323 300/550/323
f 296/554/324 299/555/324 301/553/324
f 301/553/325 303/552/325 304/556/325 302/557/325
f 294/543/326 296/542/326 301/553/326 302/557/326
f 305/558/327 307/559/327 304/556/327 303/552/327
f 300/560/328 305/561/328 303/552/328
f 305/558/329 306/562/329 308/563/329 307/559/329
f 306/562/330 305/558/330 300/564/330 298/565/330
f 307/566/331 308/567/331 310/534/331 309/568/331
f 304/569/332 307/566/332 309/568/332
f 311/545/333 309/568/333 310/534/333 292/533/333
f 309/568/334 311/545/334 302/557/334 304/556/334
f 302/570/335 311/545/335 294/544/335
f 290/535/336 310/534/336 308/567/336
f 308/563/337 306/562/337 312/571/337 290/572/337
f 298/565/338 312/571/338 306/562/338
o Cube.016
v -0.969769 1.994539 0.339005
v -0.974599 2.793946 0.349741
v -0.969530 1.993990 -0.454588
v -0.896203 1.987010 0.387464
v -0.893513 1.967344 0.347679
v 0.938935 1.957337 0.347413
v -0.889530 1.959160 -0.454588
v 0.950470 1.959160 -0.454588
v -0.889530 1.993990 -0.489418
v -0.889530 2.795083 -0.489418
v 0.950470 1.993990 -0.489418
v 0.950470 2.795083 -0.489418
v 1.030470 1.993990 -0.454588
v 1.017633 1.982438 0.345115
v 1.031802 2.787227 -0.444065
v 1.025668 2.793793 0.342083
v 0.936102 2.843461 -0.456848
v -0.885841 2.830963 -0.453668
v 0.965566 2.834707 0.340472
v -0.886581 2.829023 0.350682
v 0.949357 2.800787 0.388375
v -0.899581 2.798372 0.380469
v 0.919422 2.000309 0.386232
v -0.955049 2.784153 -0.457543
vn -0.9999 0.0061 -0.0124
vn -0.4704 -0.0044 0.8824
vn -0.3691 -0.9294 0.0041
vn -0.3481 -0.8495 0.3964
vn -0.0027 -1.0000 0.0039
vn 0.0010 -0.7819 0.6234
vn -0.0000 -0.7071 -0.7071
vn -0.2942 -0.6758 -0.6758
vn -0.4168 0.0021 -0.9090
vn -0.0000 -0.0000 -1.0000
vn 0.4453 0.0055 -0.8954
vn 0.2942 -0.6758 -0.6758
vn 0.9999 -0.0059 0.0119
vn 0.3533 -0.9355 -0.0024
vn 0.5295 0.8483 -0.0066
vn 0.4365 0.5881 -0.6809
vn -0.0049 1.0000 0.0068
vn -0.0028 0.6296 -0.7769
vn -0.0013 0.7693 0.6389
vn 0.4329 0.6601 0.6139
vn -0.0018 0.0030 1.0000
vn 0.4467 -0.0100 0.8946
vn 0.2138 -0.5996 0.7712
vn -0.2965 0.7273 0.6190
vn -0.4617 0.8870 -0.0101
vn -0.4139 0.6635 -0.6232
vt 0.385000 0.010000
vt 0.615000 0.010000
vt 0.615000 0.240000
vt 0.385000 0.240000
vt 0.385000 0.990000
vt 0.615000 0.990000
vt 0.615000 1.000000
vt 0.385000 1.000000
vt 0.135000 0.510000
vt 0.135000 0.740000
vt 0.125000 0.740000
vt 0.125000 0.510000
vt 0.375000 0.990000
vt 0.365000 0.510000
vt 0.365000 0.740000
vt 0.375000 0.760000
vt 0.385000 0.760000
vt 0.135000 0.500000
vt 0.365000 0.500000
vt 0.615000 0.260000
vt 0.385000 0.260000
vt 0.615000 0.490000
vt 0.385000 0.490000
vt 0.615000 0.510000
vt 0.385000 0.510000
vt 0.375000 0.510000
vt 0.385000 0.500000
vt 0.615000 0.740000
vt 0.385000 0.740000
vt 0.635000 0.510000
vt 0.635000 0.740000
vt 0.615000 0.500000
vt 0.625000 0.510000
vt 0.865000 0.510000
vt 0.865000 0.740000
vt 0.635000 0.500000
vt 0.865000 0.500000
vt 0.625000 0.760000
vt 0.625000 0.990000
vt 0.615000 0.760000
vt 0.615000 0.750000
vt 0.385000 0.750000
vt 0.875000 0.510000
vt 0.875000 0.740000
s 0
usemtl Material
f 313/573/339 314/574/339 336/575/339 315/576/339
f 316/577/340 334/578/340 314/579/340 313/580/340
f 319/581/341 317/582/341 313/583/341 315/584/341
f 317/585/342 316/577/342 313/580/342
f 319/581/343 320/586/343 318/587/343 317/582/343
f 317/585/344 318/588/344 335/589/344 316/577/344
f 320/586/345 319/581/345 321/590/345 323/591/345
f 315/584/346 321/590/346 319/581/346
f 322/592/347 321/593/347 315/576/347 336/575/347
f 321/593/348 322/592/348 324/594/348 323/595/348
f 327/596/349 325/597/349 323/595/349 324/594/349
f 320/598/350 323/599/350 325/597/350
f 325/597/351 327/596/351 328/600/351 326/601/351
f 318/587/352 320/586/352 325/597/352 326/601/352
f 329/602/353 331/603/353 328/600/353 327/596/353
f 324/604/354 329/605/354 327/596/354
f 329/602/355 330/606/355 332/607/355 331/603/355
f 330/606/356 329/602/356 324/608/356 322/609/356
f 331/610/357 332/611/357 334/578/357 333/612/357
f 328/613/358 331/610/358 333/612/358
f 335/589/359 333/612/359 334/578/359 316/577/359
f 333/612/360 335/589/360 326/601/360 328/600/360
f 326/614/361 335/589/361 318/588/361
f 314/579/362 334/578/362 332/611/362
f 332/607/363 330/606/363 336/615/363 314/616/363
f 322/609/364 336/615/364 330/606/364
o Cube.017
v 4.240980 1.120463 0.346774
v 4.248343 1.920741 0.354718
v 4.228110 1.123914 -0.454209
v 4.311663 1.124879 0.382550
v 4.326874 1.079581 0.342280
v 6.154171 1.089855 0.345303
v 4.310469 1.088407 -0.454588
v 6.150469 1.088407 -0.454588
v 4.310469 1.123237 -0.489418
v 4.310469 1.924330 -0.489418
v 6.150469 1.123237 -0.489418
v 6.150469 1.924330 -0.489418
v 6.230469 1.123237 -0.454588
v 6.256756 1.116157 0.352337
v 6.218934 1.928836 -0.454496
v 6.221049 1.922818 0.345674
v 6.136684 1.965961 -0.452375
v 4.306776 1.959530 -0.460661
v 6.150142 1.958802 0.349001
v 4.296855 1.957274 0.355088
v 6.174795 1.929674 0.374332
v 4.327575 1.934625 0.386621
v 6.168511 1.129050 0.374670
v 4.205458 1.927316 -0.463792
vn -0.9994 -0.0095 0.0343
vn -0.4114 -0.0009 0.9115
vn -0.4134 -0.9106 0.0006
vn -0.2929 -0.6883 0.6636
vn 0.0028 -1.0000 -0.0047
vn 0.0035 -0.6360 0.7717
vn -0.0000 -0.7071 -0.7071
vn -0.2944 -0.6758 -0.6758
vn -0.0000 -0.0000 -1.0000
vn -0.3090 -0.0100 -0.9510
vn 0.4251 0.0031 -0.9051
vn 0.2942 -0.6758 -0.6758
vn 0.9994 0.0292 -0.0174
vn 0.3178 -0.9481 -0.0093
vn 0.4309 0.9024 0.0032
vn 0.2934 0.6879 -0.6639
vn -0.0022 1.0000 0.0058
vn 0.0006 0.6505 -0.7595
vn 0.0040 0.7414 0.6711
vn 0.4140 0.7711 0.4837
vn 0.0054 -0.0024 1.0000
vn 0.3558 0.0106 0.9345
vn 0.1059 -0.6208 0.7768
vn -0.3960 0.5182 0.7580
vn -0.4172 0.9087 0.0133
vn -0.1709 0.6125 -0.7717
vt 0.385000 0.010000
vt 0.615000 0.010000
vt 0.615000 0.240000
vt 0.385000 0.240000
vt 0.385000 0.990000
vt 0.615000 0.990000
vt 0.615000 1.000000
vt 0.385000 1.000000
vt 0.135000 0.510000
vt 0.135000 0.740000
vt 0.125000 0.740000
vt 0.125000 0.510000
vt 0.375000 0.990000
vt 0.365000 0.510000
vt 0.365000 0.740000
vt 0.375000 0.760000
vt 0.385000 0.760000
vt 0.135000 0.500000
vt 0.365000 0.500000
vt 0.385000 0.260000
vt 0.615000 0.260000
vt 0.615000 0.490000
vt 0.385000 0.490000
vt 0.615000 0.510000
vt 0.385000 0.510000
vt 0.375000 0.510000
vt 0.385000 0.500000
vt 0.615000 0.740000
vt 0.385000 0.740000
vt 0.635000 0.510000
vt 0.635000 0.740000
vt 0.615000 0.500000
vt 0.625000 0.510000
vt 0.865000 0.510000
vt 0.865000 0.740000
vt 0.635000 0.500000
vt 0.865000 0.500000
vt 0.625000 0.760000
vt 0.625000 0.990000
vt 0.615000 0.760000
vt 0.615000 0.750000
vt 0.385000 0.750000
vt 0.875000 0.510000
vt 0.875000 0.740000
s 0
usemtl Material
f 337/617/365 338/618/365 360/619/365 339/620/365
f 340/621/366 358/622/366 338/623/366 337/624/366
f 343/625/367 341/626/367 337/627/367 339/628/367
f 341/629/368 340/621/368 337/624/368
f 343/625/369 344/630/369 342/631/369 341/626/369
f 341/629/370 342/632/370 359/633/370 340/621/370
f 344/630/371 343/625/371 345/634/371 347/635/371
f 339/628/372 345/634/372 343/625/372
f 345/636/373 346/637/373 348/638/373 347/639/373
f 346/637/374 345/636/374 339/620/374 360/619/374
f 351/640/375 349/641/375 347/639/375 348/638/375
f 344/642/376 347/643/376 349/641/376
f 349/641/377 351/640/377 352/644/377 350/645/377
f 342/631/378 344/630/378 349/641/378 350/645/378
f 353/646/379 355/647/379 352/644/379 351/640/379
f 348/648/380 353/649/380 351/640/380
f 353/646/381 354/650/381 356/651/381 355/647/381
f 354/650/382 353/646/382 348/652/382 346/653/382
f 355/654/383 356/655/383 358/622/383 357/656/383
f 352/657/384 355/654/384 357/656/384
f 359/633/385 357/656/385 358/622/385 340/621/385
f 357/656/386 359/633/386 350/645/386 352/644/386
f 350/658/387 359/633/387 342/632/387
f 338/623/388 358/622/388 356/655/388
f 356/651/389 354/650/389 360/659/389 338/660/389
f 346/653/390 360/659/390 354/650/390
o Cube.018
v 2.230034 1.126086 0.347941
v 2.235900 1.923377 0.345073
v 2.230470 1.123237 -0.454588
v 2.290945 1.121029 0.377513
v 2.333144 1.095778 0.344366
v 4.149041 1.090230 0.347272
v 2.310470 1.088407 -0.454588
v 4.150469 1.088407 -0.454588
v 2.310470 1.123237 -0.489418
v 2.310470 1.924330 -0.489418
v 4.150469 1.123237 -0.489418
v 4.150469 1.924330 -0.489418
v 4.230469 1.123237 -0.454588
v 4.229559 1.123795 0.355262
v 4.259521 1.918375 -0.462752
v 4.223499 1.920875 0.353579
v 4.128554 1.963617 -0.455096
v 2.313919 1.975096 -0.458773
v 4.145323 1.958285 0.345992
v 2.294580 1.957696 0.362324
v 4.146029 1.912392 0.382224
v 2.308024 1.925292 0.386409
v 4.150599 1.112526 0.376336
v 2.244170 1.922472 -0.463272
vn -0.9999 0.0122 -0.0054
vn -0.4703 0.0034 0.8825
vn -0.3350 -0.9422 0.0107
vn -0.2511 -0.8970 0.3637
vn -0.0015 -1.0000 0.0058
vn -0.0033 -0.7956 0.6059
vn -0.0000 -0.7071 -0.7071
vn -0.2942 -0.6758 -0.6758
vn -0.0000 -0.0000 -1.0000
vn -0.3847 -0.0017 -0.9230
vn 0.3090 -0.0105 -0.9510
vn 0.2942 -0.6758 -0.6758
vn 0.9996 -0.0143 0.0227
vn 0.3919 -0.9200 0.0019
vn 0.3675 0.9300 0.0060
vn 0.2043 0.7062 -0.6779
vn 0.0030 0.9999 0.0140
vn 0.0027 0.5854 -0.8107
vn 0.0064 0.6110 0.7916
vn 0.2163 0.6070 0.7647
vn 0.0014 -0.0092 1.0000
vn 0.3030 -0.0005 0.9530
vn 0.2644 -0.7720 0.5780
vn -0.4645 0.3960 0.7921
vn -0.5605 0.8282 -0.0011
vn -0.3290 0.5043 -0.7984
vt 0.385000 0.010000
vt 0.615000 0.010000
vt 0.615000 0.240000
vt 0.385000 0.240000
vt 0.385000 0.990000
vt 0.615000 0.990000
vt 0.615000 1.000000
vt 0.385000 1.000000
vt 0.135000 0.510000
vt 0.135000 0.740000
vt 0.125000 0.740000
vt 0.125000 0.510000
vt 0.375000 0.990000
vt 0.365000 0.510000
vt 0.365000 0.740000
vt 0.375000 0.760000
vt 0.385000 0.760000
vt 0.135000 0.500000
vt 0.365000 0.500000
vt 0.385000 0.260000
vt 0.615000 0.260000
vt 0.615000 0.490000
vt 0.385000 0.490000
vt 0.615000 0.510000
vt 0.385000 0.510000
vt 0.375000 0.510000
vt 0.385000 0.500000
vt 0.615000 0.740000
vt 0.385000 0.740000
vt 0.635000 0.510000
vt 0.635000 0.740000
vt 0.615000 0.500000
vt 0.625000 0.510000
vt 0.865000 0.510000
vt 0.865000 0.740000
vt 0.635000 0.500000
vt 0.865000 0.500000
vt 0.625000 0.760000
vt 0.625000 0.990000
vt 0.615000 0.760000
vt 0.615000 0.750000
vt 0.385000 0.750000
vt 0.875000 0.510000
vt 0.875000 0.740000
s 0
usemtl Material
f 361/661/391 362/662/391 384/663/391 363/664/391
f 364/665/392 382/666/392 362/667/392 361/668/392
f 367/669/393 365/670/393 361/671/393 363/672/393
f 365/673/394 364/665/394 361/668/394
f 367/669/395 368/674/395 366/675/395 365/670/395
f 365/673/396 366/676/396 383/677/396 364/665/396
f 368/674/397 367/669/397 369/678/397 371/679/397
f 363/672/398 369/678/398 367/669/398
f 369/680/399 370/681/399 372/682/399 371/683/399
f 370/681/400 369/680/400 363/664/400 384/663/400
f 375/684/401 373/685/401 371/683/401 372/682/401
f 368/686/402 371/687/402 373/685/402
f 373/685/403 375/684/403 376/688/403 374/689/403
f 366/675/404 368/674/404 373/685/404 374/689/404
f 377/690/405 379/691/405 376/688/405 375/684/405
f 372/692/406 377/693/406 375/684/406
f 377/690/407 378/694/407 380/695/407 379/691/407
f 378/694/408 377/690/408 372/696/408 370/697/408
f 379/698/409 380/699/409 382/666/409 381/700/409
f 376/701/410 379/698/410 381/700/410
f 383/677/411 381/700/411 382/666/411 364/665/411
f 381/700/412 383/677/412 374/689/412 376/688/412
f 374/702/413 383/677/413 366/676/413
f 362/667/414 382/666/414 380/699/414
f 380/695/415 378/694/415 384/703/415 362/704/415
f 370/697/416 384/703/416 378/694/416
o Cube.019
v 0.202771 1.103575 0.424219
v 0.204701 1.905257 0.440647
v 0.216071 1.098588 -0.366705
v 0.258772 1.100388 0.450400
v 0.256450 1.060772 0.418964
v 2.096775 1.076416 0.430501
v 0.261561 1.056423 -0.377043
v 2.112530 1.067204 -0.376720
v 0.283239 1.111167 -0.406976
v 0.276529 1.901369 -0.413000
v 2.126009 1.099738 -0.394438
v 2.120291 1.900548 -0.409397
v 2.195629 1.101042 -0.375669
v 2.202344 1.101998 0.428243
v 2.190773 1.899176 -0.381533
v 2.199528 1.892246 0.434290
v 2.118739 1.930706 -0.364841
v 0.292000 1.939982 -0.372051
v 2.099174 1.941136 0.422670
v 0.260409 1.939392 0.433905
v 2.129047 1.905130 0.454581
v 0.251431 1.890980 0.456920
v 2.113234 1.107338 0.458773
v 0.206759 1.897044 -0.373896
vn -0.9999 -0.0046 -0.0095
vn -0.3840 -0.0146 0.9232
vn -0.6509 -0.7591 -0.0031
vn -0.3763 -0.5623 0.7364
vn 0.0071 -0.9999 0.0086
vn -0.0002 -0.6461 0.7633
vn 0.0030 -0.4801 -0.8772
vn -0.4538 -0.2824 -0.8452
vn 0.0043 -0.0132 -0.9999
vn -0.5003 -0.0122 -0.8658
vn 0.3158 -0.0103 -0.9488
vn 0.2289 -0.5370 -0.8119
vn 0.9999 0.0048 -0.0095
vn 0.3004 -0.9538 0.0077
vn 0.4228 0.9062 0.0009
vn 0.2293 0.8098 -0.5401
vn 0.0020 1.0000 -0.0061
vn 0.0040 0.7789 -0.6271
vn 0.0007 0.5455 0.8381
vn 0.3042 0.7606 0.5735
vn -0.0016 -0.0015 1.0000
vn 0.3031 -0.0036 0.9530
vn 0.1877 -0.7153 0.6731
vn -0.1686 0.4485 0.8777
vn -0.4801 0.8771 -0.0141
vn -0.3619 0.7426 -0.5635
vt 0.385000 0.010000
vt 0.615000 0.010000
vt 0.615000 0.240000
vt 0.385000 0.240000
vt 0.385000 0.990000
vt 0.615000 0.990000
vt 0.615000 1.000000
vt 0.385000 1.000000
vt 0.135000 0.510000
vt 0.135000 0.740000
vt 0.125000 0.740000
vt 0.125000 0.510000
vt 0.375000 0.990000
vt 0.365000 0.510000
vt 0.365000 0.740000
vt 0.375000 0.760000
vt 0.385000 0.760000
vt 0.135000 0.500000
vt 0.365000 0.500000
vt 0.385000 0.260000
vt 0.615000 0.260000
vt 0.615000 0.490000
vt 0.385000 0.490000
vt 0.615000 0.510000
vt 0.385000 0.510000
vt 0.375000 0.510000
vt 0.385000 0.500000
vt 0.615000 0.740000
vt 0.385000 0.740000
vt 0.635000 0.510000
vt 0.635000 0.740000
vt 0.615000 0.500000
vt 0.625000 0.510000
vt 0.865000 0.510000
vt 0.865000 0.740000
vt 0.635000 0.500000
vt 0.865000 0.500000
vt 0.625000 0.760000
vt 0.625000 0.990000
vt 0.615000 0.760000
vt 0.615000 0.750000
vt 0.385000 0.750000
vt 0.875000 0.510000
vt 0.875000 0.740000
s 0
usemtl Material
f 385/705/417 386/706/417 408/707/417 387/708/417
f 388/709/418 406/710/418 386/711/418 385/712/418
f 391/713/419 389/714/419 385/715/419 387/716/419
f 389/717/420 388/709/420 385/712/420
f 391/713/421 392/718/421 390/719/421 389/714/421
f 389/717/422 390/720/422 407/721/422 388/709/422
f 392/718/423 391/713/423 393/722/423 395/723/423
f 387/716/424 393/722/424 391/713/424
f 393/724/425 394/725/425 396/726/425 395/727/425
f 394/725/426 393/724/426 387/708/426 408/707/426
f 399/728/427 397/729/427 395/727/427 396/726/427
f 392/730/428 395/731/428 397/729/428
f 397/729/429 399/728/429 400/732/429 398/733/429
f 390/719/430 392/718/430 397/729/430 398/733/430
f 401/734/431 403/735/431 400/732/431 399/728/431
f 396/736/432 401/737/432 399/728/432
f 401/734/433 402/738/433 404/739/433 403/735/433
f 402/738/434 401/734/434 396/740/434 394/741/434
f 403/742/435 404/743/435 406/710/435 405/744/435
f 400/745/436 403/742/436 405/744/436
f 407/721/437 405/744/437 406/710/437 388/709/437
f 405/744/438 407/721/438 398/733/438 400/732/438
f 398/746/439 407/721/439 390/720/439
f 386/711/440 406/710/440 404/743/440
f 404/739/441 402/738/441 408/747/441 386/748/441
f 394/741/442 408/747/442 402/738/442
o Cube.020
v -1.756079 1.125182 0.331651
v -1.781964 1.911860 0.346023
v -1.769530 1.123237 -0.454588
v -1.700585 1.136900 0.374493
v -1.699915 1.087702 0.347203
v 0.148740 1.086479 0.346779
v -1.689530 1.088407 -0.454588
v 0.150470 1.088407 -0.454588
v -1.689530 1.123237 -0.489418
v -1.688673 1.909228 -0.484786
v 0.150470 1.123237 -0.489418
v 0.150470 1.924330 -0.489418
v 0.230470 1.123237 -0.454588
v 0.230617 1.125280 0.343020
v 0.230319 1.935648 -0.467541
v 0.251930 1.918030 0.341702
v 0.158289 1.969689 -0.460710
v -1.686814 1.954092 -0.449876
v 0.149912 1.957577 0.344655
v -1.708244 1.973462 0.343121
v 0.147521 1.914515 0.378580
v -1.664382 1.920795 0.388358
v 0.155911 1.110466 0.372150
v -1.769965 1.923144 -0.468771
vn -0.9999 -0.0166 0.0008
vn -0.4402 -0.0132 0.8978
vn -0.4692 -0.8831 0.0016
vn -0.4945 -0.4268 0.7572
vn -0.0003 -1.0000 -0.0016
vn -0.0038 -0.5838 0.8119
vn -0.0000 -0.7071 -0.7071
vn -0.2942 -0.6758 -0.6758
vn -0.0013 0.0029 -1.0000
vn -0.3011 -0.0057 -0.9536
vn 0.3348 -0.0075 -0.9423
vn 0.2942 -0.6758 -0.6758
vn 0.9998 -0.0133 -0.0137
vn 0.4140 -0.9103 0.0005
vn 0.3900 0.9207 0.0138
vn 0.1599 0.5081 -0.8463
vn 0.0001 1.0000 -0.0045
vn -0.0082 0.5768 -0.8168
vn 0.0056 0.6387 0.7694
vn 0.2511 0.5904 0.7671
vn 0.0032 -0.0128 0.9999
vn 0.3463 -0.0058 0.9381
vn 0.3702 -0.7250 0.5808
vn -0.3337 0.4387 0.8344
vn -0.5069 0.8618 -0.0149
vn -0.0499 0.6146 -0.7872
vt 0.385000 0.010000
vt 0.615000 0.010000
vt 0.615000 0.240000
vt 0.385000 0.240000
vt 0.385000 0.990000
vt 0.615000 0.990000
vt 0.615000 1.000000
vt 0.385000 1.000000
vt 0.135000 0.510000
vt 0.135000 0.740000
vt 0.125000 0.740000
vt 0.125000 0.510000
vt 0.375000 0.990000
vt 0.365000 0.510000
vt 0.365000 0.740000
vt 0.375000 0.760000
vt 0.385000 0.760000
vt 0.135000 0.500000
vt 0.365000 0.500000
vt 0.385000 0.260000
vt 0.615000 0.260000
vt 0.615000 0.490000
vt 0.385000 0.490000
vt 0.615000 0.510000
vt 0.385000 0.510000
vt 0.375000 0.510000
vt 0.385000 0.500000
vt 0.615000 0.740000
vt 0.385000 0.740000
vt 0.635000 0.510000
vt 0.635000 0.740000
vt 0.615000 0.500000
vt 0.625000 0.510000
vt 0.865000 0.510000
vt 0.865000 0.740000
vt 0.635000 0.500000
vt 0.865000 0.500000
vt 0.625000 0.760000
vt 0.625000 0.990000
vt 0.615000 0.760000
vt 0.615000 0.750000
vt 0.385000 0.750000
vt 0.875000 0.510000
vt 0.875000 0.740000
s 0
usemtl Material
f 409/749/443 410/750/443 432/751/443 411/752/443
f 412/753/444 430/754/444 410/755/444 409/756/444
f 415/757/445 413/758/445 409/759/445 411/760/445
f 413/761/446 412/753/446 409/756/446
f 415/757/447 416/762/447 414/763/447 413/758/447
f 413/761/448 414/764/448 431/765/448 412/753/448
f 416/762/449 415/757/449 417/766/449 419/767/449
f 411/760/450 417/766/450 415/757/450
f 417/768/451 418/769/451 420/770/451 419/771/451
f 418/769/452 417/768/452 411/752/452 432/751/452
f 423/772/453 421/773/453 419/771/453 420/770/453
f 416/774/454 419/775/454 421/773/454
f 421/773/455 423/772/455 424/776/455 422/777/455
f 414/763/456 416/762/456 421/773/456 422/777/456
f 425/778/457 427/779/457 424/776/457 423/772/457
f 420/780/458 425/781/458 423/772/458
f 425/778/459 426/782/459 428/783/459 427/779/459
f 426/782/460 425/778/460 420/784/460 418/785/460
f 427/786/461 428/787/461 430/754/461 429/788/461
f 424/789/462 427/786/462 429/788/462
f 431/765/463 429/788/463 430/754/463 412/753/463
f 429/788/464 431/765/464 422/777/464 424/776/464
f 422/790/465 431/765/465 414/764/465
f 410/755/466 430/754/466 428/787/466
f 428/783/467 426/782/467 432/791/467 410/792/467
f 418/785/468 432/791/468 426/782/468
o Cube.021
v 5.055908 0.245942 0.351830
v 5.029385 1.049198 0.348017
v 5.033268 0.253213 -0.462028
v 5.109249 0.247345 0.395444
v 5.121674 0.223666 0.342357
v 6.941830 0.220465 0.343900
v 5.110469 0.217654 -0.454588
v 6.950469 0.217654 -0.454588
v 5.110469 0.252484 -0.489418
v 5.110469 1.053577 -0.489418
v 6.950469 0.252484 -0.489418
v 6.950469 1.053577 -0.489418
v 7.030469 0.252484 -0.454588
v 7.021901 0.255936 0.344245
v 7.026364 1.052674 -0.455382
v 7.033375 1.053976 0.345599
v 6.951393 1.085499 -0.453537
v 5.114057 1.091158 -0.454209
v 6.957608 1.078240 0.332921
v 5.108281 1.088478 0.345229
v 6.952544 1.055064 0.381670
v 5.109529 1.054541 0.369845
v 6.950100 0.260347 0.368823
v 5.037632 1.049249 -0.460257
vn -0.9999 -0.0138 0.0088
vn -0.4406 0.0092 0.8977
vn -0.3749 -0.9270 0.0072
vn -0.2567 -0.9036 0.3430
vn -0.0009 -1.0000 0.0055
vn 0.0064 -0.7751 0.6319
vn -0.0000 -0.7071 -0.7071
vn -0.2494 -0.6848 -0.6848
vn -0.0000 -0.0000 -1.0000
vn -0.3527 0.0020 -0.9357
vn 0.4041 0.0006 -0.9147
vn 0.2942 -0.6758 -0.6758
vn 1.0000 -0.0046 0.0010
vn 0.4021 -0.9156 0.0079
vn 0.3542 0.9352 0.0006
vn 0.2952 0.7100 -0.6393
vn 0.0043 1.0000 0.0063
vn 0.0012 0.7150 -0.6991
vn 0.0022 0.7890 0.6144
vn 0.2070 0.8751 0.4375
vn 0.0040 0.0080 1.0000
vn 0.3689 -0.0115 0.9294
vn 0.2401 -0.5498 0.8001
vn -0.2520 0.5621 0.7877
vn -0.4632 0.8862 -0.0025
vn -0.3112 0.6654 -0.6785
vt 0.385000 0.010000
vt 0.615000 0.010000
vt 0.615000 0.240000
vt 0.385000 0.240000
vt 0.385000 0.990000
vt 0.615000 0.990000
vt 0.615000 1.000000
vt 0.385000 1.000000
vt 0.135000 0.510000
vt 0.135000 0.740000
vt 0.125000 0.740000
vt 0.125000 0.510000
vt 0.375000 0.990000
vt 0.365000 0.510000
vt 0.365000 0.740000
vt 0.375000 0.760000
vt 0.385000 0.760000
vt 0.135000 0.500000
vt 0.365000 0.500000
vt 0.385000 0.260000
vt 0.615000 0.260000
vt 0.615000 0.490000
vt 0.385000 0.490000
vt 0.615000 0.510000
vt 0.385000 0.510000
vt 0.375000 0.510000
vt 0.385000 0.500000
vt 0.615000 0.740000
vt 0.385000 0.740000
vt 0.635000 0.510000
vt 0.635000 0.740000
vt 0.615000 0.500000
vt 0.625000 0.510000
vt 0.865000 0.510000
vt 0.865000 0.740000
vt 0.635000 0.500000
vt 0.865000 0.500000
vt 0.625000 0.760000
vt 0.625000 0.990000
vt 0.615000 0.760000
vt 0.615000 0.750000
vt 0.385000 0.750000
vt 0.875000 0.510000
vt 0.875000 0.740000
s 0
usemtl Material
f 433/793/469 434/794/469 456/795/469 435/796/469
f 436/797/470 454/798/470 434/799/470 433/800/470
f 439/801/471 437/802/471 433/803/471 435/804/471
f 437/805/472 436/797/472 433/800/472
f 439/801/473 440/806/473 438/807/473 437/802/473
f 437/805/474 438/808/474 455/809/474 436/797/474
f 440/806/475 439/801/475 441/810/475 443/811/475
f 435/804/476 441/810/476 439/801/476
f 441/812/477 442/813/477 444/814/477 443/815/477
f 442/813/478 441/812/478 435/796/478 456/795/478
f 447/816/479 445/817/479 443/815/479 444/814/479
f 440/818/480 443/819/480 445/817/480
f 445/817/481 447/816/481 448/820/481 446/821/481
f 438/807/482 440/806/482 445/817/482 446/821/482
f 449/822/483 451/823/483 448/820/483 447/816/483
f 444/824/484 449/825/484 447/816/484
f 449/822/485 450/826/485 452/827/485 451/823/485
f 450/826/486 449/822/486 444/828/486 442/829/486
f 451/830/487 452/831/487 454/798/487 453/832/487
f 448/833/488 451/830/488 453/832/488
f 455/809/489 453/832/489 454/798/489 436/797/489
f 453/832/490 455/809/490 446/821/490 448/820/490
f 446/834/491 455/809/491 438/808/491
f 434/799/492 454/798/492 452/831/492
f 452/827/493 450/826/493 456/835/493 434/836/493
f 442/829/494 456/835/494 450/826/494
o Cube.022
v 3.025857 0.263530 0.532368
v 3.037083 1.041577 0.530502
v 3.052530 0.242005 -0.279274
v 3.126925 0.247866 0.565363
v 3.093849 0.222179 0.541779
v 4.976249 0.217685 0.525652
v 3.110470 0.217654 -0.272226
v 4.950469 0.217654 -0.272226
v 3.110470 0.252484 -0.307056
v 3.110470 1.053577 -0.307056
v 4.950469 0.252484 -0.307056
v 4.950469 1.053577 -0.307056
v 5.030469 0.252484 -0.272226
v 5.020792 0.257695 0.531167
v 5.024779 1.055512 -0.270013
v 5.032329 1.045960 0.528084
v 4.934411 1.081201 -0.274637
v 3.132284 1.095627 -0.283019
v 4.966800 1.080261 0.518020
v 3.109979 1.086030 0.526858
v 4.934271 1.059918 0.566885
v 3.094522 1.057696 0.568883
v 4.941938 0.250667 0.550690
v 3.031089 1.054874 -0.272392
vn -0.9999 -0.0064 -0.0128
vn -0.4106 -0.0064 0.9118
vn -0.4627 -0.8865 0.0019
vn -0.3395 -0.3605 0.8688
vn -0.0012 -1.0000 0.0028
vn 0.0061 -0.6380 0.7700
vn -0.0000 -0.7071 -0.7071
vn -0.2066 -0.6918 -0.6919
vn -0.0000 -0.0000 -1.0000
vn -0.4139 -0.0016 -0.9103
vn 0.4222 0.0027 -0.9065
vn 0.2942 -0.6758 -0.6758
vn 1.0000 -0.0037 0.0013
vn 0.5151 -0.8571 -0.0024
vn 0.3594 0.9332 -0.0029
vn 0.2541 0.7947 -0.5513
vn 0.0055 1.0000 0.0065
vn 0.0043 0.6293 -0.7771
vn 0.0022 0.8810 0.4730
vn 0.3240 0.7773 0.5393
vn 0.0046 -0.0121 0.9999
vn 0.3128 -0.0086 0.9498
vn 0.2536 -0.4035 0.8791
vn -0.4707 0.8021 0.3676
vn -0.4390 0.8984 0.0083
vn -0.3153 0.5889 -0.7441
vt 0.385000 0.010000
vt 0.615000 0.010000
vt 0.615000 0.240000
vt 0.385000 0.240000
vt 0.385000 0.990000
vt 0.615000 0.990000
vt 0.615000 1.000000
vt 0.385000 1.000000
vt 0.135000 0.510000
vt 0.135000 0.740000
vt 0.125000 0.740000
vt 0.125000 0.510000
vt 0.375000 0.990000
vt 0.365000 0.510000
vt 0.365000 0.740000
vt 0.375000 0.760000
vt 0.385000 0.760000
vt 0.135000 0.500000
vt 0.365000 0.500000
vt 0.385000 0.260000
vt 0.615000 0.260000
vt 0.615000 0.490000
vt 0.385000 0.490000
vt 0.615000 0.510000
vt 0.385000 0.510000
vt 0.375000 0.510000
vt 0.385000 0.500000
vt 0.615000 0.740000
vt 0.385000 0.740000
vt 0.635000 0.510000
vt 0.635000 0.740000
vt 0.615000 0.500000
vt 0.625000 0.510000
vt 0.865000 0.510000
vt 0.865000 0.740000
vt 0.635000 0.500000
vt 0.865000 0.500000
vt 0.625000 0.760000
vt 0.625000 0.990000
vt 0.615000 0.760000
vt 0.615000 0.750000
vt 0.385000 0.750000
vt 0.875000 0.510000
vt 0.875000 0.740000
s 0
usemtl Material
f 457/837/495 458/838/495 480/839/495 459/840/495
f 460/841/496 478/842/496 458/843/496 457/844/496
f 463/845/497 461/846/497 457/847/497 459/848/497
f 461/849/498 460/841/498 457/844/498
f 463/845/499 464/850/499 462/851/499 461/846/499
f 461/849/500 462/852/500 479/853/500 460/841/500
f 464/850/501 463/845/501 465/854/501 467/855/501
f 459/848/502 465/854/502 463/845/502
f 465/856/503 466/857/503 468/858/503 467/859/503
f 466/857/504 465/856/504 459/840/504 480/839/504
f 471/860/505 469/861/505 467/859/505 468/858/505
f 464/862/506 467/863/506 469/861/506
f 469/861/507 471/860/507 472/864/507 470/865/507
f 462/851/508 464/850/508 469/861/508 470/865/508
f 473/866/509 475/867/509 472/864/509 471/860/509
f 468/868/510 473/869/510 471/860/510
f 473/866/511 474/870/511 476/871/511 475/867/511
f 474/870/512 473/866/512 468/872/512 466/873/512
f 475/874/513 476/875/513 478/842/513 477/876/513
f 472/877/514 475/874/514 477/876/514
f 479/853/515 477/876/515 478/842/515 460/841/515
f 477/876/516 479/853/516 470/865/516 472/864/516
f 470/878/517 479/853/517 462/852/517
f 458/843/518 478/842/518 476/875/518
f 476/871/519 474/870/519 480/879/519 458/880/519
f 466/873/520 480/879/520 474/870/520
o Cube.023
v 1.013339 0.255828 0.341475
v 1.031312 1.050118 0.346095
v 1.044179 0.256809 -0.453732
v 1.111989 0.250793 0.379852
v 1.112393 0.217112 0.341161
v 2.949502 0.217009 0.347483
v 1.110470 0.217654 -0.454588
v 2.950470 0.217654 -0.454588
v 1.110470 0.252484 -0.489418
v 1.110470 1.053577 -0.489418
v 2.950470 0.252484 -0.489418
v 2.950470 1.053577 -0.489418
v 3.030470 0.252484 -0.454588
v 3.030194 0.259804 0.351031
v 3.033602 1.050401 -0.450266
v 3.049281 1.050450 0.335856
v 2.951861 1.088038 -0.454952
v 1.100421 1.088826 -0.466026
v 2.972248 1.082059 0.339515
v 1.114481 1.090411 0.342695
v 2.951587 1.054220 0.380068
v 1.121003 1.059509 0.382872
v 2.941515 0.242492 0.374882
v 1.053590 1.059374 -0.454945
vn -0.9993 0.0172 -0.0331
vn -0.3706 0.0018 0.9288
vn -0.4261 -0.9046 -0.0086
vn -0.2815 -0.7252 0.6284
vn -0.0000 -1.0000 -0.0007
vn -0.0020 -0.7452 0.6668
vn -0.0000 -0.7071 -0.7071
vn -0.3925 -0.6504 -0.6504
vn -0.0000 -0.0000 -1.0000
vn -0.4948 0.0022 -0.8690
vn 0.4130 0.0017 -0.9107
vn 0.2942 -0.6758 -0.6758
vn 0.9999 -0.0141 -0.0096
vn 0.4349 -0.9005 0.0041
vn 0.3998 0.9166 -0.0057
vn 0.3413 0.6578 -0.6714
vn 0.0025 1.0000 0.0027
vn 0.0024 0.6388 -0.7693
vn 0.0039 0.8083 0.5888
vn 0.3172 0.6987 0.6412
vn 0.0021 -0.0051 1.0000
vn 0.3431 -0.0004 0.9393
vn 0.3132 -0.6482 0.6941
vn -0.3255 0.7232 0.6091
vn -0.4726 0.8813 0.0018
vn -0.4436 0.4044 -0.7999
vt 0.385000 0.010000
vt 0.615000 0.010000
vt 0.615000 0.240000
vt 0.385000 0.240000
vt 0.385000 0.990000
vt 0.615000 0.990000
vt 0.615000 1.000000
vt 0.385000 1.000000
vt 0.135000 0.510000
vt 0.135000 0.740000
vt 0.125000 0.740000
vt 0.125000 0.510000
vt 0.375000 0.990000
vt 0.365000 0.510000
vt 0.365000 0.740000
vt 0.375000 0.760000
vt 0.385000 0.760000
vt 0.135000 0.500000
vt 0.365000 0.500000
vt 0.385000 0.260000
vt 0.615000 0.260000
vt 0.615000 0.490000
vt 0.385000 0.490000
vt 0.615000 0.510000
vt 0.385000 0.510000
vt 0.375000 0.510000
vt 0.385000 0.500000
vt 0.615000 0.740000
vt 0.385000 0.740000
vt 0.635000 0.510000
vt 0.635000 0.740000
vt 0.615000 0.500000
vt 0.625000 0.510000
vt 0.865000 0.510000
vt 0.865000 0.740000
vt 0.635000 0.500000
vt 0.865000 0.500000
vt 0.625000 0.760000
vt 0.625000 0.990000
vt 0.615000 0.760000
vt 0.615000 0.750000
vt 0.385000 0.750000
vt 0.875000 0.510000
vt 0.875000 0.740000
s 0
usemtl Material
f 481/881/521 482/882/521 504/883/521 483/884/521
f 484/885/522 502/886/522 482/887/522 481/888/522
f 487/889/523 485/890/523 481/891/523 483/892/523
f 485/893/524 484/885/524 481/888/524
f 487/889/525 488/894/525 486/895/525 485/890/525
f 485/893/526 486/896/526 503/897/526 484/885/526
f 488/894/527 487/889/527 489/898/527 491/899/527
f 483/892/528 489/898/528 487/889/528
f 489/900/529 490/901/529 492/902/529 491/903/529
f 490/901/530 489/900/530 483/884/530 504/883/530
f 495/904/531 493/905/531 491/903/531 492/902/531
f 488/906/532 491/907/532 493/905/532
f 493/905/533 495/904/533 496/908/533 494/909/533
f 486/895/534 488/894/534 493/905/534 494/909/534
f 497/910/535 499/911/535 496/908/535 495/904/535
f 492/912/536 497/913/536 495/904/536
f 497/910/537 498/914/537 500/915/537 499/911/537
f 498/914/538 497/910/538 492/916/538 490/917/538
f 499/918/539 500/919/539 502/886/539 501/920/539
f 496/921/540 499/918/540 501/920/540
f 503/897/541 501/920/541 502/886/541 484/885/541
f 501/920/542 503/897/542 494/909/542 496/908/542
f 494/922/543 503/897/543 486/896/543
f 482/887/544 502/886/544 500/919/544
f 500/915/545 498/914/545 504/923/545 482/924/545
f 490/917/546 504/923/546 498/914/546
o Cube.024
v -0.959295 0.250682 0.255731
v -0.971804 1.064744 0.260036
v -0.969530 0.252484 -0.539690
v -0.867936 0.249753 0.308522
v -0.899416 0.206046 0.258393
v 0.955288 0.211687 0.271755
v -0.889530 0.217654 -0.539690
v 0.950470 0.217654 -0.539690
v -0.889530 0.252484 -0.574520
v -0.889530 1.053577 -0.574520
v 0.950470 0.252484 -0.574520
v 0.950470 1.053577 -0.574520
v 1.030470 0.252484 -0.539690
v 1.028269 0.259741 0.259551
v 1.035634 1.063356 -0.538302
v 1.045911 1.056096 0.262198
v 0.953446 1.090095 -0.542013
v -0.892322 1.086579 -0.531991
v 0.932712 1.085204 0.260482
v -0.866562 1.083635 0.258527
v 0.961275 1.051261 0.292977
v -0.880777 1.055746 0.304926
v 0.948726 0.247463 0.293620
v -0.985498 1.059687 -0.546324
vn -0.9997 -0.0175 0.0150
vn -0.4724 -0.0078 0.8813
vn -0.4938 -0.8695 -0.0072
vn -0.4281 -0.5307 0.7315
vn 0.0016 -0.9999 -0.0109
vn 0.0009 -0.6715 0.7410
vn -0.0000 -0.7071 -0.7071
vn -0.2942 -0.6758 -0.6758
vn -0.3374 -0.0072 -0.9413
vn -0.0000 -0.0000 -1.0000
vn 0.3952 -0.0005 -0.9186
vn 0.2942 -0.6758 -0.6758
vn 0.9999 -0.0142 -0.0050
vn 0.4764 -0.8792 -0.0001
vn 0.2746 0.9615 0.0091
vn 0.2396 0.6346 -0.7348
vn -0.0014 1.0000 0.0049
vn -0.0025 0.7336 -0.6796
vn 0.0023 0.7873 0.6166
vn 0.1850 0.7564 0.6275
vn 0.0073 0.0026 1.0000
vn 0.3681 -0.0081 0.9298
vn 0.4114 -0.4192 0.8094
vn -0.1488 0.8670 0.4755
vn -0.2251 0.9743 0.0043
vn -0.1305 0.7791 -0.6132
vt 0.385000 0.010000
vt 0.615000 0.010000
vt 0.615000 0.240000
vt 0.385000 0.240000
vt 0.385000 0.990000
vt 0.615000 0.990000
vt 0.615000 1.000000
vt 0.385000 1.000000
vt 0.135000 0.510000
vt 0.135000 0.740000
vt 0.125000 0.740000
vt 0.125000 0.510000
vt 0.375000 0.990000
vt 0.365000 0.510000
vt 0.365000 0.740000
vt 0.375000 0.760000
vt 0.385000 0.760000
vt 0.135000 0.500000
vt 0.365000 0.500000
vt 0.615000 0.260000
vt 0.385000 0.260000
vt 0.615000 0.490000
vt 0.385000 0.490000
vt 0.615000 0.510000
vt 0.385000 0.510000
vt 0.375000 0.510000
vt 0.385000 0.500000
vt 0.615000 0.740000
vt 0.385000 0.740000
vt 0.635000 0.510000
vt 0.635000 0.740000
vt 0.615000 0.500000
vt 0.625000 0.510000
vt 0.865000 0.510000
vt 0.865000 0.740000
vt 0.635000 0.500000
vt 0.865000 0.500000
vt 0.625000 0.760000
vt 0.625000 0.990000
vt 0.615000 0.760000
vt 0.615000 0.750000
vt 0.385000 0.750000
vt 0.875000 0.510000
vt 0.875000 0.740000
s 0
usemtl Material
f 505/925/547 506/926/547 528/927/547 507/928/547
f 508/929/548 526/930/548 506/931/548 505/932/548
f 511/933/549 509/934/549 505/935/549 507/936/549
f 509/937/550 508/929/550 505/932/550
f 511/933/551 512/938/551 510/939/551 509/934/551
f 509/937/552 510/940/552 527/941/552 508/929/552
f 512/938/553 511/933/553 513/942/553 515/943/553
f 507/936/554 513/942/554 511/933/554
f 514/944/555 513/945/555 507/928/555 528/927/555
f 513/945/556 514/944/556 516/946/556 515/947/556
f 519/948/557 517/949/557 515/947/557 516/946/557
f 512/950/558 515/951/558 517/949/558
f 517/949/559 519/948/559 520/952/559 518/953/559
f 510/939/560 512/938/560 517/949/560 518/953/560
f 521/954/561 523/955/561 520/952/561 519/948/561
f 516/956/562 521/957/562 519/948/562
f 521/954/563 522/958/563 524/959/563 523/955/563
f 522/958/564 521/954/564 516/960/564 514/961/564
f 523/962/565 524/963/565 526/930/565 525/964/565
f 520/965/566 523/962/566 525/964/566
f 527/941/567 525/964/567 526/930/567 508/929/567
f 525/964/568 527/941/568 518/953/568 520/952/568
f 518/966/569 527/941/569 510/940/569
f 506/931/570 526/930/570 524/963/570
f 524/959/571 522/958/571 528/967/571 506/968/571
f 514/961/572 528/967/572 522/958/572
o Cube.001
v 3.016228 3.748830 0.305305
v 3.053469 4.553138 0.313727
v 3.026520 3.745875 -0.490398
v 3.100719 3.748650 0.345607
v 3.107671 3.714571 0.312834
v 4.941040 3.708250 0.295695
v 3.106520 3.711045 -0.490398
v 4.946520 3.711045 -0.490398
v 3.106520 3.745875 -0.525228
v 3.106520 4.546968 -0.525228
v 4.946520 3.745875 -0.525228
v 4.946520 4.546968 -0.525228
v 5.026520 3.745875 -0.490398
v 5.024613 3.744727 0.311270
v 4.997647 4.544371 -0.480581
v 5.024682 4.544483 0.311944
v 4.943600 4.574172 -0.483594
v 3.120820 4.571611 -0.495510
v 4.947182 4.573834 0.319448
v 3.075514 4.582053 0.315118
v 4.927677 4.542567 0.337992
v 3.107111 4.548267 0.345277
v 4.954348 3.743043 0.353313
v 3.028728 4.543723 -0.476266
vn -0.9997 0.0245 0.0089
vn -0.4612 0.0081 0.8872
vn -0.3738 -0.9275 0.0016
vn -0.3125 -0.6908 0.6520
vn -0.0017 -1.0000 0.0005
vn -0.0010 -0.7954 0.6061
vn -0.0000 -0.7071 -0.7071
vn -0.2942 -0.6758 -0.6758
vn -0.4691 0.0085 -0.8831
vn -0.0000 -0.0000 -1.0000
vn 0.5185 0.0146 -0.8550
vn 0.2942 -0.6758 -0.6758
vn 0.9997 0.0181 -0.0157
vn 0.3996 -0.9167 -0.0004
vn 0.4099 0.9121 -0.0077
vn 0.4468 0.7630 -0.4672
vn 0.0016 1.0000 -0.0062
vn 0.0013 0.8089 -0.5880
vn 0.0029 0.5997 0.8002
vn 0.2323 0.3849 0.8933
vn -0.0001 0.0098 1.0000
vn 0.3767 0.0147 0.9262
vn 0.2870 -0.8479 0.4457
vn -0.4606 0.3112 0.8312
vn -0.4476 0.8941 -0.0168
vn -0.3450 0.7974 -0.4952
vt 0.385000 0.010000
vt 0.615000 0.010000
vt 0.615000 0.240000
vt 0.385000 0.240000
vt 0.385000 0.990000
vt 0.615000 0.990000
vt 0.615000 1.000000
vt 0.385000 1.000000
vt 0.135000 0.510000
vt 0.135000 0.740000
vt 0.125000 0.740000
vt 0.125000 0.510000
vt 0.375000 0.990000
vt 0.365000 0.510000
vt 0.365000 0.740000
vt 0.375000 0.760000
vt 0.385000 0.760000
vt 0.135000 0.500000
vt 0.365000 0.500000
vt 0.615000 0.260000
vt 0.385000 0.260000
vt 0.615000 0.490000
vt 0.385000 0.490000
vt 0.615000 0.510000
vt 0.385000 0.510000
vt 0.375000 0.510000
vt 0.385000 0.500000
vt 0.615000 0.740000
vt 0.385000 0.740000
vt 0.635000 0.510000
vt 0.635000 0.740000
vt 0.615000 0.500000
vt 0.625000 0.510000
vt 0.865000 0.510000
vt 0.865000 0.740000
vt 0.635000 0.500000
vt 0.865000 0.500000
vt 0.625000 0.760000
vt 0.625000 0.990000
vt 0.615000 0.760000
vt 0.615000 0.750000
vt 0.385000 0.750000
vt 0.875000 0.510000
vt 0.875000 0.740000
s 0
usemtl Material
f 529/969/573 530/970/573 552/971/573 531/972/573
f 532/973/574 550/974/574 530/975/574 529/976/574
f 535/977/575 533/978/575 529/979/575 531/980/575
f 533/981/576 532/973/576 529/976/576
f 535/977/577 536/982/577 534/983/577 533/978/577
f 533/981/578 534/984/578 551/985/578 532/973/578
f 536/982/579 535/977/579 537/986/579 539/987/579
f 531/980/580 537/986/580 535/977/580
f 538/988/581 537/989/581 531/972/581 552/971/581
f 537/989/582 538/988/582 540/990/582 539/991/582
f 543/992/583 541/993/583 539/991/583 540/990/583
f 536/994/584 539/995/584 541/993/584
f 541/993/585 543/992/585 544/996/585 542/997/585
f 534/983/586 536/982/586 541/993/586 542/997/586
f 545/998/587 547/999/587 544/996/587 543/992/587
f 540/1000/588 545/1001/588 543/992/588
f 545/998/589 546/1002/589 548/1003/589 547/999/589
f 546/1002/590 545/998/590 540/1004/590 538/1005/590
f 547/1006/591 548/1007/591 550/974/591 549/1008/591
f 544/1009/592 547/1006/592 549/1008/592
f 551/985/593 549/1008/593 550/974/593 532/973/593
f 549/1008/594 551/985/594 542/997/594 544/996/594
f 542/1010/595 551/985/595 534/984/595
f 530/975/596 550/974/596 548/1007/596
f 548/1003/597 546/1002/597 552/1011/597 530/1012/597
f 538/1005/598 552/1011/598 546/1002/598
o Cube.015
v 0.990930 1.986521 0.289205
v 1.028172 2.790829 0.297628
v 1.001223 1.983567 -0.506497
v 1.075422 1.986341 0.329508
v 1.082374 1.952262 0.296735
v 2.915743 1.945941 0.279596
v 1.081223 1.948736 -0.506497
v 2.921223 1.948736 -0.506497
v 1.081223 1.983567 -0.541327
v 1.081223 2.784659 -0.541327
v 2.921223 1.983567 -0.541327
v 2.921223 2.784659 -0.541327
v 3.001223 1.983567 -0.506497
v 2.999316 1.982418 0.295171
v 2.972350 2.782062 -0.496680
v 2.999384 2.782174 0.295845
v 2.918303 2.811864 -0.499693
v 1.095522 2.809302 -0.511610
v 2.921885 2.811525 0.303348
v 1.050217 2.819744 0.299018
v 2.902380 2.780258 0.321892
v 1.081814 2.785958 0.329178
v 2.929050 1.980734 0.337214
v 1.003431 2.781414 -0.492366
vn -0.9997 0.0245 0.0089
vn -0.4612 0.0081 0.8872
vn -0.3738 -0.9275 0.0016
vn -0.3125 -0.6908 0.6520
vn -0.0017 -1.0000 0.0005
vn -0.0010 -0.7954 0.6061
vn -0.0000 -0.7071 -0.7071
vn -0.2942 -0.6758 -0.6758
vn -0.4691 0.0085 -0.8831
vn -0.0000 -0.0000 -1.0000
vn 0.5185 0.0146 -0.8550
vn 0.2942 -0.6758 -0.6758
vn 0.9997 0.0181 -0.0157
vn 0.3996 -0.9167 -0.0004
vn 0.4099 0.9121 -0.0077
vn 0.4468 0.7630 -0.4672
vn 0.0016 1.0000 -0.0062
vn 0.0013 0.8089 -0.5880
vn 0.0029 0.5997 0.8002
vn 0.2323 0.3849 0.8933
vn -0.0001 0.0098 1.0000
vn 0.3767 0.0147 0.9262
vn 0.2870 -0.8479 0.4457
vn -0.4606 0.3112 0.8312
vn -0.4476 0.8941 -0.0168
vn -0.3450 0.7974 -0.4952
vt 0.385000 0.010000
vt 0.615000 0.010000
vt 0.615000 0.240000
vt 0.385000 0.240000
vt 0.385000 0.990000
vt 0.615000 0.990000
vt 0.615000 1.000000
vt 0.385000 1.000000
vt 0.135000 0.510000
vt 0.135000 0.740000
vt 0.125000 0.740000
vt 0.125000 0.510000
vt 0.375000 0.990000
vt 0.365000 0.510000
vt 0.365000 0.740000
vt 0.375000 0.760000
vt 0.385000 0.760000
vt 0.135000 0.500000
vt 0.365000 0.500000
vt 0.615000 0.260000
vt 0.385000 0.260000
vt 0.615000 0.490000
vt 0.385000 0.490000
vt 0.615000 0.510000
vt 0.385000 0.510000
vt 0.375000 0.510000
vt 0.385000 0.500000
vt 0.615000 0.740000
vt 0.385000 0.740000
vt 0.635000 0.510000
vt 0.635000 0.740000
vt 0.615000 0.500000
vt 0.625000 0.510000
vt 0.865000 0.510000
vt 0.865000 0.740000
vt 0.635000 0.500000
vt 0.865000 0.500000
vt 0.625000 0.760000
vt 0.625000 0.990000
vt 0.615000 0.760000
vt 0.615000 0.750000
vt 0.385000 0.750000
vt 0.875000 0.510000
vt 0.875000 0.740000
s 0
usemtl Material
f 553/1013/599 554/1014/599 576/1015/599 555/1016/599
f 556/1017/600 574/1018/600 554/1019/600 553/1020/600
f 559/1021/601 557/1022/601 553/1023/601 555/1024/601
f 557/1025/602 556/1017/602 553/1020/602
f 559/1021/603 560/1026/603 558/1027/603 557/1022/603
f 557/1025/604 558/1028/604 575/1029/604 556/1017/604
f 560/1026/605 559/1021/605 561/1030/605 563/1031/605
f 555/1024/606 561/1030/606 559/1021/606
f 562/1032/607 561/1033/607 555/1016/607 576/1015/607
f 561/1033/608 562/1032/608 564/1034/608 563/1035/608
f 567/1036/609 565/1037/609 563/1035/609 564/1034/609
f 560/1038/610 563/1039/610 565/1037/610
f 565/1037/611 567/1036/611 568/1040/611 566/1041/611
f 558/1027/612 560/1026/612 565/1037/612 566/1041/612
f 569/1042/613 571/1043/613 568/1040/613 567/1036/613
f 564/1044/614 569/1045/614 567/1036/614
f 569/1042/615 570/1046/615 572/1047/615 571/1043/615
f 570/1046/616 569/1042/616 564/1048/616 562/1049/616
f 571/1050/617 572/1051/617 574/1018/617 573/1052/617
f 568/1053/618 571/1050/618 573/1052/618
f 575/1029/619 573/1052/619 574/1018/619 556/1017/619
f 573/1052/620 575/1029/620 566/1041/620 568/1040/620
f 566/1054/621 575/1029/621 558/1028/621
f 554/1019/622 574/1018/622 572/1051/622
f 572/1047/623 570/1046/623 576/1055/623 554/1056/623
f 562/1049/624 576/1055/624 570/1046/624
