# Blender 4.3.2
# www.blender.org
mtllib pine1.mtl
o Cylinder
v -0.027820 0.043260 -1.296852
v 0.356585 15.765420 -0.258199
v 0.889192 0.043260 -0.917013
v 0.538874 15.775624 -0.182574
v 1.269031 0.043260 -0.000000
v 0.614380 15.779851 -0.000000
v 0.889192 0.043260 0.917012
v 0.538874 15.775624 0.182574
v -0.027820 0.043260 1.296852
v 0.356585 15.765420 0.258199
v -0.944833 0.043260 0.917012
v 0.174296 15.755215 0.182574
v -1.324672 0.043260 -0.000000
v 0.098789 15.750989 -0.000000
v -0.944833 0.043260 -0.917013
v 0.174296 15.755215 -0.182574
v -0.027820 1.117792 -0.948867
v 0.643130 1.117792 -0.670950
v 0.921046 1.117792 -0.000000
v 0.643130 1.117792 0.670950
v -0.027820 1.117792 0.948866
v -0.698770 1.117792 0.670950
v -0.976687 1.117792 -0.000000
v -0.698770 1.117792 -0.670950
v -0.098114 5.986051 -0.645384
v 0.350264 6.071005 -0.456355
v 0.535988 6.106195 -0.000000
v 0.350264 6.071005 0.456355
v -0.098114 5.986051 0.645384
v -0.546492 5.901097 0.456355
v -0.732216 5.865908 -0.000000
v -0.546492 5.901097 -0.456356
v 0.281100 11.467453 -0.487655
v 0.625911 11.470463 -0.344824
v 0.768736 11.471708 -0.000000
v 0.625911 11.470463 0.344824
v 0.281100 11.467453 0.487655
v -0.063711 11.464441 0.344824
v -0.206537 11.463196 -0.000000
v -0.063711 11.464441 -0.344824
vn 0.3816 0.0426 -0.9233
vn 0.9233 0.0331 -0.3826
vn 0.9233 0.0331 0.3826
vn 0.3816 0.0426 0.9233
vn -0.3835 0.0560 0.9219
vn -0.9222 0.0656 0.3811
vn -0.0559 0.9984 -0.0000
vn -0.9222 0.0656 -0.3811
vn -0.3835 0.0560 -0.9219
vn -0.0000 -1.0000 -0.0000
vn -0.3666 0.2866 -0.8851
vn -0.8851 0.2866 -0.3666
vn -0.8851 0.2866 0.3666
vn -0.3666 0.2866 0.8851
vn 0.3666 0.2866 0.8851
vn 0.8851 0.2866 0.3666
vn 0.8851 0.2866 -0.3666
vn 0.3666 0.2866 -0.8851
vn -0.3879 0.0527 -0.9202
vn -0.9243 0.0470 -0.3787
vn -0.9243 0.0470 0.3787
vn -0.3879 0.0527 0.9202
vn 0.3802 0.0627 0.9228
vn 0.9217 0.0711 0.3813
vn 0.9217 0.0711 -0.3813
vn 0.3802 0.0627 -0.9228
vn -0.3904 0.0529 -0.9191
vn -0.9231 0.0872 -0.3746
vn -0.9231 0.0872 0.3746
vn -0.3904 0.0529 0.9191
vn 0.3860 -0.0004 0.9225
vn 0.9251 -0.0398 0.3776
vn 0.9251 -0.0398 -0.3776
vn 0.3860 -0.0004 -0.9225
vt 1.000000 0.845339
vt 1.000000 1.000000
vt 0.875000 1.000000
vt 0.875000 0.845339
vt 0.750000 1.000000
vt 0.750000 0.845339
vt 0.625000 1.000000
vt 0.625000 0.845339
vt 0.500000 1.000000
vt 0.500000 0.845339
vt 0.375000 1.000000
vt 0.375000 0.845339
vt 0.250000 1.000000
vt 0.250000 0.845339
vt 0.419706 0.419706
vt 0.250000 0.490000
vt 0.080294 0.419706
vt 0.010000 0.250000
vt 0.080294 0.080294
vt 0.250000 0.010000
vt 0.419706 0.080294
vt 0.490000 0.250000
vt 0.125000 1.000000
vt 0.125000 0.845339
vt 0.000000 1.000000
vt 0.000000 0.845339
vt 0.750000 0.490000
vt 0.919706 0.419706
vt 0.990000 0.250000
vt 0.919706 0.080294
vt 0.750000 0.010000
vt 0.580294 0.080294
vt 0.510000 0.250000
vt 0.580294 0.419706
vt 0.125000 0.500000
vt 0.125000 0.534466
vt 0.000000 0.534466
vt 0.000000 0.500000
vt 0.250000 0.500000
vt 0.250000 0.534466
vt 0.375000 0.500000
vt 0.375000 0.534466
vt 0.500000 0.500000
vt 0.500000 0.534466
vt 0.625000 0.500000
vt 0.625000 0.534466
vt 0.750000 0.500000
vt 0.750000 0.534466
vt 0.875000 0.500000
vt 0.875000 0.534466
vt 1.000000 0.500000
vt 1.000000 0.534466
vt 0.125000 0.702678
vt 0.000000 0.702678
vt 0.250000 0.702678
vt 0.375000 0.702679
vt 0.500000 0.702678
vt 0.625000 0.702678
vt 0.750000 0.702678
vt 0.875000 0.702678
vt 1.000000 0.702678
s 0
usemtl Material.001
f 33/1/1 2/2/1 4/3/1 34/4/1
f 34/4/2 4/3/2 6/5/2 35/6/2
f 35/6/3 6/5/3 8/7/3 36/8/3
f 36/8/4 8/7/4 10/9/4 37/10/4
f 37/10/5 10/9/5 12/11/5 38/12/5
f 38/12/6 12/11/6 14/13/6 39/14/6
f 4/15/7 2/16/7 16/17/7 14/18/7 12/19/7 10/20/7 8/21/7 6/22/7
f 39/14/8 14/13/8 16/23/8 40/24/8
f 40/24/9 16/23/9 2/25/9 33/26/9
f 1/27/10 3/28/10 5/29/10 7/30/10 9/31/10 11/32/10 13/33/10 15/34/10
f 15/35/11 24/36/11 17/37/11 1/38/11
f 13/39/12 23/40/12 24/36/12 15/35/12
f 11/41/13 22/42/13 23/40/13 13/39/13
f 9/43/14 21/44/14 22/42/14 11/41/14
f 7/45/15 20/46/15 21/44/15 9/43/15
f 5/47/16 19/48/16 20/46/16 7/45/16
f 3/49/17 18/50/17 19/48/17 5/47/17
f 1/51/18 17/52/18 18/50/18 3/49/18
f 24/36/19 32/53/19 25/54/19 17/37/19
f 23/40/20 31/55/20 32/53/20 24/36/20
f 22/42/21 30/56/21 31/55/21 23/40/21
f 21/44/22 29/57/22 30/56/22 22/42/22
f 20/46/23 28/58/23 29/57/23 21/44/23
f 19/48/24 27/59/24 28/58/24 20/46/24
f 18/50/25 26/60/25 27/59/25 19/48/25
f 17/52/26 25/61/26 26/60/26 18/50/26
f 32/53/27 40/24/27 33/26/27 25/54/27
f 31/55/28 39/14/28 40/24/28 32/53/28
f 30/56/29 38/12/29 39/14/29 31/55/29
f 29/57/30 37/10/30 38/12/30 30/56/30
f 28/58/31 36/8/31 37/10/31 29/57/31
f 27/59/32 35/6/32 36/8/32 28/58/32
f 26/60/33 34/4/33 35/6/33 27/59/33
f 25/61/34 33/1/34 34/4/34 26/60/34
o Cylinder.001
v 0.077355 3.153691 -3.755277
v 0.243646 9.352631 -0.017856
v 2.719615 3.090282 -2.677816
v 3.826244 3.060814 -0.047041
v 2.748996 3.082549 2.595976
v 0.118906 3.142755 3.702992
v -2.523353 3.206165 2.625531
v -3.629982 3.235633 -0.005245
v -2.552734 3.213897 -2.648262
v 2.567491 3.536797 2.406612
v 2.921906 3.079060 2.171744
v 2.235835 3.101892 -2.875092
v 2.446615 3.780766 -2.384530
v -2.501354 6.839086 -1.119089
v 0.143260 12.160678 0.096304
v -0.761937 6.886385 -2.759034
v 1.626247 6.980278 -2.688423
v 3.264234 7.065762 -0.948619
v 3.192512 7.092763 1.441225
v 1.453096 7.045464 3.081170
v -0.935089 6.951571 3.010559
v -2.573075 6.866087 1.270754
v 1.246464 6.965346 -2.699652
v 1.546660 7.258294 -2.538975
v -0.765144 7.772511 2.551281
v -0.174282 6.981483 3.033054
v 0.310300 10.524777 -2.283279
v 0.310300 16.750523 -0.030001
v 1.903608 10.524777 -1.623309
v 2.563578 10.524778 -0.030001
v 1.903608 10.524777 1.563307
v 0.310300 10.524777 2.223277
v -1.283009 10.524777 1.563308
v -1.942979 10.524778 -0.030001
v -1.283009 10.524777 -1.623309
v -1.090048 11.278757 1.370347
v -1.053946 10.524777 1.658188
v 0.059589 10.524777 -2.179431
v 0.310300 11.045904 -2.094669
v -1.200207 12.577036 -0.030001
v 1.571924 11.820810 1.231624
v -0.696013 12.818422 -1.036314
v 0.310300 12.340044 1.566280
v 1.208587 13.240526 -0.928288
v 1.451314 12.292084 -1.171016
v 0.310300 13.279444 -1.286286
v -0.792089 12.443012 1.072388
v 2.047209 11.951490 -0.030001
v 1.713855 12.088980 -0.714654
v -0.791874 13.041267 -0.610169
v -1.169936 12.410211 -0.248848
v 1.699814 12.090967 0.686813
v 1.959315 11.741869 0.365355
v -0.066468 12.717145 -1.333735
v -0.356198 12.477731 1.240375
v 1.190970 12.393600 -1.242113
v 0.879417 12.313336 -1.400211
v 0.581877 12.718620 -1.376773
v -1.167715 12.331764 0.262752
v -1.004143 12.183191 0.787469
v -0.917057 12.327404 0.871706
v 0.075769 3.041571 -3.569243
v 0.238553 9.135476 -0.018146
v 2.542142 2.988887 -2.604299
v 3.637489 2.953331 -0.046147
v 2.672891 2.979109 2.420790
v 0.115246 3.031181 3.516659
v -2.395094 3.091425 2.492992
v -3.446473 3.119421 -0.006437
v -2.423008 3.098772 -2.517497
v 2.440626 3.428200 2.267709
v 2.743624 2.977879 2.099911
v 2.161685 2.997937 -2.699373
v 2.307061 3.672051 -2.258483
v -2.327331 6.734861 -1.041402
v 0.151713 11.943645 0.099010
v -0.691579 6.779341 -2.583611
v 1.492196 6.871179 -2.556857
v 3.094644 6.948028 -0.881091
v 3.027197 6.973420 1.366325
v 1.391445 6.928939 2.908534
v -0.792832 6.849986 2.881619
v -2.394778 6.760253 1.206014
v 1.244870 6.862149 -2.508525
v 1.461900 7.145319 -2.373947
v -0.675080 7.662132 2.387309
v -0.164482 6.873996 2.844553
v 0.231466 10.455894 -2.092957
v 0.310300 16.533310 -0.030001
v 1.759183 10.450854 -1.478884
v 2.359330 10.450854 -0.030001
v 1.759183 10.450854 1.418882
v 0.310300 10.450854 2.019029
v -1.092687 10.455894 1.484474
v -1.738730 10.450854 -0.030001
v -1.138583 10.450854 -1.478884
v -0.942557 11.204849 1.229046
v -0.975113 10.455894 1.467867
v 0.138422 10.455894 -1.989110
v 0.303331 10.972018 -1.890526
v -0.995958 12.503113 -0.030001
v 1.427499 11.746887 1.087198
v -0.551588 12.744500 -0.891889
v 0.310300 12.266121 1.362031
v 1.064162 13.166603 -0.783863
v 1.306889 12.218161 -1.026590
v 0.310300 13.205520 -1.082037
v -0.647664 12.369089 0.927963
v 1.842961 11.877567 -0.030001
v 1.523533 12.020097 -0.635820
v -0.601553 12.972385 -0.531335
v -0.979615 12.341328 -0.170014
v 1.509492 12.022084 0.607980
v 1.768994 11.672986 0.286521
v 0.012366 12.648262 -1.143414
v -0.277364 12.408848 1.050053
v 1.112136 12.324717 -1.051791
v 0.800583 12.244453 -1.209890
v 0.503043 12.649737 -1.186451
v -0.977394 12.262882 0.183918
v -0.813822 12.114307 0.708635
v -0.726735 12.258520 0.792872
vn 0.3414 0.4786 -0.8090
vn 0.8170 0.4668 -0.3385
vn 0.8208 0.4658 0.3307
vn 0.3504 0.4762 0.8065
vn -0.3186 0.4919 0.8103
vn -0.7943 0.5037 0.3398
vn -0.7980 0.5047 -0.3294
vn -0.3276 0.4943 -0.8052
vn -0.6178 0.4537 -0.6422
vn 0.0073 0.4751 -0.8799
vn 0.6171 0.5023 -0.6057
vn 0.8544 0.5193 0.0198
vn 0.5801 0.5162 0.6301
vn -0.0451 0.4948 0.8678
vn -0.6549 0.4677 0.5936
vn -0.8921 0.4506 -0.0319
vn 0.3629 0.3171 -0.8762
vn 0.8762 0.3171 -0.3629
vn 0.8762 0.3171 0.3629
vn 0.3629 0.3171 0.8762
vn -0.3629 0.3171 0.8762
vn -0.8762 0.3171 0.3629
vn -0.8762 0.3171 -0.3629
vn -0.3629 0.3171 -0.8762
vn -0.3472 -0.4647 0.8146
vn -0.8211 -0.4535 0.3465
vn -0.8269 -0.4516 -0.3350
vn -0.3569 -0.4626 -0.8115
vn 0.3215 -0.4794 -0.8166
vn 0.8009 -0.4912 -0.3424
vn 0.8047 -0.4922 0.3320
vn 0.3306 -0.4818 0.8116
vn 0.6229 -0.4383 0.6480
vn -0.0087 -0.4580 0.8889
vn -0.6210 -0.4861 0.6149
vn -0.8632 -0.5045 -0.0202
vn -0.5863 -0.5014 -0.6363
vn 0.0515 -0.4781 -0.8768
vn 0.6539 -0.4525 -0.6064
vn 0.8998 -0.4352 0.0319
vn -0.3614 -0.3171 0.8768
vn -0.8756 -0.3207 0.3614
vn -0.8748 -0.3226 -0.3614
vn -0.3629 -0.3171 -0.8762
vn 0.3643 -0.3160 -0.8760
vn 0.8747 -0.3178 -0.3659
vn 0.8760 -0.3205 0.3604
vn 0.3642 -0.3156 0.8762
vn -0.8701 -0.2900 0.3986
vn 0.8823 -0.2791 0.3791
vn -0.8860 -0.2871 -0.3642
vn 0.3484 -0.2828 0.8936
vn -0.3536 -0.2901 -0.8893
vn 0.3702 -0.2843 -0.8844
vn -0.3641 -0.2865 0.8862
vn 0.8873 -0.2849 -0.3627
vn 0.4536 -0.8677 -0.2034
vn 0.1820 -0.8622 0.4727
vn -0.2254 -0.8339 0.5038
vn -0.5221 -0.8266 0.2103
vn -0.5244 -0.8259 -0.2069
vn -0.2310 -0.8324 -0.5037
vn -0.5951 0.1475 -0.7900
vn 0.7887 0.1338 -0.6000
vn 0.4557 -0.8682 0.1962
vn -0.2129 -0.5208 0.8267
vn 0.1773 -0.8608 -0.4770
vn 0.8514 -0.4304 0.2996
vn -0.3409 -0.8571 -0.3863
vn 0.4060 -0.8463 -0.3450
vn 0.5772 -0.8162 0.0265
vn 0.4061 -0.8181 0.4072
vn -0.3393 -0.8664 0.3663
vn -0.5119 -0.8590 -0.0057
vn -0.8445 0.1427 -0.5162
vn 0.8277 0.1670 0.5357
vn 0.0525 -0.8620 -0.5042
vn 0.7759 -0.6049 -0.1790
vn 0.0133 -0.8506 0.5257
vn -0.8414 -0.5328 0.0909
vn 0.1275 -0.9401 -0.3160
vn 0.3370 -0.9311 -0.1396
vn 0.3370 -0.9311 0.1396
vn 0.1396 -0.9311 0.3370
vn -0.3136 -0.9401 0.1333
vn -0.3370 -0.9311 -0.1396
vn 0.5750 0.1106 0.8106
vn -0.1339 -0.9401 0.3135
vn -0.8468 -0.1777 -0.5014
vn -0.1270 -0.9401 -0.3164
vn -0.9776 0.1301 -0.1655
vn 0.9074 -0.3143 -0.2791
vt 1.000000 0.500000
vt 0.875000 1.000000
vt 0.875000 0.555130
vt 0.897887 0.500000
vt 0.875000 0.500000
vt 0.861217 0.555130
vt 0.750000 1.000000
vt 0.750000 0.500000
vt 0.625000 1.000000
vt 0.625000 0.536223
vt 0.645064 0.500000
vt 0.625000 0.500000
vt 0.615944 0.536223
vt 0.500000 1.000000
vt 0.500000 0.500000
vt 0.375000 1.000000
vt 0.375000 0.500000
vt 0.250000 1.000000
vt 0.250000 0.500000
vt 0.125000 1.000000
vt 0.125000 0.500000
vt 0.000000 1.000000
vt 0.000000 0.500000
vt 0.750000 0.526833
vt 0.769878 0.500000
vt 0.743292 0.526833
vt 0.250000 0.578799
vt 0.289821 0.500000
vt 0.230300 0.578799
vt 0.989537 0.541852
vt 0.944692 0.721232
vt 0.934646 0.676191
vt 0.919440 0.643642
vt 0.893387 0.650088
vt 0.875000 0.718106
vt 0.875000 0.641935
vt 0.839516 0.641935
vt 0.803713 0.625624
vt 0.750000 0.614582
vt 0.721355 0.614582
vt 0.694546 0.597747
vt 0.662318 0.625783
vt 0.625000 0.604087
vt 0.598978 0.604087
vt 0.500000 0.645787
vt 0.463553 0.645787
vt 0.408500 0.656845
vt 0.375000 0.654057
vt 0.375000 0.560553
vt 0.392971 0.500000
vt 0.359862 0.560553
vt 0.336486 0.654057
vt 0.320742 0.644772
vt 0.314133 0.633190
vt 0.272967 0.645122
vt 0.250000 0.664820
vt 0.208795 0.664820
vt 0.194975 0.651422
vt 0.153958 0.702104
vt 0.125000 0.684206
vt 0.078948 0.684206
vt 0.029559 0.676073
vt 0.000000 0.721232
vt 0.000000 0.541852
vt 0.019669 0.500000
vt 0.820473 0.718106
s 0
usemtl Material.005
f 41/62/35 42/63/35 53/64/35 52/65/35
f 43/66/36 53/67/36 42/68/36 44/69/36
f 44/69/37 42/70/37 50/71/37 51/72/37
f 45/73/38 50/74/38 42/75/38 46/76/38
f 46/76/39 42/77/39 47/78/39
f 47/78/40 42/79/40 48/80/40
f 48/80/41 42/81/41 49/82/41
f 49/82/42 42/83/42 41/84/42
f 54/62/43 55/63/43 56/66/43
f 56/66/44 55/68/44 64/85/44 63/86/44
f 57/69/45 64/87/45 55/70/45 58/73/45
f 58/73/46 55/75/46 59/76/46
f 59/76/47 55/77/47 60/78/47
f 60/78/48 55/79/48 65/88/48 66/89/48
f 61/80/49 65/90/49 55/81/49 62/82/49
f 62/82/50 55/83/50 54/84/50
f 67/62/51 79/91/51 86/92/51 98/93/51 97/94/51 96/95/51 84/96/51 85/97/51 69/66/51
f 69/66/52 85/98/52 89/99/52 88/100/52 70/69/52
f 70/69/53 88/101/53 93/102/53 92/103/53 81/104/53 71/73/53
f 71/73/54 81/105/54 83/106/54 72/76/54
f 72/76/55 83/107/55 95/108/55 87/109/55 76/110/55 77/111/55
f 73/78/56 76/112/56 87/113/56 101/114/56 100/115/56 99/116/56 80/117/56 74/80/56
f 74/80/57 80/118/57 91/119/57 90/120/57 82/121/57 75/82/57
f 75/82/58 82/122/58 94/123/58 86/124/58 79/125/58 78/126/58
f 102/62/59 113/65/59 114/64/59 103/63/59
f 104/66/60 105/69/60 103/68/60 114/67/60
f 105/69/61 112/72/61 111/71/61 103/70/61
f 106/73/62 107/76/62 103/75/62 111/74/62
f 107/76/63 108/78/63 103/77/63
f 108/78/64 109/80/64 103/79/64
f 109/80/65 110/82/65 103/81/65
f 110/82/66 102/84/66 103/83/66
f 115/62/67 117/66/67 116/63/67
f 117/66/68 124/86/68 125/85/68 116/68/68
f 118/69/69 119/73/69 116/70/69 125/87/69
f 119/73/70 120/76/70 116/75/70
f 120/76/71 121/78/71 116/77/71
f 121/78/72 127/89/72 126/88/72 116/79/72
f 122/80/73 123/82/73 116/81/73 126/90/73
f 123/82/74 115/84/74 116/83/74
f 128/62/75 130/66/75 146/97/75 145/96/75 157/95/75 158/94/75 159/93/75 147/92/75 140/91/75
f 130/66/76 131/69/76 149/100/76 150/99/76 146/98/76
f 131/69/77 132/73/77 142/104/77 153/103/77 154/102/77 149/101/77
f 132/73/78 133/76/78 144/106/78 142/105/78
f 133/76/79 138/111/79 137/110/79 148/109/79 156/108/79 144/107/79
f 134/78/80 135/80/80 141/117/80 160/116/80 161/115/80 162/114/80 148/113/80 137/112/80
f 135/80/81 136/82/81 143/121/81 151/120/81 152/119/81 141/118/81
f 136/82/82 139/126/82 140/125/82 147/124/82 155/123/82 143/122/82
f 43/66/91 44/69/91 105/69/91 104/66/91
f 45/73/92 46/76/92 107/76/92 106/73/92
f 46/76/93 47/78/93 108/78/93 107/76/93
f 47/78/94 48/80/94 109/80/94 108/78/94
f 48/80/95 49/82/95 110/82/95 109/80/95
f 49/82/96 41/84/96 102/84/96 110/82/96
f 53/67/97 43/66/97 104/66/97 114/67/97
f 50/74/98 45/73/98 106/73/98 111/74/98
f 44/69/99 51/72/99 112/72/99 105/69/99
f 51/72/100 50/71/100 111/71/100 112/72/100
f 41/62/101 52/65/101 113/65/101 102/62/101
f 52/65/102 53/64/102 114/64/102 113/65/102
f 54/62/103 56/66/103 117/66/103 115/62/103
f 57/69/104 58/73/104 119/73/104 118/69/104
f 58/73/105 59/76/105 120/76/105 119/73/105
f 59/76/106 60/78/106 121/78/106 120/76/106
f 61/80/107 62/82/107 123/82/107 122/80/107
f 62/82/108 54/84/108 115/84/108 123/82/108
f 64/87/109 57/69/109 118/69/109 125/87/109
f 65/90/110 61/80/110 122/80/110 126/90/110
f 56/66/111 63/86/111 124/86/111 117/66/111
f 63/86/112 64/85/112 125/85/112 124/86/112
f 60/78/113 66/89/113 127/89/113 121/78/113
f 66/89/114 65/88/114 126/88/114 127/89/114
f 67/62/115 69/66/115 130/66/115 128/62/115
f 69/66/116 70/69/116 131/69/116 130/66/116
f 70/69/117 71/73/117 132/73/117 131/69/117
f 71/73/118 72/76/118 133/76/118 132/73/118
f 73/78/119 74/80/119 135/80/119 134/78/119
f 74/80/120 75/82/120 136/82/120 135/80/120
f 76/112/121 73/78/121 134/78/121 137/112/121
f 72/76/122 77/111/122 138/111/122 133/76/122
f 77/111/123 76/110/123 137/110/123 138/111/123
f 75/82/124 78/126/124 139/126/124 136/82/124
f 79/91/125 67/62/125 128/62/125 140/91/125
f 78/126/126 79/125/126 140/125/126 139/126/126
usemtl Material.006
f 88/100/52 89/99/52 85/98/52 84/127/52 68/68/52
f 82/121/57 90/120/57 91/119/57 80/118/57 68/81/57
f 81/104/53 92/103/53 93/102/53 88/101/53 68/70/53
f 86/124/58 94/123/58 82/122/58 68/83/58
f 83/106/54 81/105/54 68/75/54
f 87/109/55 95/108/55 83/107/55 68/77/55
f 84/96/51 96/95/51 97/94/51 98/93/51 86/92/51 68/63/51
f 80/117/56 99/116/56 100/115/56 101/114/56 87/113/56 68/79/56
f 149/100/83 129/68/83 145/127/83 146/98/83 150/99/83
f 143/121/84 129/81/84 141/118/84 152/119/84 151/120/84
f 142/104/85 129/70/85 149/101/85 154/102/85 153/103/85
f 147/124/86 129/83/86 143/122/86 155/123/86
f 144/106/87 129/75/87 142/105/87
f 148/109/88 129/77/88 144/107/88 156/108/88
f 145/96/89 129/63/89 147/92/89 159/93/89 158/94/89 157/95/89
f 141/117/90 129/79/90 148/113/90 162/114/90 161/115/90 160/116/90
