# Blender 4.3.2
# www.blender.org
mtllib pine2.mtl
o Cylinder
v -1.130844 0.713719 -2.675469
v -1.014784 42.571510 -0.270034
v 0.860068 0.713719 -1.850806
v -0.363524 42.600639 -0.003122
v 1.684730 0.713719 0.140105
v -0.091527 42.612072 0.646583
v 0.860068 0.713719 2.131016
v -0.358126 42.599113 1.298493
v -1.130844 0.713719 2.955679
v -1.007150 42.569355 1.570729
v -3.121755 0.713719 2.131016
v -1.658410 42.540230 1.303817
v -3.946418 0.713719 0.140105
v -1.930407 42.528793 0.654112
v -3.121755 0.713719 -1.850806
v -1.663808 42.541752 0.002201
v -1.130844 6.656384 -2.042737
v 0.412659 6.656385 -1.403398
v 1.051999 6.656385 0.140105
v 0.412659 6.656385 1.683608
v -1.130844 6.656385 2.322948
v -2.674346 6.656385 1.683608
v -3.313686 6.656385 0.140105
v -2.674346 6.656385 -1.403398
v -1.844992 23.131443 -1.622180
v -0.328550 23.152311 -0.996236
v 0.301176 23.160475 0.518761
v -0.324699 23.151159 2.035347
v -3.320602 23.178997 2.609335
v -4.837044 23.158134 1.983391
v -3.985713 23.100790 0.524184
v -3.359838 23.110106 -0.992402
v -0.228898 40.601845 -2.405078
v 0.716033 41.047089 -2.534157
v 1.949764 40.697559 -0.242084
v 1.320656 40.666985 1.296266
v -0.210883 40.596760 1.938675
v -1.747699 40.528023 1.308828
v -2.389545 40.501041 -0.224318
v -1.760437 40.531620 -1.762669
vn -0.1688 0.7530 -0.6360
vn 0.6056 0.7641 -0.2222
vn 0.7187 0.6241 0.3063
vn 0.3559 0.3082 0.8822
vn -0.3799 0.0192 0.9248
vn -0.9219 0.0419 0.3852
vn -0.0452 0.9990 0.0014
vn -0.8701 0.3482 -0.3489
vn -0.3240 0.6329 -0.7032
vn -0.0000 -1.0000 -0.0000
vn -0.3808 0.0979 -0.9194
vn -0.9194 0.0979 -0.3808
vn -0.9194 0.0979 0.3808
vn -0.3808 0.0979 0.9194
vn 0.3808 0.0979 0.9194
vn 0.9194 0.0979 0.3808
vn 0.9194 0.0979 -0.3808
vn 0.3808 0.0979 -0.9194
vn -0.3833 0.0070 -0.9236
vn -0.9237 -0.0289 -0.3820
vn -0.9941 -0.0841 -0.0686
vn -0.3809 -0.0666 0.9222
vn 0.2582 0.0042 0.9661
vn 0.9236 0.0332 0.3820
vn 0.9224 0.0508 -0.3829
vn 0.3816 0.0400 -0.9235
vn -0.3852 -0.0056 -0.9228
vn -0.9231 0.0682 -0.3783
vn -0.9888 0.1303 -0.0729
vn -0.3809 0.1034 0.9188
vn 0.2594 0.0037 0.9658
vn 0.9230 -0.0706 0.3783
vn 0.8905 -0.0965 -0.4445
vn 0.2117 -0.0799 -0.9741
vt 1.000000 0.814808
vt 1.000000 1.000000
vt 0.875000 1.000000
vt 0.875000 0.814808
vt 0.750000 1.000000
vt 0.750000 0.814808
vt 0.625000 1.000000
vt 0.625000 0.814808
vt 0.500000 1.000000
vt 0.500000 0.814808
vt 0.375000 1.000000
vt 0.375000 0.814808
vt 0.250000 1.000000
vt 0.250000 0.814808
vt 0.419706 0.419706
vt 0.250000 0.490000
vt 0.080294 0.419706
vt 0.010000 0.250000
vt 0.080294 0.080294
vt 0.250000 0.010000
vt 0.419706 0.080294
vt 0.490000 0.250000
vt 0.125000 1.000000
vt 0.125000 0.814808
vt 0.000000 1.000000
vt 0.000000 0.814808
vt 0.750000 0.490000
vt 0.919706 0.419706
vt 0.990000 0.250000
vt 0.919706 0.080294
vt 0.750000 0.010000
vt 0.580294 0.080294
vt 0.510000 0.250000
vt 0.580294 0.419706
vt 0.125000 0.500000
vt 0.125000 0.545238
vt 0.000000 0.545238
vt 0.000000 0.500000
vt 0.250000 0.500000
vt 0.250000 0.545238
vt 0.375000 0.500000
vt 0.375000 0.545238
vt 0.500000 0.500000
vt 0.500000 0.545238
vt 0.625000 0.500000
vt 0.625000 0.545238
vt 0.750000 0.500000
vt 0.750000 0.545238
vt 0.875000 0.500000
vt 0.875000 0.545238
vt 1.000000 0.500000
vt 1.000000 0.545238
vt 0.125000 0.670238
vt 0.000000 0.670238
vt 0.250000 0.670238
vt 0.375000 0.670238
vt 0.500000 0.670238
vt 0.625000 0.670238
vt 0.750000 0.670238
vt 0.875000 0.670238
vt 1.000000 0.670238
s 0
usemtl Material.001
f 33/1/1 2/2/1 4/3/1 34/4/1
f 34/4/2 4/3/2 6/5/2 35/6/2
f 35/6/3 6/5/3 8/7/3 36/8/3
f 36/8/4 8/7/4 10/9/4 37/10/4
f 37/10/5 10/9/5 12/11/5 38/12/5
f 38/12/6 12/11/6 14/13/6 39/14/6
f 4/15/7 2/16/7 16/17/7 14/18/7 12/19/7 10/20/7 8/21/7 6/22/7
f 39/14/8 14/13/8 16/23/8 40/24/8
f 40/24/9 16/23/9 2/25/9 33/26/9
f 1/27/10 3/28/10 5/29/10 7/30/10 9/31/10 11/32/10 13/33/10 15/34/10
f 15/35/11 24/36/11 17/37/11 1/38/11
f 13/39/12 23/40/12 24/36/12 15/35/12
f 11/41/13 22/42/13 23/40/13 13/39/13
f 9/43/14 21/44/14 22/42/14 11/41/14
f 7/45/15 20/46/15 21/44/15 9/43/15
f 5/47/16 19/48/16 20/46/16 7/45/16
f 3/49/17 18/50/17 19/48/17 5/47/17
f 1/51/18 17/52/18 18/50/18 3/49/18
f 24/36/19 32/53/19 25/54/19 17/37/19
f 23/40/20 31/55/20 32/53/20 24/36/20
f 22/42/21 30/56/21 31/55/21 23/40/21
f 21/44/22 29/57/22 30/56/22 22/42/22
f 20/46/23 28/58/23 29/57/23 21/44/23
f 19/48/24 27/59/24 28/58/24 20/46/24
f 18/50/25 26/60/25 27/59/25 19/48/25
f 17/52/26 25/61/26 26/60/26 18/50/26
f 32/53/27 40/24/27 33/26/27 25/54/27
f 31/55/28 39/14/28 40/24/28 32/53/28
f 30/56/29 38/12/29 39/14/29 31/55/29
f 29/57/30 37/10/30 38/12/30 30/56/30
f 28/58/31 36/8/31 37/10/31 29/57/31
f 27/59/32 35/6/32 36/8/32 28/58/32
f 26/60/33 34/4/33 35/6/33 27/59/33
f 25/61/34 33/1/34 34/4/34 26/60/34
o Cylinder.008
v -7.659554 40.726685 1.739097
v -0.637715 47.923744 0.922641
v -6.628036 40.993732 -3.376050
v -2.289611 40.834198 -6.283396
v 2.814333 40.341537 -5.279860
v 5.693976 39.804344 -0.953298
v 4.662460 39.537296 4.161848
v 0.324033 39.696831 7.069192
v -4.779910 40.189491 6.065657
v -5.887508 10.014210 -8.933619
v -0.416943 19.784393 -0.392841
v 1.606166 9.613056 -9.892730
v 7.598446 9.620031 -5.274451
v 8.579133 10.031048 2.215895
v 3.973757 10.605335 8.190567
v -3.519917 11.006485 9.149675
v -9.512196 10.999512 4.531395
v -10.492884 10.588497 -2.958950
v -1.019888 14.683065 -9.928096
v -1.064730 23.954449 -0.222602
v 5.803280 14.946228 -7.154114
v 8.660179 15.326151 -0.370782
v 5.877278 15.600288 6.448319
v -0.915238 15.608051 9.308652
v -7.738403 15.344894 6.534669
v -10.595302 14.964970 -0.248663
v -7.812402 14.690832 -7.067763
v -0.781668 20.446314 -8.911173
v -0.526534 29.896278 0.630027
v 5.478273 19.998913 -6.374525
v 8.097174 19.499142 -0.152534
v 5.540919 19.239763 6.110043
v -0.693073 19.372715 8.744674
v -6.953012 19.820118 6.208026
v -9.571912 20.319885 -0.013964
v -7.196746 21.129166 -5.908126
v -3.088286 25.156363 -8.991976
v -0.516101 34.389042 0.630399
v 3.903416 25.132076 -8.130983
v 8.238568 25.795158 -3.242687
v 7.377697 25.367363 3.735971
v 1.825089 25.082041 8.061819
v -5.166612 25.106327 7.200824
v -9.501763 25.425999 1.657355
v -8.640891 25.853796 -5.321305
v -9.842533 31.753178 0.938664
v 0.144615 38.637695 -0.571672
v -8.093272 31.640224 -5.488687
v -2.326553 31.190643 -8.794188
v 4.079561 30.667801 -7.041520
v 7.372455 30.377964 -1.257373
v 5.623196 30.490917 5.169978
v -0.143524 30.940498 8.475478
v -6.549638 31.463343 6.722810
v -8.266374 36.151031 1.241021
v -0.095610 43.338818 -0.015164
v -7.155920 36.327538 -3.960989
v -2.703695 36.104248 -6.868394
v 2.482250 35.611961 -5.778073
v 5.364059 35.139053 -1.328724
v 4.253605 34.962547 3.873285
v -0.198620 35.185837 6.780689
v -5.384565 35.678123 5.690370
v -4.355662 41.700329 5.500268
v -6.261127 41.836185 -3.116830
v -2.222960 41.437084 -5.970847
v 4.300757 40.064247 -3.046559
v 2.672086 40.896282 -5.041953
v 4.897256 39.598083 2.997525
v 5.303010 40.684303 -0.850689
v 3.936467 39.563992 4.648363
v -7.300506 40.819637 -0.041368
v 4.298992 40.527931 3.934308
v -6.998992 42.041317 1.643837
v 0.204484 41.274372 6.390938
v -6.459204 41.940311 -1.702413
v 1.751402 40.478355 5.710603
v 2.998650 40.468899 4.857225
v -3.367349 42.119705 -4.825961
v -5.081616 41.832909 -3.883606
v -2.791727 40.560429 6.221245
v 0.998696 41.131561 -5.334729
v -0.461498 41.876465 -5.325023
v -1.392082 41.415142 -5.778850
v -6.026309 41.834362 3.124553
v -5.491971 41.453239 4.140285
v 4.523750 40.628994 -2.193081
v 3.652359 40.749893 -3.537935
v 3.222569 40.868034 -4.151220
v 4.810011 40.562687 1.582764
v 5.177354 40.550320 -0.037725
v -7.375277 40.578651 1.667423
v -0.660976 47.596905 0.900298
v -6.386305 40.839252 -3.216155
v -2.245954 40.680592 -5.996407
v 2.634517 40.195564 -5.047003
v 5.398349 39.667957 -0.910084
v 4.412714 39.406895 3.993066
v 0.252777 39.565655 6.776651
v -4.631054 40.051140 5.807655
v -5.788866 9.778553 -8.727221
v -0.433805 19.456560 -0.382616
v 1.538456 9.386606 -9.664696
v 7.393627 9.397242 -5.146867
v 8.345942 9.804083 2.171475
v 3.846101 10.368336 8.002421
v -3.469120 10.759617 8.939107
v -9.323492 10.749210 4.433396
v -10.287904 10.343027 -2.884161
v -1.013787 14.445641 -9.701259
v -1.059743 23.626125 -0.216009
v 5.655899 14.705103 -6.986778
v 8.442554 15.080616 -0.356104
v 5.719941 15.352242 6.301413
v -0.911740 15.361013 9.092266
v -7.574377 15.101755 6.386878
v -10.370116 14.726196 -0.236748
v -7.654554 14.454365 -6.903352
v -0.799080 20.213528 -8.680149
v -0.538390 29.568878 0.606944
v 5.296899 19.776178 -6.215289
v 7.844121 19.290083 -0.163598
v 5.356243 19.039997 5.926052
v -0.705367 19.172428 8.484678
v -6.788105 19.609472 6.017506
v -9.333070 20.096136 -0.041443
v -7.030930 20.889769 -5.756279
v -3.051387 24.916010 -8.771221
v -0.518871 34.061577 0.605445
v 3.811359 24.893297 -7.925135
v 8.032335 25.550995 -3.167085
v 7.172908 25.144365 3.608701
v 1.761745 24.871380 7.817946
v -5.047213 24.891981 6.982504
v -9.279662 25.195068 1.585200
v -8.465841 25.603289 -5.201022
v -9.659717 31.481796 0.910506
v 0.103107 38.311989 -0.564237
v -7.944524 31.376177 -5.362127
v -2.315136 30.945663 -8.575743
v 3.922038 30.443321 -6.860800
v 7.127193 30.161144 -1.230916
v 5.431125 30.263714 5.030869
v -0.187446 30.693293 8.263761
v -6.443714 31.198683 6.559716
v -8.057514 35.903828 1.185058
v -0.140367 43.013546 -0.022932
v -6.977098 36.079739 -3.840647
v -2.673379 35.873653 -6.636507
v 2.321841 35.408165 -5.576579
v 5.094975 34.954170 -1.293018
v 4.032307 34.775734 3.718390
v -0.257337 34.979378 6.532111
v -5.270282 35.447384 5.486500
v -4.217916 41.515041 5.266689
v -6.041842 41.641010 -2.969573
v -2.180143 41.247753 -5.705925
v 4.061732 39.888737 -2.905396
v 2.507249 40.714310 -4.823825
v 4.618957 39.435738 2.933825
v 5.026864 40.511894 -0.807297
v 3.766559 39.413765 4.410820
v -7.041044 40.624245 0.007266
v 4.068898 40.348179 3.783943
v -6.746141 41.841217 1.581470
v 0.137323 41.102444 6.119289
v -6.194587 41.752087 -1.653289
v 1.582205 40.323174 5.475753
v 2.829453 40.313717 4.622374
v -3.228887 41.922817 -4.602519
v -4.943155 41.636017 -3.660164
v -2.751722 40.397881 5.938683
v 0.928585 40.943611 -5.074684
v -0.531609 41.688519 -5.064979
v -1.462194 41.227192 -5.518806
v -5.807076 41.654919 2.958416
v -5.272738 41.273796 3.974149
v 4.282786 40.457317 -2.050508
v 3.411395 40.578217 -3.395360
v 2.981605 40.696358 -4.008646
v 4.529885 40.403625 1.518788
v 4.897228 40.391258 -0.101701
vn -0.8871 0.4344 -0.1562
vn -0.4876 0.4437 -0.7519
vn 0.2140 0.4308 -0.8767
vn 0.7841 0.4034 -0.4718
vn 0.9036 0.3779 0.2019
vn 0.5267 0.3691 0.7657
vn -0.1427 0.3818 0.9132
vn -0.7355 0.4087 0.5403
vn -0.0580 0.6752 -0.7353
vn 0.4620 0.6527 -0.6004
vn 0.7460 0.6524 -0.1335
vn 0.6140 0.6755 0.4083
vn 0.1267 0.7092 0.6936
vn -0.4160 0.7326 0.5387
vn -0.6801 0.7315 0.0489
vn -0.5252 0.7075 -0.4729
vn 0.2450 0.7016 -0.6691
vn 0.6294 0.7147 -0.3051
vn 0.6471 0.7253 0.2349
vn 0.2672 0.7270 0.6325
vn -0.2854 0.7188 0.6339
vn -0.6663 0.7057 0.2411
vn -0.6551 0.6954 -0.2953
vn -0.2788 0.6938 -0.6640
vn 0.3197 0.6689 -0.6711
vn 0.7339 0.6282 -0.2584
vn 0.7395 0.5888 0.3262
vn 0.3293 0.5733 0.7503
vn -0.2662 0.5912 0.7613
vn -0.6943 0.6327 0.3430
vn -0.7071 0.6807 -0.1915
vn -0.2442 0.6922 -0.6791
vn 0.0889 0.7067 -0.7019
vn 0.4728 0.7142 -0.5161
vn 0.7234 0.6780 0.1308
vn 0.4613 0.6216 0.6331
vn -0.0951 0.6064 0.7894
vn -0.5849 0.6430 0.4945
vn -0.7081 0.7048 -0.0441
vn -0.3137 0.7256 -0.6124
vn -0.5766 0.7989 -0.1710
vn -0.2829 0.7517 -0.5958
vn 0.2444 0.6810 -0.6903
vn 0.6872 0.6312 -0.3596
vn 0.7464 0.6372 0.1919
vn 0.3988 0.6922 0.6016
vn -0.1137 0.7585 0.6417
vn -0.5026 0.8006 0.3262
vn -0.6660 0.7367 -0.1172
vn -0.3617 0.7066 -0.6082
vn 0.2167 0.6291 -0.7465
vn 0.7265 0.5498 -0.4121
vn 0.8305 0.5217 0.1950
vn 0.4722 0.5609 0.6800
vn -0.1000 0.6378 0.7637
vn -0.5560 0.7081 0.4354
vn -0.7035 0.6970 -0.1391
vn 0.4967 0.5696 0.6549
vn -0.3414 0.7350 -0.5858
vn -0.0990 0.6001 0.7938
vn 0.2072 0.6981 -0.6853
vn -0.5830 0.6705 0.4589
vn 0.6700 0.6326 -0.3886
vn 0.7904 0.5840 0.1849
vn 0.8870 -0.4306 0.1667
vn 0.4849 -0.4534 0.7478
vn -0.2141 -0.4440 0.8701
vn -0.7863 -0.4094 0.4627
vn -0.8994 -0.3849 -0.2071
vn -0.5093 -0.3597 -0.7818
vn 0.1422 -0.3866 -0.9112
vn 0.7330 -0.4145 -0.5394
vn 0.0588 -0.6703 0.7397
vn -0.4647 -0.6476 0.6038
vn -0.7505 -0.6473 0.1336
vn -0.6174 -0.6704 -0.4116
vn -0.1271 -0.7043 -0.6985
vn 0.4190 -0.7279 -0.5427
vn 0.6849 -0.7269 -0.0499
vn 0.5293 -0.7028 0.4754
vn -0.2469 -0.6969 0.6733
vn -0.6340 -0.7100 0.3066
vn -0.6516 -0.7206 -0.2371
vn -0.2691 -0.7223 -0.6371
vn 0.2871 -0.7140 -0.6386
vn 0.6705 -0.7009 -0.2433
vn 0.6595 -0.6906 0.2968
vn 0.2806 -0.6890 0.6682
vn -0.3211 -0.6627 0.6766
vn -0.7385 -0.6218 0.2609
vn -0.7440 -0.5822 -0.3279
vn -0.3309 -0.5665 -0.7547
vn 0.2686 -0.5845 -0.7657
vn 0.6997 -0.6261 -0.3442
vn 0.7124 -0.6746 0.1933
vn 0.2466 -0.6862 0.6843
vn -0.0896 -0.7008 0.7077
vn -0.4761 -0.7090 0.5203
vn -0.7280 -0.6726 -0.1327
vn -0.4645 -0.6152 -0.6370
vn 0.0957 -0.5997 -0.7945
vn 0.5889 -0.6369 -0.4976
vn 0.7131 -0.6998 0.0434
vn 0.3157 -0.7205 0.6175
vn 0.5820 -0.7947 0.1725
vn 0.2857 -0.7469 0.6005
vn -0.2456 -0.6755 0.6952
vn -0.6912 -0.6253 0.3622
vn -0.7510 -0.6314 -0.1931
vn -0.4012 -0.6869 -0.6060
vn 0.1153 -0.7539 -0.6468
vn 0.5075 -0.7964 -0.3288
vn 0.6734 -0.7296 0.1192
vn 0.3658 -0.6990 0.6145
vn -0.2177 -0.6206 0.7533
vn -0.7312 -0.5406 0.4161
vn -0.8362 -0.5124 -0.1956
vn -0.4755 -0.5520 -0.6850
vn 0.1018 -0.6298 -0.7701
vn 0.5624 -0.7008 -0.4388
vn 0.8863 -0.4389 0.1476
vn 0.7128 -0.6870 0.1412
vn -0.5307 -0.3722 -0.7614
vn -0.4999 -0.5588 -0.6617
vn 0.3465 -0.7262 0.5938
vn 0.1009 -0.5900 -0.8011
vn -0.2090 -0.6890 0.6940
vn 0.5908 -0.6604 -0.4635
vn -0.7777 -0.4074 0.4787
vn -0.6768 -0.6224 0.3933
vn -0.9086 -0.3734 -0.1871
vn -0.7978 -0.5734 -0.1865
vn -0.5212 -0.8392 -0.1553
vn -0.3024 -0.8640 -0.4025
vn 0.0122 -0.8677 -0.4969
vn 0.3777 -0.8561 -0.3528
vn 0.4649 -0.8835 0.0566
vn 0.2182 -0.8996 0.3783
vn -0.1694 -0.8944 0.4140
vn -0.4416 -0.8784 0.1829
vn -0.1285 -0.6838 -0.7182
vn 0.4330 -0.7062 -0.5602
vn 0.7103 -0.7018 -0.0540
vn 0.5515 -0.6748 0.4904
vn 0.0637 -0.6406 0.7652
vn -0.4792 -0.6178 0.6234
vn -0.7728 -0.6200 0.1357
vn -0.6326 -0.6475 -0.4249
vn 0.3056 -0.6575 -0.6887
vn 0.7204 -0.6402 -0.2670
vn 0.7126 -0.6261 0.3165
vn 0.3028 -0.6232 0.7211
vn -0.2706 -0.6320 0.7262
vn -0.6882 -0.6479 0.3266
vn -0.7026 -0.6626 -0.2596
vn -0.2899 -0.6670 -0.6864
vn 0.2290 -0.6890 -0.6876
vn 0.6124 -0.7246 -0.3160
vn 0.6122 -0.7598 0.2187
vn 0.2333 -0.7716 0.5918
vn -0.2926 -0.7538 0.5884
vn -0.6576 -0.7209 0.2186
vn -0.6544 -0.6673 -0.3558
vn -0.3781 -0.6519 -0.6574
vn 0.0888 -0.6680 -0.7388
vn 0.6136 -0.6447 -0.4560
vn 0.7468 -0.6629 0.0532
vn 0.4457 -0.7250 0.5251
vn -0.0846 -0.7386 0.6689
vn -0.5748 -0.7082 0.4098
vn -0.7583 -0.6386 -0.1310
vn -0.4815 -0.6307 -0.6086
vn -0.8128 -0.5424 -0.2124
vn -0.4332 -0.5951 -0.6769
vn 0.1463 -0.6668 -0.7307
vn 0.5916 -0.7149 -0.3726
vn 0.6736 -0.7129 0.1950
vn 0.3341 -0.6622 0.6707
vn -0.2567 -0.5910 0.7647
vn -0.7423 -0.5409 0.3955
vn -0.7620 -0.6208 -0.1846
vn -0.4372 -0.6493 -0.6223
vn 0.0792 -0.7159 -0.6937
vn 0.4855 -0.7788 -0.3971
vn 0.5862 -0.8044 0.0968
vn 0.3158 -0.7796 0.5407
vn -0.2070 -0.7161 0.6666
vn -0.6679 -0.6493 0.3637
vn 0.3527 -0.8675 -0.3507
vn 0.4601 -0.8868 0.0431
vn 0.2295 -0.8955 0.3814
vn -0.5329 -0.8343 -0.1410
vt 1.000000 0.500000
vt 0.987980 0.548079
vt 0.956490 0.500000
vt 0.875000 0.500000
vt 0.867144 0.531424
vt 0.833287 0.532896
vt 0.785005 0.545740
vt 0.750000 0.522224
vt 0.750000 0.500000
vt 0.744444 0.522224
vt 0.723720 0.524349
vt 0.697380 0.544451
vt 0.665508 0.522422
vt 0.625000 0.519732
vt 0.625000 0.500000
vt 0.620067 0.519732
vt 0.594606 0.522514
vt 0.576748 0.521095
vt 0.560477 0.500000
vt 0.500000 0.500000
vt 0.492463 0.530148
vt 0.473116 0.527031
vt 0.432965 0.530333
vt 0.403453 0.500000
vt 0.375000 0.500000
vt 0.366667 0.533330
vt 0.354082 0.500000
vt 0.250000 0.500000
vt 0.236587 0.553653
vt 0.169924 0.519284
vt 0.125000 0.553166
vt 0.125000 0.500000
vt 0.111709 0.553166
vt 0.071538 0.537816
vt 0.042731 0.547226
vt 0.000000 0.548079
vt 0.000000 0.500000
vt 0.875000 1.000000
vt 0.750000 1.000000
vt 0.625000 1.000000
vt 0.500000 1.000000
vt 0.375000 1.000000
vt 0.250000 1.000000
vt 0.125000 1.000000
vt 0.000000 1.000000
vt 0.908247 0.537958
vt 0.875000 0.531424
vt 0.328968 0.529686
vt 0.292952 0.528445
vt 0.250000 0.553653
vt 0.538046 0.522652
vt 0.500000 0.530148
vt 0.375000 0.533330
s 0
usemtl Material.002
f 41/62/35 114/63/35 112/64/35
f 43/65/36 105/66/36 120/67/36 119/68/36 106/69/36 44/70/36
f 44/70/37 106/71/37 124/72/37 123/73/37 122/74/37 108/75/37 45/76/37
f 45/76/38 108/77/38 129/78/38 128/79/38 107/80/38
f 46/81/39 110/82/39 131/83/39 130/84/39 109/85/39
f 47/86/40 113/87/40 111/88/40
f 48/89/41 115/90/41 121/91/41 104/92/41 49/93/41
f 49/93/42 104/94/42 126/95/42 125/96/42 114/97/42 41/98/42
f 50/62/43 51/99/43 52/65/43
f 52/65/44 51/100/44 53/70/44
f 53/70/45 51/101/45 54/76/45
f 54/76/46 51/102/46 55/81/46
f 55/81/47 51/103/47 56/86/47
f 56/86/48 51/104/48 57/89/48
f 57/89/49 51/105/49 58/93/49
f 58/93/50 51/106/50 50/98/50
f 59/62/51 60/99/51 61/65/51
f 61/65/52 60/100/52 62/70/52
f 62/70/53 60/101/53 63/76/53
f 63/76/54 60/102/54 64/81/54
f 64/81/55 60/103/55 65/86/55
f 65/86/56 60/104/56 66/89/56
f 66/89/57 60/105/57 67/93/57
f 67/93/58 60/106/58 59/98/58
f 68/62/59 69/99/59 70/65/59
f 70/65/60 69/100/60 71/70/60
f 71/70/61 69/101/61 72/76/61
f 72/76/62 69/102/62 73/81/62
f 73/81/63 69/103/63 74/86/63
f 74/86/64 69/104/64 75/89/64
f 75/89/65 69/105/65 76/93/65
f 76/93/66 69/106/66 68/98/66
f 77/62/67 78/99/67 79/65/67
f 79/65/68 78/100/68 80/70/68
f 80/70/69 78/101/69 81/76/69
f 81/76/70 78/102/70 82/81/70
f 82/81/71 78/103/71 83/86/71
f 83/86/72 78/104/72 84/89/72
f 84/89/73 78/105/73 85/93/73
f 85/93/74 78/106/74 77/98/74
f 86/62/75 87/99/75 88/65/75
f 88/65/76 87/100/76 89/70/76
f 89/70/77 87/101/77 90/76/77
f 90/76/78 87/102/78 91/81/78
f 91/81/79 87/103/79 92/86/79
f 92/86/80 87/104/80 93/89/80
f 93/89/81 87/105/81 94/93/81
f 94/93/82 87/106/82 86/98/82
f 95/62/83 96/99/83 97/65/83
f 97/65/84 96/100/84 98/70/84
f 98/70/85 96/101/85 99/76/85
f 99/76/86 96/102/86 100/81/86
f 100/81/87 96/103/87 101/86/87
f 101/86/88 96/104/88 102/89/88
f 102/89/89 96/105/89 103/93/89
f 103/93/90 96/106/90 95/98/90
f 112/64/35 116/107/35 105/108/35 43/65/35
f 111/88/40 118/109/40 117/110/40 115/111/40 48/89/40
f 107/80/38 127/112/38 110/113/38 46/81/38
f 109/85/39 113/114/39 47/86/39
f 132/62/99 203/64/99 205/63/99
f 134/65/100 135/70/100 197/69/100 210/68/100 211/67/100 196/66/100
f 135/70/101 136/76/101 199/75/101 213/74/101 214/73/101 215/72/101 197/71/101
f 136/76/102 198/80/102 219/79/102 220/78/102 199/77/102
f 137/81/103 200/85/103 221/84/103 222/83/103 201/82/103
f 138/86/104 202/88/104 204/87/104
f 139/89/105 140/93/105 195/92/105 212/91/105 206/90/105
f 140/93/106 132/98/106 205/97/106 216/96/106 217/95/106 195/94/106
f 141/62/107 143/65/107 142/99/107
f 143/65/108 144/70/108 142/100/108
f 144/70/109 145/76/109 142/101/109
f 145/76/110 146/81/110 142/102/110
f 146/81/111 147/86/111 142/103/111
f 147/86/112 148/89/112 142/104/112
f 148/89/113 149/93/113 142/105/113
f 149/93/114 141/98/114 142/106/114
f 150/62/115 152/65/115 151/99/115
f 152/65/116 153/70/116 151/100/116
f 153/70/117 154/76/117 151/101/117
f 154/76/118 155/81/118 151/102/118
f 155/81/119 156/86/119 151/103/119
f 156/86/120 157/89/120 151/104/120
f 157/89/121 158/93/121 151/105/121
f 158/93/122 150/98/122 151/106/122
f 159/62/123 161/65/123 160/99/123
f 161/65/124 162/70/124 160/100/124
f 162/70/125 163/76/125 160/101/125
f 163/76/126 164/81/126 160/102/126
f 164/81/127 165/86/127 160/103/127
f 165/86/128 166/89/128 160/104/128
f 166/89/129 167/93/129 160/105/129
f 167/93/130 159/98/130 160/106/130
f 168/62/131 170/65/131 169/99/131
f 170/65/132 171/70/132 169/100/132
f 171/70/133 172/76/133 169/101/133
f 172/76/134 173/81/134 169/102/134
f 173/81/135 174/86/135 169/103/135
f 174/86/136 175/89/136 169/104/136
f 175/89/137 176/93/137 169/105/137
f 176/93/138 168/98/138 169/106/138
f 177/62/139 179/65/139 178/99/139
f 179/65/140 180/70/140 178/100/140
f 180/70/141 181/76/141 178/101/141
f 181/76/142 182/81/142 178/102/142
f 182/81/143 183/86/143 178/103/143
f 183/86/144 184/89/144 178/104/144
f 184/89/145 185/93/145 178/105/145
f 185/93/146 177/98/146 178/106/146
f 186/62/147 188/65/147 187/99/147
f 188/65/148 189/70/148 187/100/148
f 189/70/149 190/76/149 187/101/149
f 190/76/150 191/81/150 187/102/150
f 191/81/151 192/86/151 187/103/151
f 192/86/152 193/89/152 187/104/152
f 193/89/153 194/93/153 187/105/153
f 194/93/154 186/98/154 187/106/154
f 203/64/155 134/65/155 196/108/155 207/107/155
f 202/88/157 139/89/157 206/111/157 208/110/157 209/109/157
f 198/80/163 137/81/163 201/113/163 218/112/163
f 200/85/165 138/86/165 204/114/165
f 112/64/167 43/65/167 134/65/167 203/64/167
f 43/65/168 44/70/168 135/70/168 134/65/168
f 44/70/169 45/76/169 136/76/169 135/70/169
f 107/80/170 46/81/170 137/81/170 198/80/170
f 109/85/171 47/86/171 138/86/171 200/85/171
f 111/88/172 48/89/172 139/89/172 202/88/172
f 48/89/173 49/93/173 140/93/173 139/89/173
f 49/93/174 41/98/174 132/98/174 140/93/174
f 50/62/175 52/65/175 143/65/175 141/62/175
f 52/65/176 53/70/176 144/70/176 143/65/176
f 53/70/177 54/76/177 145/76/177 144/70/177
f 54/76/178 55/81/178 146/81/178 145/76/178
f 55/81/179 56/86/179 147/86/179 146/81/179
f 56/86/180 57/89/180 148/89/180 147/86/180
f 57/89/181 58/93/181 149/93/181 148/89/181
f 58/93/182 50/98/182 141/98/182 149/93/182
f 59/62/183 61/65/183 152/65/183 150/62/183
f 61/65/184 62/70/184 153/70/184 152/65/184
f 62/70/185 63/76/185 154/76/185 153/70/185
f 63/76/186 64/81/186 155/81/186 154/76/186
f 64/81/187 65/86/187 156/86/187 155/81/187
f 65/86/188 66/89/188 157/89/188 156/86/188
f 66/89/189 67/93/189 158/93/189 157/89/189
f 67/93/190 59/98/190 150/98/190 158/93/190
f 68/62/191 70/65/191 161/65/191 159/62/191
f 70/65/192 71/70/192 162/70/192 161/65/192
f 71/70/193 72/76/193 163/76/193 162/70/193
f 72/76/194 73/81/194 164/81/194 163/76/194
f 73/81/195 74/86/195 165/86/195 164/81/195
f 74/86/196 75/89/196 166/89/196 165/86/196
f 75/89/197 76/93/197 167/93/197 166/89/197
f 76/93/198 68/98/198 159/98/198 167/93/198
f 77/62/199 79/65/199 170/65/199 168/62/199
f 79/65/200 80/70/200 171/70/200 170/65/200
f 80/70/201 81/76/201 172/76/201 171/70/201
f 81/76/202 82/81/202 173/81/202 172/76/202
f 82/81/203 83/86/203 174/86/203 173/81/203
f 83/86/204 84/89/204 175/89/204 174/86/204
f 84/89/205 85/93/205 176/93/205 175/89/205
f 85/93/206 77/98/206 168/98/206 176/93/206
f 86/62/207 88/65/207 179/65/207 177/62/207
f 88/65/208 89/70/208 180/70/208 179/65/208
f 89/70/209 90/76/209 181/76/209 180/70/209
f 90/76/210 91/81/210 182/81/210 181/76/210
f 91/81/211 92/86/211 183/86/211 182/81/211
f 92/86/212 93/89/212 184/89/212 183/86/212
f 93/89/213 94/93/213 185/93/213 184/89/213
f 94/93/214 86/98/214 177/98/214 185/93/214
f 95/62/215 97/65/215 188/65/215 186/62/215
f 97/65/216 98/70/216 189/70/216 188/65/216
f 98/70/217 99/76/217 190/76/217 189/70/217
f 99/76/218 100/81/218 191/81/218 190/76/218
f 100/81/219 101/86/219 192/86/219 191/81/219
f 101/86/220 102/89/220 193/89/220 192/86/220
f 102/89/221 103/93/221 194/93/221 193/89/221
f 103/93/222 95/98/222 186/98/222 194/93/222
f 45/76/223 107/80/223 198/80/223 136/76/223
f 46/81/224 109/85/224 200/85/224 137/81/224
f 47/86/225 111/88/225 202/88/225 138/86/225
f 41/62/226 112/64/226 203/64/226 132/62/226
usemtl Material.003
f 105/108/91 116/107/91 112/64/91 114/63/91 42/99/91
f 115/111/92 117/110/92 118/109/92 111/88/92 113/87/92 42/104/92
f 106/69/93 119/68/93 120/67/93 105/66/93 42/100/93
f 104/92/94 121/91/94 115/90/94 42/105/94
f 108/75/95 122/74/95 123/73/95 124/72/95 106/71/95 42/101/95
f 114/97/96 125/96/96 126/95/96 104/94/96 42/106/96
f 110/113/97 127/112/97 107/80/97 128/79/97 129/78/97 108/77/97 42/102/97
f 113/114/98 109/85/98 130/84/98 131/83/98 110/82/98 42/103/98
f 196/108/156 133/99/156 205/63/156 203/64/156 207/107/156
f 206/111/158 133/104/158 204/87/158 202/88/158 209/109/158 208/110/158
f 197/69/159 133/100/159 196/66/159 211/67/159 210/68/159
f 195/92/160 133/105/160 206/90/160 212/91/160
f 199/75/161 133/101/161 197/71/161 215/72/161 214/73/161 213/74/161
f 205/97/162 133/106/162 195/94/162 217/95/162 216/96/162
f 201/113/164 133/102/164 199/77/164 220/78/164 219/79/164 198/80/164 218/112/164
f 204/114/166 133/103/166 201/82/166 222/83/166 221/84/166 200/85/166
