# Blender 4.2.3 LTS
# www.blender.org
mtllib Pumpkin.mtl
o Icosphere
v 0.005645 -0.724355 0.014705
v 0.863873 -0.447031 0.231607
v 0.046564 -0.446859 0.893265
v -0.835019 -0.447216 0.320534
v -0.562876 -0.447220 -0.695101
v 0.487142 -0.447220 -0.750125
v 0.499969 0.551676 0.728993
v -0.536643 0.518356 0.763237
v -0.896007 0.491709 -0.215481
v -0.002682 0.373463 -0.864817
v 0.831190 0.402695 -0.285311
v 0.029946 -0.732013 0.531334
v 0.510242 -0.732013 0.142394
v 0.535344 -0.525185 0.661103
v 0.794159 -0.525183 -0.304815
v 0.288763 -0.732013 -0.434580
v -0.488382 -0.732013 0.194734
v -0.463286 -0.525184 0.713442
v -0.328418 -0.732013 -0.402238
v -0.821719 -0.525091 -0.220099
v -0.044411 -0.525339 -0.849392
v 0.937753 0.079346 0.111579
v 0.799720 0.064364 -0.554062
v 0.320708 0.054121 0.943557
v 0.843999 0.131527 0.457565
v -0.777213 0.000089 0.629349
v -0.296480 0.054120 0.975901
v -0.852375 0.018994 -0.537694
v -1.012427 0.019148 0.059230
v 0.277814 -0.031744 -0.953711
v -0.339382 -0.031732 -0.921360
v 0.820307 0.444083 0.239607
v -0.070429 0.689752 0.879929
v -0.807954 0.543728 0.311739
v -0.530194 0.512050 -0.641927
v 0.482271 0.492885 -0.701140
v 0.092242 0.490082 0.211023
v 0.476181 0.637193 -0.162991
v -0.152655 0.474388 0.218865
v -0.226067 0.455111 -0.007907
v 0.002748 0.405211 -0.181358
v 0.187649 0.449494 -0.042706
v 0.000469 0.552851 -0.506238
v -0.527359 0.626586 -0.124878
v -0.339461 0.676113 0.455219
v 0.266396 0.705365 0.441488
v 0.125953 0.642592 -0.054518
v 0.033948 0.861631 -0.075304
v 0.057277 0.671809 0.128123
v -0.119006 0.660512 0.133768
v -0.171850 0.646636 -0.029468
v -0.007143 0.610717 -0.154323
v 0.098559 0.787104 -0.057096
v 0.026346 0.841333 0.074814
v -0.115277 0.820835 0.069451
v -0.143228 0.773651 -0.058788
v 0.001671 0.732651 -0.137616
v -0.026246 0.854271 -0.064596
v -0.003710 0.889911 -0.006515
v -0.077564 0.879221 -0.009311
v -0.092141 0.854615 -0.076186
v -0.016578 0.833235 -0.117294
v 0.827261 0.028358 0.562323
v 0.786839 0.611120 0.274138
v 0.954171 0.054382 -0.116317
v 0.777237 -0.000148 -0.629260
v 0.820022 0.484490 -0.297289
v 0.916623 -0.174057 -0.133446
v 0.979571 0.050603 -0.022869
v 0.963759 0.025173 -0.101091
v 0.969609 -0.039517 0.003360
v 0.962606 -0.042215 -0.069099
v 0.979354 0.049817 -0.047012
v 0.962032 0.048192 -0.096893
v 0.970876 0.028358 0.026339
v 0.963825 0.052472 0.034503
v 0.954172 -0.082249 -0.023755
v 0.836569 -0.403586 -0.245469
v 0.854388 -0.323871 0.317286
v 0.843365 -0.180751 0.416852
v 0.781288 -0.125822 -0.551600
v 0.736997 -0.142804 0.592867
v 0.930104 -0.191770 0.088636
v 0.893271 -0.333728 0.168147
v 0.874491 -0.280062 0.260144
v 0.899984 -0.159176 0.214354
v 0.801574 -0.364316 0.370041
v 0.800588 -0.313031 -0.397403
v 0.836392 -0.219619 -0.342455
v 0.904997 -0.164671 -0.172115
v 0.871105 -0.382632 0.084310
v 0.883381 -0.292884 -0.095188
v 0.918219 -0.210461 0.016540
v 0.005653 -0.654355 0.014727
v 0.804956 -0.412530 0.216163
v 0.042826 -0.411869 0.832752
v -0.778936 -0.411416 0.298782
v -0.525026 -0.412077 -0.647852
v 0.454262 -0.411528 -0.699677
v 0.464884 0.511124 0.683998
v -0.497568 0.480751 0.718977
v -0.842560 0.449233 -0.200016
v -0.000728 0.333430 -0.807427
v 0.766622 0.393073 -0.260044
v 0.028609 -0.666546 0.506591
v 0.486461 -0.666496 0.135916
v 0.500074 -0.483720 0.617096
v 0.741566 -0.483445 -0.285020
v 0.275478 -0.666341 -0.414315
v -0.465613 -0.666417 0.185861
v -0.432885 -0.482717 0.666833
v -0.313212 -0.666296 -0.383530
v -0.768180 -0.482383 -0.205621
v -0.041312 -0.483154 -0.793617
v 0.871327 0.068822 0.092169
v 0.734227 0.055733 -0.530905
v 0.296503 0.054557 0.877876
v 0.777316 0.119218 0.440190
v -0.722179 0.002880 0.586181
v -0.276811 0.056496 0.908764
v -0.794666 0.018642 -0.498077
v -0.942603 0.020448 0.054440
v 0.260051 -0.032408 -0.886005
v -0.316072 -0.033164 -0.855371
v 0.754454 0.431037 0.219777
v -0.067776 0.637744 0.833151
v -0.758523 0.497113 0.294896
v -0.504516 0.462736 -0.599398
v 0.457633 0.444921 -0.656503
v 0.093768 0.420271 0.215935
v 0.476998 0.567804 -0.153795
v -0.150105 0.404669 0.224581
v -0.221851 0.385848 0.001303
v 0.003620 0.336320 -0.168981
v 0.188128 0.380475 -0.031033
v 0.001147 0.483517 -0.496626
v -0.526373 0.556763 -0.119999
v -0.331463 0.606728 0.459891
v 0.264789 0.635549 0.446310
v 0.061600 0.626136 -0.032429
v 0.001815 0.808099 -0.043653
v 0.018954 0.644548 0.076275
v -0.079373 0.633674 0.082691
v -0.107097 0.633828 -0.006164
v -0.006126 0.603308 -0.084723
v 0.036217 0.761702 -0.037907
v -0.004176 0.797906 0.029179
v -0.072849 0.782898 0.028700
v -0.082347 0.756230 -0.028956
v -0.003909 0.723746 -0.068409
v -0.021547 0.790672 -0.035732
v -0.017422 0.821437 -0.011351
v -0.048304 0.815745 -0.013140
v -0.056241 0.808135 -0.038097
v -0.016212 0.798097 -0.056753
v 0.769168 0.028500 0.523270
v 0.739489 0.561059 0.261817
v 0.889189 0.047277 -0.091279
v 0.722256 -0.000333 -0.585935
v 0.768341 0.442364 -0.275969
v 0.850170 -0.158447 -0.117941
v 0.912768 0.030672 -0.029208
v 0.897751 0.028565 -0.078037
v 0.901433 -0.027872 -0.007431
v 0.896269 -0.027122 -0.052617
v 0.912702 0.030988 -0.036863
v 0.897351 0.040640 -0.071215
v 0.903221 0.029193 0.008392
v 0.897600 0.041653 0.014575
v 0.887478 -0.061761 -0.018072
v 0.769843 -0.386193 -0.233425
v 0.792171 -0.308918 0.288904
v 0.778740 -0.168922 0.392694
v 0.722068 -0.107602 -0.519026
v 0.689138 -0.126185 0.544563
v 0.861835 -0.178638 0.080456
v 0.825009 -0.319635 0.161685
v 0.807250 -0.272707 0.242127
v 0.832743 -0.151821 0.196337
v 0.746934 -0.342243 0.332262
v 0.735350 -0.301246 -0.374929
v 0.771153 -0.207834 -0.319981
v 0.839759 -0.152886 -0.149642
v 0.804412 -0.362145 0.089992
v 0.816687 -0.272396 -0.089505
v 0.851526 -0.189974 0.022223
vn -0.0116 -0.9998 -0.0143
vn 0.6221 -0.7823 0.0331
vn 0.0099 -0.9998 -0.0153
vn 0.0172 -0.9998 0.0046
vn 0.0009 -0.9998 0.0176
vn 0.9528 -0.2927 -0.0812
vn 0.3718 -0.2919 0.8812
vn -0.7174 -0.3306 0.6132
vn -0.8040 -0.3329 -0.4927
vn 0.2205 -0.3374 -0.9152
vn 0.9606 -0.1051 0.2574
vn 0.0519 -0.1278 0.9904
vn -0.9170 -0.1395 0.3737
vn -0.6022 -0.1069 -0.7911
vn 0.5459 -0.1305 -0.8276
vn 0.2584 0.9234 0.2837
vn -0.3838 0.8982 0.2143
vn -0.3354 0.9414 -0.0369
vn 0.0457 0.8932 -0.4473
vn 0.3130 0.9182 -0.2427
vn -0.9174 0.2903 0.2723
vn 0.0155 0.9658 -0.2588
vn -0.0693 0.8924 -0.4458
vn 0.9059 0.3073 0.2915
vn -0.0198 0.9762 -0.2161
vn -0.2914 0.9343 -0.2054
vn -0.5916 0.0771 -0.8026
vn -0.2738 0.9618 0.0066
vn -0.3338 0.9085 0.2516
vn 0.0025 0.4154 0.9096
vn -0.0483 0.9988 -0.0015
vn 0.2910 0.9218 0.2564
vn 0.5738 0.1339 -0.8080
vn 0.1606 0.9855 -0.0554
vn 0.3377 0.9229 -0.1849
vn 0.7233 0.3456 -0.5978
vn 0.5258 0.1938 -0.8282
vn 0.2203 0.3521 -0.9097
vn -0.2819 0.3584 -0.8900
vn -0.5728 0.2066 -0.7932
vn -0.7208 0.3437 -0.6019
vn -0.9433 0.3064 0.1273
vn -0.9088 0.1710 0.3806
vn -0.8235 0.2508 0.5089
vn -0.3211 0.2520 0.9129
vn 0.0519 0.1310 0.9900
vn 0.3085 0.2808 0.9088
vn 0.7823 0.3189 0.5351
vn -0.0515 0.1799 -0.9823
vn -0.0515 -0.1742 -0.9834
vn -0.3141 -0.3181 -0.8945
vn -0.9622 0.0871 -0.2580
vn -0.9461 -0.2014 -0.2536
vn -0.9391 -0.3426 0.0262
vn -0.5883 0.0649 0.8060
vn -0.5573 -0.2042 0.8048
vn -0.2678 -0.3326 0.9042
vn 0.6007 0.1242 0.7898
vn 0.5873 -0.1684 0.7917
vn 0.7806 -0.3153 0.5397
vn 0.7489 -0.3307 -0.5742
vn 0.2229 -0.7892 -0.5722
vn -0.0226 -0.9020 -0.4312
vn -0.2810 -0.7907 -0.5439
vn -0.4747 -0.7899 -0.3882
vn -0.4194 -0.9008 -0.1124
vn -0.6102 -0.7861 0.0982
vn -0.5213 -0.7837 0.3377
vn -0.2400 -0.8977 0.3696
vn -0.0984 -0.7795 0.6186
vn 0.4345 -0.7873 -0.4374
vn 0.4083 -0.8993 -0.1567
vn -0.0168 -0.9998 0.0065
vn 0.1630 -0.7786 0.6060
vn 0.2786 -0.8967 0.3441
vn 0.5571 -0.7803 0.2842
vn -0.4222 0.8335 0.3564
vn 0.3927 0.8522 0.3457
vn 0.5500 0.7981 -0.2462
vn -0.0562 0.7438 -0.6660
vn -0.5838 0.7532 -0.3031
vn -0.5424 0.0390 -0.8392
vn -0.0325 0.3333 0.9422
vn 0.5952 0.0839 -0.7992
vn -0.9568 0.1817 0.2271
vn 0.9094 0.2305 0.3462
vn 0.5270 0.2591 -0.8094
vn -0.8467 0.5319 -0.0111
vn 0.7338 0.6673 0.1274
vn -0.4545 0.0965 -0.8855
vn -0.1403 0.8263 0.5454
vn -0.1802 0.9017 -0.3930
vn 0.0680 0.9308 -0.3591
vn 0.0678 0.9315 -0.3575
vn -0.1067 0.8654 -0.4896
vn -0.1879 0.8680 -0.4597
vn 0.9468 0.2071 0.2463
vn 0.9587 0.1350 0.2503
vn 0.9348 0.1700 0.3118
vn 0.9315 0.1559 -0.3287
vn 0.9139 0.1222 -0.3871
vn 0.9392 0.0843 -0.3329
vn 0.9320 -0.1684 -0.3211
vn 0.9423 0.3343 -0.0194
vn 0.0192 0.9995 0.0239
vn -0.6180 0.7855 -0.0330
vn -0.0163 0.9995 0.0255
vn -0.0283 0.9996 -0.0074
vn -0.0014 0.9996 -0.0288
vn -0.9639 0.2513 0.0883
vn -0.3713 0.2873 -0.8829
vn 0.7193 0.3267 -0.6130
vn 0.8036 0.3311 0.4945
vn -0.2221 0.3361 0.9153
vn -0.9650 0.0631 -0.2544
vn -0.0530 0.1247 -0.9908
vn 0.9169 0.1350 -0.3756
vn 0.6022 0.1016 0.7919
vn -0.5463 0.1270 0.8279
vn -0.2520 -0.9282 -0.2737
vn 0.3817 -0.9036 -0.1946
vn 0.3129 -0.9490 0.0387
vn -0.0514 -0.8992 0.4345
vn -0.2984 -0.9244 0.2375
vn 0.8723 -0.4184 -0.2530
vn 0.0010 -0.9714 0.2374
vn 0.0758 -0.8981 0.4332
vn -0.8578 -0.4448 -0.2576
vn 0.0012 -0.9813 0.1925
vn 0.2706 -0.9423 0.1972
vn 0.5530 -0.2321 0.8002
vn 0.2487 -0.9686 -0.0001
vn 0.3261 -0.9154 -0.2360
vn 0.0034 -0.5276 -0.8495
vn 0.0493 -0.9976 0.0481
vn -0.2881 -0.9264 -0.2424
vn -0.5327 -0.2712 0.8017
vn -0.1297 -0.9894 0.0658
vn -0.3210 -0.9283 0.1877
vn -0.7297 -0.3396 0.5935
vn -0.5266 -0.1813 0.8305
vn -0.2153 -0.3493 0.9119
vn 0.2774 -0.3553 0.8926
vn 0.5735 -0.1930 0.7962
vn 0.7245 -0.3360 0.6018
vn 0.9452 -0.2986 -0.1316
vn 0.9102 -0.1585 -0.3826
vn 0.8219 -0.2432 -0.5151
vn 0.3295 -0.2374 -0.9138
vn -0.0538 -0.1097 -0.9925
vn -0.3184 -0.2686 -0.9091
vn -0.7797 -0.3104 -0.5438
vn 0.0525 -0.1738 0.9834
vn 0.0521 0.1670 0.9846
vn 0.3160 0.3157 0.8947
vn 0.9634 -0.0716 0.2582
vn 0.9471 0.1977 0.2529
vn 0.9399 0.3404 -0.0279
vn 0.5900 -0.0534 -0.8057
vn 0.5590 0.1993 -0.8049
vn 0.2669 0.3291 -0.9058
vn -0.6002 -0.1148 -0.7916
vn -0.5923 0.1668 -0.7882
vn -0.7885 0.2969 -0.5387
vn -0.9493 0.3010 0.0903
vn -0.7541 0.3253 0.5706
vn -0.2222 0.7923 0.5682
vn 0.0220 0.9073 0.4198
vn 0.2794 0.7941 0.5398
vn 0.4714 0.7933 0.3853
vn 0.4091 0.9059 0.1097
vn 0.6067 0.7889 -0.0981
vn 0.5189 0.7862 -0.3356
vn 0.2343 0.9027 -0.3607
vn 0.0980 0.7823 -0.6151
vn -0.4309 0.7902 0.4357
vn -0.3974 0.9049 0.1526
vn 0.0279 0.9996 -0.0104
vn -0.1616 0.7812 -0.6030
vn -0.2714 0.9023 -0.3351
vn -0.5537 0.7835 -0.2820
vn 0.4200 -0.8358 -0.3537
vn -0.3877 -0.8562 -0.3416
vn -0.5516 -0.7954 0.2513
vn 0.0569 -0.7429 0.6670
vn 0.5852 -0.7505 0.3071
vn 0.5399 -0.0375 0.8409
vn 0.0153 -0.3161 -0.9486
vn -0.5755 -0.0865 0.8132
vn 0.9619 -0.1711 -0.2134
vn -0.9069 -0.2179 -0.3607
vn -0.4620 -0.2207 0.8590
vn 0.8648 -0.5015 0.0256
vn -0.7679 -0.6227 -0.1503
vn 0.4209 -0.0640 0.9049
vn 0.1833 -0.8228 -0.5380
vn 0.5591 -0.8161 -0.1463
vn -0.3918 -0.8318 -0.3932
vn -0.4356 -0.8130 0.3864
vn 0.0702 -0.6253 0.7772
vn 0.6033 -0.5435 0.5837
vn -0.9807 -0.1394 -0.1374
vn -0.9544 -0.1747 -0.2418
vn -0.9043 -0.0977 -0.4156
vn -0.9896 -0.0074 0.1437
vn -0.8364 0.0014 0.5481
vn -0.9338 -0.1417 0.3286
vn -0.9643 0.0900 0.2491
vn -0.9470 -0.3205 0.0196
vn -0.9314 0.1803 0.3161
vn -0.7720 0.3242 -0.5467
vn -0.9607 0.1133 -0.2535
vn 0.3216 -0.5279 -0.7860
vn -0.1188 0.9771 -0.1766
vn -0.1997 -0.3817 0.9024
vn 0.3511 -0.6044 0.7152
vn -0.2582 -0.4950 -0.8296
vn -0.0992 0.9935 0.0559
vn 0.2234 0.2841 -0.9324
vn 0.1877 -0.9656 0.1800
vn 0.2177 0.4209 -0.8806
vn 0.2792 -0.9602 0.0117
vn 0.3132 0.3960 0.8632
vn 0.1544 -0.9761 -0.1529
vn 0.3445 -0.2622 0.9014
vn 0.1292 0.3980 -0.9082
vn 0.2925 0.6663 0.6859
vn -0.0742 0.8021 0.5925
vn 0.2190 0.8623 -0.4566
vn -0.1829 -0.9641 0.1923
vn -0.1038 -0.9868 -0.1245
vn 0.6244 0.6316 -0.4596
vn -0.0613 0.8210 0.5677
vn -0.2841 -0.9565 0.0656
vn 0.3014 0.8485 0.4351
vn 0.4428 0.5760 0.6871
vn -0.3553 -0.8761 -0.3258
vn -0.0576 -0.9431 0.3274
vn -0.2377 -0.9626 -0.1300
vn 0.2122 0.8159 -0.5379
vn 0.2975 0.8456 0.4432
vn 0.1343 0.7667 -0.6278
vn -0.2873 -0.9333 -0.2156
vn -0.2381 -0.9368 0.2564
vt 0.181819 0.000000
vt 0.227273 0.078731
vt 0.136365 0.078731
vt 0.272728 0.157461
vt 0.318182 0.078731
vt 0.363637 0.157461
vt 0.909091 0.000000
vt 0.954545 0.078731
vt 0.863636 0.078731
vt 0.727273 0.000000
vt 0.772727 0.078731
vt 0.681818 0.078731
vt 0.545455 0.000000
vt 0.590909 0.078731
vt 0.500000 0.078731
vt 0.353652 0.174756
vt 0.328240 0.188354
vt 0.297746 0.170607
vt 0.283561 0.176225
vt 0.090910 0.157461
vt 0.181819 0.157461
vt 0.136365 0.236191
vt 0.818182 0.157461
vt 0.909091 0.157461
vt 0.863636 0.236191
vt 0.636364 0.157461
vt 0.727273 0.157461
vt 0.681818 0.236191
vt 0.454546 0.157461
vt 0.545455 0.157461
vt 0.500000 0.236191
vt 0.270106 0.185113
vt 0.260952 0.177858
vt 0.045455 0.236191
vt 0.772727 0.236191
vt 0.590909 0.236191
vt 0.409092 0.236191
vt 0.181819 0.314921
vt 0.272728 0.314921
vt 0.227273 0.393651
vt 0.000000 0.314921
vt 0.090910 0.314921
vt 0.045455 0.393651
vt 0.727273 0.314921
vt 0.818182 0.314921
vt 0.772727 0.393651
vt 0.545455 0.314921
vt 0.636364 0.314921
vt 0.590909 0.393651
vt 0.363637 0.314921
vt 0.454546 0.314921
vt 0.409092 0.393651
vt 0.804359 0.441645
vt 0.839895 0.441645
vt 0.500000 0.393651
vt 0.250544 0.445323
vt 0.289221 0.445323
vt 0.681818 0.393651
vt 0.618133 0.448728
vt 0.658479 0.448728
vt 0.863636 0.393651
vt 0.909091 0.314921
vt 0.070421 0.440732
vt 0.107203 0.440732
vt 0.136365 0.393651
vt 0.435531 0.447289
vt 0.471582 0.447289
vt 0.318182 0.393651
vt 0.227273 0.236191
vt 0.954545 0.236191
vt 1.000000 0.157461
vt 0.213218 0.211847
vt 0.248372 0.173323
vt 0.297135 0.199735
vt 0.309348 0.198482
vt 0.334804 0.207402
vt 0.323978 0.226154
vt 0.316263 0.219012
vt 0.311693 0.224950
vt 0.398211 0.217346
vt 0.409092 0.078731
vt 0.363637 0.000000
vt 0.454546 0.472382
vt 0.636364 0.472382
vt 0.818182 0.472382
vt 0.090910 0.472382
vt 0.272728 0.472382
vt 0.245722 0.246473
vt 0.272364 0.292618
vt 0.299005 0.246473
vt 0.308894 0.236191
vt 0.309113 0.241054
vt 0.316447 0.239196
vt 0.363388 0.301515
vt 0.396822 0.243606
vt 0.329954 0.243606
vt 0.320321 0.239895
vt 0.327154 0.241842
vt 0.328340 0.236191
vt 0.376130 0.189005
vt 0.340630 0.209039
vt 0.367032 0.202225
vt 0.247268 0.201560
vt 0.278327 0.205133
s 0
usemtl Material
f 1/1/1 13/2/1 12/3/1
f 2/4/2 13/5/2 15/6/2
f 1/7/3 12/8/3 17/9/3
f 1/10/4 17/11/4 19/12/4
f 1/13/5 19/14/5 16/15/5
f 2/4/6 15/6/6 78/16/6 92/17/6 91/18/6 84/19/6
f 3/20/7 14/21/7 24/22/7
f 4/23/8 18/24/8 26/25/8
f 5/26/9 20/27/9 28/28/9
f 6/29/10 21/30/10 30/31/10
f 2/4/11 84/19/11 85/32/11 79/33/11
f 3/20/12 24/22/12 27/34/12
f 4/23/13 26/25/13 29/35/13
f 5/26/14 28/28/14 31/36/14
f 6/29/15 30/31/15 66/37/15
f 7/38/16 64/39/16 46/40/16
f 8/41/17 33/42/17 45/43/17
f 9/44/18 34/45/18 44/46/18
f 10/47/19 35/48/19 43/49/19
f 67/50/20 36/51/20 38/52/20
f 38/52/22 36/51/22 43/55/22
f 36/51/23 10/47/23 43/55/23
f 43/49/25 35/48/25 44/58/25
f 35/48/26 9/44/26 44/58/26
f 44/46/28 34/45/28 45/61/28
f 34/45/29 8/62/29 45/61/29
f 45/43/31 33/42/31 46/65/31
f 33/42/32 7/38/32 46/65/32
f 46/40/34 64/39/34 38/68/34
f 64/39/35 67/50/35 38/68/35
f 66/37/36 36/51/36 67/50/36
f 66/37/37 30/31/37 36/51/37
f 30/31/38 10/47/38 36/51/38
f 31/36/39 35/48/39 10/47/39
f 31/36/40 28/28/40 35/48/40
f 28/28/41 9/44/41 35/48/41
f 29/35/42 34/45/42 9/44/42
f 29/35/43 26/25/43 34/45/43
f 26/25/44 8/62/44 34/45/44
f 27/34/45 33/42/45 8/41/45
f 27/34/46 24/22/46 33/42/46
f 24/22/47 7/38/47 33/42/47
f 63/69/48 64/39/48 7/38/48
f 30/31/49 31/36/49 10/47/49
f 30/31/50 21/30/50 31/36/50
f 21/30/51 5/26/51 31/36/51
f 28/28/52 29/35/52 9/44/52
f 28/28/53 20/27/53 29/35/53
f 20/27/54 4/23/54 29/35/54
f 26/25/55 27/70/55 8/62/55
f 26/25/56 18/24/56 27/70/56
f 18/24/57 3/71/57 27/70/57
f 24/22/58 63/69/58 7/38/58
f 24/22/59 14/21/59 82/72/59 63/69/59
f 14/21/60 2/4/60 79/33/60 87/73/60 82/72/60
f 83/74/6 93/75/6 68/76/6 72/77/6 77/78/6 71/79/6
f 15/6/61 6/29/61 66/37/61 81/80/61
f 16/15/62 21/30/62 6/29/62
f 16/15/63 19/14/63 21/30/63
f 19/14/64 5/26/64 21/30/64
f 19/12/65 20/27/65 5/26/65
f 19/12/66 17/11/66 20/27/66
f 17/11/67 4/23/67 20/27/67
f 17/9/68 18/24/68 4/23/68
f 17/9/69 12/8/69 18/24/69
f 12/8/70 3/71/70 18/24/70
f 15/6/71 16/81/71 6/29/71
f 15/6/72 13/5/72 16/81/72
f 13/5/73 1/82/73 16/81/73
f 12/3/74 14/21/74 3/20/74
f 12/3/75 13/2/75 14/21/75
f 13/2/76 2/4/76 14/21/76
f 41/67/77 42/66/77 38/52/77 43/55/77
f 40/60/78 41/59/78 43/49/78 44/58/78
f 39/54/79 40/53/79 44/46/79 45/61/79
f 37/64/80 39/63/80 45/43/80 46/65/80
f 42/57/81 37/56/81 46/40/81 38/68/81
f 25/88/97 32/89/97 64/39/97 63/69/97
f 22/90/98 25/88/98 63/69/98 75/91/98 76/92/98
f 32/89/99 22/90/99 76/92/99 69/93/99 64/39/99
f 11/94/100 23/95/100 66/37/100 67/50/100
f 65/96/101 11/94/101 67/50/101 73/97/101 74/98/101
f 23/95/102 65/96/102 74/98/102 70/99/102 66/37/102
f 81/80/103 88/100/103 78/16/103 15/6/103
f 69/93/104 73/97/104 67/50/104 64/39/104
f 70/99/103 72/77/103 68/76/103 90/101/103 89/102/103 81/80/103 66/37/103
f 80/103/60 63/69/60 82/72/60
f 80/103/11 86/104/11 83/74/11 71/79/11 75/91/11 63/69/11
f 32/89/213 25/88/213 118/88/213 125/89/213
f 25/88/214 22/90/214 115/90/214 118/88/214
f 22/90/215 32/89/215 125/89/215 115/90/215
f 23/95/216 11/94/216 104/94/216 116/95/216
f 11/94/217 65/96/217 158/96/217 104/94/217
f 65/96/218 23/95/218 116/95/218 158/96/218
f 75/91/219 71/79/219 164/79/219 168/91/219
f 69/93/220 76/92/220 169/92/220 162/93/220
f 76/92/221 75/91/221 168/91/221 169/92/221
f 73/97/222 69/93/222 162/93/222 166/97/222
f 72/77/223 70/99/223 163/99/223 165/77/223
f 74/98/224 73/97/224 166/97/224 167/98/224
f 70/99/225 74/98/225 167/98/225 163/99/225
f 71/79/226 77/78/226 170/78/226 164/79/226
f 77/78/227 72/77/227 165/77/227 170/78/227
f 79/33/228 85/32/228 178/32/228 172/33/228
f 85/32/229 84/19/229 177/19/229 178/32/229
f 83/74/230 86/104/230 179/104/230 176/74/230
f 86/104/231 80/103/231 173/103/231 179/104/231
f 82/72/232 87/73/232 180/73/232 175/72/232
f 87/73/233 79/33/233 172/33/233 180/73/233
f 80/103/234 82/72/234 175/72/234 173/103/234
f 78/16/235 88/100/235 181/100/235 171/16/235
f 88/100/236 81/80/236 174/80/236 181/100/236
f 81/80/237 89/102/237 182/102/237 174/80/237
f 89/102/238 90/101/238 183/101/238 182/102/238
f 90/101/239 68/76/239 161/76/239 183/101/239
f 84/19/240 91/18/240 184/18/240 177/19/240
f 91/18/241 92/17/241 185/17/241 184/18/241
f 92/17/242 78/16/242 171/16/242 185/17/242
f 68/76/243 93/75/243 186/75/243 161/76/243
f 93/75/244 83/74/244 176/74/244 186/75/244
usemtl Material.002
f 40/53/21 39/54/21 50/54/21 51/53/21
f 37/56/24 42/57/24 47/57/24 49/56/24
f 41/59/27 40/60/27 51/60/27 52/59/27
f 39/63/30 37/64/30 49/64/30 50/63/30
f 42/66/33 41/67/33 52/67/33 47/66/33
f 52/59/82 51/60/82 56/60/82 57/59/82
f 50/63/83 49/64/83 54/64/83 55/63/83
f 47/66/84 52/67/84 57/67/84 53/66/84
f 51/53/85 50/54/85 55/54/85 56/53/85
f 49/56/86 47/57/86 53/57/86 54/56/86
f 53/66/87 57/67/87 62/67/87 48/66/87
f 56/53/88 55/54/88 60/54/88 61/53/88
f 54/56/89 53/57/89 48/57/89 59/56/89
f 57/59/90 56/60/90 61/60/90 62/59/90
f 55/63/91 54/64/91 59/64/91 60/63/91
f 48/66/92 62/67/92 58/83/92
f 62/59/93 61/60/93 58/84/93
f 61/53/94 60/54/94 58/85/94
f 60/63/95 59/64/95 58/86/95
f 59/56/96 48/57/96 58/87/96
usemtl Material.003
f 94/1/105 105/3/105 106/2/105
f 95/4/106 108/6/106 106/5/106
f 94/7/107 110/9/107 105/8/107
f 94/10/108 112/12/108 110/11/108
f 94/13/109 109/15/109 112/14/109
f 95/4/110 177/19/110 184/18/110 185/17/110 171/16/110 108/6/110
f 96/20/111 117/22/111 107/21/111
f 97/23/112 119/25/112 111/24/112
f 98/26/113 121/28/113 113/27/113
f 99/29/114 123/31/114 114/30/114
f 95/4/115 172/33/115 178/32/115 177/19/115
f 96/20/116 120/34/116 117/22/116
f 97/23/117 122/35/117 119/25/117
f 98/26/118 124/36/118 121/28/118
f 99/29/119 159/37/119 123/31/119
f 100/38/120 139/40/120 157/39/120
f 101/41/121 138/43/121 126/42/121
f 102/44/122 137/46/122 127/45/122
f 103/47/123 136/49/123 128/48/123
f 160/50/124 131/52/124 129/51/124
f 133/53/125 144/53/125 143/54/125 132/54/125
f 131/52/126 136/55/126 129/51/126
f 129/51/127 136/55/127 103/47/127
f 130/56/128 142/56/128 140/57/128 135/57/128
f 136/49/129 137/58/129 128/48/129
f 128/48/130 137/58/130 102/44/130
f 134/59/131 145/59/131 144/60/131 133/60/131
f 137/46/132 138/61/132 127/45/132
f 127/45/133 138/61/133 101/62/133
f 132/63/134 143/63/134 142/64/134 130/64/134
f 138/43/135 139/65/135 126/42/135
f 126/42/136 139/65/136 100/38/136
f 135/66/137 140/66/137 145/67/137 134/67/137
f 139/40/138 131/68/138 157/39/138
f 157/39/139 131/68/139 160/50/139
f 159/37/140 160/50/140 129/51/140
f 159/37/141 129/51/141 123/31/141
f 123/31/142 129/51/142 103/47/142
f 124/36/143 103/47/143 128/48/143
f 124/36/144 128/48/144 121/28/144
f 121/28/145 128/48/145 102/44/145
f 122/35/146 102/44/146 127/45/146
f 122/35/147 127/45/147 119/25/147
f 119/25/148 127/45/148 101/62/148
f 120/34/149 101/41/149 126/42/149
f 120/34/150 126/42/150 117/22/150
f 117/22/151 126/42/151 100/38/151
f 156/69/152 100/38/152 157/39/152
f 123/31/153 103/47/153 124/36/153
f 123/31/154 124/36/154 114/30/154
f 114/30/155 124/36/155 98/26/155
f 121/28/156 102/44/156 122/35/156
f 121/28/157 122/35/157 113/27/157
f 113/27/158 122/35/158 97/23/158
f 119/25/159 101/62/159 120/70/159
f 119/25/160 120/70/160 111/24/160
f 111/24/161 120/70/161 96/71/161
f 117/22/162 100/38/162 156/69/162
f 117/22/163 156/69/163 175/72/163 107/21/163
f 107/21/164 175/72/164 180/73/164 172/33/164 95/4/164
f 176/74/165 164/79/165 170/78/165 165/77/165 161/76/165 186/75/165
f 108/6/166 174/80/166 159/37/166 99/29/166
f 109/15/167 99/29/167 114/30/167
f 109/15/168 114/30/168 112/14/168
f 112/14/169 114/30/169 98/26/169
f 112/12/170 98/26/170 113/27/170
f 112/12/171 113/27/171 110/11/171
f 110/11/172 113/27/172 97/23/172
f 110/9/173 97/23/173 111/24/173
f 110/9/174 111/24/174 105/8/174
f 105/8/175 111/24/175 96/71/175
f 108/6/176 99/29/176 109/81/176
f 108/6/177 109/81/177 106/5/177
f 106/5/178 109/81/178 94/82/178
f 105/3/179 96/20/179 107/21/179
f 105/3/180 107/21/180 106/2/180
f 106/2/181 107/21/181 95/4/181
f 134/67/182 136/55/182 131/52/182 135/66/182
f 133/60/183 137/58/183 136/49/183 134/59/183
f 132/54/184 138/61/184 137/46/184 133/53/184
f 130/64/185 139/65/185 138/43/185 132/63/185
f 135/57/186 131/68/186 139/40/186 130/56/186
f 145/59/187 150/59/187 149/60/187 144/60/187
f 143/63/188 148/63/188 147/64/188 142/64/188
f 140/66/189 146/66/189 150/67/189 145/67/189
f 144/53/190 149/53/190 148/54/190 143/54/190
f 142/56/191 147/56/191 146/57/191 140/57/191
f 146/66/192 141/66/192 155/67/192 150/67/192
f 149/53/193 154/53/193 153/54/193 148/54/193
f 147/56/194 152/56/194 141/57/194 146/57/194
f 150/59/195 155/59/195 154/60/195 149/60/195
f 148/63/196 153/63/196 152/64/196 147/64/196
f 141/66/197 151/83/197 155/67/197
f 155/59/198 151/84/198 154/60/198
f 154/53/199 151/85/199 153/54/199
f 153/63/200 151/86/200 152/64/200
f 152/56/201 151/87/201 141/57/201
f 118/88/202 156/69/202 157/39/202 125/89/202
f 115/90/203 169/92/203 168/91/203 156/69/203 118/88/203
f 125/89/204 157/39/204 162/93/204 169/92/204 115/90/204
f 104/94/205 160/50/205 159/37/205 116/95/205
f 158/96/206 167/98/206 166/97/206 160/50/206 104/94/206
f 116/95/207 159/37/207 163/99/207 167/98/207 158/96/207
f 174/80/208 108/6/208 171/16/208 181/100/208
f 162/93/209 157/39/209 160/50/209 166/97/209
f 163/99/210 159/37/210 174/80/210 182/102/210 183/101/210 161/76/210 165/77/210
f 173/103/211 175/72/211 156/69/211
f 173/103/212 156/69/212 168/91/212 164/79/212 176/74/212 179/104/212
