# Blender 4.2.3 LTS
# www.blender.org
mtllib rocks2.mtl
o Sphere
v 0.415664 -0.032076 -1.813090
v 0.163890 -0.170503 -1.197223
v -0.039868 1.191008 -0.968148
v 0.085125 0.514429 -1.405533
v 0.473332 0.085905 -1.468119
v 0.482193 -0.042831 -1.273563
v 0.378540 -0.071288 -1.260812
v 0.576337 -0.253410 -0.636140
v 0.163042 -0.178638 -0.647529
v -0.056707 1.461877 -0.603052
v 0.261238 -0.021435 -1.414433
v 0.676233 -0.099244 -0.812119
v 0.349553 1.313926 -0.806978
v 0.446177 -0.119769 -1.064327
v 0.743048 0.102020 -0.643074
v 1.013328 -0.317384 -0.409377
v 0.299272 1.501238 -0.690387
v 0.320011 0.713122 -1.085123
v 0.884429 0.262460 -0.618711
v 1.158604 -0.026538 -0.541715
v 0.923342 0.414105 -0.580253
v 1.124647 0.271331 -0.629162
v 0.785942 -0.312217 -0.368999
v 0.005844 1.630895 -0.316531
v 0.202100 1.652070 -0.403305
v 0.302118 1.604643 -0.554249
v 0.840768 0.763910 -0.426568
v 1.270055 -0.010402 -0.546607
v 1.167894 -0.229424 -0.436376
v 0.573489 1.297169 -0.440026
v 1.268996 0.179952 -0.669585
v 0.402680 1.494851 -0.271543
v 1.275573 0.058940 -0.347178
v 1.197021 -0.033443 -0.080871
v 0.912698 -0.146335 0.198908
v 0.221098 -0.006115 -0.186995
v 1.064189 0.572883 -0.185064
v 0.982777 -0.042363 0.860246
v 0.654501 1.231192 -0.133482
v 0.808653 0.880746 0.087281
v 0.923570 -0.149422 0.681322
v 0.698312 -0.137892 0.157619
v 0.218112 1.624035 -0.227445
v 0.751823 0.304909 0.679609
v 0.576344 0.113915 1.067719
v 0.226983 1.376679 -0.032013
v 0.346420 1.056232 0.295020
v 0.835159 0.043343 0.991897
v 0.607118 -0.088776 0.800357
v 0.229492 0.613442 0.715991
v 0.113238 0.053639 0.016978
v -0.238376 1.087107 0.523588
v -0.218504 0.385815 1.108638
v 0.485634 -0.090529 0.449151
v -0.228107 -0.014166 1.241459
v 0.015854 -0.121109 1.074792
v -0.634512 0.923808 0.712374
v -0.467140 0.310901 1.124704
v -0.005807 1.571525 -0.074651
v -0.056911 1.363815 0.079364
v -0.988115 -0.051273 0.968056
v -0.411184 0.149905 1.123824
v -0.259144 0.033520 0.980556
v -0.007936 -0.097602 0.598198
v -0.843130 0.885673 0.558517
v -1.314712 -0.164728 0.719790
v -1.102086 -0.207843 0.797359
v -0.392776 0.021842 0.787737
v -0.619242 1.171081 0.323281
v -1.288311 -0.213965 0.454888
v -1.068751 -0.245114 0.576587
v -0.252363 -0.036085 0.434050
v -1.196812 0.755766 0.132669
v -1.382303 0.247762 0.080304
v -1.402791 -0.044339 0.083020
v -1.001235 -0.194740 0.302338
v -0.507290 1.344898 -0.029708
v -1.286648 -0.182344 0.081654
v -1.400516 0.702152 -0.139585
v -1.566004 0.356364 -0.242667
v -1.617633 -0.044315 -0.281531
v -1.522988 -0.269759 -0.334858
v -0.146458 1.605407 -0.190052
v -1.108993 1.050203 -0.087223
v -1.493497 -0.270104 -0.626748
v -0.672018 -0.149932 0.180317
v -1.283131 0.791672 -0.337061
v -1.213103 -0.220981 -0.704877
v -1.206486 -0.294110 -0.255844
v -0.238735 0.052360 -0.077380
v -0.554825 1.428139 -0.314392
v -1.105870 -0.005294 -0.980775
v -1.023652 -0.140426 -0.986677
v -0.871128 1.086961 -0.554375
v -0.979118 0.026373 -1.168024
v -0.903609 -0.247397 -0.784490
v -0.572690 1.407744 -0.542614
v -0.596170 1.248377 -0.840137
v -0.756497 -0.298100 -1.538906
v -0.467304 -0.360808 -1.248926
v -0.699813 -0.194247 -0.404612
v -0.766151 0.962093 -1.048371
v -0.716652 0.691955 -1.248898
v -0.735521 -0.130880 -1.745021
v -0.166614 0.055864 -0.208133
v -0.417239 1.309661 -0.810630
v -0.574116 0.771012 -1.417196
v -0.375910 0.490529 -1.653057
v -0.570185 -0.355709 -1.530943
v -0.078492 -0.224399 -0.981217
v -0.434924 0.165231 -1.967074
v -0.523925 -0.016934 -1.969689
v -0.528468 -0.245191 -1.773031
v -0.251231 -0.172233 -0.709628
v 0.008725 0.548880 -1.688305
v 0.098043 0.119149 -1.971373
v 0.121802 -0.039538 -1.944172
v -0.252047 0.846388 -1.430008
v 0.453566 0.152175 -1.795699
vn 0.8104 0.2576 0.5261
vn -0.4002 0.8932 0.2049
vn 0.3039 -0.8845 -0.3541
vn 0.6841 0.2785 -0.6742
vn -0.1754 -0.9814 -0.0784
vn -0.3265 0.8509 0.4115
vn -0.3691 0.8911 0.2641
vn -0.2292 0.7766 -0.5868
vn -0.2863 0.8513 -0.4397
vn 0.3522 0.5306 -0.7710
vn 0.4950 -0.3824 -0.7802
vn 0.8914 0.1241 -0.4360
vn 0.6736 0.0837 -0.7343
vn 0.2226 -0.0483 -0.9737
vn 0.7546 0.5149 -0.4068
vn -0.0532 0.3324 -0.9416
vn -0.1652 -0.9666 0.1958
vn 0.0352 -0.9470 0.3193
vn 0.5640 0.8175 0.1169
vn 0.6169 -0.7095 0.3406
vn 0.8088 0.3944 -0.4363
vn 0.7505 0.6315 -0.1948
vn -0.0355 0.9864 0.1605
vn 0.3570 -0.9340 -0.0140
vn 0.7349 0.6764 -0.0486
vn 0.9309 0.3477 0.1115
vn 0.8366 0.5037 0.2155
vn 0.9209 0.3004 0.2485
vn -0.0309 -0.8532 0.5207
vn 0.8463 0.3391 0.4108
vn 0.3807 0.6875 0.6184
vn 0.3649 0.7594 0.5387
vn 0.5321 0.5366 0.6550
vn 0.0395 -0.8439 0.5350
vn 0.2339 -0.1706 0.9572
vn -0.0672 0.9697 0.2348
vn 0.3912 0.5778 0.7164
vn 0.2055 -0.6589 0.7236
vn 0.2907 0.5227 0.8014
vn 0.2186 -0.9053 0.3642
vn 0.3223 0.6118 0.7224
vn 0.1537 0.3081 0.9389
vn -0.0006 -0.9988 -0.0492
vn -0.1069 0.5347 0.8382
vn -0.1238 0.8642 0.4877
vn -0.6658 -0.2353 0.7081
vn -0.5905 0.3982 0.7020
vn -0.2317 -0.0858 0.9690
vn -0.4754 0.7508 0.4585
vn 0.0659 -0.7391 0.6704
vn -0.2099 0.6151 0.7600
vn -0.6393 0.3889 0.6633
vn 0.0489 -0.9844 -0.1689
vn 0.0094 -0.9997 -0.0216
vn 0.3041 -0.9307 0.2031
vn -0.5254 0.7474 0.4067
vn -0.7641 -0.6425 -0.0578
vn 0.0369 0.9701 0.2399
vn -0.7218 0.5393 0.4338
vn -0.1430 -0.9492 0.2804
vn -0.4575 0.8300 0.3191
vn -0.8926 0.1560 -0.4230
vn -0.0751 -0.9972 -0.0064
vn -0.7467 0.6480 -0.1501
vn -0.5712 0.8203 -0.0286
vn -0.0373 -0.7802 -0.6244
vn 0.1265 -0.9788 -0.1613
vn -0.7026 -0.4018 -0.5872
vn -0.3397 0.9388 -0.0573
vn -0.1242 -0.9796 -0.1577
vn -0.6638 0.6322 -0.3995
vn -0.7998 0.3595 -0.4806
vn -0.8649 0.2523 -0.4339
vn -0.2957 -0.9553 0.0065
vn 0.1728 -0.9562 0.2362
vn -0.4500 -0.6705 -0.5898
vn -0.4385 0.6842 -0.5828
vn -0.3554 0.6817 -0.6394
vn 0.0039 0.8032 -0.5957
vn 0.1882 -0.9053 -0.3809
vn -0.1615 0.7691 -0.6184
vn -0.0398 -0.9857 0.1640
vn 0.0413 0.5556 -0.8304
vn 0.6101 0.7518 -0.2500
vn 0.3221 0.5666 -0.7584
vn -0.1663 -0.9163 0.3642
vn 0.0538 -0.9814 -0.1845
vn 0.7015 0.7126 0.0008
vn 0.0534 0.7275 -0.6840
vn 0.2585 -0.9646 -0.0511
vn 0.2361 -0.7579 -0.6081
vn 0.4724 0.4228 -0.7734
vn 0.7045 0.2426 -0.6669
vn -0.3490 -0.8623 0.3670
vn 0.7569 0.5604 0.3363
vn 0.2340 -0.9483 -0.2143
vn -0.2314 0.7770 -0.5854
vn 0.5088 -0.7697 -0.3855
vn 0.6868 0.3201 -0.6525
vn -0.2766 0.8491 -0.4501
vn 0.7859 0.4123 -0.4608
vn -0.0533 -0.9832 -0.1746
vn 0.9817 -0.1541 -0.1114
vn 0.7503 -0.6313 -0.1963
vn 0.0276 -0.4596 -0.8877
vn 0.7325 0.3150 -0.6035
vn 0.5245 0.0804 -0.8476
vn -0.1595 -0.4567 -0.8752
vn 0.0304 0.3951 -0.9181
vn 0.9775 -0.2064 0.0447
vn -0.4071 -0.8852 0.2253
vn 0.7518 0.6593 -0.0114
vn 0.5106 -0.8020 0.3100
vn -0.0873 -0.9627 0.2563
vn -0.3119 -0.9501 0.0036
vn 0.9218 -0.3664 0.1264
vn 0.7269 -0.6680 0.1592
vn 0.5839 0.8083 0.0757
vn 0.8403 0.5314 -0.1077
vn -0.0383 -0.9993 -0.0055
vn 0.6433 0.6436 0.4147
vn 0.9575 -0.1910 0.2162
vn 0.4476 0.6680 0.5945
vn -0.1604 -0.9856 0.0526
vn 0.2524 0.7552 0.6050
vn 0.5064 0.5935 0.6255
vn 0.3580 0.5867 0.7263
vn 0.4528 0.7017 0.5501
vn -0.4766 -0.8777 -0.0493
vn 0.0491 -0.9987 -0.0120
vn 0.3166 0.6083 0.7278
vn -0.0660 -0.9622 -0.2641
vn 0.2653 0.6714 0.6919
vn 0.1000 0.6391 0.7626
vn -0.0338 0.3157 0.9483
vn -0.2400 -0.9634 0.1197
vn -0.0576 0.8436 0.5339
vn -0.0649 -0.9623 -0.2640
vn -0.6433 -0.7630 -0.0629
vn -0.5007 0.3849 0.7753
vn 0.3026 -0.9408 -0.1527
vn -0.1356 0.9052 0.4027
vn -0.0631 -0.7141 0.6971
vn -0.6210 -0.7794 0.0830
vn -0.9081 0.3016 0.2905
vn -0.9862 0.0706 0.1498
vn -0.7498 0.4495 0.4856
vn -0.2105 -0.9687 0.1318
vn 0.2822 -0.9226 0.2631
vn 0.2111 -0.9772 -0.0233
vn -0.2920 0.7610 0.5793
vn -0.0003 -0.9921 -0.1257
vn -0.4438 0.8517 0.2787
vn 0.3429 -0.9271 -0.1512
vn -0.8054 0.2317 0.5456
vn -0.8591 0.0629 0.5079
vn -0.7279 -0.4938 0.4757
vn -0.7308 0.3106 -0.6078
vn 0.0768 -0.9850 -0.1546
vn -0.0004 -0.9493 0.3143
vn -0.4413 0.8388 0.3189
vn 0.4452 -0.8942 0.0466
vn -0.9257 -0.3666 -0.0931
vn -0.8321 0.4807 -0.2767
vn -0.6746 0.6949 -0.2489
vn 0.2110 -0.9754 0.0639
vn 0.3062 -0.8989 0.3133
vn -0.3328 0.9180 -0.2158
vn -0.1747 -0.9094 -0.3774
vn 0.2015 -0.9791 0.0289
vn -0.6340 0.3956 -0.6644
vn -0.8746 -0.2303 -0.4266
vn -0.6975 0.6486 -0.3047
vn -0.6018 -0.7961 -0.0639
vn -0.9113 -0.2694 -0.3113
vn -0.1756 0.8873 -0.4265
vn -0.1969 -0.9789 0.0541
vn -0.0694 -0.9822 0.1746
vn -0.7855 0.1267 -0.6057
vn -0.9336 0.2458 -0.2605
vn 0.2826 -0.8926 0.3512
vn -0.4984 0.4560 -0.7373
vn -0.0818 0.8661 -0.4931
vn -0.2485 -0.8643 -0.4374
vn -0.2231 0.8665 -0.4465
vn -0.4183 -0.5881 -0.6922
vn -0.7558 0.3544 -0.5506
vn -0.1618 0.5639 -0.8098
vn -0.2008 0.7511 -0.6290
vn 0.2877 -0.9520 -0.1045
vn -0.1698 0.7002 -0.6935
vn 0.0136 -0.0745 -0.9971
vn 0.2819 -0.9563 0.0778
vn 0.0071 -0.6528 -0.7575
vn 0.1893 -0.9085 -0.3726
vn 0.0020 0.8010 -0.5986
vn -0.0774 -0.9025 0.4236
vn 0.4289 -0.0435 -0.9023
vn -0.1788 -0.9490 0.2596
vn 0.4102 -0.9112 -0.0371
vt 0.750000 0.569886
vt 0.718750 0.687500
vt 0.703008 0.625000
vt 0.718750 0.562500
vt 0.779127 0.312500
vt 0.746595 0.375000
vt 0.709121 0.301178
vt 0.664033 0.750000
vt 0.676667 0.687500
vt 0.634162 0.236714
vt 0.762688 0.178878
vt 0.686081 0.565338
vt 0.718750 0.466984
vt 0.687500 0.477314
vt 0.782041 0.937500
vt 0.627725 0.875000
vt 0.755262 0.825415
vt 0.671875 1.000000
vt 0.584965 0.937500
vt 0.656250 0.551901
vt 0.629124 0.454428
vt 0.616554 0.378702
vt 0.625000 0.599163
vt 0.659609 0.812500
vt 0.566716 0.812500
vt 0.593750 0.625000
vt 0.570385 0.609229
vt 0.578125 0.000000
vt 0.613203 0.091909
vt 0.405581 0.075088
vt 0.632578 0.312500
vt 0.505725 0.237396
vt 0.496604 0.875000
vt 0.535097 0.546559
vt 0.519265 0.335255
vt 0.575110 0.747007
vt 0.507423 0.743660
vt 0.515625 1.000000
vt 0.460728 0.937500
vt 0.464439 0.386507
vt 0.471712 0.812500
vt 0.521376 0.644937
vt 0.441743 0.750000
vt 0.469522 0.535538
vt 0.434310 0.558581
vt 0.431909 0.687500
vt 0.392989 0.860792
vt 0.400428 0.562442
vt 0.394399 0.348235
vt 0.281286 0.518900
vt 0.390625 1.000000
vt 0.245824 0.937500
vt 0.381444 0.750000
vt 0.374048 0.687500
vt 0.284155 0.410392
vt 0.287489 0.876037
vt 0.318681 0.750000
vt 0.312500 0.637542
vt 0.259662 0.253046
vt 0.390799 0.230589
vt 0.259588 0.740701
vt 0.268476 0.625000
vt 0.242384 0.547267
vt 0.210752 0.750000
vt 0.218750 0.616225
vt 0.200805 0.812500
vt 0.187500 0.514620
vt 0.226999 0.433117
vt 0.123996 0.861603
vt 0.187500 0.592619
vt 0.185146 0.205396
vt 0.057827 0.066603
vt 0.203125 0.000000
vt 0.156250 0.438522
vt 0.187500 0.375000
vt 0.074045 0.750000
vt 0.133901 0.562500
vt 0.109589 0.457652
vt 0.156250 0.500000
vt 0.140625 1.000000
vt 0.090221 0.937500
vt 0.128321 0.687500
vt 0.072294 0.687500
vt 0.067975 0.500000
vt 0.049962 0.401319
vt 0.011327 0.871402
vt 0.077325 0.562500
vt 0.066955 0.625000
vt 0.031250 0.504839
vt 0.021677 0.685394
vt 0.000000 0.750000
vt 0.000000 0.500920
vt 0.000000 0.431619
vt 1.000000 0.431619
vt 0.970977 0.500920
vt 0.968750 0.437500
vt 0.955412 0.992079
vt 0.932032 0.791040
vt 0.979201 0.829804
vt 0.968851 0.352221
vt 1.000000 0.286540
vt 0.943157 0.670837
vt 1.000000 0.680626
vt 0.937500 0.515641
vt 0.887733 0.671358
vt 0.885344 0.500000
vt 0.911608 0.437500
vt 0.887235 0.375000
vt 0.881391 0.312500
vt 0.818393 0.250000
vt 0.975593 0.212790
vt 0.866898 0.437500
vt 0.888778 0.750000
vt 0.843750 0.687500
vt 0.875000 0.634270
vt 0.843750 0.625000
vt 0.832026 0.562500
vt 0.860577 0.819457
vt 0.750604 0.498539
vt 0.795676 0.698113
vt 0.852928 0.178845
vt 0.796821 0.625000
vt 0.781250 0.562500
vt 0.825338 0.040410
vt 0.583354 0.494450
vt 0.593750 0.687500
vt 0.133563 0.625000
vt 0.095441 0.261258
vt 0.125000 0.391077
vt 0.008441 0.187500
vt 0.986431 0.066829
vt 0.014031 0.993625
vt 0.839305 0.500000
vt 0.781250 0.477950
s 0
usemtl Material.001
f 119/1/1 4/2/1 11/3/1
f 119/1/2 11/3/2 5/4/2
f 2/5/3 7/6/3 8/7/3
f 13/8/4 18/9/4 4/2/4
f 8/7/5 23/10/5 9/11/5
f 5/4/6 11/3/6 14/12/6
f 6/13/7 14/12/7 12/14/7
f 10/15/8 26/16/8 3/17/8
f 10/15/9 24/18/9 25/19/9
f 12/14/10 15/20/10 20/21/10
f 12/14/11 20/21/11 29/22/11
f 18/9/12 14/12/12 11/3/12
f 14/12/13 18/9/13 19/23/13
f 15/20/14 19/23/14 20/21/14
f 17/24/15 26/16/15 30/25/15
f 19/23/16 22/26/16 31/27/16
f 105/28/17 36/29/17 51/30/17
f 23/10/18 16/31/18 42/32/18
f 26/16/19 25/19/19 32/33/19
f 29/22/20 34/34/20 35/35/20
f 27/36/21 30/25/21 37/37/21
f 27/36/22 37/37/22 31/27/22
f 25/19/23 24/38/23 43/39/23
f 34/34/24 41/40/24 35/35/24
f 30/25/25 32/33/25 39/41/25
f 37/37/26 33/42/26 31/27/26
f 39/41/27 40/43/27 37/37/27
f 33/42/28 37/37/28 38/44/28
f 38/44/29 48/45/29 41/40/29
f 37/37/30 40/43/30 44/46/30
f 32/33/31 46/47/31 39/41/31
f 48/45/32 44/46/32 45/48/32
f 32/33/33 43/39/33 46/47/33
f 48/45/34 49/49/34 41/40/34
f 45/48/35 55/50/35 48/45/35
f 43/39/36 24/51/36 59/52/36
f 47/53/37 50/54/37 44/46/37
f 55/50/38 56/55/38 48/45/38
f 46/47/39 59/52/39 60/56/39
f 48/45/40 56/55/40 49/49/40
f 50/54/41 52/57/41 53/58/41
f 45/48/42 53/58/42 55/50/42
f 56/55/43 64/59/43 54/60/43
f 53/58/44 57/61/44 58/62/44
f 52/57/45 60/56/45 57/61/45
f 58/62/46 62/63/46 55/50/46
f 57/61/47 65/64/47 61/65/47
f 58/62/48 61/65/48 62/63/48
f 57/61/49 69/66/49 65/64/49
f 62/63/50 67/67/50 63/68/50
f 60/56/51 59/52/51 77/69/51
f 61/65/52 65/64/52 66/70/52
f 51/30/53 72/71/53 90/72/53
f 105/73/54 51/30/54 90/72/54
f 67/67/55 71/74/55 68/75/55
f 69/66/56 84/76/56 65/64/56
f 75/77/57 78/78/57 70/79/57
f 59/52/58 24/80/58 83/81/58
f 73/82/59 84/76/59 79/83/59
f 82/84/60 89/85/60 78/78/60
f 83/81/61 91/86/61 77/69/61
f 81/87/62 80/88/62 85/89/62
f 82/84/63 85/89/63 89/85/63
f 84/76/64 87/90/64 79/83/64
f 91/86/65 97/91/65 84/76/65
f 85/89/66 92/92/66 88/93/66
f 85/89/67 88/93/67 89/85/67
f 88/94/68 92/95/68 93/96/68
f 24/97/69 97/98/69 91/99/69
f 88/94/70 96/100/70 89/101/70
f 97/98/71 94/102/71 87/103/71
f 94/102/72 95/104/72 92/95/72
f 95/104/73 102/105/73 104/106/73
f 99/107/74 109/108/74 96/100/74
f 100/109/75 110/110/75 101/111/75
f 99/107/76 104/106/76 113/112/76
f 102/105/77 98/113/77 107/114/77
f 103/115/78 108/116/78 111/117/78
f 106/118/79 10/15/79 3/17/79
f 109/108/80 113/112/80 1/119/80
f 98/113/81 106/118/81 118/120/81
f 110/110/82 9/11/82 114/121/82
f 115/122/83 116/123/83 111/117/83
f 115/122/84 118/120/84 119/1/84
f 115/122/85 119/1/85 116/123/85
f 9/11/86 36/29/86 105/124/86
f 110/110/87 2/5/87 8/7/87
f 119/1/88 118/120/88 4/2/88
f 13/8/89 118/120/89 3/17/89 17/24/89
f 7/6/90 1/119/90 6/13/90
f 16/31/91 8/7/91 12/14/91 29/22/91
f 118/120/92 13/8/92 4/2/92
f 4/2/93 18/9/93 11/3/93
f 9/11/94 23/10/94 36/29/94
f 6/13/95 5/4/95 14/12/95
f 7/6/96 6/13/96 12/14/96
f 3/17/97 26/16/97 17/24/97
f 8/7/98 7/6/98 12/14/98
f 12/14/99 14/12/99 15/20/99
f 10/15/100 25/19/100 26/16/100
f 30/25/101 27/36/101 13/8/101 17/24/101
f 8/7/102 16/31/102 23/10/102
f 5/4/103 6/13/103 1/119/103 119/1/103
f 15/20/104 14/12/104 19/23/104
f 29/22/105 20/21/105 28/125/105
f 27/36/106 21/126/106 18/9/106 13/8/106
f 21/126/107 22/26/107 19/23/107 18/9/107
f 31/27/108 28/125/108 20/21/108 19/23/108
f 27/36/109 31/27/109 22/26/109 21/126/109
f 33/42/110 34/34/110 28/125/110 31/27/110
f 36/29/111 23/10/111 42/32/111
f 30/25/112 26/16/112 32/33/112
f 16/31/113 29/22/113 35/35/113
f 42/32/114 16/31/114 35/35/114
f 51/30/115 36/29/115 42/32/115 54/60/115
f 29/22/116 28/125/116 34/34/116
f 34/34/117 38/44/117 41/40/117
f 32/33/118 25/19/118 43/39/118
f 37/37/119 30/25/119 39/41/119
f 35/35/120 41/40/120 42/32/120
f 44/46/121 48/45/121 38/44/121 37/37/121
f 34/34/122 33/42/122 38/44/122
f 47/53/123 40/43/123 39/41/123 46/47/123
f 54/60/124 42/32/124 41/40/124 49/49/124
f 60/56/125 52/57/125 47/53/125 46/47/125
f 40/43/126 47/53/126 44/46/126
f 46/47/127 43/39/127 59/52/127
f 44/46/128 50/54/128 45/48/128
f 64/59/129 56/55/129 55/50/129 63/68/129
f 49/49/130 56/55/130 54/60/130
f 50/54/131 47/53/131 52/57/131
f 51/30/132 54/60/132 64/59/132
f 45/48/133 50/54/133 53/58/133
f 53/58/134 52/57/134 57/61/134
f 53/58/135 58/62/135 55/50/135
f 72/71/136 64/59/136 63/68/136 68/75/136
f 57/61/137 60/56/137 69/66/137
f 51/30/138 64/59/138 72/71/138
f 55/50/139 62/63/139 63/68/139
f 58/62/140 57/61/140 61/65/140
f 63/68/141 67/67/141 68/75/141
f 69/66/142 60/56/142 77/69/142
f 67/67/143 62/63/143 61/65/143 66/70/143
f 70/79/144 67/67/144 66/70/144 75/77/144
f 66/70/145 73/82/145 74/127/145
f 66/70/146 74/127/146 75/77/146
f 73/82/147 66/70/147 65/64/147 84/76/147
f 67/67/148 70/79/148 71/74/148
f 68/75/149 71/74/149 72/71/149
f 86/128/150 72/71/150 71/74/150 76/129/150
f 77/69/151 59/52/151 83/81/151
f 76/129/152 71/74/152 70/79/152 78/78/152
f 69/66/153 77/69/153 84/76/153
f 72/71/154 86/128/154 90/72/154
f 79/83/155 80/88/155 74/127/155 73/82/155
f 81/87/156 75/77/156 74/127/156 80/88/156
f 82/84/157 78/78/157 75/77/157 81/87/157
f 92/92/158 85/89/158 80/88/158 87/90/158
f 76/129/159 78/78/159 86/128/159
f 78/78/160 89/85/160 86/128/160
f 84/76/161 77/69/161 91/86/161
f 86/128/162 101/130/162 90/72/162
f 82/84/163 81/87/163 85/89/163
f 79/83/164 87/90/164 80/88/164
f 84/76/165 97/91/165 87/90/165
f 86/128/166 89/85/166 101/130/166
f 105/124/167 90/131/167 101/111/167 114/121/167
f 83/81/168 24/132/168 91/86/168
f 88/94/169 93/96/169 96/100/169
f 89/101/170 96/100/170 101/111/170
f 87/103/171 94/102/171 92/95/171
f 95/104/172 99/107/172 93/96/172 92/95/172
f 98/113/173 102/105/173 94/102/173 97/98/173
f 93/96/174 99/107/174 96/100/174
f 99/107/175 95/104/175 104/106/175
f 24/97/176 106/118/176 97/98/176
f 96/100/177 109/108/177 100/109/177
f 96/100/178 100/109/178 101/111/178
f 107/114/179 108/116/179 103/115/179 102/105/179
f 95/104/180 94/102/180 102/105/180
f 101/111/181 110/110/181 114/121/181
f 104/106/182 102/105/182 103/115/182
f 106/118/183 24/97/183 10/15/183
f 99/107/184 113/112/184 109/108/184
f 98/113/185 97/98/185 106/118/185
f 104/106/186 112/133/186 113/112/186
f 111/117/187 112/133/187 104/106/187 103/115/187
f 118/120/188 115/122/188 108/116/188 107/114/188
f 107/114/189 98/113/189 118/120/189
f 1/119/190 2/5/190 100/109/190 109/108/190
f 108/116/191 115/122/191 111/117/191
f 117/134/192 112/133/192 111/117/192 116/123/192
f 110/110/193 100/109/193 2/5/193
f 113/112/194 112/133/194 117/134/194
f 1/119/195 113/112/195 117/134/195
f 106/118/196 3/17/196 118/120/196
f 114/121/197 9/11/197 105/124/197
f 1/119/198 117/134/198 116/123/198 119/1/198
f 9/11/199 110/110/199 8/7/199
f 2/5/200 1/119/200 7/6/200
